<?xml version="1.0" encoding="UTF-8" standalone="no"?>
<!-- Created with Inkscape (http://www.inkscape.org/) -->

<svg
   xmlns:dc="http://purl.org/dc/elements/1.1/"
   xmlns:cc="http://creativecommons.org/ns#"
   xmlns:rdf="http://www.w3.org/1999/02/22-rdf-syntax-ns#"
   xmlns:svg="http://www.w3.org/2000/svg"
   xmlns="http://www.w3.org/2000/svg"
   xmlns:sodipodi="http://sodipodi.sourceforge.net/DTD/sodipodi-0.dtd"
   xmlns:inkscape="http://www.inkscape.org/namespaces/inkscape"
   width="113.46008"
   height="80.567741"
   viewBox="0 0 113.46008 80.567741"
   id="svg71457"
   version="1.1"
   inkscape:version="0.91 r13725"
   sodipodi:docname="camera.svg">
  <defs
     id="defs71459" />
  <sodipodi:namedview
     id="base"
     pagecolor="#ffffff"
     bordercolor="#666666"
     borderopacity="1.0"
     inkscape:pageopacity="0.0"
     inkscape:pageshadow="2"
     inkscape:zoom="0.35"
     inkscape:cx="-162.55569"
     inkscape:cy="460.28389"
     inkscape:document-units="px"
     inkscape:current-layer="layer1"
     showgrid="false"
     inkscape:window-width="1920"
     inkscape:window-height="1017"
     inkscape:window-x="-8"
     inkscape:window-y="-8"
     inkscape:window-maximized="1"
     units="px"
     fit-margin-top="0"
     fit-margin-left="0"
     fit-margin-right="0"
     fit-margin-bottom="0" />
  <metadata
     id="metadata71462">
    <rdf:RDF>
      <cc:Work
         rdf:about="">
        <dc:format>image/svg+xml</dc:format>
        <dc:type
           rdf:resource="http://purl.org/dc/dcmitype/StillImage" />
        <dc:title></dc:title>
      </cc:Work>
    </rdf:RDF>
  </metadata>
  <g
     inkscape:label="Layer 1"
     inkscape:groupmode="layer"
     id="layer1"
     transform="translate(-3.2699761,-912.07831)">
    <path
       inkscape:connector-curvature="0"
       id="path34343-8"
       style="fill:#30617d;fill-opacity:1;fill-rule:nonzero;stroke:none"
       d="m 50.238573,923.18488 c -0.149137,0.54919 0.20101,1.10843 0.781067,1.24963 l 2.581924,0.62845 c 0.580057,0.1412 1.171292,-0.1892 1.320429,-0.7384 l 0.89424,-3.29403 c 0.148554,-0.54808 -0.200426,-1.10955 -0.780483,-1.25075 l -2.581924,-0.62844 c -0.580025,-0.14065 -1.171876,0.19143 -1.321013,0.73951 l -0.89424,3.29403 z" />
    <path
       inkscape:connector-curvature="0"
       id="path34347-6"
       style="fill:#30617d;fill-opacity:1;fill-rule:nonzero;stroke:none"
       d="m 33.916036,921.14294 c -0.27352,1.00685 0.367254,2.03268 1.43127,2.29109 l 10.645409,2.59136 c 1.06285,0.25841 2.147472,-0.34716 2.42041,-1.354 l 1.161281,-4.27633 c 0.272937,-1.00685 -0.367838,-2.0338 -1.430655,-2.29221 l -10.645441,-2.5908 c -1.064016,-0.25897 -2.148055,0.34771 -2.421576,1.35456 l -1.160698,4.27633 z" />
    <path
       inkscape:connector-curvature="0"
       id="path34351-2"
       style="fill:#30617d;fill-opacity:1;fill-rule:nonzero;stroke:none"
       d="m 11.04763,964.74009 c -0.967334,3.56249 1.298042,7.19251 5.060103,8.10783 l 80.280752,19.53872 c 3.762065,0.91532 7.596055,-1.2301 8.563385,-4.79259 l 11.50608,-42.38095 c 0.96675,-3.56138 -1.29924,-7.1914 -5.0613,-8.10728 L 31.115899,917.56767 c -3.762061,-0.91532 -7.595435,1.2301 -8.562186,4.79147 L 11.04763,964.74009 Z" />
    <path
       inkscape:connector-curvature="0"
       id="path34355-3"
       style="fill:#30617d;fill-opacity:1;fill-rule:nonzero;stroke:none"
       d="m 114.30556,953.1406 2.1522,-7.92756 c 1.10941,-3.67913 -1.2892,-7.21427 -5.05187,-8.12959 L 31.115704,917.56761 c -3.85048,-1.04926 -7.535332,1.00965 -8.562186,4.79147 l -2.152202,7.92756 93.904244,22.85396 z" />
    <path
       inkscape:connector-curvature="0"
       id="path34359-1"
       style="fill:#30617d;fill-opacity:1;fill-rule:nonzero;stroke:none"
       d="m 11.695825,962.35256 -0.648421,2.38765 c -0.966752,3.56249 1.298624,7.19195 5.060102,8.10783 l 80.21119,19.57611 c 3.762644,0.91532 7.609594,-1.06043 8.632944,-4.82999 l 0.64842,-2.38764 -93.904235,-22.85396 z" />
    <path
       inkscape:connector-curvature="0"
       id="path34363-6"
       style="fill:#30617d;fill-opacity:1;fill-rule:nonzero;stroke:none"
       d="m 33.258543,974.63626 c -1.562717,5.75535 -6.193098,3.99057 -12.104381,2.55173 l -6.325711,-1.5393 C 8.917136,974.20985 3.828716,974.13283 5.3914328,968.37749 L 16.470742,927.56932 c 1.562685,-5.75647 7.621971,-9.25589 13.533286,-7.81705 l 6.325711,1.5393 c 5.911315,1.43883 9.437569,7.2712 7.874853,13.02767 l -10.946049,40.31702 z" />
    <path
       inkscape:connector-curvature="0"
       id="path34367-7"
       style="fill:#30617d;fill-opacity:1;fill-rule:nonzero;stroke:none"
       d="m 44.773633,934.15135 -28.822651,-7.01447 1.143007,-4.21158 28.823234,7.01503 -1.14359,4.21102 z" />
    <path
       inkscape:connector-curvature="0"
       id="path34371-7"
       style="fill:#30617d;fill-opacity:1;fill-rule:nonzero;stroke:none"
       d="m 57.23004,931.01895 c -0.652569,2.40439 -3.240972,3.85383 -5.781618,3.23544 -2.53948,-0.61785 -4.069181,-3.06967 -3.416645,-5.47406 0.653151,-2.40439 3.241555,-3.85383 5.781618,-3.23543 2.540095,0.61784 4.069213,3.06967 3.416645,5.47405" />
    <path
       inkscape:connector-curvature="0"
       id="path34375-2"
       style="fill:#30617d;fill-opacity:1;fill-rule:nonzero;stroke:none"
       d="m 55.917742,930.6996 c -0.466268,1.71845 -2.316664,2.75265 -4.131064,2.31118 -1.816215,-0.44203 -2.908516,-2.1923 -2.442248,-3.91076 0.466884,-1.71957 2.315499,-2.75433 4.131681,-2.3123 1.814432,0.44148 2.908515,2.1923 2.441631,3.91188" />
    <path
       inkscape:connector-curvature="0"
       id="path34379-4"
       style="fill:#30617d;fill-opacity:1;fill-rule:nonzero;stroke:none"
       d="m 64.248754,942.10369 15.416698,-18.86004 23.669978,5.76037 3.9784,23.58064 -43.065076,-10.48097 z" />
    <path
       inkscape:connector-curvature="0"
       id="path34383-6"
       style="fill:#30617d;fill-opacity:1;fill-rule:nonzero;stroke:none"
       d="m 78.50861,924.6576 1.15655,-1.41428 23.66765,5.76037 0.30122,1.76868" />
    <path
       inkscape:connector-curvature="0"
       id="path34387-1"
       style="fill:#30617d;fill-opacity:1;fill-rule:nonzero;stroke:none"
       d="m 107.29582,967.3823 c -3.58934,13.22133 -17.818806,21.18461 -31.783627,17.78621 -13.965372,-3.39896 -22.373723,-16.87201 -18.784386,-30.09335 3.588786,-13.21911 17.817667,-21.18406 31.783039,-17.7851 13.964794,3.39896 22.373724,16.87313 18.784974,30.09224" />
    <path
       inkscape:connector-curvature="0"
       id="path34391-9"
       style="fill:#30617d;fill-opacity:1;fill-rule:nonzero;stroke:none"
       d="m 88.22375,938.34698 c -13.325796,-3.24325 -26.954597,4.38293 -30.380054,16.99982 -3.426074,12.61913 4.629182,25.52234 17.954978,28.76558 13.326995,3.24324 26.955766,-4.38237 30.381836,-17.0015 3.42546,-12.61689 -4.6298,-25.52066 -17.95676,-28.7639 m -12.998621,47.87733 c -14.556639,-3.5424 -23.354633,-17.63719 -19.612627,-31.42056 3.741455,-13.78225 18.628186,-22.11278 33.184825,-18.56982 14.557223,3.54295 23.355803,17.63775 19.614373,31.42 -3.74203,13.78282 -18.629348,22.11334 -33.186571,18.57038" />
    <path
       inkscape:connector-curvature="0"
       id="path34395-9"
       style="fill:#30617d;fill-opacity:1;fill-rule:nonzero;stroke:none"
       d="m 101.72434,966.02634 c -2.798838,10.30795 -13.892274,16.51705 -24.780002,13.86709 -10.888279,-2.64996 -17.443901,-13.15437 -14.645642,-23.46231 2.79829,-10.30739 13.891726,-16.51593 24.780006,-13.86597 10.887696,2.64996 17.443898,13.1538 14.645638,23.46119" />
    <path
       inkscape:connector-curvature="0"
       id="path34399-9"
       style="fill:#30617d;fill-opacity:1;fill-rule:nonzero;stroke:none"
       d="m 97.104979,964.90212 c -2.142774,7.89295 -10.637763,12.64536 -18.973019,10.61658 -8.335256,-2.02877 -13.356446,-10.07018 -11.213089,-17.96314 2.142158,-7.89127 10.636563,-12.64368 18.97182,-10.61491 8.335256,2.02878 13.356446,10.07019 11.214288,17.96147" />
    <path
       inkscape:connector-curvature="0"
       id="path34403-0"
       style="fill:#30617d;fill-opacity:1;fill-rule:nonzero;stroke:none"
       d="m 93.822891,964.47889 c -1.690632,6.22697 -8.391859,9.97587 -14.967504,8.37573 -6.575061,-1.60013 -10.535767,-7.9443 -8.845751,-14.17126 1.690632,-6.22584 8.39186,-9.97531 14.966921,-8.37517 6.575645,1.60069 10.536383,7.94486 8.846334,14.1707" />
    <path
       inkscape:connector-curvature="0"
       id="path34407-0"
       style="fill:#30617d;fill-opacity:1;fill-rule:evenodd;stroke:none"
       d="m 77.229134,961.0037 c 0.337187,-2.45071 2.708672,-4.17922 5.297659,-3.85997 2.588404,0.31924 4.414047,2.56512 4.07686,5.01584 -0.337187,2.45071 -2.709256,4.17921 -5.297659,3.85996 -2.58902,-0.31924 -4.414047,-2.56512 -4.07686,-5.01583" />
    <path
       inkscape:connector-curvature="0"
       id="path34435-2"
       style="fill:#30617d;fill-opacity:1;fill-rule:nonzero;stroke:none"
       d="m 82.558059,953.10911 c 0,0 -0.201009,0.0592 -0.553521,0.16186 -0.172725,0.0441 -0.379048,0.12613 -0.613073,0.18753 -0.23166,0.086 -0.492189,0.15906 -0.766325,0.26734 -0.277052,0.0943 -0.56943,0.20706 -0.871236,0.33431 -0.307703,0.10883 -0.606593,0.27627 -0.927256,0.40687 -0.298274,0.17692 -0.633096,0.30529 -0.926672,0.50566 -0.152669,0.0915 -0.302972,0.18809 -0.460372,0.27404 l -0.432669,0.31366 c -0.308902,0.1853 -0.551189,0.44426 -0.829991,0.65914 -0.27472,0.22046 -0.488689,0.49115 -0.74277,0.71831 -0.23814,0.23999 -0.425606,0.51012 -0.641941,0.74453 -0.11259,0.11497 -0.206323,0.23776 -0.286481,0.36389 -0.08842,0.12335 -0.173308,0.24279 -0.255247,0.3572 -0.162681,0.23106 -0.351313,0.4331 -0.460372,0.63905 -0.118487,0.20148 -0.239922,0.37506 -0.337187,0.52129 -0.197478,0.29078 -0.331873,0.45877 -0.331873,0.45877 0,0 -0.01652,-0.19981 -0.0058,-0.55254 0.0065,-0.17581 0.01004,-0.39292 0.03655,-0.63961 0.0058,-0.25282 0.08431,-0.51961 0.160348,-0.8182 0.0937,-0.2919 0.146772,-0.63347 0.320663,-0.94937 0.163296,-0.31869 0.310068,-0.67756 0.538779,-1.00573 0.114956,-0.16409 0.239922,-0.3265 0.365472,-0.49226 0.124384,-0.16688 0.249351,-0.33767 0.412064,-0.47999 0.308869,-0.29748 0.614822,-0.61393 0.985608,-0.85504 l 0.545842,-0.37115 c 0.192197,-0.1066 0.390258,-0.20204 0.583006,-0.30139 0.190998,-0.10437 0.387893,-0.19032 0.591268,-0.25673 0.199227,-0.0731 0.396122,-0.14511 0.591818,-0.20818 0.400853,-0.0971 0.78165,-0.20595 1.155967,-0.24334 0.185685,-0.0206 0.365505,-0.0413 0.539979,-0.0614 0.175057,-0.004 0.34425,-0.009 0.506962,-0.0134 0.32183,-0.0128 0.621303,0.0307 0.879498,0.0497 0.259946,0.0329 0.483376,0.0703 0.666112,0.11609 0.365472,0.0804 0.56295,0.16911 0.56295,0.16911" />
    <path
       inkscape:connector-curvature="0"
       id="path34343"
       style="fill:#2b2b2b;fill-opacity:1;fill-rule:nonzero;stroke:none"
       d="m 48.402757,919.81091 c -0.149137,0.54919 0.201009,1.10843 0.781067,1.24963 l 2.581923,0.62844 c 0.580057,0.14121 1.171293,-0.1892 1.32043,-0.73839 l 0.89424,-3.29403 c 0.148554,-0.54808 -0.200427,-1.10955 -0.780484,-1.25075 l -2.581923,-0.62845 c -0.580025,-0.14064 -1.171876,0.19144 -1.321013,0.73951 l -0.89424,3.29404 z" />
    <path
       inkscape:connector-curvature="0"
       id="path34347"
       style="fill:#2b2b2b;fill-opacity:1;fill-rule:nonzero;stroke:none"
       d="m 32.08022,917.76897 c -0.273521,1.00685 0.367254,2.03268 1.43127,2.29109 l 10.645409,2.59135 c 1.062849,0.25841 2.147472,-0.34715 2.420409,-1.354 l 1.161281,-4.27633 c 0.272938,-1.00685 -0.367837,-2.03379 -1.430654,-2.2922 l -10.645441,-2.5908 c -1.064016,-0.25897 -2.148056,0.34771 -2.421576,1.35456 l -1.160698,4.27633 z" />
    <path
       inkscape:connector-curvature="0"
       id="path34351"
       style="fill:#666366;fill-opacity:1;fill-rule:nonzero;stroke:none"
       d="m 9.211814,961.36612 c -0.9673344,3.56249 1.298041,7.19251 5.060102,8.10783 l 80.280753,19.53872 c 3.762061,0.91532 7.596051,-1.23011 8.563381,-4.79259 l 11.50609,-42.38096 c 0.96675,-3.56137 -1.29924,-7.19139 -5.06131,-8.10727 L 29.280082,914.19369 c -3.762061,-0.91532 -7.595434,1.2301 -8.562186,4.79148 L 9.211814,961.36612 Z" />
    <path
       inkscape:connector-curvature="0"
       id="path34355"
       style="fill:#3c3c3a;fill-opacity:1;fill-rule:nonzero;stroke:none"
       d="m 112.46974,949.76663 2.1522,-7.92756 c 1.10941,-3.67914 -1.28919,-7.21428 -5.05187,-8.1296 L 29.279888,914.19364 c -3.850481,-1.04927 -7.535333,1.00964 -8.562186,4.79147 l -2.152202,7.92756 93.90424,22.85396 z" />
    <path
       inkscape:connector-curvature="0"
       id="path34359"
       style="fill:#3c3c3a;fill-opacity:1;fill-rule:nonzero;stroke:none"
       d="m 9.8600084,958.97859 -0.6484212,2.38764 c -0.9667512,3.56249 1.2986248,7.19196 5.0601028,8.10783 l 80.211189,19.57611 c 3.762645,0.91532 7.609591,-1.06043 8.632951,-4.82998 l 0.64842,-2.38764 -93.9042416,-22.85396 z" />
    <path
       inkscape:connector-curvature="0"
       id="path34363"
       style="fill:#2b2b2b;fill-opacity:1;fill-rule:nonzero;stroke:none"
       d="m 31.422727,971.26228 c -1.562717,5.75535 -6.193098,3.99057 -12.104381,2.55173 l -6.325711,-1.53929 C 7.0813196,970.83588 1.9928996,970.75886 3.5556164,965.00351 L 14.634926,924.19534 c 1.562684,-5.75646 7.62197,-9.25588 13.533286,-7.81705 l 6.325711,1.5393 c 5.911315,1.43884 9.437569,7.27121 7.874852,13.02767 l -10.946048,40.31702 z" />
    <path
       inkscape:connector-curvature="0"
       id="path34367"
       style="fill:#666366;fill-opacity:1;fill-rule:nonzero;stroke:none"
       d="m 42.937816,930.77738 -28.822651,-7.01447 1.143007,-4.21159 28.823235,7.01503 -1.143591,4.21103 z" />
    <path
       inkscape:connector-curvature="0"
       id="path34371"
       style="fill:#2b2b2b;fill-opacity:1;fill-rule:nonzero;stroke:none"
       d="m 55.394223,927.64498 c -0.652568,2.40439 -3.240972,3.85383 -5.781618,3.23543 -2.539479,-0.61784 -4.069181,-3.06967 -3.416645,-5.47406 0.653152,-2.40438 3.241556,-3.85382 5.781618,-3.23543 2.540096,0.61784 4.069214,3.06967 3.416645,5.47406" />
    <path
       inkscape:connector-curvature="0"
       id="path34375"
       style="fill:#729a99;fill-opacity:1;fill-rule:nonzero;stroke:none"
       d="m 54.081926,927.32562 c -0.466268,1.71846 -2.316665,2.75266 -4.131065,2.31118 -1.816214,-0.44203 -2.908515,-2.1923 -2.442247,-3.91075 0.466884,-1.71957 2.315498,-2.75433 4.13168,-2.3123 1.814433,0.44147 2.908516,2.1923 2.441632,3.91187" />
    <path
       inkscape:connector-curvature="0"
       id="path34379"
       style="fill:#1e120d;fill-opacity:1;fill-rule:nonzero;stroke:none"
       d="m 62.412938,938.72972 15.416698,-18.86004 23.669984,5.76037 3.97839,23.58063 -43.065072,-10.48096 z" />
    <path
       inkscape:connector-curvature="0"
       id="path34383"
       style="fill:#666366;fill-opacity:1;fill-rule:nonzero;stroke:none"
       d="m 76.672794,921.28362 1.15655,-1.41428 23.667646,5.76037 0.30123,1.76869" />
    <path
       inkscape:connector-curvature="0"
       id="path34387"
       style="fill:#3c3c3a;fill-opacity:1;fill-rule:nonzero;stroke:none"
       d="m 105.46,964.00832 c -3.58934,13.22134 -17.818802,21.18462 -31.783623,17.78622 -13.965372,-3.39896 -22.373723,-16.87202 -18.784386,-30.09335 3.588786,-13.21911 17.817667,-21.18406 31.783039,-17.7851 13.96479,3.39896 22.37372,16.87313 18.78497,30.09223" />
    <path
       inkscape:connector-curvature="0"
       id="path34391"
       style="fill:#2b2b2b;fill-opacity:1;fill-rule:nonzero;stroke:none"
       d="m 86.387934,934.973 c -13.325796,-3.24324 -26.954597,4.38293 -30.380055,16.99983 -3.426073,12.61912 4.629183,25.52233 17.954979,28.76558 13.326994,3.24324 26.955762,-4.38237 30.381832,-17.0015 3.42546,-12.61689 -4.629794,-25.52066 -17.956756,-28.76391 m -12.998621,47.87734 c -14.55664,-3.5424 -23.354633,-17.6372 -19.612627,-31.42057 3.741454,-13.78225 18.628185,-22.11277 33.184825,-18.56981 14.557219,3.54295 23.355799,17.63775 19.614379,31.42 -3.74204,13.78281 -18.629354,22.11333 -33.186577,18.57038" />
    <path
       inkscape:connector-curvature="0"
       id="path34395"
       style="fill:#2b2b2b;fill-opacity:1;fill-rule:nonzero;stroke:none"
       d="m 99.888528,962.65237 c -2.798842,10.30794 -13.892278,16.51704 -24.780006,13.86708 -10.88828,-2.64996 -17.443901,-13.15436 -14.645643,-23.46231 2.798291,-10.30738 13.891727,-16.51593 24.780006,-13.86597 10.887696,2.64996 17.443905,13.15381 14.645643,23.4612" />
    <path
       inkscape:connector-curvature="0"
       id="path34399"
       style="fill:#2b2b2b;fill-opacity:1;fill-rule:nonzero;stroke:none"
       d="m 95.269162,961.52814 c -2.142774,7.89296 -10.637762,12.64536 -18.973018,10.61659 -8.335257,-2.02877 -13.356447,-10.07019 -11.21309,-17.96314 2.142159,-7.89128 10.636564,-12.64368 18.97182,-10.61491 8.335257,2.02877 13.356447,10.07019 11.214288,17.96146" />
    <path
       inkscape:connector-curvature="0"
       id="path34403"
       style="fill:#829394;fill-opacity:1;fill-rule:nonzero;stroke:none"
       d="m 91.987075,961.10492 c -1.690632,6.22696 -8.391859,9.97586 -14.967504,8.37573 -6.575062,-1.60014 -10.535767,-7.9443 -8.845751,-14.17126 1.690632,-6.22585 8.391859,-9.97531 14.966921,-8.37517 6.575645,1.60069 10.536383,7.94485 8.846334,14.1707" />
    <path
       inkscape:connector-curvature="0"
       id="path34407"
       style="fill:#6a8080;fill-opacity:1;fill-rule:evenodd;stroke:none"
       d="m 75.393318,957.62972 c 0.337186,-2.45071 2.708672,-4.17921 5.297659,-3.85997 2.588403,0.31925 4.414046,2.56513 4.076859,5.01584 -0.337186,2.45071 -2.709255,4.17922 -5.297659,3.85997 -2.589019,-0.31925 -4.414046,-2.56513 -4.076859,-5.01584" />
    <path
       inkscape:connector-curvature="0"
       id="path34435"
       style="fill:#f7f7f8;fill-opacity:1;fill-rule:nonzero;stroke:none"
       d="m 80.722243,949.73514 c 0,0 -0.20101,0.0592 -0.553522,0.16185 -0.172724,0.0441 -0.379047,0.12614 -0.613073,0.18753 -0.23166,0.086 -0.492188,0.15907 -0.766324,0.26734 -0.277053,0.0943 -0.56943,0.20706 -0.871236,0.33432 -0.307703,0.10883 -0.606593,0.27627 -0.927256,0.40687 -0.298274,0.17692 -0.633096,0.30529 -0.926672,0.50565 -0.152669,0.0915 -0.302973,0.18809 -0.460372,0.27404 l -0.43267,0.31367 c -0.308901,0.18529 -0.551188,0.44426 -0.82999,0.65914 -0.27472,0.22046 -0.48869,0.49115 -0.74277,0.7183 -0.23814,0.23999 -0.425607,0.51012 -0.641942,0.74453 -0.11259,0.11498 -0.206323,0.23777 -0.28648,0.3639 -0.08842,0.12335 -0.173308,0.24278 -0.255248,0.3572 -0.16268,0.23106 -0.351313,0.4331 -0.460371,0.63905 -0.118487,0.20148 -0.239922,0.37506 -0.337187,0.52128 -0.197478,0.29078 -0.331873,0.45878 -0.331873,0.45878 0,0 -0.01652,-0.19981 -0.0058,-0.55254 0.0065,-0.17581 0.01004,-0.39292 0.03655,-0.63961 0.0058,-0.25283 0.08431,-0.51961 0.160348,-0.8182 0.0937,-0.2919 0.146772,-0.63347 0.320662,-0.94937 0.163296,-0.31869 0.310068,-0.67756 0.53878,-1.00573 0.114955,-0.16409 0.239922,-0.32651 0.365472,-0.49227 0.124384,-0.16688 0.24935,-0.33766 0.412063,-0.47998 0.308869,-0.29748 0.614823,-0.61394 0.985608,-0.85505 l 0.545843,-0.37114 c 0.192197,-0.10661 0.390258,-0.20204 0.583006,-0.30139 0.190998,-0.10437 0.387892,-0.19032 0.591267,-0.25674 0.199228,-0.0731 0.396123,-0.14511 0.591819,-0.20818 0.400852,-0.0971 0.78165,-0.20594 1.155967,-0.24334 0.185684,-0.0206 0.365504,-0.0413 0.539978,-0.0614 0.175057,-0.004 0.34425,-0.009 0.506963,-0.0134 0.321829,-0.0128 0.621302,0.0307 0.879498,0.0497 0.259945,0.0329 0.483376,0.0703 0.666112,0.11609 0.365472,0.0804 0.56295,0.16911 0.56295,0.16911" />
  </g>
</svg>
