<?xml version="1.0" encoding="UTF-8" standalone="no"?>
<!-- Created with Inkscape (http://www.inkscape.org/) -->

<svg
   xmlns:dc="http://purl.org/dc/elements/1.1/"
   xmlns:cc="http://creativecommons.org/ns#"
   xmlns:rdf="http://www.w3.org/1999/02/22-rdf-syntax-ns#"
   xmlns:svg="http://www.w3.org/2000/svg"
   xmlns="http://www.w3.org/2000/svg"
   xmlns:sodipodi="http://sodipodi.sourceforge.net/DTD/sodipodi-0.dtd"
   xmlns:inkscape="http://www.inkscape.org/namespaces/inkscape"
   width="99.61908"
   height="105.60984"
   viewBox="0 0 99.619081 105.60984"
   id="svg70586"
   version="1.1"
   inkscape:version="0.91 r13725"
   sodipodi:docname="coffee.svg">
  <defs
     id="defs70588" />
  <sodipodi:namedview
     id="base"
     pagecolor="#ffffff"
     bordercolor="#666666"
     borderopacity="1.0"
     inkscape:pageopacity="0.0"
     inkscape:pageshadow="2"
     inkscape:zoom="0.35"
     inkscape:cx="-320.9047"
     inkscape:cy="-352.90934"
     inkscape:document-units="px"
     inkscape:current-layer="layer1"
     showgrid="false"
     inkscape:window-width="1920"
     inkscape:window-height="1017"
     inkscape:window-x="-8"
     inkscape:window-y="-8"
     inkscape:window-maximized="1"
     units="px"
     fit-margin-top="0"
     fit-margin-left="0"
     fit-margin-right="0"
     fit-margin-bottom="0" />
  <metadata
     id="metadata70591">
    <rdf:RDF>
      <cc:Work
         rdf:about="">
        <dc:format>image/svg+xml</dc:format>
        <dc:type
           rdf:resource="http://purl.org/dc/dcmitype/StillImage" />
        <dc:title></dc:title>
      </cc:Work>
    </rdf:RDF>
  </metadata>
  <g
     inkscape:label="Layer 1"
     inkscape:groupmode="layer"
     id="layer1"
     transform="translate(-161.61898,-73.842998)">
    <path
       inkscape:connector-curvature="0"
       id="path5584"
       style="fill:#30617d;fill-opacity:1;fill-rule:evenodd;stroke:none"
       d="m 217.38208,86.713674 c 24.55914,1.97774 43.85598,21.944486 43.85598,46.287786 0,25.65482 -21.4305,46.45138 -47.86735,46.45138 -26.43688,0 -47.86738,-20.79656 -47.86738,-46.45138 0,-23.45233 17.91054,-42.841894 41.18173,-45.998126 l 0,-5.902641 c 0,-1.998125 1.68537,-3.633095 3.74442,-3.633095 l 3.20877,0 c 2.059,0 3.74383,1.63497 3.74383,3.633095 l 0,5.612981 z" />
    <path
       inkscape:connector-curvature="0"
       id="path5632"
       style="fill:#ffffff;fill-opacity:1;fill-rule:evenodd;stroke:none"
       d="m 209.48691,175.82872 c 26.36445,0 47.86739,-20.86684 47.86739,-46.45192 0,-25.58456 -21.50294,-46.451395 -47.86739,-46.451395 -26.36445,0 -47.86793,20.866835 -47.86793,46.451395 0,25.58508 21.50348,46.45192 47.86793,46.45192" />
    <path
       inkscape:connector-curvature="0"
       id="path5636"
       style="fill:#e6e6e6;fill-opacity:1;fill-rule:evenodd;stroke:none"
       d="m 209.48691,172.97388 c 24.74432,0 44.92557,-19.58428 44.92557,-43.59662 0,-24.01234 -20.18125,-43.597161 -44.92557,-43.597161 -24.74432,0 -44.92557,19.584821 -44.92557,43.597161 0,24.01234 20.18125,43.59662 44.92557,43.59662" />
    <path
       inkscape:connector-curvature="0"
       id="path5640"
       style="fill:#ffffff;fill-opacity:1;fill-rule:evenodd;stroke:none"
       d="m 206.54525,73.842998 3.20877,0 c 2.05959,0 3.74441,1.634974 3.74441,3.633095 l 0,22.836537 c 0,1.99812 -1.68482,3.63309 -3.74441,3.63309 l -3.20877,0 c -2.05904,0 -3.74383,-1.63497 -3.74383,-3.63309 l 0,-22.836537 c 0,-1.998121 1.68479,-3.633095 3.74383,-3.633095" />
    <path
       inkscape:connector-curvature="0"
       id="path5644"
       style="fill:#e6e6e6;fill-opacity:1;fill-rule:evenodd;stroke:none"
       d="m 207.1304,75.653861 2.03859,0 c 1.30781,0 2.37794,1.038489 2.37794,2.307629 l 0,21.438114 c 0,1.269146 -1.07013,2.307636 -2.37794,2.307636 l -2.03859,0 c -1.30785,0 -2.37798,-1.03849 -2.37798,-2.307636 l 0,-21.438114 c 0,-1.26914 1.07013,-2.307629 2.37798,-2.307629" />
    <path
       inkscape:connector-curvature="0"
       id="path5648"
       style="fill:#ffffff;fill-opacity:1;fill-rule:evenodd;stroke:none"
       d="m 209.48691,165.96724 c 20.76775,0 37.70544,-16.43718 37.70544,-36.59006 0,-20.15341 -16.93769,-36.590046 -37.70544,-36.590046 -20.76775,0 -37.70543,16.436636 -37.70543,36.590046 0,20.15288 16.93768,36.59006 37.70543,36.59006" />
    <path
       inkscape:connector-curvature="0"
       id="path5652"
       style="fill:#b3b3b3;fill-opacity:1;fill-rule:evenodd;stroke:none"
       d="m 209.48691,162.3342 c 18.7054,0 33.9616,-14.80488 33.9616,-32.95696 0,-18.15207 -15.2562,-32.956952 -33.9616,-32.956952 -18.7054,0 -33.9616,14.804882 -33.9616,32.956952 0,18.15208 15.2562,32.95696 33.9616,32.95696" />
    <path
       inkscape:connector-curvature="0"
       id="path5656"
       style="fill:#886734;fill-opacity:1;fill-rule:evenodd;stroke:none"
       d="m 209.48691,157.40331 c 15.90678,0 28.88061,-12.59005 28.88061,-28.02629 0,-15.43623 -12.97383,-28.02628 -28.88061,-28.02628 -15.90678,0 -28.88061,12.59005 -28.88061,28.02628 0,15.43624 12.97383,28.02629 28.88061,28.02629" />
    <path
       inkscape:connector-curvature="0"
       id="path5660"
       style="fill:#694f28;fill-opacity:1;fill-rule:evenodd;stroke:none"
       d="m 209.48664,149.61831 c 11.48857,0 20.85842,-9.09267 20.85842,-20.24139 0,-11.14818 -9.36985,-20.24085 -20.85842,-20.24085 -11.48857,0 -20.85842,9.09267 -20.85842,20.24085 0,11.14872 9.36985,20.24139 20.85842,20.24139" />
    <path
       inkscape:connector-curvature="0"
       id="path5664"
       style="fill:#bd9d6e;fill-opacity:1;fill-rule:evenodd;stroke:none"
       d="m 229.64075,113.94502 c 3.45476,4.24353 5.51765,9.60333 5.51765,15.43195 0,13.75888 -11.49355,24.91243 -25.67129,24.91243 -6.00572,0 -11.52948,-2.00188 -15.90235,-5.35443 4.07828,2.56564 8.94143,4.05686 14.16449,4.05686 14.39882,0 26.07203,-11.32788 26.07203,-25.30187 0,-5.06799 -1.53669,-9.78731 -4.18053,-13.74494" />
  </g>
</svg>
