<?xml version="1.0" encoding="UTF-8" standalone="no"?>
<!-- Created with Inkscape (http://www.inkscape.org/) -->

<svg
   xmlns:dc="http://purl.org/dc/elements/1.1/"
   xmlns:cc="http://creativecommons.org/ns#"
   xmlns:rdf="http://www.w3.org/1999/02/22-rdf-syntax-ns#"
   xmlns:svg="http://www.w3.org/2000/svg"
   xmlns="http://www.w3.org/2000/svg"
   xmlns:sodipodi="http://sodipodi.sourceforge.net/DTD/sodipodi-0.dtd"
   xmlns:inkscape="http://www.inkscape.org/namespaces/inkscape"
   id="svg3336"
   version="1.1"
   inkscape:version="0.91 r13725"
   xml:space="preserve"
   width="2000"
   height="999.90002"
   viewBox="0 0 2000 999.90002"
   sodipodi:docname="desk.svg"><metadata
     id="metadata3342"><rdf:RDF><cc:Work
         rdf:about=""><dc:format>image/svg+xml</dc:format><dc:type
           rdf:resource="http://purl.org/dc/dcmitype/StillImage" /><dc:title></dc:title></cc:Work></rdf:RDF></metadata><defs
     id="defs3340"><clipPath
       clipPathUnits="userSpaceOnUse"
       id="clipPath3352"><path
         d="m 0,799.92 799.92,0 L 799.92,0 0,0 0,799.92 Z"
         id="path3354"
         inkscape:connector-curvature="0" /></clipPath></defs><sodipodi:namedview
     pagecolor="#ffffff"
     bordercolor="#666666"
     borderopacity="1"
     objecttolerance="10"
     gridtolerance="10"
     guidetolerance="10"
     inkscape:pageopacity="0"
     inkscape:pageshadow="2"
     inkscape:window-width="1366"
     inkscape:window-height="715"
     id="namedview3338"
     showgrid="false"
     inkscape:zoom="0.54605459"
     inkscape:cx="941.25373"
     inkscape:cy="545.35461"
     inkscape:window-x="-8"
     inkscape:window-y="-8"
     inkscape:window-maximized="1"
     inkscape:current-layer="g3344" /><g
     id="g3344"
     inkscape:groupmode="layer"
     inkscape:label="movil_20"
     transform="matrix(1.25,0,0,-1.25,0,999.9)"><path
       d="m 0,-8.6553849 1610.0954,0 0,810.1753849 L 0,801.52 0,-8.6553849 Z"
       style="fill:#4c8eb4;fill-opacity:1;fill-rule:nonzero;stroke:none"
       id="path3346"
       inkscape:connector-curvature="0" /><g
       id="g4765"
       transform="translate(805.78025,67.39253)"><g
         transform="translate(629.61487,188.14275)"
         id="g3468"><path
           inkscape:connector-curvature="0"
           id="path3470"
           style="fill:#30617d;fill-opacity:1;fill-rule:evenodd;stroke:none"
           d="m 0,0 c -7.208,1.279 -35.226,15.122 -55.822,21.037 -20.616,5.921 -52.235,9.566 -57.949,8.918 -6.833,-0.774 -7.124,-1.261 -8.388,-6.086 -1.264,-4.824 -1.303,-9.176 2.237,-11.2 4.524,-2.586 3.696,-8.497 3.283,-25.241 -3.555,-6.941 -5.45,-14.196 -6.364,-18.762 -1.758,-8.775 5.821,-14.14 10.786,-6.316 4.758,-8.178 14.141,-15.058 31.964,-20.05 31.349,-8.78 46.125,9.58 50.893,15.494 8.502,10.545 9.865,27.157 25.943,23.936 16.078,-3.22 11.283,-18.845 15.067,-31.851 2.122,-7.294 8.344,-30.159 40.657,-34.128 18.416,-2.263 29.735,0.492 37.276,6.235 1.541,-9.195 10.634,-7.173 12.395,1.619 0.92,4.597 1.975,12.088 1.34,19.918 6.022,15.507 7.542,21.249 12.697,21.892 4.048,0.505 5.688,4.535 6.379,9.475 0.691,4.94 0.61,5.501 -5.398,8.846 C 111.972,-13.465 81.39,-4.651 60.082,-2.176 41.033,0.036 16.96,-3.009 0,0" /></g><g
         transform="translate(505.57877,224.03046)"
         id="g3472"><path
           inkscape:connector-curvature="0"
           id="path3474"
           style="fill:#254659;fill-opacity:1;fill-rule:evenodd;stroke:none"
           d="m 0,0 c 40.428,-7.202 179.819,-47.273 200.563,-56.588 20.745,-9.314 17.797,-36.569 15.611,-47.487 -2.187,-10.917 -15.682,-11.401 -11.982,7.075 3.701,18.476 4.096,28.808 -8.558,32.523 C 182.979,-60.762 10.942,-16.44 -1.067,-13.691 -13.077,-10.942 -7.951,2.112 0,0" /></g><g
         transform="translate(736.35317,177.81075)"
         id="g3476"><path
           inkscape:connector-curvature="0"
           id="path3478"
           style="fill:#254659;fill-opacity:1;fill-rule:evenodd;stroke:none"
           d="m 0,0 c -40.083,8.923 -184.155,25.624 -206.886,25.017 -22.731,-0.608 -30.509,-26.895 -32.695,-37.813 -2.187,-10.917 10.082,-16.56 13.782,1.915 3.7,18.476 7.315,28.163 20.424,26.719 C -192.267,14.394 -16.43,-10.958 -4.287,-13.047 7.854,-15.136 8.151,-1.113 0,0" /></g><g
         transform="translate(553.47227,220.02165)"
         id="g3480"><path
           inkscape:connector-curvature="0"
           id="path3482"
           style="fill:#000000;fill-opacity:1;fill-rule:evenodd;stroke:none"
           d="m 0,0 c -19.504,4.334 -42.658,6.828 -47.469,6.283 -6.833,-0.774 -7.123,-1.262 -8.386,-6.086 -1.266,-4.824 -1.303,-9.176 2.237,-11.2 4.823,-2.758 3.562,-9.297 3.208,-28.719 -0.322,-17.689 4.511,-32.701 36.46,-41.65 5.076,-1.422 9.716,-2.129 13.95,-2.295 l 0,4.916 c -16.794,0.727 -38.101,10.239 -42.604,24.323 -5.306,16.601 -1.323,47.194 10.583,51.345 4.614,1.608 17.831,0.768 32.021,-2.255 L 0,0 Z M 66.303,-23.672 C 59.095,-22.393 31.077,-8.55 10.481,-2.635 7.215,-1.696 3.672,-0.815 0,0 L 0,-5.338 C 18.363,-9.248 38.356,-16.813 43.442,-27.456 51.02,-43.311 27.635,-73.573 10.346,-77.875 7.282,-78.638 3.753,-78.913 0,-78.751 l 0,-4.916 c 21.918,-0.862 32.946,12.832 36.942,17.788 8.502,10.546 9.865,27.158 25.944,23.938 16.078,-3.22 11.283,-18.846 15.067,-31.853 2.123,-7.293 8.344,-30.158 40.655,-34.127 2.205,-0.271 4.306,-0.468 6.313,-0.599 l 0,4.841 c -10.498,0.5 -20.936,3.545 -27.388,8.341 -14.299,10.629 -24.224,47.564 -11.126,59.277 7.22,6.457 22.914,7.125 38.514,5.243 l 0,5.128 c -18.806,1.903 -42.089,-0.915 -58.618,2.018 m 58.618,-84.848 c 27.972,-1.818 37.298,9.647 43.376,24.995 7.152,18.06 8.507,24.581 14.02,25.267 4.047,0.506 5.688,4.536 6.379,9.476 0.691,4.939 0.612,5.501 -5.396,8.846 -5.026,2.799 -35.608,11.613 -56.915,14.087 -0.485,0.057 -0.973,0.109 -1.464,0.159 l 0,-5.128 c 18.082,-2.183 36.035,-7.796 40.516,-11.812 9.388,-8.416 1.283,-38.183 -10.008,-51.46 -6.27,-7.372 -18.43,-10.164 -30.508,-9.589 l 0,-4.841 z" /></g><g
         transform="translate(718.90887,177.39185)"
         id="g3484"><path
           inkscape:connector-curvature="0"
           id="path3486"
           style="fill:#b0cad9;fill-opacity:1;fill-rule:evenodd;stroke:none"
           d="m 0,0 c -8.347,7.481 -63.442,20.509 -79.029,6.569 -13.099,-11.714 -3.173,-48.648 11.126,-59.277 13.875,-10.313 46.174,-12.533 57.895,1.248 C 1.283,-38.184 9.389,-8.416 0,0 m -197.457,39.547 c 10.583,3.69 66.446,-5.506 75.463,-24.373 7.577,-15.855 -15.808,-46.117 -33.097,-50.419 -16.776,-4.176 -47.44,6.216 -52.949,23.447 -5.307,16.601 -1.323,47.194 10.583,51.345" /></g><g
         transform="translate(527.13537,217.71706)"
         id="g3488"><path
           inkscape:connector-curvature="0"
           id="path3490"
           style="fill:#d1e2eb;fill-opacity:1;fill-rule:evenodd;stroke:none"
           d="m 0,0 c 17.756,0.539 61.855,-8.57 69.779,-25.151 5.315,-11.12 -4.602,-29.327 -16.964,-40.694 L 0,0 Z" /></g><g
         transform="translate(650.06017,188.71405)"
         id="g3492"><path
           inkscape:connector-curvature="0"
           id="path3494"
           style="fill:#d1e2eb;fill-opacity:1;fill-rule:evenodd;stroke:none"
           d="m 0,0 53.795,-67.064 c 1.933,1.206 3.639,2.627 5.046,4.282 11.291,13.276 19.396,43.044 10.008,51.46 C 61.84,-5.04 21.861,5.152 0,0" /></g><g
         transform="translate(535.23497,217.44556)"
         id="g3496"><path
           inkscape:connector-curvature="0"
           id="path3498"
           style="fill:#617f91;fill-opacity:1;fill-rule:evenodd;stroke:none"
           d="m 0,0 c 13.784,-3.384 29.992,-7.635 46.878,-12.241 4.44,-2.238 8.264,-4.759 11.061,-7.547 l 10e-4,0 0.076,-0.075 0.009,-0.011 c 0.122,-0.122 0.243,-0.246 0.36,-0.37 l 0.044,-0.045 0.029,-0.03 0.071,-0.077 0.072,-0.077 0.023,-0.025 0.048,-0.051 0.07,-0.077 0.07,-0.077 0.004,-0.005 0.065,-0.071 0.068,-0.077 0.055,-0.063 0.015,-0.016 0.067,-0.077 0.066,-0.077 0.036,-0.042 0.031,-0.036 0.066,-0.078 0.066,-0.078 0.017,-0.021 0.048,-0.057 0.064,-0.078 0.065,-0.078 -0.001,-0.001 0.064,-0.078 0.063,-0.079 0.046,-0.057 0.016,-0.022 0.062,-0.078 0.061,-0.079 0.06,-0.079 0.061,-0.079 0.06,-0.079 0.011,-0.016 0.047,-0.065 0.058,-0.079 0.055,-0.074 0.004,-0.006 0.058,-0.08 0.056,-0.08 0.037,-0.053 0.02,-0.027 0.055,-0.08 0.055,-0.08 0.022,-0.032 0.033,-0.049 0.053,-0.08 0.053,-0.081 0.008,-0.011 0.045,-0.069 0.053,-0.082 0.045,-0.071 0.007,-0.01 0.05,-0.082 0.051,-0.081 0.03,-0.048 0.02,-0.034 0.049,-0.081 0.049,-0.082 0.016,-0.027 0.031,-0.055 0.048,-0.083 0.047,-0.081 0.004,-0.006 0.043,-0.077 0.045,-0.082 0.037,-0.066 0.009,-0.017 0.044,-0.082 0.067,-0.127 0.021,-0.039 0.085,-0.166 0.01,-0.022 0.031,-0.062 0.081,-0.167 0.042,-0.087 0.012,-0.029 0.029,-0.06 0.025,-0.056 0.015,-0.033 0.038,-0.084 0.002,-0.004 0.039,-0.089 0.011,-0.025 0.028,-0.065 0.022,-0.053 0.015,-0.037 0.034,-0.082 0.003,-0.008 0.037,-0.09 0.008,-0.021 0.028,-0.069 0.07,-0.182 0.034,-0.091 0.007,-0.018 0.026,-0.075 c 0.778,-2.153 1.053,-4.532 0.901,-7.05 -33.991,4.853 -62.389,8.842 -67.363,9.391 -13.108,1.444 -16.723,-8.242 -20.424,-26.719 l -0.035,-0.165 c -2.094,7.389 -2.484,17.179 -1.278,26.183 4.862,5.556 11.422,9.644 20.226,9.88 1.326,0.035 3.063,0.012 5.168,-0.066 -8.656,2.207 -15.957,4.06 -21.272,5.396 2.059,4.401 4.764,7.622 8.089,8.781 C -11.294,0.36 -6.299,0.516 0,0 m 171.167,-34.283 c -14.038,2.186 -30.65,4.508 -48.019,6.76 -4.947,-0.357 -9.434,-1.208 -13.083,-2.7 l -0.099,-0.04 -0.028,-0.011 -0.07,-0.031 -0.097,-0.04 -0.099,-0.042 -0.097,-0.042 -0.096,-0.042 -0.072,-0.032 -0.025,-0.012 -0.191,-0.085 -0.045,-0.02 -0.05,-0.024 -0.094,-0.044 -0.095,-0.043 -0.017,-0.008 -0.077,-0.037 -0.092,-0.045 -0.086,-0.04 -0.008,-0.004 -0.092,-0.046 -0.093,-0.046 -0.059,-0.029 -0.031,-0.017 -0.092,-0.047 -0.091,-0.046 -0.033,-0.017 -0.057,-0.031 -0.09,-0.046 -0.022,-0.013 -0.146,-0.077 -0.009,-0.006 -0.089,-0.049 -0.074,-0.039 -0.014,-0.009 -0.088,-0.05 -0.087,-0.048 -0.048,-0.028 -0.039,-0.022 -0.086,-0.05 -0.086,-0.051 -0.085,-0.051 -0.085,-0.05 -0.084,-0.052 -0.084,-0.051 -0.083,-0.053 -0.083,-0.051 -0.082,-0.053 -0.082,-0.054 -0.038,-0.023 -0.044,-0.031 -0.081,-0.052 -0.08,-0.055 -0.015,-0.01 -0.065,-0.045 -0.137,-0.093 -0.014,-0.011 -0.008,-0.005 -0.014,-0.01 -0.142,-0.101 -0.05,-0.036 -0.028,-0.02 -0.077,-0.057 -0.077,-0.056 -0.027,-0.021 -0.049,-0.037 -0.075,-0.058 -0.075,-0.057 -0.007,-0.005 -0.068,-0.054 -0.074,-0.057 -0.06,-0.049 -0.013,-0.011 -0.004,-0.003 -0.142,-0.115 -0.04,-0.033 -0.032,-0.028 -0.143,-0.12 -0.019,-0.017 -0.19,-0.167 -0.073,-0.066 -0.023,-0.02 -0.049,-0.046 -0.045,-0.042 -0.026,-0.024 -0.068,-0.063 -0.004,-0.003 -0.07,-0.068 -0.019,-0.018 -0.051,-0.05 -0.04,-0.04 -0.029,-0.027 -0.063,-0.063 -0.006,-0.007 -0.069,-0.069 -0.016,-0.015 -0.052,-0.055 -0.037,-0.037 -0.031,-0.032 -0.058,-0.061 -0.008,-0.011 -0.068,-0.071 c -1.582,-1.699 -2.771,-3.815 -3.611,-6.228 33.267,-8.618 61.045,-15.881 65.849,-17.292 12.654,-3.715 12.258,-14.047 8.558,-32.523 l -0.007,-0.041 c 4.757,6.033 8.865,14.906 11.2,23.658 -2.358,6.954 -6.831,13.206 -14.823,16.795 -1.208,0.543 -2.82,1.19 -4.792,1.929 8.802,-1.291 16.229,-2.39 21.643,-3.203 -0.205,4.856 -1.461,8.873 -4.083,11.223 -1.961,1.758 -6.504,3.822 -12.507,5.771" /></g><g
         transform="translate(527.13447,217.71796)"
         id="g3500"><path
           inkscape:connector-curvature="0"
           id="path3502"
           style="fill:#8097a6;fill-opacity:1;fill-rule:evenodd;stroke:none"
           d="m 0,0 21.166,-26.388 c 12.474,-1.73 30.315,-4.257 50.041,-7.073 0.151,2.519 -0.123,4.898 -0.901,7.051 l -0.027,0.074 -0.007,0.019 -0.034,0.09 -0.069,0.182 -0.028,0.069 -0.008,0.022 -0.037,0.09 -0.003,0.008 -0.034,0.082 -0.015,0.037 -0.023,0.052 -0.028,0.066 -0.011,0.024 -0.039,0.089 -0.002,0.004 -0.038,0.085 -0.014,0.032 -0.026,0.057 -0.028,0.059 -0.013,0.03 -0.042,0.087 -0.081,0.167 -0.03,0.061 -0.011,0.023 -0.085,0.166 -0.02,0.039 -0.068,0.127 -0.044,0.082 -0.008,0.016 -0.037,0.067 -0.045,0.082 -0.043,0.077 -0.004,0.006 -0.047,0.081 -0.048,0.083 -0.031,0.054 -0.017,0.028 -0.049,0.082 -0.049,0.081 -0.019,0.033 -0.03,0.049 -0.051,0.081 -0.051,0.081 -0.007,0.011 -0.045,0.07 -0.052,0.082 -0.045,0.069 -0.008,0.011 -0.054,0.081 -0.053,0.08 -0.033,0.049 -0.021,0.032 -0.056,0.08 -0.055,0.081 -0.019,0.027 -0.037,0.053 -0.057,0.08 -0.057,0.08 -0.004,0.006 -0.055,0.074 -0.059,0.079 -0.047,0.064 -0.01,0.016 -0.061,0.079 -0.06,0.079 -0.06,0.079 -0.061,0.079 -0.062,0.079 -0.017,0.021 -0.046,0.058 -0.062,0.079 -0.064,0.078 0.001,10e-4 -0.065,0.077 -0.064,0.078 -0.048,0.058 -0.018,0.02 -0.065,0.078 -0.067,0.079 -0.03,0.036 -0.036,0.042 -0.066,0.077 -0.068,0.077 -0.015,0.016 -0.054,0.062 -0.069,0.077 -0.064,0.072 -0.005,0.004 -0.069,0.078 -0.071,0.077 -0.047,0.05 -0.024,0.026 -0.071,0.076 -0.071,0.077 -0.03,0.03 -0.044,0.045 c -0.117,0.124 -0.237,0.248 -0.359,0.371 l -0.01,0.01 -0.075,0.075 -10e-4,0 c -2.798,2.789 -6.621,5.309 -11.061,7.547 C 38.093,-7.907 21.885,-3.656 8.101,-0.272 5.048,-0.022 2.303,0.069 0,0" /></g><g
         transform="translate(706.40197,183.16236)"
         id="g3504"><path
           inkscape:connector-curvature="0"
           id="path3506"
           style="fill:#8097a6;fill-opacity:1;fill-rule:evenodd;stroke:none"
           d="m 0,0 c -14.038,2.187 -30.65,4.508 -48.019,6.76 -2.966,-0.213 -5.769,-0.606 -8.324,-1.207 l 15.898,-19.819 c 18.544,-4.836 32.042,-8.399 35.256,-9.342 12.654,-3.716 12.258,-14.048 8.558,-32.524 l -0.007,-0.041 c 4.757,6.033 8.865,14.906 11.201,23.658 -2.359,6.954 -6.832,13.206 -14.824,16.795 -1.208,0.543 -2.82,1.19 -4.792,1.929 8.802,-1.291 16.229,-2.39 21.643,-3.203 -0.205,4.856 -1.461,8.873 -4.083,11.223 C 10.546,-4.013 6.003,-1.949 0,0" /></g></g><g
       id="g4909"
       transform="translate(983.05184,-480.53803)"><g
         transform="translate(171.30977,714.79075)"
         id="g3460"><path
           inkscape:connector-curvature="0"
           id="path3462"
           style="fill:#30617d;fill-opacity:1;fill-rule:evenodd;stroke:none"
           d="m 0,0 c 44.43,-3.687 79.34,-40.91 79.34,-86.292 0,-47.827 -38.77,-86.597 -86.597,-86.597 -47.827,0 -86.597,38.77 -86.597,86.597 0,43.721 32.402,79.868 74.502,85.752 l 0,11.004 c 0,3.725 3.049,6.773 6.774,6.773 l 5.805,0 C -3.048,17.237 0,14.189 0,10.464 L 0,0 Z" /></g><g
         transform="translate(154.21307,550.10766)"
         id="g3508"><path
           inkscape:connector-curvature="0"
           id="path3510"
           style="fill:#ffffff;fill-opacity:1;fill-rule:evenodd;stroke:none"
           d="m 0,0 c 47.696,0 86.597,38.901 86.597,86.598 0,47.696 -38.901,86.597 -86.597,86.597 -47.696,0 -86.598,-38.901 -86.598,-86.597 C -86.598,38.901 -47.696,0 0,0" /></g><g
         transform="translate(154.21307,555.42985)"
         id="g3512"><path
           inkscape:connector-curvature="0"
           id="path3514"
           style="fill:#e6e6e6;fill-opacity:1;fill-rule:evenodd;stroke:none"
           d="m 0,0 c 44.765,0 81.275,36.51 81.275,81.275 0,44.765 -36.51,81.276 -81.275,81.276 -44.765,0 -81.275,-36.511 -81.275,-81.276 C -81.275,36.51 -44.765,0 0,0" /></g><g
         transform="translate(148.89127,740.23455)"
         id="g3516"><path
           inkscape:connector-curvature="0"
           id="path3518"
           style="fill:#ffffff;fill-opacity:1;fill-rule:evenodd;stroke:none"
           d="m 0,0 5.805,0 c 3.726,0 6.774,-3.048 6.774,-6.773 l 0,-42.573 c 0,-3.725 -3.048,-6.773 -6.774,-6.773 l -5.805,0 c -3.725,0 -6.773,3.048 -6.773,6.773 l 0,42.573 C -6.773,-3.048 -3.725,0 0,0" /></g><g
         transform="translate(149.94987,736.85865)"
         id="g3520"><path
           inkscape:connector-curvature="0"
           id="path3522"
           style="fill:#e6e6e6;fill-opacity:1;fill-rule:evenodd;stroke:none"
           d="M 0,0 3.688,0 C 6.054,0 7.99,-1.936 7.99,-4.302 l 0,-39.966 c 0,-2.366 -1.936,-4.302 -4.302,-4.302 l -3.688,0 c -2.366,0 -4.302,1.936 -4.302,4.302 l 0,39.966 C -4.302,-1.936 -2.366,0 0,0" /></g><g
         transform="translate(154.21307,568.49195)"
         id="g3524"><path
           inkscape:connector-curvature="0"
           id="path3526"
           style="fill:#ffffff;fill-opacity:1;fill-rule:evenodd;stroke:none"
           d="m 0,0 c 37.571,0 68.213,30.643 68.213,68.213 0,37.571 -30.642,68.213 -68.213,68.213 -37.571,0 -68.213,-30.642 -68.213,-68.213 C -68.213,30.643 -37.571,0 0,0" /></g><g
         transform="translate(154.21307,575.26485)"
         id="g3528"><path
           inkscape:connector-curvature="0"
           id="path3530"
           style="fill:#b3b3b3;fill-opacity:1;fill-rule:evenodd;stroke:none"
           d="m 0,0 c 33.84,0 61.44,27.6 61.44,61.44 0,33.84 -27.6,61.44 -61.44,61.44 -33.84,0 -61.44,-27.6 -61.44,-61.44 C -61.44,27.6 -33.84,0 0,0" /></g><g
         transform="translate(154.21307,584.45726)"
         id="g3532"><path
           inkscape:connector-curvature="0"
           id="path3534"
           style="fill:#886734;fill-opacity:1;fill-rule:evenodd;stroke:none"
           d="m 0,0 c 28.777,0 52.248,23.471 52.248,52.248 0,28.777 -23.471,52.248 -52.248,52.248 -28.777,0 -52.248,-23.471 -52.248,-52.248 C -52.248,23.471 -28.777,0 0,0" /></g><g
         transform="translate(154.21257,598.97046)"
         id="g3536"><path
           inkscape:connector-curvature="0"
           id="path3538"
           style="fill:#694f28;fill-opacity:1;fill-rule:evenodd;stroke:none"
           d="M 0,0 C 20.784,0 37.735,16.951 37.735,37.735 37.735,58.518 20.784,75.469 0,75.469 -20.784,75.469 -37.735,58.518 -37.735,37.735 -37.735,16.951 -20.784,0 0,0" /></g><g
         transform="translate(190.67347,665.47436)"
         id="g3540"><path
           inkscape:connector-curvature="0"
           id="path3542"
           style="fill:#bd9d6e;fill-opacity:1;fill-rule:evenodd;stroke:none"
           d="m 0,0 c 6.25,-7.911 9.982,-17.903 9.982,-28.769 0,-25.65 -20.793,-46.443 -46.442,-46.443 -10.865,0 -20.858,3.732 -28.769,9.982 7.378,-4.783 16.176,-7.563 25.625,-7.563 26.049,0 47.167,21.118 47.167,47.169 C 7.563,-16.176 4.783,-7.378 0,0" /></g></g><g
       id="g4787"
       transform="translate(619.71826,52.741978)"><g
         transform="translate(608.17447,432.92545)"
         id="g3544"><path
           inkscape:connector-curvature="0"
           id="path3546"
           style="fill:#30617d;fill-opacity:1;fill-rule:evenodd;stroke:none"
           d="m 0,0 46.414,-23.576 c 8.803,-4.471 12.347,-15.332 7.875,-24.134 L -9.122,-172.547 c -4.471,-8.803 -15.331,-12.347 -24.134,-7.875 l -46.414,23.575 c -8.803,4.472 -12.347,15.332 -7.875,24.135 L -24.134,-7.875 C -19.662,0.927 -8.802,4.471 0,0" /></g><g
         transform="translate(598.33467,441.13205)"
         id="g3548"><path
           inkscape:connector-curvature="0"
           id="path3550"
           style="fill:#ffffff;fill-opacity:1;fill-rule:evenodd;stroke:none"
           d="m 0,0 46.414,-23.576 c 8.803,-4.471 12.347,-15.332 7.875,-24.134 L -9.122,-172.547 c -4.472,-8.803 -15.332,-12.347 -24.135,-7.876 l -46.413,23.576 c -8.803,4.472 -12.347,15.332 -7.875,24.135 l 63.41,124.837 C -19.663,0.928 -8.803,4.471 0,0" /></g><g
         transform="translate(579.75747,429.95825)"
         id="g3552"><path
           inkscape:connector-curvature="0"
           id="path3554"
           style="fill:#000000;fill-opacity:1;fill-rule:evenodd;stroke:none"
           d="M 0,0 66.989,-34.027 6.706,-152.708 -60.284,-118.681 0,0 Z" /></g><g
         transform="translate(602.10607,428.31806)"
         id="g3556"><path
           inkscape:connector-curvature="0"
           id="path3558"
           style="fill:#b3b3b3;fill-opacity:1;fill-rule:evenodd;stroke:none"
           d="m 0,0 30.135,-15.307 c 0.819,-0.416 1.829,-0.087 2.245,0.732 0.416,0.819 0.086,1.829 -0.733,2.245 L 1.512,2.977 C 0.693,3.393 -0.316,3.063 -0.732,2.245 l 0,-10e-4 C -1.148,1.426 -0.818,0.416 0,0" /></g><g
         transform="translate(579.75747,429.95825)"
         id="g3560"><path
           inkscape:connector-curvature="0"
           id="path3562"
           style="fill:#4d4d4d;fill-opacity:1;fill-rule:evenodd;stroke:none"
           d="M 0,0 6.706,-152.708 66.989,-34.027 0,0 Z" /></g><g
         transform="translate(520.78477,293.77366)"
         id="g3564"><path
           inkscape:connector-curvature="0"
           id="path3566"
           style="fill:#b3b3b3;fill-opacity:1;fill-rule:evenodd;stroke:none"
           d="m 0,0 50.771,-25.789 c 1.268,-0.645 2.833,-0.134 3.478,1.135 l 0,0.001 c 0.645,1.268 0.134,2.835 -1.135,3.478 L 2.344,4.614 C 1.074,5.259 -0.49,4.748 -1.136,3.479 l 0,0 C -1.78,2.21 -1.27,0.645 0,0" /></g><g
         transform="translate(551.89717,292.23556)"
         id="g3568"><path
           inkscape:connector-curvature="0"
           id="path3570"
           style="fill:#ffffff;fill-opacity:1;fill-rule:evenodd;stroke:none"
           d="M 0,0 C 4.988,-2.534 6.979,-8.633 4.444,-13.621 1.91,-18.61 -4.188,-20.6 -9.177,-18.066 c -4.988,2.534 -6.978,8.632 -4.444,13.621 C -11.087,0.544 -4.989,2.534 0,0" /></g><g
         transform="translate(550.54267,289.56855)"
         id="g3572"><path
           inkscape:connector-curvature="0"
           id="path3574"
           style="fill:#b3b3b3;fill-opacity:1;fill-rule:evenodd;stroke:none"
           d="m 0,0 c 3.516,-1.786 4.918,-6.084 3.132,-9.6 -1.785,-3.516 -6.084,-4.919 -9.6,-3.132 -3.515,1.786 -4.918,6.084 -3.133,9.599 C -7.814,0.384 -3.517,1.786 0,0" /></g></g><g
       id="g4931"
       transform="translate(811.23562,3.334945)"><g
         transform="translate(804.31507,404.16285)"
         id="g3736"><path
           inkscape:connector-curvature="0"
           id="path3738"
           style="fill:#30617d;fill-opacity:1;fill-rule:nonzero;stroke:none"
           d="m 0,0 -514.146,189.715 c -6.697,2.472 -10.161,9.978 -7.688,16.681 L -451.42,397.222 0,397.222 0,0 Z" /></g><g
         transform="translate(804.31507,412.90985)"
         id="g3740"><path
           inkscape:connector-curvature="0"
           id="path3742"
           style="fill:#ffffff;fill-opacity:1;fill-rule:evenodd;stroke:none"
           d="m 0,0 -520.536,192.073 c -6.698,2.472 -10.161,9.979 -7.689,16.681 L -461.909,388.475 0,388.475 0,0 Z" /></g><g
         transform="translate(804.31507,715.67596)"
         id="g3744"><path
           inkscape:connector-curvature="0"
           id="path3746"
           style="fill:#cccccc;fill-opacity:1;fill-rule:evenodd;stroke:none"
           d="M 0,0 C -0.672,1.199 -0.838,2.674 -0.327,4.057 L 0,4.944 0,0 Z" /></g><g
         transform="translate(790.83857,680.40935)"
         id="g3748"><path
           inkscape:connector-curvature="0"
           id="path3750"
           style="fill:#cccccc;fill-opacity:1;fill-rule:evenodd;stroke:none"
           d="m 0,0 13.477,-4.973 0,-28.977 -22.888,8.446 c -2.509,0.925 -3.802,3.733 -2.876,6.238 l 6.048,16.391 C -5.314,-0.369 -2.509,0.926 0,0" /></g><g
         transform="translate(804.31507,612.47285)"
         id="g3752"><path
           inkscape:connector-curvature="0"
           id="path3754"
           style="fill:#cccccc;fill-opacity:1;fill-rule:evenodd;stroke:none"
           d="M 0,0 -3.333,1.23 C -5.676,2.095 -6.886,4.718 -6.021,7.061 L 0,23.38 0,0 Z" /></g><g
         transform="translate(799.35417,609.29315)"
         id="g3756"><path
           inkscape:connector-curvature="0"
           id="path3758"
           style="fill:#cccccc;fill-opacity:1;fill-rule:evenodd;stroke:none"
           d="m 0,0 4.961,-1.831 0,-28.976 -14.371,5.303 c -2.343,0.864 -3.553,3.488 -2.689,5.831 l 6.268,16.985 C -4.967,-0.345 -2.342,0.864 0,0" /></g><g
         transform="translate(796.04947,773.64085)"
         id="g3760"><path
           inkscape:connector-curvature="0"
           id="path3762"
           style="fill:#cccccc;fill-opacity:1;fill-rule:evenodd;stroke:none"
           d="m 0,0 8.266,-3.05 0,-22.054 c -0.291,0.033 -0.582,0.101 -0.868,0.206 l -14.597,5.386 c -1.917,0.708 -2.907,2.855 -2.199,4.773 L -4.771,-2.2 C -4.064,-0.282 -1.917,0.708 0,0" /></g><g
         transform="translate(768.06897,783.96555)"
         id="g3764"><path
           inkscape:connector-curvature="0"
           id="path3766"
           style="fill:#cccccc;fill-opacity:1;fill-rule:evenodd;stroke:none"
           d="m 0,0 14.598,-5.386 c 1.918,-0.708 2.907,-2.855 2.199,-4.773 L 12.17,-22.698 c -0.707,-1.918 -2.855,-2.907 -4.772,-2.2 l -14.597,5.386 c -1.917,0.708 -2.907,2.855 -2.199,4.772 L -4.771,-2.2 C -4.064,-0.283 -1.917,0.708 0,0" /></g><g
         transform="translate(740.08857,794.28976)"
         id="g3768"><path
           inkscape:connector-curvature="0"
           id="path3770"
           style="fill:#cccccc;fill-opacity:1;fill-rule:evenodd;stroke:none"
           d="m 0,0 14.598,-5.386 c 1.918,-0.707 2.907,-2.855 2.199,-4.772 l -4.627,-12.54 c -0.707,-1.917 -2.855,-2.907 -4.772,-2.199 l -14.597,5.385 c -1.918,0.708 -2.907,2.855 -2.199,4.773 L -4.771,-2.2 C -4.064,-0.282 -1.917,0.708 0,0" /></g><g
         transform="translate(720.86097,801.38495)"
         id="g3772"><path
           inkscape:connector-curvature="0"
           id="path3774"
           style="fill:#cccccc;fill-opacity:1;fill-rule:evenodd;stroke:none"
           d="m 0,0 5.845,-2.157 c 1.918,-0.707 2.907,-2.855 2.199,-4.772 l -4.627,-12.54 c -0.707,-1.917 -2.854,-2.907 -4.772,-2.199 l -14.597,5.386 c -1.918,0.707 -2.907,2.855 -2.199,4.772 L -13.905,0 0,0 Z" /></g><g
         transform="translate(699.67157,801.38495)"
         id="g3776"><path
           inkscape:connector-curvature="0"
           id="path3778"
           style="fill:#cccccc;fill-opacity:1;fill-rule:evenodd;stroke:none"
           d="m 0,0 -3.374,-9.144 c -0.707,-1.918 -2.855,-2.907 -4.772,-2.2 l -14.597,5.386 c -1.918,0.708 -2.907,2.855 -2.199,4.772 L -24.505,0 0,0 Z" /></g><g
         transform="translate(667.60807,801.38495)"
         id="g3780"><path
           inkscape:connector-curvature="0"
           id="path3782"
           style="fill:#cccccc;fill-opacity:1;fill-rule:evenodd;stroke:none"
           d="M 0,0 C -0.987,-1.106 -2.593,-1.562 -4.063,-1.019 L -6.826,0 0,0 Z" /></g><g
         transform="translate(786.08467,750.13796)"
         id="g3784"><path
           inkscape:connector-curvature="0"
           id="path3786"
           style="fill:#cccccc;fill-opacity:1;fill-rule:evenodd;stroke:none"
           d="m 0,0 15.039,-5.55 c 2.3,-0.848 3.487,-3.424 2.639,-5.722 l -6.326,-17.144 c -0.848,-2.299 -3.424,-3.486 -5.723,-2.637 l -15.04,5.549 c -2.299,0.848 -3.486,3.424 -2.639,5.723 l 6.326,17.143 C -4.875,-0.338 -2.3,0.848 0,0" /></g><g
         transform="translate(755.72627,761.33956)"
         id="g3788"><path
           inkscape:connector-curvature="0"
           id="path3790"
           style="fill:#cccccc;fill-opacity:1;fill-rule:evenodd;stroke:none"
           d="m 0,0 15.041,-5.549 c 2.299,-0.849 3.486,-3.425 2.638,-5.723 l -6.326,-17.144 c -0.848,-2.299 -3.424,-3.486 -5.723,-2.637 l -15.04,5.549 c -2.299,0.848 -3.486,3.424 -2.639,5.723 l 6.326,17.143 C -4.874,-0.338 -2.299,0.848 0,0" /></g><g
         transform="translate(725.36877,772.54125)"
         id="g3792"><path
           inkscape:connector-curvature="0"
           id="path3794"
           style="fill:#cccccc;fill-opacity:1;fill-rule:evenodd;stroke:none"
           d="m 0,0 15.04,-5.549 c 2.299,-0.849 3.486,-3.425 2.639,-5.723 l -6.326,-17.144 c -0.849,-2.299 -3.424,-3.486 -5.723,-2.637 l -15.04,5.549 c -2.299,0.848 -3.486,3.424 -2.639,5.723 l 6.326,17.143 C -4.875,-0.338 -2.299,0.849 0,0" /></g><g
         transform="translate(695.01137,783.74285)"
         id="g3796"><path
           inkscape:connector-curvature="0"
           id="path3798"
           style="fill:#cccccc;fill-opacity:1;fill-rule:evenodd;stroke:none"
           d="m 0,0 15.04,-5.549 c 2.299,-0.849 3.486,-3.425 2.639,-5.723 l -6.326,-17.144 c -0.848,-2.299 -3.424,-3.486 -5.723,-2.637 l -15.041,5.549 c -2.299,0.848 -3.485,3.424 -2.638,5.723 l 6.326,17.144 C -4.875,-0.338 -2.299,0.849 0,0" /></g><g
         transform="translate(664.65397,794.94456)"
         id="g3800"><path
           inkscape:connector-curvature="0"
           id="path3802"
           style="fill:#cccccc;fill-opacity:1;fill-rule:evenodd;stroke:none"
           d="m 0,0 15.04,-5.549 c 2.299,-0.849 3.486,-3.425 2.639,-5.723 l -6.326,-17.144 c -0.849,-2.299 -3.424,-3.486 -5.723,-2.637 l -15.041,5.549 c -2.299,0.848 -3.486,3.424 -2.638,5.723 l 6.326,17.143 C -4.875,-0.339 -2.299,0.849 0,0" /></g><g
         transform="translate(647.19987,801.38495)"
         id="g3804"><path
           inkscape:connector-curvature="0"
           id="path3806"
           style="fill:#cccccc;fill-opacity:1;fill-rule:evenodd;stroke:none"
           d="m 0,0 2.137,-0.788 c 2.299,-0.849 3.486,-3.424 2.638,-5.723 l -6.326,-17.143 c -0.848,-2.299 -3.424,-3.487 -5.723,-2.638 l -15.04,5.55 c -2.299,0.847 -3.487,3.424 -2.638,5.722 L -19.41,0 0,0 Z" /></g><g
         transform="translate(619.88637,801.38495)"
         id="g3808"><path
           inkscape:connector-curvature="0"
           id="path3810"
           style="fill:#cccccc;fill-opacity:1;fill-rule:evenodd;stroke:none"
           d="m 0,0 -4.595,-12.453 c -0.848,-2.299 -3.425,-3.486 -5.723,-2.637 l -15.04,5.549 c -2.299,0.849 -3.487,3.424 -2.638,5.723 L -26.587,0 0,0 Z" /></g><g
         transform="translate(585.39617,801.38495)"
         id="g3812"><path
           inkscape:connector-curvature="0"
           id="path3814"
           style="fill:#cccccc;fill-opacity:1;fill-rule:evenodd;stroke:none"
           d="M 0,0 -0.462,-1.251 C -1.311,-3.55 -3.887,-4.737 -6.186,-3.889 L -16.725,0 0,0 Z" /></g><g
         transform="translate(438.08467,801.38495)"
         id="g3816"><path
           inkscape:connector-curvature="0"
           id="path3818"
           style="fill:#cccccc;fill-opacity:1;fill-rule:evenodd;stroke:none"
           d="m 0,0 -4.746,-12.861 c -0.925,-2.506 -3.733,-3.8 -6.237,-2.875 L -48.477,-1.902 C -49.49,-1.528 -50.305,-0.846 -50.856,0 L 0,0 Z" /></g><g
         transform="translate(387.98107,795.07295)"
         id="g3820"><path
           inkscape:connector-curvature="0"
           id="path3822"
           style="fill:#cccccc;fill-opacity:1;fill-rule:evenodd;stroke:none"
           d="m 0,0 53.751,-19.833 c 2.507,-0.925 3.8,-3.732 2.875,-6.239 l -6.048,-16.39 c -0.925,-2.506 -3.731,-3.801 -6.238,-2.875 l -53.751,19.833 c -2.507,0.925 -3.8,3.732 -2.875,6.238 l 6.048,16.391 C -5.313,-0.369 -2.507,0.925 0,0" /></g><g
         transform="translate(376.94257,765.15935)"
         id="g3824"><path
           inkscape:connector-curvature="0"
           id="path3826"
           style="fill:#cccccc;fill-opacity:1;fill-rule:evenodd;stroke:none"
           d="m 0,0 22.319,-8.236 c 2.507,-0.925 3.8,-3.732 2.875,-6.238 l -6.048,-16.39 c -0.924,-2.506 -3.731,-3.801 -6.237,-2.876 l -22.32,8.236 c -2.506,0.925 -3.799,3.732 -2.875,6.238 l 6.049,16.391 C -5.313,-0.37 -2.506,0.925 0,0" /></g><g
         transform="translate(499.23407,801.38495)"
         id="g3828"><path
           inkscape:connector-curvature="0"
           id="path3830"
           style="fill:#cccccc;fill-opacity:1;fill-rule:evenodd;stroke:none"
           d="M 0,0 -1.064,-2.885 C -1.974,-5.348 -4.731,-6.619 -7.193,-5.71 L -22.67,0 0,0 Z" /></g><g
         transform="translate(534.37267,801.38495)"
         id="g3832"><path
           inkscape:connector-curvature="0"
           id="path3834"
           style="fill:#cccccc;fill-opacity:1;fill-rule:evenodd;stroke:none"
           d="m 0,0 -5.275,-14.297 c -0.91,-2.463 -3.668,-3.734 -6.13,-2.825 l -16.108,5.943 c -2.462,0.908 -3.734,3.667 -2.825,6.13 L -28.475,0 0,0 Z" /></g><g
         transform="translate(555.09247,801.38495)"
         id="g3836"><path
           inkscape:connector-curvature="0"
           id="path3838"
           style="fill:#cccccc;fill-opacity:1;fill-rule:evenodd;stroke:none"
           d="m 0,0 8.213,-3.03 c 2.463,-0.909 3.734,-3.667 2.825,-6.13 L 4.932,-25.709 c -0.909,-2.463 -3.667,-3.734 -6.129,-2.825 l -16.108,5.943 c -2.463,0.909 -3.734,3.667 -2.826,6.13 L -14.057,0 0,0 Z" /></g><g
         transform="translate(578.12567,792.88645)"
         id="g3840"><path
           inkscape:connector-curvature="0"
           id="path3842"
           style="fill:#cccccc;fill-opacity:1;fill-rule:evenodd;stroke:none"
           d="m 0,0 16.107,-5.944 c 2.462,-0.908 3.735,-3.666 2.826,-6.13 l -6.107,-16.548 c -0.909,-2.463 -3.667,-3.734 -6.13,-2.826 l -16.107,5.944 c -2.462,0.908 -3.734,3.666 -2.825,6.129 L -6.13,-2.826 C -5.221,-0.362 -2.463,0.908 0,0" /></g><g
         transform="translate(609.05237,781.47436)"
         id="g3844"><path
           inkscape:connector-curvature="0"
           id="path3846"
           style="fill:#cccccc;fill-opacity:1;fill-rule:evenodd;stroke:none"
           d="m 0,0 16.108,-5.943 c 2.462,-0.909 3.734,-3.667 2.825,-6.13 l -6.106,-16.549 c -0.909,-2.463 -3.668,-3.734 -6.13,-2.826 l -16.107,5.944 c -2.462,0.908 -3.735,3.666 -2.825,6.129 l 6.106,16.55 C -5.221,-0.362 -2.462,0.908 0,0" /></g><g
         transform="translate(639.98017,770.06226)"
         id="g3848"><path
           inkscape:connector-curvature="0"
           id="path3850"
           style="fill:#cccccc;fill-opacity:1;fill-rule:evenodd;stroke:none"
           d="m 0,0 16.107,-5.943 c 2.462,-0.909 3.735,-3.667 2.826,-6.13 l -6.107,-16.549 c -0.908,-2.463 -3.667,-3.734 -6.129,-2.825 l -16.108,5.943 c -2.462,0.909 -3.734,3.667 -2.825,6.129 l 6.106,16.55 C -5.221,-0.362 -2.462,0.909 0,0" /></g><g
         transform="translate(670.90687,758.65056)"
         id="g3852"><path
           inkscape:connector-curvature="0"
           id="path3854"
           style="fill:#cccccc;fill-opacity:1;fill-rule:evenodd;stroke:none"
           d="m 0,0 16.108,-5.944 c 2.462,-0.909 3.735,-3.666 2.826,-6.129 l -6.107,-16.55 c -0.909,-2.462 -3.668,-3.733 -6.13,-2.825 l -16.107,5.944 c -2.462,0.908 -3.735,3.666 -2.825,6.129 l 6.106,16.549 C -5.22,-0.362 -2.462,0.908 0,0" /></g><g
         transform="translate(701.83467,747.23846)"
         id="g3856"><path
           inkscape:connector-curvature="0"
           id="path3858"
           style="fill:#cccccc;fill-opacity:1;fill-rule:evenodd;stroke:none"
           d="m 0,0 16.108,-5.944 c 2.462,-0.908 3.734,-3.666 2.825,-6.129 l -6.107,-16.549 c -0.908,-2.463 -3.667,-3.734 -6.129,-2.826 l -16.107,5.944 c -2.463,0.909 -3.735,3.667 -2.826,6.13 L -6.13,-2.825 C -5.221,-0.362 -2.462,0.909 0,0" /></g><g
         transform="translate(732.76237,735.82636)"
         id="g3860"><path
           inkscape:connector-curvature="0"
           id="path3862"
           style="fill:#cccccc;fill-opacity:1;fill-rule:evenodd;stroke:none"
           d="m 0,0 16.107,-5.943 c 2.462,-0.909 3.735,-3.666 2.826,-6.13 l -6.107,-16.549 c -0.909,-2.463 -3.667,-3.734 -6.13,-2.825 l -16.107,5.943 c -2.462,0.909 -3.734,3.667 -2.825,6.13 L -6.13,-2.825 C -5.221,-0.362 -2.462,0.909 0,0" /></g><g
         transform="translate(763.68907,724.41476)"
         id="g3864"><path
           inkscape:connector-curvature="0"
           id="path3866"
           style="fill:#cccccc;fill-opacity:1;fill-rule:evenodd;stroke:none"
           d="m 0,0 16.108,-5.944 c 2.462,-0.908 3.734,-3.666 2.826,-6.129 l -6.107,-16.549 c -0.909,-2.463 -3.668,-3.734 -6.13,-2.826 l -16.107,5.944 c -2.462,0.908 -3.735,3.666 -2.825,6.129 l 6.106,16.549 C -5.22,-0.362 -2.462,0.909 0,0" /></g><g
         transform="translate(794.61687,713.00265)"
         id="g3868"><path
           inkscape:connector-curvature="0"
           id="path3870"
           style="fill:#cccccc;fill-opacity:1;fill-rule:evenodd;stroke:none"
           d="m 0,0 9.698,-3.579 0,-27.963 c -0.953,-0.284 -2.002,-0.274 -3.001,0.095 l -16.108,5.943 c -2.462,0.908 -3.734,3.667 -2.825,6.13 L -6.13,-2.826 C -5.221,-0.362 -2.462,0.909 0,0" /></g><g
         transform="translate(462.98207,801.38495)"
         id="g3872"><path
           inkscape:connector-curvature="0"
           id="path3874"
           style="fill:#cccccc;fill-opacity:1;fill-rule:evenodd;stroke:none"
           d="m 0,0 5.107,-1.884 c 2.462,-0.909 3.734,-3.667 2.825,-6.13 L 1.825,-24.563 c -0.908,-2.463 -3.667,-3.734 -6.129,-2.825 l -16.107,5.943 c -2.463,0.909 -3.735,3.667 -2.825,6.13 L -17.586,0 0,0 Z" /></g><g
         transform="translate(482.90887,794.03246)"
         id="g3876"><path
           inkscape:connector-curvature="0"
           id="path3878"
           style="fill:#cccccc;fill-opacity:1;fill-rule:evenodd;stroke:none"
           d="m 0,0 16.107,-5.944 c 2.462,-0.909 3.735,-3.666 2.826,-6.129 l -6.107,-16.549 c -0.909,-2.463 -3.667,-3.734 -6.129,-2.826 l -16.108,5.944 c -2.462,0.908 -3.735,3.666 -2.825,6.129 L -6.13,-2.826 C -5.221,-0.362 -2.462,0.908 0,0" /></g><g
         transform="translate(513.83557,782.62036)"
         id="g3880"><path
           inkscape:connector-curvature="0"
           id="path3882"
           style="fill:#cccccc;fill-opacity:1;fill-rule:evenodd;stroke:none"
           d="m 0,0 16.108,-5.943 c 2.462,-0.909 3.735,-3.667 2.826,-6.13 l -6.107,-16.549 c -0.909,-2.463 -3.668,-3.734 -6.13,-2.826 l -16.107,5.944 c -2.462,0.908 -3.735,3.667 -2.825,6.13 l 6.106,16.549 C -5.22,-0.362 -2.462,0.908 0,0" /></g><g
         transform="translate(544.76337,771.20875)"
         id="g3884"><path
           inkscape:connector-curvature="0"
           id="path3886"
           style="fill:#cccccc;fill-opacity:1;fill-rule:evenodd;stroke:none"
           d="m 0,0 16.108,-5.944 c 2.461,-0.909 3.734,-3.666 2.825,-6.13 l -6.107,-16.549 c -0.908,-2.463 -3.667,-3.733 -6.129,-2.825 l -16.108,5.944 c -2.462,0.908 -3.734,3.666 -2.824,6.129 l 6.106,16.549 C -5.221,-0.362 -2.462,0.908 0,0" /></g><g
         transform="translate(575.69107,759.79655)"
         id="g3888"><path
           inkscape:connector-curvature="0"
           id="path3890"
           style="fill:#cccccc;fill-opacity:1;fill-rule:evenodd;stroke:none"
           d="m 0,0 16.107,-5.944 c 2.462,-0.908 3.735,-3.666 2.826,-6.129 l -6.107,-16.55 c -0.909,-2.462 -3.667,-3.733 -6.129,-2.825 l -16.108,5.944 c -2.462,0.908 -3.735,3.667 -2.825,6.129 L -6.13,-2.826 C -5.221,-0.362 -2.463,0.909 0,0" /></g><g
         transform="translate(606.61787,748.38445)"
         id="g3892"><path
           inkscape:connector-curvature="0"
           id="path3894"
           style="fill:#cccccc;fill-opacity:1;fill-rule:evenodd;stroke:none"
           d="m 0,0 16.107,-5.944 c 2.463,-0.908 3.735,-3.666 2.827,-6.129 l -6.107,-16.549 c -0.909,-2.463 -3.668,-3.734 -6.13,-2.826 l -16.107,5.944 c -2.463,0.909 -3.735,3.667 -2.825,6.13 l 6.106,16.548 C -5.22,-0.362 -2.462,0.909 0,0" /></g><g
         transform="translate(637.54557,736.97235)"
         id="g3896"><path
           inkscape:connector-curvature="0"
           id="path3898"
           style="fill:#cccccc;fill-opacity:1;fill-rule:evenodd;stroke:none"
           d="m 0,0 16.107,-5.943 c 2.462,-0.909 3.735,-3.667 2.826,-6.13 l -6.107,-16.549 c -0.909,-2.463 -3.667,-3.734 -6.129,-2.825 l -16.108,5.943 c -2.462,0.909 -3.734,3.667 -2.825,6.13 L -6.13,-2.825 C -5.221,-0.362 -2.462,0.909 0,0" /></g><g
         transform="translate(668.47227,725.56075)"
         id="g3900"><path
           inkscape:connector-curvature="0"
           id="path3902"
           style="fill:#cccccc;fill-opacity:1;fill-rule:evenodd;stroke:none"
           d="m 0,0 16.108,-5.943 c 2.462,-0.909 3.735,-3.667 2.826,-6.13 l -6.107,-16.549 c -0.909,-2.463 -3.667,-3.734 -6.13,-2.826 l -16.107,5.944 c -2.462,0.908 -3.735,3.666 -2.825,6.129 l 6.106,16.549 C -5.22,-0.362 -2.462,0.908 0,0" /></g><g
         transform="translate(699.40007,714.14865)"
         id="g3904"><path
           inkscape:connector-curvature="0"
           id="path3906"
           style="fill:#cccccc;fill-opacity:1;fill-rule:evenodd;stroke:none"
           d="m 0,0 16.108,-5.943 c 2.461,-0.909 3.734,-3.667 2.825,-6.13 l -6.107,-16.549 c -0.908,-2.463 -3.667,-3.734 -6.129,-2.825 l -16.108,5.943 c -2.462,0.908 -3.734,3.667 -2.824,6.129 l 6.106,16.55 C -5.221,-0.362 -2.462,0.909 0,0" /></g><g
         transform="translate(730.32777,702.73706)"
         id="g3908"><path
           inkscape:connector-curvature="0"
           id="path3910"
           style="fill:#cccccc;fill-opacity:1;fill-rule:evenodd;stroke:none"
           d="m 0,0 16.107,-5.944 c 2.462,-0.909 3.735,-3.666 2.826,-6.13 l -6.107,-16.549 c -0.909,-2.462 -3.667,-3.733 -6.129,-2.825 l -16.108,5.944 c -2.462,0.908 -3.735,3.666 -2.825,6.129 L -6.13,-2.826 C -5.221,-0.362 -2.462,0.908 0,0" /></g><g
         transform="translate(761.25457,691.32496)"
         id="g3912"><path
           inkscape:connector-curvature="0"
           id="path3914"
           style="fill:#cccccc;fill-opacity:1;fill-rule:evenodd;stroke:none"
           d="m 0,0 16.108,-5.944 c 2.462,-0.908 3.734,-3.666 2.826,-6.129 l -6.107,-16.549 c -0.909,-2.463 -3.668,-3.734 -6.13,-2.826 l -16.107,5.944 c -2.463,0.909 -3.735,3.666 -2.825,6.129 l 6.106,16.55 C -5.221,-0.362 -2.462,0.909 0,0" /></g><g
         transform="translate(457.13537,769.55585)"
         id="g3916"><path
           inkscape:connector-curvature="0"
           id="path3918"
           style="fill:#cccccc;fill-opacity:1;fill-rule:evenodd;stroke:none"
           d="m 0,0 16.107,-5.944 c 2.462,-0.909 3.735,-3.666 2.826,-6.13 l -6.107,-16.549 c -0.909,-2.463 -3.667,-3.733 -6.129,-2.825 l -16.108,5.944 c -2.462,0.908 -3.734,3.666 -2.825,6.129 L -6.13,-2.826 C -5.221,-0.362 -2.462,0.908 0,0" /></g><g
         transform="translate(488.06217,758.14376)"
         id="g3920"><path
           inkscape:connector-curvature="0"
           id="path3922"
           style="fill:#cccccc;fill-opacity:1;fill-rule:evenodd;stroke:none"
           d="m 0,0 16.108,-5.944 c 2.462,-0.909 3.735,-3.666 2.826,-6.129 l -6.107,-16.549 c -0.909,-2.463 -3.667,-3.734 -6.13,-2.826 l -16.107,5.944 c -2.462,0.908 -3.735,3.666 -2.825,6.129 l 6.106,16.55 C -5.22,-0.362 -2.462,0.908 0,0" /></g><g
         transform="translate(518.98987,746.73166)"
         id="g3924"><path
           inkscape:connector-curvature="0"
           id="path3926"
           style="fill:#cccccc;fill-opacity:1;fill-rule:evenodd;stroke:none"
           d="m 0,0 16.107,-5.943 c 2.463,-0.909 3.735,-3.667 2.826,-6.13 l -6.107,-16.549 c -0.908,-2.463 -3.667,-3.734 -6.129,-2.825 l -16.108,5.943 c -2.462,0.909 -3.734,3.667 -2.824,6.13 l 6.106,16.549 C -5.221,-0.362 -2.462,0.909 0,0" /></g><g
         transform="translate(549.91767,735.32006)"
         id="g3928"><path
           inkscape:connector-curvature="0"
           id="path3930"
           style="fill:#cccccc;fill-opacity:1;fill-rule:evenodd;stroke:none"
           d="m 0,0 16.107,-5.944 c 2.462,-0.908 3.735,-3.666 2.826,-6.129 l -6.107,-16.55 c -0.909,-2.462 -3.667,-3.733 -6.129,-2.825 l -16.108,5.944 c -2.462,0.908 -3.735,3.666 -2.825,6.129 L -6.13,-2.826 C -5.221,-0.362 -2.462,0.908 0,0" /></g><g
         transform="translate(580.84437,723.90796)"
         id="g3932"><path
           inkscape:connector-curvature="0"
           id="path3934"
           style="fill:#cccccc;fill-opacity:1;fill-rule:evenodd;stroke:none"
           d="m 0,0 16.108,-5.944 c 2.462,-0.908 3.734,-3.666 2.826,-6.129 l -6.107,-16.55 c -0.909,-2.462 -3.668,-3.733 -6.13,-2.825 l -16.107,5.944 c -2.463,0.908 -3.735,3.667 -2.825,6.129 l 6.106,16.549 C -5.221,-0.362 -2.462,0.909 0,0" /></g><g
         transform="translate(611.77217,712.49585)"
         id="g3936"><path
           inkscape:connector-curvature="0"
           id="path3938"
           style="fill:#cccccc;fill-opacity:1;fill-rule:evenodd;stroke:none"
           d="m 0,0 16.107,-5.944 c 2.462,-0.908 3.735,-3.666 2.826,-6.129 l -6.107,-16.549 c -0.909,-2.463 -3.667,-3.734 -6.129,-2.825 l -16.108,5.943 c -2.462,0.909 -3.734,3.667 -2.825,6.13 L -6.13,-2.826 C -5.221,-0.362 -2.462,0.909 0,0" /></g><g
         transform="translate(642.69987,701.08415)"
         id="g3940"><path
           inkscape:connector-curvature="0"
           id="path3942"
           style="fill:#cccccc;fill-opacity:1;fill-rule:evenodd;stroke:none"
           d="m 0,0 16.107,-5.944 c 2.462,-0.908 3.735,-3.666 2.826,-6.129 l -6.107,-16.549 c -0.909,-2.463 -3.668,-3.734 -6.13,-2.826 l -16.107,5.944 c -2.462,0.908 -3.735,3.666 -2.825,6.129 L -6.13,-2.826 C -5.221,-0.362 -2.463,0.908 0,0" /></g><g
         transform="translate(673.62657,689.67205)"
         id="g3944"><path
           inkscape:connector-curvature="0"
           id="path3946"
           style="fill:#cccccc;fill-opacity:1;fill-rule:evenodd;stroke:none"
           d="m 0,0 16.108,-5.943 c 2.462,-0.909 3.734,-3.667 2.826,-6.13 l -6.107,-16.549 c -0.909,-2.463 -3.668,-3.734 -6.13,-2.826 l -16.108,5.944 c -2.461,0.908 -3.734,3.666 -2.824,6.129 l 6.106,16.55 C -5.221,-0.362 -2.462,0.908 0,0" /></g><g
         transform="translate(704.55437,678.25995)"
         id="g3948"><path
           inkscape:connector-curvature="0"
           id="path3950"
           style="fill:#cccccc;fill-opacity:1;fill-rule:evenodd;stroke:none"
           d="m 0,0 16.107,-5.943 c 2.462,-0.909 3.735,-3.667 2.826,-6.13 l -6.107,-16.549 c -0.909,-2.463 -3.667,-3.734 -6.13,-2.825 l -16.107,5.943 c -2.462,0.908 -3.734,3.667 -2.825,6.13 L -6.13,-2.825 C -5.221,-0.362 -2.462,0.909 0,0" /></g><g
         transform="translate(735.48107,666.84835)"
         id="g3952"><path
           inkscape:connector-curvature="0"
           id="path3954"
           style="fill:#cccccc;fill-opacity:1;fill-rule:evenodd;stroke:none"
           d="m 0,0 16.108,-5.944 c 2.462,-0.908 3.735,-3.666 2.826,-6.129 l -6.107,-16.55 c -0.909,-2.462 -3.668,-3.733 -6.13,-2.825 l -16.107,5.944 c -2.462,0.908 -3.735,3.666 -2.825,6.129 l 6.106,16.549 C -5.221,-0.362 -2.462,0.908 0,0" /></g><g
         transform="translate(766.48797,655.40696)"
         id="g3956"><path
           inkscape:connector-curvature="0"
           id="path3958"
           style="fill:#cccccc;fill-opacity:1;fill-rule:evenodd;stroke:none"
           d="m 0,0 29.126,-10.747 c 2.507,-0.925 3.8,-3.732 2.875,-6.238 l -6.048,-16.391 c -0.925,-2.506 -3.731,-3.8 -6.237,-2.875 l -29.127,10.747 c -2.506,0.925 -3.8,3.732 -2.875,6.238 l 6.048,16.391 C -5.313,-0.369 -2.506,0.925 0,0" /></g><g
         transform="translate(414.66667,751.23946)"
         id="g3960"><path
           inkscape:connector-curvature="0"
           id="path3962"
           style="fill:#cccccc;fill-opacity:1;fill-rule:evenodd;stroke:none"
           d="m 0,0 16.107,-5.943 c 2.462,-0.909 3.735,-3.667 2.826,-6.13 l -6.107,-16.549 c -0.908,-2.463 -3.667,-3.734 -6.129,-2.826 l -16.108,5.944 c -2.462,0.908 -3.734,3.666 -2.825,6.129 l 6.106,16.55 C -5.221,-0.362 -2.462,0.908 0,0" /></g><g
         transform="translate(445.59337,739.82785)"
         id="g3964"><path
           inkscape:connector-curvature="0"
           id="path3966"
           style="fill:#cccccc;fill-opacity:1;fill-rule:evenodd;stroke:none"
           d="m 0,0 16.108,-5.944 c 2.462,-0.909 3.735,-3.666 2.826,-6.13 l -6.107,-16.549 c -0.909,-2.463 -3.668,-3.733 -6.13,-2.825 l -16.107,5.944 c -2.462,0.908 -3.735,3.666 -2.825,6.129 l 6.106,16.549 C -5.22,-0.362 -2.462,0.908 0,0" /></g><g
         transform="translate(476.52117,728.41575)"
         id="g3968"><path
           inkscape:connector-curvature="0"
           id="path3970"
           style="fill:#cccccc;fill-opacity:1;fill-rule:evenodd;stroke:none"
           d="m 0,0 16.108,-5.944 c 2.462,-0.908 3.734,-3.666 2.825,-6.13 l -6.107,-16.549 c -0.908,-2.462 -3.667,-3.733 -6.129,-2.825 l -16.107,5.944 c -2.463,0.908 -3.735,3.666 -2.825,6.129 l 6.106,16.549 C -5.221,-0.362 -2.462,0.908 0,0" /></g><g
         transform="translate(507.44887,717.00365)"
         id="g3972"><path
           inkscape:connector-curvature="0"
           id="path3974"
           style="fill:#cccccc;fill-opacity:1;fill-rule:evenodd;stroke:none"
           d="m 0,0 16.107,-5.944 c 2.462,-0.908 3.735,-3.666 2.826,-6.129 l -6.107,-16.549 c -0.909,-2.463 -3.667,-3.734 -6.13,-2.826 l -16.107,5.944 c -2.462,0.909 -3.735,3.667 -2.825,6.129 l 6.106,16.55 C -5.221,-0.362 -2.463,0.909 0,0" /></g><g
         transform="translate(538.37567,705.59155)"
         id="g3976"><path
           inkscape:connector-curvature="0"
           id="path3978"
           style="fill:#cccccc;fill-opacity:1;fill-rule:evenodd;stroke:none"
           d="m 0,0 16.108,-5.943 c 2.462,-0.909 3.734,-3.667 2.826,-6.13 l -6.107,-16.549 c -0.909,-2.463 -3.668,-3.734 -6.13,-2.826 l -16.107,5.944 c -2.462,0.909 -3.735,3.667 -2.825,6.13 l 6.106,16.549 C -5.22,-0.362 -2.462,0.909 0,0" /></g><g
         transform="translate(569.30337,694.17985)"
         id="g3980"><path
           inkscape:connector-curvature="0"
           id="path3982"
           style="fill:#cccccc;fill-opacity:1;fill-rule:evenodd;stroke:none"
           d="m 0,0 16.107,-5.944 c 2.463,-0.908 3.735,-3.666 2.826,-6.129 l -6.107,-16.549 c -0.908,-2.463 -3.667,-3.734 -6.129,-2.826 l -16.108,5.944 c -2.462,0.908 -3.734,3.666 -2.825,6.129 L -6.13,-2.826 C -5.221,-0.362 -2.462,0.908 0,0" /></g><g
         transform="translate(600.23017,682.76775)"
         id="g3984"><path
           inkscape:connector-curvature="0"
           id="path3986"
           style="fill:#cccccc;fill-opacity:1;fill-rule:evenodd;stroke:none"
           d="m 0,0 16.108,-5.944 c 2.462,-0.908 3.735,-3.666 2.826,-6.129 l -6.107,-16.549 c -0.909,-2.463 -3.667,-3.734 -6.13,-2.825 l -16.107,5.943 c -2.462,0.908 -3.735,3.667 -2.825,6.129 l 6.106,16.55 C -5.22,-0.362 -2.462,0.909 0,0" /></g><g
         transform="translate(631.15787,671.35565)"
         id="g3988"><path
           inkscape:connector-curvature="0"
           id="path3990"
           style="fill:#cccccc;fill-opacity:1;fill-rule:evenodd;stroke:none"
           d="m 0,0 16.108,-5.943 c 2.462,-0.909 3.734,-3.667 2.825,-6.13 l -6.107,-16.549 c -0.908,-2.463 -3.667,-3.734 -6.129,-2.825 l -16.107,5.943 c -2.462,0.909 -3.735,3.667 -2.825,6.13 l 6.106,16.549 C -5.221,-0.362 -2.462,0.909 0,0" /></g><g
         transform="translate(662.08557,659.94356)"
         id="g3992"><path
           inkscape:connector-curvature="0"
           id="path3994"
           style="fill:#cccccc;fill-opacity:1;fill-rule:evenodd;stroke:none"
           d="m 0,0 16.107,-5.943 c 2.462,-0.909 3.735,-3.667 2.826,-6.13 l -6.107,-16.549 c -0.909,-2.463 -3.667,-3.733 -6.129,-2.825 l -16.108,5.944 c -2.462,0.908 -3.735,3.666 -2.825,6.129 L -6.13,-2.825 C -5.221,-0.362 -2.462,0.909 0,0" /></g><g
         transform="translate(693.01237,648.53196)"
         id="g3996"><path
           inkscape:connector-curvature="0"
           id="path3998"
           style="fill:#cccccc;fill-opacity:1;fill-rule:evenodd;stroke:none"
           d="m 0,0 16.108,-5.943 c 2.462,-0.909 3.734,-3.667 2.826,-6.13 l -6.107,-16.549 c -0.909,-2.463 -3.668,-3.734 -6.13,-2.826 l -16.107,5.944 c -2.462,0.909 -3.735,3.667 -2.825,6.129 l 6.106,16.549 C -5.22,-0.362 -2.462,0.908 0,0" /></g><g
         transform="translate(724.01917,637.09105)"
         id="g4000"><path
           inkscape:connector-curvature="0"
           id="path4002"
           style="fill:#cccccc;fill-opacity:1;fill-rule:evenodd;stroke:none"
           d="m 0,0 29.126,-10.748 c 2.506,-0.924 3.8,-3.731 2.876,-6.237 l -6.049,-16.391 c -0.925,-2.506 -3.731,-3.8 -6.237,-2.875 l -29.127,10.747 c -2.506,0.925 -3.8,3.732 -2.875,6.238 l 6.048,16.391 C -5.313,-0.369 -2.506,0.925 0,0" /></g><g
         transform="translate(769.54747,620.29125)"
         id="g4004"><path
           inkscape:connector-curvature="0"
           id="path4006"
           style="fill:#cccccc;fill-opacity:1;fill-rule:evenodd;stroke:none"
           d="m 0,0 15.325,-5.655 c 2.343,-0.864 3.553,-3.488 2.689,-5.831 l -6.268,-16.985 c -0.864,-2.343 -3.489,-3.552 -5.831,-2.688 l -15.326,5.655 c -2.342,0.864 -3.553,3.488 -2.688,5.832 l 6.267,16.984 C -4.967,-0.344 -2.343,0.865 0,0" /></g><g
         transform="translate(510.50457,662.52365)"
         id="g4008"><path
           inkscape:connector-curvature="0"
           id="path4010"
           style="fill:#cccccc;fill-opacity:1;fill-rule:evenodd;stroke:none"
           d="m 0,0 160.712,-59.302 c 2.451,-0.904 3.718,-3.648 2.812,-6.1 l -28.513,-77.274 c -0.905,-2.452 -3.65,-3.716 -6.101,-2.811 l -160.712,59.301 c -2.451,0.905 -3.718,3.648 -2.812,6.101 L -6.101,-2.812 C -5.196,-0.359 -2.451,0.904 0,0" /></g><g
         transform="translate(473.03967,571.86735)"
         id="g4012"><path
           inkscape:connector-curvature="0"
           id="path4014"
           style="fill:#cccccc;fill-opacity:1;fill-rule:evenodd;stroke:none"
           d="m 0,0 79.932,-29.495 c 0.506,-0.186 0.771,-0.757 0.583,-1.266 l -5.922,-16.05 c -0.188,-0.509 -0.76,-0.771 -1.267,-0.585 l -79.93,29.495 c -0.507,0.187 -0.772,0.757 -0.584,1.267 l 5.922,16.049 C -1.078,-0.075 -0.506,0.187 0,0" /></g><g
         transform="translate(560.88447,539.45335)"
         id="g4016"><path
           inkscape:connector-curvature="0"
           id="path4018"
           style="fill:#cccccc;fill-opacity:1;fill-rule:evenodd;stroke:none"
           d="m 0,0 79.932,-29.494 c 0.506,-0.187 0.771,-0.757 0.583,-1.267 l -5.922,-16.05 c -0.189,-0.509 -0.76,-0.771 -1.267,-0.584 l -79.931,29.494 c -0.506,0.187 -0.771,0.757 -0.583,1.267 l 5.922,16.05 C -1.078,-0.075 -0.507,0.187 0,0" /></g></g><g
       id="g4805"
       transform="translate(588.95211,175.80659)"><g
         transform="translate(30.348766,410.16966)"
         id="g3464"><path
           inkscape:connector-curvature="0"
           id="path3466"
           style="fill:#30617d;fill-opacity:1;fill-rule:evenodd;stroke:none"
           d="M 0,0 266.641,127.193 446.528,-249.912 179.888,-377.105 0,0 Z" /></g><g
         transform="translate(20.442066,418.43185)"
         id="g3576"><path
           inkscape:connector-curvature="0"
           id="path3578"
           style="fill:#ffffff;fill-opacity:1;fill-rule:evenodd;stroke:none"
           d="M 0,0 266.64,127.193 446.528,-249.912 179.888,-377.105 0,0 Z" /></g><g
         transform="translate(108.30627,410.76096)"
         id="g3580"><path
           inkscape:connector-curvature="0"
           id="path3582"
           style="fill:#cccccc;fill-opacity:1;fill-rule:evenodd;stroke:none"
           d="M 0,0 129.448,61.75 132.615,55.111 3.167,-6.638 0,0 Z" /></g><g
         transform="translate(72.098266,373.11646)"
         id="g3584"><path
           inkscape:connector-curvature="0"
           id="path3586"
           style="fill:#cccccc;fill-opacity:1;fill-rule:evenodd;stroke:none"
           d="M 0,0 217.698,103.847 220.864,97.208 3.167,-6.638 0,0 Z" /></g><g
         transform="translate(77.639766,361.49925)"
         id="g3588"><path
           inkscape:connector-curvature="0"
           id="path3590"
           style="fill:#cccccc;fill-opacity:1;fill-rule:evenodd;stroke:none"
           d="M 0,0 217.698,103.847 220.865,97.209 3.167,-6.638 0,0 Z" /></g><g
         transform="translate(83.181266,349.88306)"
         id="g3592"><path
           inkscape:connector-curvature="0"
           id="path3594"
           style="fill:#cccccc;fill-opacity:1;fill-rule:evenodd;stroke:none"
           d="M 0,0 217.698,103.846 220.865,97.208 3.167,-6.639 0,0 Z" /></g><g
         transform="translate(88.722766,338.26585)"
         id="g3596"><path
           inkscape:connector-curvature="0"
           id="path3598"
           style="fill:#cccccc;fill-opacity:1;fill-rule:evenodd;stroke:none"
           d="M 0,0 217.698,103.847 220.864,97.208 3.167,-6.639 0,0 Z" /></g><g
         transform="translate(94.264266,326.64866)"
         id="g3600"><path
           inkscape:connector-curvature="0"
           id="path3602"
           style="fill:#cccccc;fill-opacity:1;fill-rule:evenodd;stroke:none"
           d="M 0,0 217.698,103.847 220.865,97.208 3.167,-6.639 0,0 Z" /></g><g
         transform="translate(99.805766,315.03145)"
         id="g3604"><path
           inkscape:connector-curvature="0"
           id="path3606"
           style="fill:#cccccc;fill-opacity:1;fill-rule:evenodd;stroke:none"
           d="M 0,0 217.698,103.847 220.865,97.208 3.167,-6.638 0,0 Z" /></g><g
         transform="translate(105.34777,303.41525)"
         id="g3608"><path
           inkscape:connector-curvature="0"
           id="path3610"
           style="fill:#cccccc;fill-opacity:1;fill-rule:evenodd;stroke:none"
           d="M 0,0 217.698,103.846 220.864,97.208 3.167,-6.639 0,0 Z" /></g><g
         transform="translate(110.88927,291.79806)"
         id="g3612"><path
           inkscape:connector-curvature="0"
           id="path3614"
           style="fill:#cccccc;fill-opacity:1;fill-rule:evenodd;stroke:none"
           d="M 0,0 217.698,103.847 220.864,97.208 3.167,-6.639 0,0 Z" /></g><g
         transform="translate(116.43077,280.18085)"
         id="g3616"><path
           inkscape:connector-curvature="0"
           id="path3618"
           style="fill:#cccccc;fill-opacity:1;fill-rule:evenodd;stroke:none"
           d="M 0,0 108.849,51.924 112.016,45.285 3.167,-6.639 0,0 Z" /></g><g
         transform="translate(323.07487,334.54705)"
         id="g3620"><path
           inkscape:connector-curvature="0"
           id="path3622"
           style="fill:#4c8eb4;fill-opacity:1;fill-rule:evenodd;stroke:none"
           d="m 0,0 c 15.592,7.438 34.26,0.827 41.698,-14.764 7.437,-15.591 0.827,-34.26 -14.764,-41.698 -15.592,-7.437 -34.261,-0.827 -41.698,14.765 C -22.202,-26.106 -15.592,-7.438 0,0" /></g><g
         transform="translate(332.25067,275.33226)"
         id="g3624"><path
           inkscape:connector-curvature="0"
           id="path3626"
           style="fill:#9acae6;fill-opacity:1;fill-rule:evenodd;stroke:none"
           d="M 0,0 C -5.329,0.743 -10.413,2.85 -14.714,6.133 L 4.292,30.984 0,0 Z" /></g><g
         transform="translate(317.53627,281.46505)"
         id="g3628"><path
           inkscape:connector-curvature="0"
           id="path3630"
           style="fill:#87bbda;fill-opacity:1;fill-rule:evenodd;stroke:none"
           d="M 0,0 C -3.816,2.914 -7.017,6.753 -9.226,11.384 -13.532,20.411 -13.128,30.47 -9,38.782 L 19.006,24.852 0,0 Z" /></g><g
         transform="translate(308.53627,320.24725)"
         id="g3632"><path
           inkscape:connector-curvature="0"
           id="path3634"
           style="fill:#73accd;fill-opacity:1;fill-rule:evenodd;stroke:none"
           d="M 0,0 C 3.002,6.046 7.974,11.169 14.539,14.3 L 28.006,-13.931 0,0 Z" /></g><g
         transform="translate(323.07487,334.54705)"
         id="g3636"><path
           inkscape:connector-curvature="0"
           id="path3638"
           style="fill:#609dc1;fill-opacity:1;fill-rule:evenodd;stroke:none"
           d="M 0,0 13.467,-28.23 24.141,1.168 C 16.538,3.928 7.876,3.758 0,0" /></g><g
         transform="translate(162.83167,182.90845)"
         id="g3640"><path
           inkscape:connector-curvature="0"
           id="path3642"
           style="fill:#cccccc;fill-opacity:1;fill-rule:evenodd;stroke:none"
           d="M 0,0 129.536,61.792 131.117,58.478 1.581,-3.314 0,0 Z" /></g><g
         transform="translate(129.73987,252.27956)"
         id="g3644"><path
           inkscape:connector-curvature="0"
           id="path3646"
           style="fill:#4c8eb4;fill-opacity:1;fill-rule:evenodd;stroke:none"
           d="M 0,0 23.028,10.985 56.12,-58.386 33.092,-69.371 0,0 Z" /></g><g
         transform="translate(168.84437,238.82345)"
         id="g3648"><path
           inkscape:connector-curvature="0"
           id="path3650"
           style="fill:#609dc1;fill-opacity:1;fill-rule:evenodd;stroke:none"
           d="M 0,0 23.029,10.985 43.643,-32.229 20.614,-43.213 0,0 Z" /></g><g
         transform="translate(202.45227,236.89086)"
         id="g3652"><path
           inkscape:connector-curvature="0"
           id="path3654"
           style="fill:#73accd;fill-opacity:1;fill-rule:evenodd;stroke:none"
           d="M 0,0 23.029,10.985 36.662,-17.594 13.633,-28.579 0,0 Z" /></g><g
         transform="translate(222.68667,262.99335)"
         id="g3656"><path
           inkscape:connector-curvature="0"
           id="path3658"
           style="fill:#87bbda;fill-opacity:1;fill-rule:evenodd;stroke:none"
           d="M 0,0 23.029,10.985 43.054,-30.995 20.026,-41.979 0,0 Z" /></g><g
         transform="translate(255.01917,263.73455)"
         id="g3660"><path
           inkscape:connector-curvature="0"
           id="path3662"
           style="fill:#9acae6;fill-opacity:1;fill-rule:evenodd;stroke:none"
           d="M 0,0 23.029,10.985 37.349,-19.034 14.32,-30.02 0,0 Z" /></g><g
         transform="translate(325.86297,260.67795)"
         id="g3664"><path
           inkscape:connector-curvature="0"
           id="path3666"
           style="fill:#cccccc;fill-opacity:1;fill-rule:evenodd;stroke:none"
           d="M 0,0 11.621,5.544 13.202,2.229 1.581,-3.314 0,0 Z" /></g><g
         transform="translate(342.86637,268.78926)"
         id="g3668"><path
           inkscape:connector-curvature="0"
           id="path3670"
           style="fill:#cccccc;fill-opacity:1;fill-rule:evenodd;stroke:none"
           d="M 0,0 34.524,16.469 36.104,13.154 1.581,-3.314 0,0 Z" /></g><g
         transform="translate(169.41717,169.10275)"
         id="g3672"><path
           inkscape:connector-curvature="0"
           id="path3674"
           style="fill:#cccccc;fill-opacity:1;fill-rule:evenodd;stroke:none"
           d="M 0,0 99.91,47.659 103.076,41.021 3.167,-6.638 0,0 Z" /></g><g
         transform="translate(174.95867,157.48655)"
         id="g3676"><path
           inkscape:connector-curvature="0"
           id="path3678"
           style="fill:#cccccc;fill-opacity:1;fill-rule:evenodd;stroke:none"
           d="M 0,0 99.91,47.659 103.076,41.021 3.167,-6.639 0,0 Z" /></g><g
         transform="translate(180.50017,145.86936)"
         id="g3680"><path
           inkscape:connector-curvature="0"
           id="path3682"
           style="fill:#cccccc;fill-opacity:1;fill-rule:evenodd;stroke:none"
           d="M 0,0 99.91,47.659 103.076,41.021 3.167,-6.639 0,0 Z" /></g><g
         transform="translate(186.04167,134.25216)"
         id="g3684"><path
           inkscape:connector-curvature="0"
           id="path3686"
           style="fill:#cccccc;fill-opacity:1;fill-rule:evenodd;stroke:none"
           d="M 0,0 99.91,47.659 103.076,41.021 3.167,-6.639 0,0 Z" /></g><g
         transform="translate(191.58367,122.63496)"
         id="g3688"><path
           inkscape:connector-curvature="0"
           id="path3690"
           style="fill:#cccccc;fill-opacity:1;fill-rule:evenodd;stroke:none"
           d="M 0,0 99.909,47.659 103.076,41.021 3.167,-6.638 0,0 Z" /></g><g
         transform="translate(197.12517,111.01876)"
         id="g3692"><path
           inkscape:connector-curvature="0"
           id="path3694"
           style="fill:#cccccc;fill-opacity:1;fill-rule:evenodd;stroke:none"
           d="M 0,0 99.909,47.658 103.076,41.021 3.167,-6.639 0,0 Z" /></g><g
         transform="translate(202.66667,99.401555)"
         id="g3696"><path
           inkscape:connector-curvature="0"
           id="path3698"
           style="fill:#cccccc;fill-opacity:1;fill-rule:evenodd;stroke:none"
           d="M 0,0 99.909,47.659 103.076,41.021 3.167,-6.639 0,0 Z" /></g><g
         transform="translate(208.20817,87.784355)"
         id="g3700"><path
           inkscape:connector-curvature="0"
           id="path3702"
           style="fill:#cccccc;fill-opacity:1;fill-rule:evenodd;stroke:none"
           d="M 0,0 49.955,23.829 53.121,17.191 3.167,-6.639 0,0 Z" /></g><g
         transform="translate(287.20567,225.29125)"
         id="g3704"><path
           inkscape:connector-curvature="0"
           id="path3706"
           style="fill:#cccccc;fill-opacity:1;fill-rule:evenodd;stroke:none"
           d="M 0,0 99.91,47.659 103.076,41.021 3.167,-6.639 0,0 Z" /></g><g
         transform="translate(292.74727,213.67405)"
         id="g3708"><path
           inkscape:connector-curvature="0"
           id="path3710"
           style="fill:#cccccc;fill-opacity:1;fill-rule:evenodd;stroke:none"
           d="M 0,0 99.909,47.659 103.076,41.021 3.167,-6.639 0,0 Z" /></g><g
         transform="translate(298.28877,202.05686)"
         id="g3712"><path
           inkscape:connector-curvature="0"
           id="path3714"
           style="fill:#cccccc;fill-opacity:1;fill-rule:evenodd;stroke:none"
           d="M 0,0 99.909,47.659 103.076,41.021 3.167,-6.639 0,0 Z" /></g><g
         transform="translate(303.83027,190.43966)"
         id="g3716"><path
           inkscape:connector-curvature="0"
           id="path3718"
           style="fill:#cccccc;fill-opacity:1;fill-rule:evenodd;stroke:none"
           d="M 0,0 99.91,47.659 103.076,41.021 3.167,-6.638 0,0 Z" /></g><g
         transform="translate(309.37177,178.82345)"
         id="g3720"><path
           inkscape:connector-curvature="0"
           id="path3722"
           style="fill:#cccccc;fill-opacity:1;fill-rule:evenodd;stroke:none"
           d="M 0,0 99.909,47.658 103.076,41.021 3.167,-6.639 0,0 Z" /></g><g
         transform="translate(314.91377,167.20625)"
         id="g3724"><path
           inkscape:connector-curvature="0"
           id="path3726"
           style="fill:#cccccc;fill-opacity:1;fill-rule:evenodd;stroke:none"
           d="M 0,0 99.909,47.659 103.076,41.021 3.167,-6.639 0,0 Z" /></g><g
         transform="translate(320.45527,155.58905)"
         id="g3728"><path
           inkscape:connector-curvature="0"
           id="path3730"
           style="fill:#cccccc;fill-opacity:1;fill-rule:evenodd;stroke:none"
           d="M 0,0 99.909,47.659 103.076,41.021 3.167,-6.639 0,0 Z" /></g><g
         transform="translate(325.99627,143.97185)"
         id="g3732"><path
           inkscape:connector-curvature="0"
           id="path3734"
           style="fill:#cccccc;fill-opacity:1;fill-rule:evenodd;stroke:none"
           d="M 0,0 70.324,33.546 73.49,26.908 3.167,-6.638 0,0 Z" /></g><g
         transform="translate(464.50457,298.26296)"
         id="g4020"><path
           inkscape:connector-curvature="0"
           id="path4022"
           style="fill:#30617d;fill-opacity:1;fill-rule:evenodd;stroke:none"
           d="m 0,0 -1.688,-25.312 -17.544,18.323 -59.64,164.097 0.001,0.001 -2.23,6.134 -2.807,7.724 c -1.049,2.885 0.454,6.103 3.34,7.152 l 4.37,1.588 4.371,1.589 c 2.885,1.049 6.104,-0.455 7.152,-3.339 L -59.638,164.098 0,0 Z" /></g><g
         transform="translate(455.27897,303.79316)"
         id="g4024"><path
           inkscape:connector-curvature="0"
           id="path4026"
           style="fill:#f85a68;fill-opacity:1;fill-rule:evenodd;stroke:none"
           d="m 0,0 -1.688,-25.312 -17.544,18.323 -64.676,177.956 c -1.049,2.885 0.454,6.103 3.339,7.152 l 8.742,3.176 c 2.885,1.049 6.103,-0.454 7.152,-3.338 L 0,0 Z" /></g><g
         transform="translate(455.27897,303.79316)"
         id="g4028"><path
           inkscape:connector-curvature="0"
           id="path4030"
           style="fill:#c62229;fill-opacity:1;fill-rule:evenodd;stroke:none"
           d="m 0,0 -1.688,-25.313 -8.246,22.69 -66.264,182.331 4.371,1.588 c 2.885,1.049 6.103,-0.455 7.152,-3.339 L 0,0 Z" /></g><g
         transform="translate(455.27897,303.79316)"
         id="g4032"><path
           inkscape:connector-curvature="0"
           id="path4034"
           style="fill:#ffffff;fill-opacity:1;fill-rule:evenodd;stroke:none"
           d="m 0,0 -1.688,-25.312 -17.544,18.323 -61.869,170.232 c 6.353,3.612 12.74,5.875 19.233,6.99 L 0,0 Z" /></g><g
         transform="translate(455.27897,303.79316)"
         id="g4036"><path
           inkscape:connector-curvature="0"
           id="path4038"
           style="fill:#d0d0d0;fill-opacity:1;fill-rule:evenodd;stroke:none"
           d="m 0,0 -1.688,-25.313 -8.246,22.69 -61.858,170.205 c 3.286,1.204 6.591,2.079 9.924,2.651 L 0,0 Z" /></g><g
         transform="translate(455.27897,303.79316)"
         id="g4040"><path
           inkscape:connector-curvature="0"
           id="path4042"
           style="fill:#f5e6b6;fill-opacity:1;fill-rule:evenodd;stroke:none"
           d="m 0,0 -1.688,-25.312 -17.544,18.323 -59.64,164.097 c 6.362,3.706 12.747,5.965 19.233,6.99 L 0,0 Z" /></g><g
         transform="translate(455.27897,303.79316)"
         id="g4044"><path
           inkscape:connector-curvature="0"
           id="path4046"
           style="fill:#ffd800;fill-opacity:1;fill-rule:evenodd;stroke:none"
           d="m 0,0 -1.688,-25.313 -8.246,22.69 -59.649,164.129 c 3.295,1.211 6.606,2.065 9.945,2.592 L 0,0 Z" /></g><g
         transform="translate(455.27897,303.79316)"
         id="g4048"><path
           inkscape:connector-curvature="0"
           id="path4050"
           style="fill:#f0b16c;fill-opacity:1;fill-rule:evenodd;stroke:none"
           d="M 0,0 -1.688,-25.312 -19.232,-6.99 c 2.848,1.677 5.963,3.154 9.299,4.366 C -6.598,-1.411 -3.262,-0.543 0,0" /></g><g
         transform="translate(455.27797,303.79316)"
         id="g4052"><path
           inkscape:connector-curvature="0"
           id="path4054"
           style="fill:#c78b4c;fill-opacity:1;fill-rule:evenodd;stroke:none"
           d="m 0,0 -1.687,-25.313 -8.246,22.69 C -6.597,-1.411 -3.26,-0.543 0,0" /></g><g
         transform="translate(454.14907,286.84296)"
         id="g4056"><path
           inkscape:connector-curvature="0"
           id="path4058"
           style="fill:#1e1e1e;fill-opacity:1;fill-rule:evenodd;stroke:none"
           d="m 0,0 -0.558,-8.361 -5.796,6.052 c 0.941,0.554 1.97,1.042 3.073,1.443 C -2.18,-0.466 -1.078,-0.179 0,0" /></g></g></g></svg>