<?xml version="1.0" encoding="UTF-8" standalone="no"?>
<!-- Created with Inkscape (http://www.inkscape.org/) -->

<svg
   xmlns:dc="http://purl.org/dc/elements/1.1/"
   xmlns:cc="http://creativecommons.org/ns#"
   xmlns:rdf="http://www.w3.org/1999/02/22-rdf-syntax-ns#"
   xmlns:svg="http://www.w3.org/2000/svg"
   xmlns="http://www.w3.org/2000/svg"
   xmlns:sodipodi="http://sodipodi.sourceforge.net/DTD/sodipodi-0.dtd"
   xmlns:inkscape="http://www.inkscape.org/namespaces/inkscape"
   width="103.59451"
   height="49.92662"
   viewBox="0 0 103.59451 49.926621"
   id="svg71562"
   version="1.1"
   inkscape:version="0.91 r13725"
   sodipodi:docname="glasses.svg">
  <defs
     id="defs71564" />
  <sodipodi:namedview
     id="base"
     pagecolor="#ffffff"
     bordercolor="#666666"
     borderopacity="1.0"
     inkscape:pageopacity="0.0"
     inkscape:pageshadow="2"
     inkscape:zoom="0.35"
     inkscape:cx="-387.48846"
     inkscape:cy="-157.89381"
     inkscape:document-units="px"
     inkscape:current-layer="layer1"
     showgrid="false"
     inkscape:window-width="1920"
     inkscape:window-height="1017"
     inkscape:window-x="-8"
     inkscape:window-y="-8"
     inkscape:window-maximized="1"
     units="px"
     fit-margin-top="0"
     fit-margin-left="0"
     fit-margin-right="0"
     fit-margin-bottom="0" />
  <metadata
     id="metadata71567">
    <rdf:RDF>
      <cc:Work
         rdf:about="">
        <dc:format>image/svg+xml</dc:format>
        <dc:type
           rdf:resource="http://purl.org/dc/dcmitype/StillImage" />
        <dc:title></dc:title>
      </cc:Work>
    </rdf:RDF>
  </metadata>
  <g
     inkscape:label="Layer 1"
     inkscape:groupmode="layer"
     id="layer1"
     transform="translate(-228.20274,-324.54175)">
    <path
       inkscape:connector-curvature="0"
       id="path5592"
       style="fill:#30617d;fill-opacity:1;fill-rule:evenodd;stroke:none"
       d="m 282.109,340.0274 c -2.91924,-0.518 -14.26653,-6.12441 -22.60791,-8.51999 -8.34948,-2.398 -21.15519,-3.87423 -23.46933,-3.61179 -2.76738,0.31347 -2.88525,0.51071 -3.39717,2.46483 -0.51192,1.95372 -0.5277,3.71628 0.906,4.536 1.83222,1.04733 1.49688,3.44129 1.3296,10.22261 -1.43976,2.8111 -2.20725,5.74938 -2.57739,7.59861 -0.71202,3.55387 2.35749,5.7267 4.36833,2.55798 1.92696,3.31209 5.72709,6.09849 12.94542,8.12025 12.69633,3.5559 18.68061,-3.8799 20.61165,-6.27507 3.44331,-4.27073 3.99531,-10.99859 10.5069,-9.69408 6.51159,1.3041 4.56963,7.63222 6.10215,12.89965 0.85941,2.95407 3.37932,12.2144 16.46607,13.82184 7.45848,0.91652 12.04269,-0.19926 15.09681,-2.52517 0.62409,3.72397 4.30674,2.90506 5.01996,-0.6557 0.3726,-1.86178 0.79986,-4.89564 0.5427,-8.06679 2.43891,-6.28033 3.05451,-8.60584 5.1423,-8.86626 1.63944,-0.20452 2.30361,-1.83667 2.58348,-3.83737 0.27984,-2.0007 0.24705,-2.22791 -2.18619,-3.58263 -2.03472,-1.1336 -14.42043,-4.70327 -23.05017,-5.70564 -7.71483,-0.89586 -17.46441,0.33736 -24.33321,-0.88128" />
    <path
       inkscape:connector-curvature="0"
       id="path5596"
       style="fill:#254659;fill-opacity:1;fill-rule:evenodd;stroke:none"
       d="m 231.87438,325.49285 c 16.37334,2.91681 72.82668,19.14557 81.22804,22.91814 8.4017,3.77217 7.20776,14.81045 6.32243,19.23224 -0.88575,4.42138 -6.35121,4.6174 -4.85271,-2.86538 1.49893,-7.48278 1.65888,-11.66724 -3.46599,-13.17181 -5.12525,-1.50458 -74.80026,-19.45499 -79.66388,-20.56833 -4.86405,-1.11335 -2.78802,-6.40022 0.43211,-5.54486" />
    <path
       inkscape:connector-curvature="0"
       id="path5600"
       style="fill:#254659;fill-opacity:1;fill-rule:evenodd;stroke:none"
       d="m 325.33802,344.21186 c -16.23364,-3.61382 -74.58276,-10.37772 -83.78883,-10.13189 -9.20608,0.24624 -12.35617,10.89248 -13.2415,15.31427 -0.88571,4.42138 4.08321,6.7068 5.58171,-0.77558 1.4985,-7.48278 2.9626,-11.40601 8.27172,-10.82119 5.30874,0.58482 76.52275,10.85238 81.44068,11.69842 4.91709,0.84605 5.03735,-4.83327 1.73622,-5.28403" />
    <path
       inkscape:connector-curvature="0"
       id="path5604"
       style="fill:#000000;fill-opacity:1;fill-rule:evenodd;stroke:none"
       d="m 251.27123,327.11642 c -7.89912,-1.75527 -17.27649,-2.76534 -19.22493,-2.54462 -2.76738,0.31347 -2.88483,0.51111 -3.39636,2.46483 -0.51273,1.95372 -0.5277,3.71628 0.906,4.536 1.9533,1.11699 1.44261,3.76529 1.29924,11.6312 -0.13041,7.16404 1.82694,13.2439 14.7663,16.86825 2.05578,0.57591 3.93498,0.86224 5.64975,0.92947 l 0,-1.99098 c -6.80157,-0.29443 -15.43089,-4.14679 -17.25462,-9.85081 -2.14893,-6.72341 -0.53583,-19.11357 4.2861,-20.79473 1.86867,-0.65124 7.22157,-0.31104 12.96852,0.91328 l 0,-2.16189 z m 26.8527,9.58716 c -2.91924,-0.518 -14.26653,-6.12441 -22.60788,-8.51999 -1.32273,-0.38029 -2.75766,-0.7371 -4.24482,-1.06717 l 0,2.16189 c 7.43703,1.58355 15.53418,4.64737 17.59401,8.95779 3.06909,6.42127 -6.40185,18.67738 -13.40388,20.41969 -1.24092,0.30902 -2.67018,0.42039 -4.19013,0.35478 l 0,1.99098 c 8.87679,0.34911 13.34313,-5.19696 14.96151,-7.20414 3.44331,-4.27113 3.99531,-10.99899 10.50732,-9.69489 6.51159,1.3041 4.5696,7.63263 6.10212,12.90047 0.85983,2.95366 3.37935,12.21399 16.46529,13.82143 0.89304,0.10976 1.74393,0.18954 2.55675,0.2426 l 0,-1.96061 c -4.25169,-0.2025 -8.47908,-1.43572 -11.09211,-3.3781 -5.79111,-4.30475 -9.81075,-19.26342 -4.50606,-24.00719 2.9241,-2.61508 9.28017,-2.88562 15.59817,-2.12341 l 0,-2.07684 c -7.6164,-0.77072 -17.04603,0.37057 -23.74029,-0.81729 m 23.74029,34.36344 c 11.32866,0.73629 15.10569,-3.90704 17.56731,-10.12298 2.89656,-7.3143 3.44532,-9.9553 5.6781,-10.23313 1.63902,-0.20493 2.30361,-1.83708 2.58348,-3.83778 0.27984,-2.0003 0.24786,-2.22791 -2.18538,-3.58263 -2.03553,-1.1336 -14.42124,-4.70327 -23.05059,-5.70524 -0.19641,-0.0231 -0.39405,-0.0441 -0.59292,-0.0644 l 0,2.07684 c 7.32321,0.88411 14.59419,3.15738 16.40898,4.78386 3.80214,3.40848 0.51963,15.46411 -4.05324,20.8413 -2.53935,2.98566 -7.46412,4.11642 -12.35574,3.88354 l 0,1.96061 z" />
    <path
       inkscape:connector-curvature="0"
       id="path5608"
       style="fill:#b0cad9;fill-opacity:1;fill-rule:evenodd;stroke:none"
       d="m 318.27307,344.3815 c -3.38052,-3.0298 -25.69401,-8.30614 -32.00673,-2.66044 -5.30511,4.74417 -1.28508,19.70244 4.50603,24.00718 5.61936,4.17677 18.70047,5.07587 23.44746,-0.50544 4.57287,-5.37678 7.8558,-17.43282 4.05324,-20.8413 M 238.303,328.36497 c 4.2861,-1.49445 26.91063,2.22993 30.5625,9.87106 3.0687,6.42128 -6.40224,18.67739 -13.40427,20.4197 -6.79428,1.69128 -19.2132,-2.51748 -21.44436,-9.49604 -2.14932,-6.7234 -0.5358,-19.11357 4.28613,-20.79472" />
    <path
       inkscape:connector-curvature="0"
       id="path5612"
       style="fill:#d1e2eb;fill-opacity:1;fill-rule:evenodd;stroke:none"
       d="m 240.60479,328.0498 c 7.19118,-0.2183 25.05129,3.47085 28.26051,10.18615 2.15256,4.5036 -1.86381,11.87744 -6.87042,16.48107 L 240.60479,328.0498 Z" />
    <path
       inkscape:connector-curvature="0"
       id="path5616"
       style="fill:#d1e2eb;fill-opacity:1;fill-rule:evenodd;stroke:none"
       d="m 290.38933,339.79603 21.787,27.16092 c 0.78284,-0.48843 1.47377,-1.06394 2.04363,-1.73421 4.57283,-5.37678 7.85538,-17.43282 4.05324,-20.8413 -2.83867,-2.54421 -19.03014,-6.67197 -27.88387,-4.58541" />
    <path
       inkscape:connector-curvature="0"
       id="path5620"
       style="fill:#617f91;fill-opacity:1;fill-rule:evenodd;stroke:none"
       d="m 243.88513,328.15976 c 5.58252,1.37052 12.14676,3.09218 18.98559,4.95761 1.7982,0.90639 3.34692,1.92739 4.47972,3.05653 l 0,0 0.0308,0.0304 0.004,0.004 c 0.0494,0.0494 0.0984,0.0996 0.1458,0.14985 l 0.0178,0.0182 0.0117,0.0121 0.0288,0.0312 0.0292,0.0312 0.009,0.0101 0.0194,0.0206 0.0285,0.0312 0.0285,0.0312 0.003,0.002 0.0263,0.0288 0.0275,0.0312 0.0224,0.0255 0.006,0.006 0.0272,0.0312 0.0266,0.0312 0.0146,0.017 0.0126,0.0146 0.0266,0.0316 0.0266,0.0316 0.007,0.009 0.0194,0.0231 0.0259,0.0316 0.0262,0.0316 0,3.3e-4 0.0259,0.0316 0.0256,0.032 0.0185,0.0231 0.006,0.009 0.025,0.0316 0.0246,0.032 0.0243,0.032 0.0246,0.032 0.0243,0.032 0.005,0.006 0.0191,0.0263 0.0236,0.032 0.0224,0.03 0.003,0.003 0.0237,0.0324 0.0227,0.0324 0.0149,0.0215 0.008,0.0109 0.0224,0.0324 0.0224,0.0324 0.009,0.013 0.0133,0.0199 0.0214,0.0324 0.0214,0.0328 0.003,0.004 0.0181,0.0279 0.0214,0.0332 0.0181,0.0288 0.003,0.004 0.0201,0.0332 0.0207,0.0328 0.012,0.0194 0.008,0.0138 0.0198,0.0328 0.0198,0.0332 0.006,0.0109 0.0126,0.0223 0.0194,0.0336 0.0191,0.0328 0.003,0.002 0.0175,0.0312 0.0181,0.0332 0.0149,0.0267 0.004,0.007 0.0178,0.0332 0.0272,0.0514 0.008,0.0158 0.0344,0.0672 0.004,0.009 0.0126,0.0251 0.0328,0.0676 0.0168,0.0352 0.005,0.0117 0.0117,0.0243 0.01,0.0227 0.006,0.0134 0.0156,0.034 0,0.002 0.0159,0.036 0.005,0.0101 0.0113,0.0263 0.009,0.0215 0.006,0.015 0.0139,0.0332 0,0.003 0.0149,0.0365 0.003,0.009 0.0113,0.0279 0.0282,0.0737 0.0139,0.0369 0.003,0.007 0.0107,0.0304 c 0.31509,0.87197 0.42645,1.83546 0.36489,2.85525 -13.76634,-1.96546 -25.26753,-3.58101 -27.282,-3.80335 -5.30874,-0.58482 -6.77283,3.33801 -8.27172,10.82119 l -0.0142,0.0668 c -0.84807,-2.99255 -1.00602,-6.9575 -0.51759,-10.60412 1.96911,-2.25018 4.62591,-3.90582 8.19153,-4.0014 0.53703,-0.0142 1.24053,-0.005 2.09304,0.0267 -3.50568,-0.89383 -6.46257,-1.6443 -8.61516,-2.18538 0.83391,-1.7824 1.92942,-3.08691 3.27606,-3.5563 1.00803,-0.35114 3.03102,-0.41432 5.5821,-0.20534 m 69.32265,13.88462 c -5.68539,-0.88533 -12.41325,-1.82574 -19.44771,-2.7378 -2.00352,0.14458 -3.82077,0.48924 -5.2986,1.0935 l -0.0401,0.0162 -0.0113,0.004 -0.0282,0.0126 -0.0393,0.0162 -0.0401,0.017 -0.0393,0.017 -0.0389,0.017 -0.0292,0.013 -0.01,0.005 -0.0773,0.0344 -0.0181,0.008 -0.0201,0.01 -0.0381,0.0178 -0.0385,0.0174 -0.007,0.003 -0.0311,0.015 -0.0373,0.0182 -0.0348,0.0162 -0.003,0.002 -0.0373,0.0186 -0.0377,0.0186 -0.024,0.0117 -0.0126,0.007 -0.0373,0.019 -0.0368,0.0186 -0.0133,0.007 -0.023,0.0126 -0.0365,0.0186 -0.009,0.005 -0.0591,0.0312 -0.004,0.002 -0.036,0.0199 -0.0301,0.0158 -0.006,0.004 -0.0356,0.0202 -0.0353,0.0194 -0.0194,0.0113 -0.0159,0.009 -0.0348,0.0203 -0.0348,0.0206 -0.0344,0.0206 -0.0344,0.0203 -0.034,0.0211 -0.034,0.0206 -0.0336,0.0215 -0.0336,0.0206 -0.0332,0.0214 -0.0332,0.0219 -0.0156,0.009 -0.0178,0.0125 -0.0328,0.0211 -0.0324,0.0223 -0.006,0.004 -0.0263,0.0182 -0.0555,0.0377 -0.006,0.004 -0.003,0.002 -0.006,0.004 -0.0575,0.0409 -0.0201,0.0146 -0.0113,0.008 -0.0311,0.0231 -0.0311,0.0227 -0.011,0.008 -0.0198,0.015 -0.0305,0.0235 -0.0305,0.0231 -0.003,0.002 -0.0275,0.0219 -0.0301,0.0231 -0.0243,0.0199 -0.005,0.004 -0.003,0.001 -0.0575,0.0466 -0.0162,0.0134 -0.013,0.0113 -0.0579,0.0486 -0.008,0.007 -0.077,0.0676 -0.0295,0.0267 -0.009,0.008 -0.0198,0.0186 -0.0182,0.017 -0.0107,0.01 -0.0275,0.0255 0,10e-4 -0.0285,0.0275 -0.008,0.007 -0.0207,0.0202 -0.0162,0.0162 -0.0117,0.0109 -0.0256,0.0255 -0.003,0.003 -0.0279,0.028 -0.006,0.006 -0.0211,0.0223 -0.0149,0.015 -0.0126,0.013 -0.0233,0.0247 -0.003,0.004 -0.0275,0.0288 c -0.64071,0.6881 -1.12224,1.54508 -1.46244,2.52234 13.47312,3.49029 24.72321,6.43181 26.66883,7.00326 5.12487,1.50458 4.96449,5.68904 3.46599,13.17182 l -0.003,0.0166 c 1.92656,-2.44336 3.5903,-6.03693 4.536,-9.58149 -0.95499,-2.81637 -2.76658,-5.34843 -6.00334,-6.80197 -0.48924,-0.21992 -1.1421,-0.48195 -1.94076,-0.78125 3.56481,0.52286 6.57277,0.96795 8.76544,1.29722 -0.083,-1.96668 -0.59173,-3.59357 -1.65364,-4.54532 -0.79418,-0.71199 -2.63412,-1.54791 -5.06531,-2.33725" />
    <path
       inkscape:connector-curvature="0"
       id="path5624"
       style="fill:#8097a6;fill-opacity:1;fill-rule:evenodd;stroke:none"
       d="m 240.60443,328.04944 8.57223,10.68714 c 5.05197,0.70065 12.2776,1.72408 20.26659,2.86456 0.0612,-1.02019 -0.0498,-1.98369 -0.36489,-2.85565 l -0.011,-0.03 -0.003,-0.008 -0.0139,-0.0365 -0.0279,-0.0737 -0.0113,-0.0279 -0.003,-0.009 -0.0149,-0.0365 0,-0.003 -0.0139,-0.0332 -0.006,-0.015 -0.009,-0.0211 -0.0113,-0.0267 -0.005,-0.01 -0.0159,-0.036 0,-0.002 -0.0156,-0.0344 -0.006,-0.013 -0.0104,-0.0231 -0.0113,-0.0239 -0.005,-0.0122 -0.0169,-0.0352 -0.0328,-0.0676 -0.012,-0.0247 -0.005,-0.009 -0.0344,-0.0672 -0.008,-0.0158 -0.0275,-0.0514 -0.0178,-0.0332 -0.003,-0.006 -0.0149,-0.0271 -0.0181,-0.0332 -0.0175,-0.0312 -0.003,-0.002 -0.0191,-0.0328 -0.0194,-0.0336 -0.0126,-0.0219 -0.007,-0.0113 -0.0198,-0.0332 -0.0198,-0.0328 -0.008,-0.0133 -0.012,-0.0199 -0.0207,-0.0328 -0.0207,-0.0328 -0.003,-0.004 -0.0181,-0.0283 -0.0211,-0.0332 -0.0181,-0.028 -0.003,-0.004 -0.022,-0.0328 -0.0214,-0.0324 -0.0133,-0.0199 -0.008,-0.013 -0.0227,-0.0324 -0.0224,-0.0328 -0.008,-0.0109 -0.0149,-0.0215 -0.023,-0.0324 -0.023,-0.0324 -0.003,-0.003 -0.0224,-0.03 -0.024,-0.032 -0.0191,-0.0259 -0.004,-0.006 -0.0246,-0.032 -0.0243,-0.032 -0.0243,-0.032 -0.0246,-0.032 -0.0253,-0.032 -0.007,-0.009 -0.0185,-0.0235 -0.0249,-0.032 -0.0259,-0.0316 0,-3.2e-4 -0.0262,-0.0312 -0.0259,-0.0316 -0.0194,-0.0235 -0.007,-0.008 -0.0262,-0.0316 -0.0272,-0.032 -0.012,-0.0146 -0.0146,-0.017 -0.0266,-0.0312 -0.0275,-0.0312 -0.006,-0.006 -0.022,-0.0251 -0.0279,-0.0312 -0.0259,-0.0292 -0.003,-0.002 -0.0279,-0.0316 -0.0288,-0.0312 -0.0191,-0.0202 -0.01,-0.0105 -0.0288,-0.0308 -0.0288,-0.0312 -0.012,-0.0122 -0.0178,-0.0182 c -0.0474,-0.0502 -0.096,-0.10044 -0.14538,-0.15026 l -0.004,-0.004 -0.0305,-0.0304 0,0 c -1.13319,-1.12954 -2.68152,-2.15014 -4.47969,-3.05653 -6.83886,-1.86584 -13.4031,-3.58749 -18.98562,-4.95801 -1.23645,-0.10125 -2.34819,-0.13811 -3.28089,-0.11016" />
    <path
       inkscape:connector-curvature="0"
       id="path5628"
       style="fill:#8097a6;fill-opacity:1;fill-rule:evenodd;stroke:none"
       d="m 313.20778,342.04446 c -5.68539,-0.88574 -12.41325,-1.82574 -19.44768,-2.7378 -1.20123,0.0863 -2.33646,0.24543 -3.37122,0.48883 l 6.43869,8.0267 c 7.51032,1.95858 12.97701,3.40159 14.27868,3.78351 5.12487,1.50498 4.96446,5.68944 3.46596,13.17222 l -0.003,0.0166 c 1.92657,-2.44337 3.59034,-6.03693 4.53642,-9.58149 -0.95541,-2.81637 -2.76696,-5.34843 -6.00372,-6.80198 -0.48924,-0.21991 -1.14213,-0.48195 -1.94076,-0.78124 3.56481,0.52285 6.57273,0.96795 8.7654,1.29721 -0.083,-1.96668 -0.59169,-3.59356 -1.6536,-4.54531 -0.79422,-0.71199 -2.63415,-1.54791 -5.06535,-2.33726" />
  </g>
</svg>
