<?xml version="1.0" encoding="UTF-8" standalone="no"?>
<!-- Created with Inkscape (http://www.inkscape.org/) -->

<svg
   xmlns:dc="http://purl.org/dc/elements/1.1/"
   xmlns:cc="http://creativecommons.org/ns#"
   xmlns:rdf="http://www.w3.org/1999/02/22-rdf-syntax-ns#"
   xmlns:svg="http://www.w3.org/2000/svg"
   xmlns="http://www.w3.org/2000/svg"
   xmlns:sodipodi="http://sodipodi.sourceforge.net/DTD/sodipodi-0.dtd"
   xmlns:inkscape="http://www.inkscape.org/namespaces/inkscape"
   width="504.07629"
   height="531.97247"
   viewBox="0 0 504.0763 531.97248"
   id="svg70098"
   version="1.1"
   inkscape:version="0.91 r13725"
   sodipodi:docname="laptop.svg">
  <defs
     id="defs70100" />
  <sodipodi:namedview
     id="base"
     pagecolor="#ffffff"
     bordercolor="#666666"
     borderopacity="1.0"
     inkscape:pageopacity="0.0"
     inkscape:pageshadow="2"
     inkscape:zoom="0.35"
     inkscape:cx="-295.81901"
     inkscape:cy="60.271963"
     inkscape:document-units="px"
     inkscape:current-layer="layer1"
     showgrid="false"
     inkscape:window-width="1920"
     inkscape:window-height="1017"
     inkscape:window-x="-8"
     inkscape:window-y="-8"
     inkscape:window-maximized="1"
     units="px"
     fit-margin-top="0"
     fit-margin-left="0"
     fit-margin-right="0"
     fit-margin-bottom="0" />
  <metadata
     id="metadata70103">
    <rdf:RDF>
      <cc:Work
         rdf:about="">
        <dc:format>image/svg+xml</dc:format>
        <dc:type
           rdf:resource="http://purl.org/dc/dcmitype/StillImage" />
        <dc:title></dc:title>
      </cc:Work>
    </rdf:RDF>
  </metadata>
  <g
     inkscape:label="Layer 1"
     inkscape:groupmode="layer"
     id="layer1"
     transform="translate(-136.53329,-60.661694)">
    <path
       inkscape:connector-curvature="0"
       id="path3466"
       style="fill:#30617d;fill-opacity:1;fill-rule:evenodd;stroke:none"
       d="m 330.18411,144.25522 228.78933,280.14921 c 2.93489,3.59374 2.43922,9.02856 -1.09676,12.07547 L 379.00484,590.61114 c -3.53598,3.04682 -8.83463,2.60043 -11.76735,-0.99057 L 138.44809,309.47134 c -2.93342,-3.59196 -2.44097,-9.02705 1.09683,-12.07549 L 318.41669,143.26467 c 3.5378,-3.04842 8.83253,-2.60319 11.76742,0.99055" />
    <path
       inkscape:connector-curvature="0"
       id="path3470"
       style="fill:#30617d;fill-opacity:1;fill-rule:evenodd;stroke:none"
       d="m 340.57267,156.97683 13.26416,16.24163 -9.13262,7.86944 c -0.82579,0.7116 -2.06185,0.60829 -2.74778,-0.23151 l -10.77146,-13.18956 c -0.68586,-0.83978 -0.57071,-2.10899 0.25515,-2.82059 l 9.13255,-7.86941 z" />
    <path
       inkscape:connector-curvature="0"
       id="path3474"
       style="fill:#30617d;fill-opacity:1;fill-rule:evenodd;stroke:none"
       d="m 535.31876,395.44052 13.26479,16.24253 -9.13262,7.86943 c -0.82579,0.71159 -2.06262,0.60741 -2.74848,-0.2324 l -10.77153,-13.18955 c -0.68579,-0.8398 -0.57057,-2.109 0.25522,-2.8206 l 9.13262,-7.86941 z" />
    <path
       inkscape:connector-curvature="0"
       id="path3478"
       style="fill:#30617d;fill-opacity:1;fill-rule:evenodd;stroke:none"
       d="M 363.24749,69.636336 635.80138,403.37464 c 6.55487,8.02636 4.86031,13.64615 -2.91431,14.73526 l -65.9274,9.23819 -238.83489,-292.44975 18.38592,-58.2258 c 4.12867,-13.077267 9.51727,-15.876378 16.73679,-7.036204" />
    <path
       inkscape:connector-curvature="0"
       id="path3482"
       style="fill:#30617d;fill-opacity:1;fill-rule:evenodd;stroke:none"
       d="M 614.56611,404.79146 565.03145,412.87707 341.85164,139.5966 358.04663,90.687079 614.56611,404.79146 Z" />
    <path
       inkscape:connector-curvature="0"
       id="path3486"
       style="fill:#30617d;fill-opacity:1;fill-rule:evenodd;stroke:none"
       d="m 360.53954,68.83254 276.2361,338.24703 c 0.58716,0.71893 0.48839,1.8061 -0.21931,2.41594 -0.7077,0.60983 -1.76715,0.52059 -2.35424,-0.19834 L 357.96599,71.050133 c -0.58716,-0.718921 -0.48846,-1.806126 0.21924,-2.415931 0.70777,-0.609847 1.76722,-0.520604 2.35431,0.198338" />
    <path
       inkscape:connector-curvature="0"
       id="path3490"
       style="fill:#30617d;fill-opacity:1;fill-rule:evenodd;stroke:none"
       d="m 350.74311,152.14347 9.49634,11.62815 c 0.60473,0.74041 0.50323,1.85903 -0.22575,2.4871 l -13.52883,11.65755 c -0.72877,0.62807 -1.81797,0.53547 -2.4227,-0.20493 l -9.49627,-11.62815 c -0.60473,-0.74043 -0.50407,-1.85827 0.22484,-2.48635 l 13.52876,-11.65756 c 0.72884,-0.62805 1.81895,-0.53623 2.42361,0.20419" />
    <path
       inkscape:connector-curvature="0"
       id="path3494"
       style="fill:#30617d;fill-opacity:1;fill-rule:evenodd;stroke:none"
       d="m 545.48913,390.60717 9.49641,11.62815 c 0.60466,0.74042 0.50309,1.85904 -0.22582,2.48709 l -13.52876,11.65756 c -0.72884,0.62808 -1.81804,0.53549 -2.4227,-0.20493 l -9.49627,-11.62815 c -0.60473,-0.74043 -0.50407,-1.85827 0.22477,-2.48634 l 13.52883,-11.65756 c 0.72891,-0.62806 1.81888,-0.53623 2.42354,0.20418" />
    <path
       inkscape:connector-curvature="0"
       id="path3498"
       style="fill:#30617d;fill-opacity:1;fill-rule:evenodd;stroke:none"
       d="m 515.4543,424.42346 7.38913,9.04791 c 0.83944,1.0278 0.69748,2.58237 -0.3143,3.45422 l -6.61983,5.70424 c -1.01178,0.87184 -2.52679,0.74504 -3.3663,-0.28277 l -7.38913,-9.04791 c -0.83937,-1.02779 -0.69818,-2.58326 0.31367,-3.45511 l 6.61976,-5.70423 c 1.01185,-0.87184 2.52763,-0.74414 3.367,0.28365" />
    <path
       inkscape:connector-curvature="0"
       id="path3502"
       style="fill:#30617d;fill-opacity:1;fill-rule:evenodd;stroke:none"
       d="m 503.16503,435.71983 6.71132,8.21796 c 1.02592,1.2561 0.85337,3.15576 -0.38311,4.22128 l -8.96609,7.72587 c -1.23739,1.06627 -3.0877,0.90955 -4.11348,-0.34655 l -6.71139,-8.21796 c -1.02578,-1.25611 -0.85428,-3.15499 0.38318,-4.22126 l 8.96595,-7.72589 c 1.23662,-1.06551 3.0877,-0.90957 4.11362,0.34655" />
    <path
       inkscape:connector-curvature="0"
       id="path3506"
       style="fill:#30617d;fill-opacity:1;fill-rule:evenodd;stroke:none"
       d="m 487.37422,449.32652 6.71139,8.21794 c 1.02571,1.25612 0.8533,3.15578 -0.38325,4.22128 l -8.96511,7.72512 c -1.23739,1.06628 -3.08854,0.91032 -4.11446,-0.34579 l -6.71125,-8.21796 c -1.02592,-1.2561 -0.85344,-3.15575 0.38395,-4.22202 l 8.96518,-7.72513 c 1.23655,-1.06551 3.0877,-0.90955 4.11355,0.34656" />
    <path
       inkscape:connector-curvature="0"
       id="path3510"
       style="fill:#30617d;fill-opacity:1;fill-rule:evenodd;stroke:none"
       d="m 471.5825,462.93396 6.71139,8.21796 c 1.02578,1.25611 0.85428,3.155 -0.38311,4.22127 l -8.96525,7.72512 c -1.23732,1.06628 -3.08854,0.91032 -4.11432,-0.34579 l -6.71139,-8.21796 c -1.02585,-1.25611 -0.8533,-3.15575 0.38409,-4.22202 l 8.96504,-7.72514 c 1.23739,-1.06626 3.0877,-0.90955 4.11355,0.34656" />
    <path
       inkscape:connector-curvature="0"
       id="path3514"
       style="fill:#30617d;fill-opacity:1;fill-rule:evenodd;stroke:none"
       d="m 455.79218,476.54027 6.71132,8.21796 c 1.02592,1.2561 0.85337,3.15576 -0.38311,4.22127 l -8.96518,7.72512 c -1.23732,1.06627 -3.08861,0.91032 -4.11439,-0.34579 l -6.71132,-8.21796 c -1.02585,-1.2561 -0.85337,-3.15575 0.38402,-4.22202 l 8.96504,-7.72513 c 1.23662,-1.06551 3.08784,-0.90955 4.11362,0.34655" />
    <path
       inkscape:connector-curvature="0"
       id="path3518"
       style="fill:#30617d;fill-opacity:1;fill-rule:evenodd;stroke:none"
       d="m 440.00144,490.14697 6.71132,8.21795 c 1.02585,1.25611 0.85337,3.15577 -0.38311,4.22128 l -8.96518,7.72512 c -1.23746,1.06627 -3.08861,0.91032 -4.11439,-0.34579 l -6.71139,-8.21796 c -1.02585,-1.2561 -0.85337,-3.15576 0.38402,-4.22202 l 8.96511,-7.72513 c 1.23655,-1.06551 3.0877,-0.90956 4.11362,0.34654" />
    <path
       inkscape:connector-curvature="0"
       id="path3522"
       style="fill:#30617d;fill-opacity:1;fill-rule:evenodd;stroke:none"
       d="m 502.40196,408.44102 7.38899,9.04789 c 0.83951,1.02781 0.69832,2.58327 -0.31353,3.45512 l -6.61976,5.70423 c -1.01185,0.87185 -2.52763,0.74415 -3.367,-0.28365 l -7.38913,-9.04791 c -0.84014,-1.02869 -0.69825,-2.58326 0.31353,-3.45511 l 6.6199,-5.70423 c 1.01185,-0.87185 2.52679,-0.74505 3.367,0.28366" />
    <path
       inkscape:connector-curvature="0"
       id="path3526"
       style="fill:#30617d;fill-opacity:1;fill-rule:evenodd;stroke:none"
       d="m 478.18616,405.1336 18.508,22.66273 c 1.09662,1.34295 0.9121,3.37663 -0.40992,4.5158 l -8.65228,7.45553 c -1.32293,1.13995 -3.30379,0.97222 -4.40055,-0.37073 l -18.50793,-22.66274 c -1.09676,-1.34293 -0.91245,-3.37498 0.41055,-4.51491 l 8.65228,-7.45552 c 1.32202,-1.13918 3.30309,-0.97312 4.39985,0.36984" />
    <path
       inkscape:connector-curvature="0"
       id="path3530"
       style="fill:#30617d;fill-opacity:1;fill-rule:evenodd;stroke:none"
       d="m 470.89118,429.14332 10.01182,12.25933 c 1.09753,1.34386 0.91308,3.37589 -0.40985,4.51583 l -8.65221,7.45553 c -1.323,1.13992 -3.30316,0.97311 -4.40055,-0.37073 L 457.4285,440.74392 c -1.09676,-1.34294 -0.91301,-3.37588 0.40992,-4.51581 l 8.65221,-7.45552 c 1.32286,-1.13994 3.30379,-0.97222 4.40055,0.37073" />
    <path
       inkscape:connector-curvature="0"
       id="path3534"
       style="fill:#30617d;fill-opacity:1;fill-rule:evenodd;stroke:none"
       d="m 445.13251,430.54622 19.97975,24.46497 c 1.09753,1.34385 0.91231,3.37499 -0.41062,4.51492 l -8.65137,7.45477 c -1.32293,1.13992 -3.3033,0.97476 -4.40069,-0.36908 l -19.97989,-24.46498 c -1.09739,-1.34383 -0.9121,-3.37664 0.41083,-4.51656 l 8.65137,-7.45477 c 1.32293,-1.13993 3.30309,-0.97311 4.40062,0.37073" />
    <path
       inkscape:connector-curvature="0"
       id="path3538"
       style="fill:#30617d;fill-opacity:1;fill-rule:evenodd;stroke:none"
       d="m 442.73977,460.55773 6.71125,8.21797 c 1.02592,1.25611 0.85344,3.15575 -0.38311,4.22127 l -8.96504,7.72512 c -1.23753,1.06627 -3.08868,0.91032 -4.11453,-0.3458 l -6.71139,-8.21795 c -1.02648,-1.257 -0.8533,-3.15575 0.38409,-4.22203 l 8.96511,-7.72513 c 1.23655,-1.06551 3.087,-0.91044 4.11362,0.34655" />
    <path
       inkscape:connector-curvature="0"
       id="path3542"
       style="fill:#30617d;fill-opacity:1;fill-rule:evenodd;stroke:none"
       d="m 426.94903,474.16443 6.71125,8.21796 c 1.02585,1.25611 0.85344,3.15576 -0.38311,4.22128 l -8.96511,7.72512 c -1.23746,1.06626 -3.08861,0.91031 -4.11446,-0.3458 l -6.71139,-8.21795 c -1.02648,-1.257 -0.8533,-3.15575 0.38409,-4.22203 l 8.96511,-7.72513 c 1.23648,-1.06551 3.08693,-0.91045 4.11362,0.34655" />
    <path
       inkscape:connector-curvature="0"
       id="path3546"
       style="fill:#30617d;fill-opacity:1;fill-rule:evenodd;stroke:none"
       d="m 490.34628,393.67905 6.39254,7.8276 c 0.83937,1.02782 0.69755,2.58238 -0.3143,3.45422 l -6.6199,5.70423 c -1.01171,0.87186 -2.52679,0.74506 -3.36616,-0.28275 l -6.39254,-7.82762 c -0.84014,-1.02869 -0.69832,-2.58326 0.31353,-3.45511 l 6.6199,-5.70423 c 1.01178,-0.87184 2.52686,-0.74505 3.36693,0.28366" />
    <path
       inkscape:connector-curvature="0"
       id="path3550"
       style="fill:#30617d;fill-opacity:1;fill-rule:evenodd;stroke:none"
       d="m 478.0932,378.67534 6.39184,7.82671 c 0.84007,1.02871 0.69811,2.58327 -0.3136,3.45511 l -6.6199,5.70423 c -1.01171,0.87186 -2.52679,0.74506 -3.36693,-0.28365 l -6.39177,-7.8267 c -0.84007,-1.0287 -0.69825,-2.58328 0.31353,-3.45513 l 6.61997,-5.70423 c 1.01178,-0.87184 2.52672,-0.74503 3.36686,0.28366" />
    <path
       inkscape:connector-curvature="0"
       id="path3554"
       style="fill:#30617d;fill-opacity:1;fill-rule:evenodd;stroke:none"
       d="m 465.83977,363.67119 6.39254,7.8276 c 0.84014,1.02872 0.69818,2.58327 -0.3136,3.45512 l -6.61983,5.70423 c -1.01178,0.87185 -2.52679,0.74506 -3.36693,-0.28366 l -6.39254,-7.8276 c -0.83937,-1.0278 -0.69755,-2.58238 0.3143,-3.45422 l 6.61983,-5.70423 c 1.01178,-0.87184 2.52693,-0.74504 3.36623,0.28276" />
    <path
       inkscape:connector-curvature="0"
       id="path3558"
       style="fill:#30617d;fill-opacity:1;fill-rule:evenodd;stroke:none"
       d="m 453.58676,348.66748 6.39254,7.82761 c 0.8393,1.02782 0.69811,2.58327 -0.31367,3.45511 l -6.61983,5.70423 c -1.01178,0.87187 -2.52756,0.74416 -3.36693,-0.28365 l -6.39254,-7.82761 c -0.8393,-1.02779 -0.69825,-2.58326 0.3136,-3.45511 l 6.6199,-5.70423 c 1.01178,-0.87184 2.52749,-0.74415 3.36693,0.28365" />
    <path
       inkscape:connector-curvature="0"
       id="path3562"
       style="fill:#30617d;fill-opacity:1;fill-rule:evenodd;stroke:none"
       d="m 441.33361,333.66377 6.39261,7.82762 c 0.83937,1.02781 0.69818,2.58326 -0.3136,3.45511 l -6.6199,5.70422 c -1.01178,0.87187 -2.52756,0.74416 -3.36686,-0.28365 l -6.39254,-7.82761 c -0.83951,-1.02779 -0.69832,-2.58326 0.31353,-3.45511 l 6.6199,-5.70423 c 1.01171,-0.87184 2.52749,-0.74414 3.36686,0.28365" />
    <path
       inkscape:connector-curvature="0"
       id="path3566"
       style="fill:#30617d;fill-opacity:1;fill-rule:evenodd;stroke:none"
       d="m 429.08053,318.66005 6.39254,7.82761 c 0.83944,1.02781 0.69825,2.58327 -0.31353,3.45512 l -6.6199,5.70422 c -1.01171,0.87186 -2.52749,0.74416 -3.367,-0.28364 l -6.39254,-7.82761 c -0.83937,-1.0278 -0.69818,-2.58327 0.31367,-3.45512 l 6.61983,-5.70423 c 1.01185,-0.87184 2.52763,-0.74415 3.36693,0.28365" />
    <path
       inkscape:connector-curvature="0"
       id="path3570"
       style="fill:#30617d;fill-opacity:1;fill-rule:evenodd;stroke:none"
       d="m 416.8271,303.6559 6.39254,7.82761 c 0.84014,1.0287 0.69825,2.58327 -0.31353,3.45511 l -6.6199,5.70423 c -1.01171,0.87186 -2.52686,0.74506 -3.367,-0.28365 l -6.39254,-7.8276 c -0.83937,-1.02781 -0.69748,-2.58237 0.3143,-3.45422 l 6.6199,-5.70423 c 1.01185,-0.87185 2.52686,-0.74505 3.36623,0.28275" />
    <path
       inkscape:connector-curvature="0"
       id="path3574"
       style="fill:#30617d;fill-opacity:1;fill-rule:evenodd;stroke:none"
       d="m 404.57444,288.65265 6.39177,7.8267 c 0.84014,1.02871 0.69825,2.58327 -0.31353,3.45512 l -6.6199,5.70423 c -1.01171,0.87186 -2.52679,0.74505 -3.367,-0.28365 l -6.39177,-7.82671 c -0.84014,-1.0287 -0.69818,-2.58327 0.31353,-3.45511 l 6.6199,-5.70423 c 1.01185,-0.87185 2.52686,-0.74506 3.367,0.28365" />
    <path
       inkscape:connector-curvature="0"
       id="path3578"
       style="fill:#30617d;fill-opacity:1;fill-rule:evenodd;stroke:none"
       d="m 392.32101,273.64849 6.39254,7.82761 c 0.83937,1.02781 0.69818,2.58327 -0.31367,3.45511 l -6.61983,5.70424 c -1.01185,0.87186 -2.52749,0.74415 -3.36693,-0.28367 l -6.39254,-7.8276 c -0.83937,-1.0278 -0.69818,-2.58326 0.31353,-3.45511 l 6.6199,-5.70423 c 1.01185,-0.87184 2.52763,-0.74415 3.367,0.28365" />
    <path
       inkscape:connector-curvature="0"
       id="path3582"
       style="fill:#30617d;fill-opacity:1;fill-rule:evenodd;stroke:none"
       d="m 380.06793,258.64479 6.39254,7.8276 c 0.83937,1.02781 0.69818,2.58327 -0.31367,3.45512 l -6.61976,5.70423 c -1.01185,0.87186 -2.52763,0.74416 -3.367,-0.28365 l -6.39254,-7.82761 c -0.83937,-1.0278 -0.69825,-2.58327 0.31353,-3.45512 l 6.6199,-5.70423 c 1.01185,-0.87184 2.52763,-0.74415 3.367,0.28366" />
    <path
       inkscape:connector-curvature="0"
       id="path3586"
       style="fill:#30617d;fill-opacity:1;fill-rule:evenodd;stroke:none"
       d="m 367.81485,243.6411 6.39254,7.8276 c 0.83944,1.02782 0.69818,2.58327 -0.31353,3.45512 l -6.6199,5.70423 c -1.01171,0.87186 -2.52749,0.74416 -3.367,-0.28365 l -6.39254,-7.82762 c -0.84007,-1.02869 -0.69818,-2.58326 0.31367,-3.45511 l 6.61983,-5.70423 c 1.01185,-0.87184 2.52686,-0.74506 3.36693,0.28366" />
    <path
       inkscape:connector-curvature="0"
       id="path3590"
       style="fill:#30617d;fill-opacity:1;fill-rule:evenodd;stroke:none"
       d="m 355.5617,228.63737 6.39191,7.82672 c 0.84007,1.0287 0.69895,2.58417 -0.3129,3.456 l -6.61983,5.70423 c -1.01185,0.87187 -2.52763,0.74416 -3.3677,-0.28454 l -6.39177,-7.82671 c -0.83944,-1.02781 -0.69825,-2.58328 0.31353,-3.45513 l 6.6199,-5.70422 c 1.01171,-0.87184 2.52749,-0.74414 3.36686,0.28365" />
    <path
       inkscape:connector-curvature="0"
       id="path3594"
       style="fill:#30617d;fill-opacity:1;fill-rule:evenodd;stroke:none"
       d="m 343.30827,213.63322 6.39268,7.82761 c 0.84007,1.0287 0.69811,2.58327 -0.31367,3.45511 l -6.61983,5.70423 c -1.01185,0.87187 -2.52686,0.74506 -3.36693,-0.28365 l -6.39261,-7.82761 c -0.83937,-1.0278 -0.69741,-2.58237 0.31437,-3.45422 l 6.61983,-5.70423 c 1.01178,-0.87184 2.52679,-0.74504 3.36616,0.28276" />
    <path
       inkscape:connector-curvature="0"
       id="path3598"
       style="fill:#30617d;fill-opacity:1;fill-rule:evenodd;stroke:none"
       d="m 331.05519,198.62951 6.39268,7.82761 c 0.83937,1.02781 0.69818,2.58327 -0.31367,3.45511 l -6.61983,5.70423 c -1.01178,0.87187 -2.52756,0.74416 -3.36693,-0.28365 l -6.39261,-7.82761 c -0.83937,-1.0278 -0.69818,-2.58327 0.3136,-3.45511 l 6.61983,-5.70422 c 1.01178,-0.87186 2.52756,-0.74415 3.36693,0.28365" />
    <path
       inkscape:connector-curvature="0"
       id="path3602"
       style="fill:#30617d;fill-opacity:1;fill-rule:evenodd;stroke:none"
       d="m 317.29067,181.77487 7.38913,9.04791 c 0.84007,1.02868 0.69818,2.58326 -0.31367,3.45512 l -6.61983,5.70423 c -1.01185,0.87184 -2.52686,0.74504 -3.36693,-0.28367 l -7.3892,-9.0479 c -0.8393,-1.0278 -0.69818,-2.58327 0.3136,-3.45511 l 6.6199,-5.70422 c 1.01185,-0.87186 2.52749,-0.74415 3.367,0.28364" />
    <path
       inkscape:connector-curvature="0"
       id="path3606"
       style="fill:#30617d;fill-opacity:1;fill-rule:evenodd;stroke:none"
       d="m 464.96582,388.94641 6.5863,8.06487 c 1.00681,1.23283 0.83839,3.09696 -0.37611,4.14349 l -9.04883,7.79727 c -1.21352,1.04577 -3.03093,0.89266 -4.03774,-0.34016 l -6.5863,-8.06486 c -1.00681,-1.23283 -0.83762,-3.09773 0.37611,-4.14351 l 9.04883,-7.79726 c 1.2145,-1.04653 3.03093,-0.89267 4.03774,0.34016" />
    <path
       inkscape:connector-curvature="0"
       id="path3610"
       style="fill:#30617d;fill-opacity:1;fill-rule:evenodd;stroke:none"
       d="m 451.6717,372.66797 6.58637,8.06487 c 1.00751,1.23372 0.83839,3.09698 -0.37611,4.14349 l -9.04883,7.79727 c -1.21373,1.04578 -3.03023,0.89356 -4.03781,-0.34016 l -6.58623,-8.06486 c -1.00681,-1.23283 -0.83762,-3.09773 0.37597,-4.14351 l 9.04883,-7.79726 c 1.21464,-1.04652 3.031,-0.89266 4.03781,0.34016" />
    <path
       inkscape:connector-curvature="0"
       id="path3614"
       style="fill:#30617d;fill-opacity:1;fill-rule:evenodd;stroke:none"
       d="m 438.37765,356.38954 6.5863,8.06486 c 1.00751,1.23373 0.83846,3.09698 -0.37611,4.14349 l -9.0489,7.79728 c -1.21359,1.04577 -3.03009,0.89357 -4.03767,-0.34016 l -6.58644,-8.06487 c -1.00674,-1.23283 -0.83671,-3.09684 0.37688,-4.14259 l 9.0489,-7.79729 c 1.2145,-1.04651 3.03023,-0.89354 4.03704,0.33928" />
    <path
       inkscape:connector-curvature="0"
       id="path3618"
       style="fill:#30617d;fill-opacity:1;fill-rule:evenodd;stroke:none"
       d="m 425.08346,340.1111 6.58637,8.06487 c 1.00758,1.23372 0.83839,3.09697 -0.37611,4.14348 l -9.04883,7.79728 c -1.21359,1.04577 -3.03016,0.89357 -4.03767,-0.34016 l -6.58644,-8.06487 c -1.00681,-1.23282 -0.83748,-3.09772 0.37611,-4.14349 l 9.0489,-7.79728 c 1.2145,-1.04651 3.03086,-0.89265 4.03767,0.34017" />
    <path
       inkscape:connector-curvature="0"
       id="path3622"
       style="fill:#30617d;fill-opacity:1;fill-rule:evenodd;stroke:none"
       d="m 411.78941,323.83259 6.58623,8.06486 c 1.00758,1.23373 0.83839,3.09698 -0.37611,4.14349 l -9.04883,7.79727 c -1.21352,1.04578 -3.03016,0.89358 -4.03774,-0.34015 l -6.5863,-8.06487 c -1.00681,-1.23283 -0.83685,-3.09684 0.37688,-4.14259 l 9.04883,-7.79729 c 1.2145,-1.04651 3.03023,-0.89354 4.03704,0.33928" />
    <path
       inkscape:connector-curvature="0"
       id="path3626"
       style="fill:#30617d;fill-opacity:1;fill-rule:evenodd;stroke:none"
       d="m 398.49564,307.5546 6.5863,8.06487 c 1.00681,1.23283 0.83839,3.09698 -0.37611,4.14348 l -9.04883,7.79728 c -1.21366,1.04577 -3.03093,0.89267 -4.03774,-0.34016 l -6.5863,-8.06486 c -1.00758,-1.23372 -0.83755,-3.09773 0.37597,-4.1435 l 9.0489,-7.79728 c 1.21457,-1.04651 3.03023,-0.89355 4.03781,0.34017" />
    <path
       inkscape:connector-curvature="0"
       id="path3630"
       style="fill:#30617d;fill-opacity:1;fill-rule:evenodd;stroke:none"
       d="m 385.20117,291.27573 6.58637,8.06486 c 1.00744,1.23373 0.83839,3.09697 -0.37611,4.14348 l -9.04883,7.79728 c -1.21373,1.04576 -3.03023,0.89356 -4.03781,-0.34016 l -6.5863,-8.06487 c -1.00688,-1.23282 -0.83755,-3.09773 0.37604,-4.14349 l 9.04883,-7.79728 c 1.2145,-1.04652 3.031,-0.89266 4.03781,0.34018" />
    <path
       inkscape:connector-curvature="0"
       id="path3634"
       style="fill:#30617d;fill-opacity:1;fill-rule:evenodd;stroke:none"
       d="m 371.90733,274.99765 6.5863,8.06486 c 1.00681,1.23282 0.83839,3.09697 -0.37611,4.14348 l -9.04883,7.79728 c -1.21359,1.04577 -3.03093,0.89267 -4.03774,-0.34016 l -6.5863,-8.06487 c -1.00681,-1.23282 -0.83762,-3.09772 0.37611,-4.14349 l 9.04883,-7.79728 c 1.2145,-1.04651 3.03093,-0.89266 4.03774,0.34018" />
    <path
       inkscape:connector-curvature="0"
       id="path3638"
       style="fill:#30617d;fill-opacity:1;fill-rule:evenodd;stroke:none"
       d="m 358.61321,258.71921 6.58637,8.06486 c 1.00751,1.23373 0.83839,3.09697 -0.37611,4.14348 l -9.04883,7.79729 c -1.21373,1.04576 -3.03023,0.89355 -4.03774,-0.34017 l -6.58637,-8.06487 c -1.00674,-1.23282 -0.83755,-3.09773 0.37604,-4.14348 l 9.0489,-7.79729 c 1.2145,-1.04651 3.03093,-0.89265 4.03774,0.34018" />
    <path
       inkscape:connector-curvature="0"
       id="path3642"
       style="fill:#30617d;fill-opacity:1;fill-rule:evenodd;stroke:none"
       d="m 345.31916,242.44077 6.5863,8.06488 c 1.00751,1.23371 0.83846,3.09696 -0.37611,4.14348 l -9.04876,7.79727 c -1.21373,1.04577 -3.0303,0.89356 -4.03781,-0.34016 l -6.5863,-8.06487 c -1.00695,-1.23283 -0.83755,-3.09773 0.37597,-4.14349 l 9.0489,-7.79727 c 1.2145,-1.04653 3.031,-0.89266 4.03781,0.34016" />
    <path
       inkscape:connector-curvature="0"
       id="path3646"
       style="fill:#30617d;fill-opacity:1;fill-rule:evenodd;stroke:none"
       d="m 332.02497,226.16224 6.58623,8.06487 c 1.00758,1.23372 0.83853,3.09698 -0.37597,4.14348 l -9.0489,7.79728 c -1.21359,1.04577 -3.03023,0.89357 -4.03774,-0.34016 l -6.58637,-8.06486 c -1.00681,-1.23283 -0.83755,-3.09773 0.37611,-4.1435 l 9.04883,-7.79728 c 1.2145,-1.0465 3.031,-0.89265 4.03781,0.34017" />
    <path
       inkscape:connector-curvature="0"
       id="path3650"
       style="fill:#30617d;fill-opacity:1;fill-rule:evenodd;stroke:none"
       d="m 318.73085,209.88381 6.5863,8.06487 c 1.00758,1.23372 0.83839,3.09697 -0.37611,4.14348 l -9.04883,7.79728 c -1.21352,1.04577 -3.03016,0.89356 -4.03774,-0.34017 l -6.5863,-8.06486 c -1.00681,-1.23283 -0.83762,-3.09773 0.37611,-4.1435 l 9.04883,-7.79727 c 1.2145,-1.04651 3.03093,-0.89265 4.03774,0.34017" />
    <path
       inkscape:connector-curvature="0"
       id="path3654"
       style="fill:#30617d;fill-opacity:1;fill-rule:evenodd;stroke:none"
       d="m 305.00119,193.07205 6.71139,8.21794 c 1.02578,1.25612 0.85428,3.15502 -0.38318,4.22128 l -8.96595,7.72588 c -1.23662,1.06551 -3.0877,0.90957 -4.11362,-0.34655 l -6.71132,-8.21796 c -1.02655,-1.257 -0.85414,-3.15664 0.38234,-4.22215 l 8.96609,-7.7259 c 1.23739,-1.06626 3.0877,-0.90955 4.11425,0.34746" />
    <path
       inkscape:connector-curvature="0"
       id="path3658"
       style="fill:#30617d;fill-opacity:1;fill-rule:evenodd;stroke:none"
       d="m 289.34037,206.83783 13.80869,16.90864 c 1.09753,1.34385 0.91231,3.37498 -0.41062,4.51492 l -8.65221,7.45552 c -1.32209,1.13917 -3.30239,0.97401 -4.39978,-0.36984 l -13.80883,-16.90863 c -1.09746,-1.34385 -0.91217,-3.37665 0.40992,-4.51581 l 8.65221,-7.45553 c 1.32293,-1.13994 3.30309,-0.9731 4.40062,0.37073" />
    <path
       inkscape:connector-curvature="0"
       id="path3662"
       style="fill:#30617d;fill-opacity:1;fill-rule:evenodd;stroke:none"
       d="m 273.54914,220.44491 16.41899,20.10485 c 1.09676,1.34295 0.91231,3.37498 -0.41062,4.51493 l -8.65221,7.45552 c -1.32293,1.13992 -3.30316,0.97309 -4.39985,-0.36985 l -16.41906,-20.10485 c -1.09746,-1.34384 -0.91308,-3.37589 0.40992,-4.51582 l 8.65228,-7.45552 c 1.32286,-1.13994 3.30302,-0.97311 4.40055,0.37074" />
    <path
       inkscape:connector-curvature="0"
       id="path3666"
       style="fill:#30617d;fill-opacity:1;fill-rule:evenodd;stroke:none"
       d="m 257.75875,234.05122 23.53841,28.8224 c 1.09746,1.34384 0.9121,3.37663 -0.40992,4.51581 l -8.65228,7.45552 c -1.32286,1.13992 -3.30302,0.97311 -4.40055,-0.37074 l -23.53834,-28.82239 c -1.09753,-1.34385 -0.91308,-3.37588 0.40985,-4.51581 l 8.65228,-7.45552 c 1.32202,-1.13918 3.30316,-0.97311 4.40055,0.37073" />
    <path
       inkscape:connector-curvature="0"
       id="path3670"
       style="fill:#30617d;fill-opacity:1;fill-rule:evenodd;stroke:none"
       d="m 241.96794,247.65791 9.77431,11.96838 c 1.09662,1.34295 0.91231,3.37497 -0.41069,4.51492 l -8.65228,7.45552 c -1.32293,1.13992 -3.30309,0.97311 -4.39985,-0.36984 l -9.77417,-11.96837 c -1.09746,-1.34385 -0.91301,-3.37588 0.40992,-4.51581 l 8.65221,-7.45553 c 1.32293,-1.13993 3.30302,-0.9731 4.40055,0.37073" />
    <path
       inkscape:connector-curvature="0"
       id="path3674"
       style="fill:#30617d;fill-opacity:1;fill-rule:evenodd;stroke:none"
       d="m 308.76551,230.62362 7.05348,8.63697 c 1.07842,1.32056 0.89803,3.31708 -0.40194,4.43728 l -8.73593,7.52768 c -1.30004,1.12018 -3.24639,0.95621 -4.32481,-0.36436 l -7.05355,-8.63696 c -1.07842,-1.32057 -0.89719,-3.31785 0.40285,-4.43804 l 8.73593,-7.52768 c 1.30004,-1.12019 3.24541,-0.95545 4.32397,0.36511" />
    <path
       inkscape:connector-curvature="0"
       id="path3678"
       style="fill:#30617d;fill-opacity:1;fill-rule:evenodd;stroke:none"
       d="m 322.30918,247.20764 7.05348,8.63696 c 1.07849,1.32055 0.8981,3.31708 -0.40194,4.43728 l -8.736,7.52767 c -1.29997,1.12018 -3.24625,0.95622 -4.32474,-0.36434 l -7.05362,-8.63697 c -1.07842,-1.32058 -0.89719,-3.31784 0.40292,-4.43805 l 8.73593,-7.52767 c 1.30004,-1.12018 3.24541,-0.95546 4.32397,0.36512" />
    <path
       inkscape:connector-curvature="0"
       id="path3682"
       style="fill:#30617d;fill-opacity:1;fill-rule:evenodd;stroke:none"
       d="m 335.85278,263.79172 7.05362,8.63696 c 1.07842,1.32057 0.89796,3.31708 -0.40194,4.43729 l -8.736,7.52766 c -1.29997,1.12019 -3.24632,0.95623 -4.32474,-0.36435 l -7.05362,-8.63696 c -1.07842,-1.32057 -0.89719,-3.31785 0.40292,-4.43804 l 8.73593,-7.52768 c 1.30004,-1.12018 3.24541,-0.95545 4.32383,0.36512" />
    <path
       inkscape:connector-curvature="0"
       id="path3686"
       style="fill:#30617d;fill-opacity:1;fill-rule:evenodd;stroke:none"
       d="m 349.39652,280.37572 7.05348,8.63696 c 1.07842,1.32057 0.8981,3.3171 -0.40187,4.43729 l -8.736,7.52767 c -1.30004,1.12018 -3.24639,0.95622 -4.32481,-0.36435 l -7.05355,-8.63696 c -1.07842,-1.32058 -0.89719,-3.31786 0.40285,-4.43804 l 8.73593,-7.52768 c 1.30011,-1.12018 3.24548,-0.95546 4.32397,0.36511" />
    <path
       inkscape:connector-curvature="0"
       id="path3690"
       style="fill:#30617d;fill-opacity:1;fill-rule:evenodd;stroke:none"
       d="m 362.94019,296.95981 7.05355,8.63696 c 1.07842,1.32056 0.89803,3.31709 -0.40187,4.43728 l -8.736,7.52768 c -1.30004,1.12019 -3.24639,0.95621 -4.32481,-0.36435 l -7.05355,-8.63697 c -1.07856,-1.32057 -0.89719,-3.31784 0.40278,-4.43804 l 8.736,-7.52767 c 1.29997,-1.12019 3.24548,-0.95546 4.3239,0.36511" />
    <path
       inkscape:connector-curvature="0"
       id="path3694"
       style="fill:#30617d;fill-opacity:1;fill-rule:evenodd;stroke:none"
       d="m 376.48344,313.54336 7.05362,8.63696 c 1.07842,1.32056 0.89796,3.31708 -0.40194,4.43727 l -8.736,7.52768 c -1.29997,1.12019 -3.24632,0.95622 -4.32474,-0.36435 l -7.05362,-8.63696 c -1.07849,-1.32056 -0.89719,-3.31784 0.40278,-4.43804 l 8.73607,-7.52768 c 1.29997,-1.12019 3.24541,-0.95545 4.32383,0.36512" />
    <path
       inkscape:connector-curvature="0"
       id="path3698"
       style="fill:#30617d;fill-opacity:1;fill-rule:evenodd;stroke:none"
       d="m 390.02746,330.12781 7.05355,8.63696 c 1.07842,1.32056 0.8981,3.31709 -0.40187,4.43728 l -8.73593,7.52767 c -1.30011,1.12019 -3.24639,0.95623 -4.32488,-0.36434 l -7.05348,-8.63697 c -1.07849,-1.32057 -0.89719,-3.31784 0.40278,-4.43804 l 8.736,-7.52767 c 1.2999,-1.12018 3.24541,-0.95547 4.32383,0.36511" />
    <path
       inkscape:connector-curvature="0"
       id="path3702"
       style="fill:#30617d;fill-opacity:1;fill-rule:evenodd;stroke:none"
       d="m 403.57085,346.71145 7.05355,8.63696 c 1.07842,1.32056 0.89803,3.31709 -0.40187,4.43729 l -8.736,7.52767 c -1.30004,1.12019 -3.24639,0.95622 -4.32481,-0.36435 l -7.05355,-8.63696 c -1.07856,-1.32058 -0.89719,-3.31785 0.40278,-4.43804 l 8.736,-7.52768 c 1.29997,-1.12019 3.24548,-0.95546 4.3239,0.36511" />
    <path
       inkscape:connector-curvature="0"
       id="path3706"
       style="fill:#30617d;fill-opacity:1;fill-rule:evenodd;stroke:none"
       d="m 417.11445,363.29546 7.05362,8.63696 c 1.07842,1.32056 0.89796,3.31708 -0.40194,4.43728 l -8.736,7.52767 c -1.29997,1.12019 -3.24632,0.95623 -4.32474,-0.36435 l -7.05362,-8.63696 c -1.07842,-1.32057 -0.89719,-3.31785 0.40292,-4.43804 l 8.73593,-7.52767 c 1.30004,-1.12019 3.24541,-0.95546 4.32383,0.36511" />
    <path
       inkscape:connector-curvature="0"
       id="path3710"
       style="fill:#30617d;fill-opacity:1;fill-rule:evenodd;stroke:none"
       d="m 430.65819,379.87955 7.05362,8.63696 c 1.07842,1.32056 0.89796,3.31708 -0.40194,4.43727 l -8.736,7.52767 c -1.29997,1.12019 -3.24632,0.95623 -4.32488,-0.36434 l -7.05348,-8.63697 c -1.07849,-1.32056 -0.89719,-3.31784 0.40278,-4.43804 l 8.73593,-7.52768 c 1.30011,-1.12018 3.24555,-0.95545 4.32397,0.36513" />
    <path
       inkscape:connector-curvature="0"
       id="path3714"
       style="fill:#30617d;fill-opacity:1;fill-rule:evenodd;stroke:none"
       d="m 444.20186,396.46354 7.05355,8.63696 c 1.07842,1.32056 0.8981,3.31708 -0.40201,4.43729 l -8.73593,7.52766 c -1.29997,1.12019 -3.24625,0.95622 -4.32481,-0.36435 l -7.05348,-8.63696 c -1.07856,-1.32057 -0.89712,-3.31785 0.40278,-4.43804 l 8.736,-7.52768 c 1.29997,-1.12017 3.24534,-0.95546 4.3239,0.36512" />
    <path
       inkscape:connector-curvature="0"
       id="path3718"
       style="fill:#30617d;fill-opacity:1;fill-rule:evenodd;stroke:none"
       d="m 457.74511,413.0471 7.05362,8.63696 c 1.07842,1.32056 0.89796,3.31709 -0.40194,4.43729 l -8.736,7.52766 c -1.29997,1.12019 -3.24632,0.95622 -4.32474,-0.36435 l -7.05362,-8.63696 c -1.07849,-1.32057 -0.89642,-3.31695 0.40355,-4.43714 l 8.73607,-7.52766 c 1.29997,-1.1202 3.24464,-0.95637 4.32306,0.3642" />
    <path
       inkscape:connector-curvature="0"
       id="path3722"
       style="fill:#30617d;fill-opacity:1;fill-rule:evenodd;stroke:none"
       d="m 296.74217,248.84446 7.05348,8.63695 c 1.07849,1.32056 0.89817,3.31709 -0.40278,4.43804 l -8.73509,7.52691 c -1.30088,1.12095 -3.24625,0.95623 -4.32481,-0.36434 l -7.05355,-8.63698 c -1.07849,-1.32055 -0.89803,-3.31708 0.40285,-4.43802 l 8.73509,-7.52692 c 1.30088,-1.12095 3.24625,-0.95622 4.32481,0.36436" />
    <path
       inkscape:connector-curvature="0"
       id="path3726"
       style="fill:#30617d;fill-opacity:1;fill-rule:evenodd;stroke:none"
       d="m 310.28577,265.42853 7.05362,8.63697 c 1.07842,1.32055 0.89803,3.31709 -0.40278,4.43804 l -8.73509,7.52691 c -1.30088,1.12095 -3.24632,0.95622 -4.32481,-0.36436 l -7.05355,-8.63695 c -1.07849,-1.32057 -0.89803,-3.31709 0.40285,-4.43805 l 8.73509,-7.52691 c 1.30088,-1.12094 3.24625,-0.95622 4.32467,0.36435" />
    <path
       inkscape:connector-curvature="0"
       id="path3730"
       style="fill:#30617d;fill-opacity:1;fill-rule:evenodd;stroke:none"
       d="m 323.82916,282.01209 7.05425,8.63786 c 1.07856,1.32057 0.8981,3.31709 -0.40278,4.43804 l -8.73509,7.52692 c -1.30088,1.12094 -3.24639,0.95621 -4.32481,-0.36435 l -7.05432,-8.63786 c -1.07842,-1.32057 -0.89803,-3.31709 0.40285,-4.43805 l 8.73516,-7.52691 c 1.30088,-1.12094 3.24625,-0.95622 4.32474,0.36435" />
    <path
       inkscape:connector-curvature="0"
       id="path3734"
       style="fill:#30617d;fill-opacity:1;fill-rule:evenodd;stroke:none"
       d="m 337.37283,298.59609 7.05425,8.63785 c 1.07849,1.32058 0.89733,3.31619 -0.40355,4.43715 l -8.73509,7.52692 c -1.30088,1.12093 -3.24562,0.95711 -4.32404,-0.36346 l -7.05432,-8.63786 c -1.07772,-1.31966 -0.89726,-3.31619 0.40348,-4.43714 l 8.73516,-7.52692 c 1.30088,-1.12095 3.24632,-0.95621 4.32411,0.36346" />
    <path
       inkscape:connector-curvature="0"
       id="path3738"
       style="fill:#30617d;fill-opacity:1;fill-rule:evenodd;stroke:none"
       d="m 350.91657,315.18019 7.05348,8.63697 c 1.07849,1.32055 0.8981,3.31708 -0.40278,4.43804 l -8.73509,7.5269 c -1.30088,1.12095 -3.24632,0.95623 -4.32481,-0.36435 l -7.05355,-8.63696 c -1.07849,-1.32057 -0.89803,-3.31708 0.40285,-4.43804 l 8.73509,-7.52692 c 1.30088,-1.12094 3.24625,-0.95621 4.32481,0.36436" />
    <path
       inkscape:connector-curvature="0"
       id="path3742"
       style="fill:#30617d;fill-opacity:1;fill-rule:evenodd;stroke:none"
       d="m 364.46017,331.76418 7.05348,8.63697 c 1.07842,1.32055 0.8981,3.31708 -0.40271,4.43804 l -8.73509,7.52691 c -1.30088,1.12094 -3.24639,0.95623 -4.32481,-0.36435 l -7.05355,-8.63697 c -1.07849,-1.32057 -0.8981,-3.31708 0.40278,-4.43804 l 8.73516,-7.52692 c 1.30088,-1.12093 3.24625,-0.95621 4.32474,0.36436" />
    <path
       inkscape:connector-curvature="0"
       id="path3746"
       style="fill:#30617d;fill-opacity:1;fill-rule:evenodd;stroke:none"
       d="m 378.00384,348.34827 7.05355,8.63696 c 1.07842,1.32056 0.8981,3.31708 -0.40278,4.43804 l -8.73502,7.52692 c -1.30102,1.12094 -3.24639,0.95621 -4.32481,-0.36436 l -7.05355,-8.63695 c -1.07856,-1.32058 -0.8981,-3.3171 0.40271,-4.43805 l 8.73509,-7.52691 c 1.30088,-1.12096 3.24639,-0.95622 4.32481,0.36435" />
    <path
       inkscape:connector-curvature="0"
       id="path3750"
       style="fill:#30617d;fill-opacity:1;fill-rule:evenodd;stroke:none"
       d="m 391.54751,364.93227 7.05355,8.63696 c 1.07849,1.32056 0.89803,3.31708 -0.40271,4.43804 l -8.73516,7.52691 c -1.30088,1.12095 -3.24632,0.95622 -4.32474,-0.36435 l -7.05362,-8.63696 c -1.07842,-1.32056 -0.89803,-3.31708 0.40285,-4.43804 l 8.73509,-7.52691 c 1.30088,-1.12094 3.24625,-0.95622 4.32474,0.36435" />
    <path
       inkscape:connector-curvature="0"
       id="path3754"
       style="fill:#30617d;fill-opacity:1;fill-rule:evenodd;stroke:none"
       d="m 405.09076,381.51582 7.05355,8.63696 c 1.07842,1.32056 0.8981,3.31709 -0.40278,4.43804 l -8.73502,7.52692 c -1.30088,1.12095 -3.24639,0.95621 -4.32488,-0.36435 l -7.05348,-8.63697 c -1.07849,-1.32057 -0.89733,-3.31619 0.40348,-4.43714 l 8.73509,-7.52691 c 1.30088,-1.12094 3.24562,-0.95712 4.32404,0.36345" />
    <path
       inkscape:connector-curvature="0"
       id="path3758"
       style="fill:#30617d;fill-opacity:1;fill-rule:evenodd;stroke:none"
       d="m 418.6345,398.09992 7.05432,8.63786 c 1.07842,1.32057 0.89803,3.31709 -0.40285,4.43803 l -8.73509,7.52693 c -1.30088,1.12094 -3.24632,0.95621 -4.32474,-0.36436 l -7.05425,-8.63786 c -1.07849,-1.32057 -0.8981,-3.31708 0.40278,-4.43804 l 8.73516,-7.52691 c 1.30088,-1.12095 3.24625,-0.95622 4.32467,0.36435" />
    <path
       inkscape:connector-curvature="0"
       id="path3762"
       style="fill:#30617d;fill-opacity:1;fill-rule:evenodd;stroke:none"
       d="m 432.1781,414.68391 7.05362,8.63697 c 1.07842,1.32055 0.89803,3.31708 -0.40271,4.43804 l -8.73516,7.52691 c -1.30088,1.12094 -3.24632,0.95622 -4.32474,-0.36436 l -7.05362,-8.63695 c -1.07772,-1.31967 -0.8974,-3.3162 0.40348,-4.43716 l 8.73516,-7.5269 c 1.30088,-1.12095 3.24632,-0.95622 4.32397,0.36345" />
    <path
       inkscape:connector-curvature="0"
       id="path3766"
       style="fill:#30617d;fill-opacity:1;fill-rule:evenodd;stroke:none"
       d="m 288.0425,271.1332 7.05348,8.63696 c 1.07849,1.32056 0.89719,3.31784 -0.40278,4.43804 l -8.73593,7.52767 c -1.30004,1.12018 -3.24541,0.95547 -4.32397,-0.36511 l -7.05355,-8.63696 c -1.07849,-1.32057 -0.89803,-3.31708 0.40201,-4.43728 l 8.73593,-7.52767 c 1.30004,-1.12019 3.24625,-0.95622 4.32481,0.36435" />
    <path
       inkscape:connector-curvature="0"
       id="path3770"
       style="fill:#30617d;fill-opacity:1;fill-rule:evenodd;stroke:none"
       d="m 301.5861,287.7172 7.05362,8.63696 c 1.07842,1.32056 0.89719,3.31785 -0.40285,4.43804 l -8.736,7.52768 c -1.29997,1.12018 -3.24534,0.95545 -4.3239,-0.36511 l -7.05348,-8.63697 c -1.07849,-1.32057 -0.89817,-3.31707 0.40194,-4.43728 l 8.73593,-7.52768 c 1.30004,-1.12018 3.24625,-0.95621 4.32474,0.36436" />
    <path
       inkscape:connector-curvature="0"
       id="path3774"
       style="fill:#30617d;fill-opacity:1;fill-rule:evenodd;stroke:none"
       d="m 315.12984,304.30129 7.05348,8.63696 c 1.07849,1.32056 0.89719,3.31785 -0.40271,4.43804 l -8.736,7.52768 c -1.29997,1.12018 -3.24548,0.95545 -4.3239,-0.36512 l -7.05355,-8.63696 c -1.07842,-1.32057 -0.8981,-3.31708 0.40187,-4.43728 l 8.73607,-7.52768 c 1.29997,-1.12018 3.24625,-0.95621 4.32474,0.36436" />
    <path
       inkscape:connector-curvature="0"
       id="path3778"
       style="fill:#30617d;fill-opacity:1;fill-rule:evenodd;stroke:none"
       d="m 328.67351,320.8853 7.05355,8.63696 c 1.07849,1.32055 0.89712,3.31784 -0.40278,4.43804 l -8.736,7.52768 c -1.30004,1.12018 -3.24541,0.95546 -4.3239,-0.36511 l -7.05348,-8.63697 c -1.07856,-1.32058 -0.89817,-3.31709 0.40187,-4.43728 l 8.73593,-7.52767 c 1.30011,-1.12019 3.24625,-0.95623 4.32481,0.36435" />
    <path
       inkscape:connector-curvature="0"
       id="path3782"
       style="fill:#30617d;fill-opacity:1;fill-rule:evenodd;stroke:none"
       d="m 342.21676,337.46884 7.05362,8.63696 c 1.07842,1.32057 0.89705,3.31785 -0.40285,4.43804 l -8.736,7.52768 c -1.29997,1.12018 -3.24534,0.95546 -4.3239,-0.36511 l -7.05348,-8.63696 c -1.07779,-1.31967 -0.8974,-3.3162 0.40257,-4.43639 l 8.73607,-7.52767 c 1.2999,-1.12019 3.24625,-0.95621 4.32397,0.36345" />
    <path
       inkscape:connector-curvature="0"
       id="path3786"
       style="fill:#30617d;fill-opacity:1;fill-rule:evenodd;stroke:none"
       d="m 355.7605,354.05293 7.05348,8.63696 c 1.07842,1.32056 0.89719,3.31785 -0.40271,4.43804 l -8.736,7.52767 c -1.29997,1.12019 -3.24548,0.95546 -4.3239,-0.3651 l -7.05355,-8.63697 c -1.07849,-1.32057 -0.8981,-3.31708 0.40187,-4.43728 l 8.73607,-7.52768 c 1.29997,-1.12018 3.24625,-0.95621 4.32474,0.36436" />
    <path
       inkscape:connector-curvature="0"
       id="path3790"
       style="fill:#30617d;fill-opacity:1;fill-rule:evenodd;stroke:none"
       d="m 369.30417,370.63694 7.05348,8.63696 c 1.07849,1.32056 0.89719,3.31784 -0.40271,4.43804 l -8.736,7.52768 c -1.30004,1.12018 -3.24541,0.95546 -4.3239,-0.36512 l -7.05362,-8.63697 c -1.07772,-1.31966 -0.89726,-3.31619 0.40271,-4.43638 l 8.736,-7.52767 c 1.29997,-1.12019 3.24625,-0.95621 4.32404,0.36346" />
    <path
       inkscape:connector-curvature="0"
       id="path3794"
       style="fill:#30617d;fill-opacity:1;fill-rule:evenodd;stroke:none"
       d="m 382.84784,387.22102 7.05355,8.63697 c 1.07849,1.32055 0.89719,3.31784 -0.40271,4.43804 l -8.73614,7.52767 c -1.2999,1.12018 -3.24534,0.95546 -4.32376,-0.36512 l -7.05362,-8.63695 c -1.07842,-1.32057 -0.89803,-3.31709 0.40194,-4.43728 l 8.736,-7.52768 c 1.29997,-1.12019 3.24625,-0.95622 4.32474,0.36435" />
    <path
       inkscape:connector-curvature="0"
       id="path3798"
       style="fill:#30617d;fill-opacity:1;fill-rule:evenodd;stroke:none"
       d="m 396.39158,403.80504 7.05348,8.63696 c 1.07842,1.32056 0.89712,3.31784 -0.40278,4.43804 l -8.736,7.52766 c -1.29997,1.12019 -3.24548,0.95547 -4.3239,-0.3651 l -7.05355,-8.63697 c -1.07842,-1.32056 -0.8981,-3.31708 0.40187,-4.43727 l 8.73607,-7.52768 c 1.29997,-1.12018 3.24625,-0.95622 4.32481,0.36436" />
    <path
       inkscape:connector-curvature="0"
       id="path3802"
       style="fill:#30617d;fill-opacity:1;fill-rule:evenodd;stroke:none"
       d="m 409.93525,420.38902 7.05348,8.63696 c 1.07842,1.32056 0.89719,3.31785 -0.40278,4.43805 l -8.73593,7.52767 c -1.30011,1.12019 -3.24555,0.95546 -4.32397,-0.36512 l -7.05362,-8.63695 c -1.07842,-1.32058 -0.89796,-3.31708 0.40194,-4.43728 l 8.736,-7.52768 c 1.29997,-1.12019 3.24632,-0.95622 4.32488,0.36435" />
    <path
       inkscape:connector-curvature="0"
       id="path3806"
       style="fill:#30617d;fill-opacity:1;fill-rule:evenodd;stroke:none"
       d="m 423.51343,437.01545 12.75449,15.61763 c 1.09746,1.34384 0.9121,3.37663 -0.40985,4.51581 l -8.65235,7.45551 c -1.32286,1.13994 -3.30302,0.97312 -4.40055,-0.37074 l -12.75442,-15.6176 c -1.09753,-1.34384 -0.91301,-3.37589 0.40992,-4.51581 l 8.65221,-7.45553 c 1.32202,-1.13918 3.30316,-0.97311 4.40055,0.37073" />
    <path
       inkscape:connector-curvature="0"
       id="path3810"
       style="fill:#30617d;fill-opacity:1;fill-rule:evenodd;stroke:none"
       d="m 258.48773,267.88615 7.05355,8.63696 c 1.07849,1.32056 0.89719,3.31785 -0.40271,4.43804 l -8.73516,7.5269 c -1.30088,1.12095 -3.24632,0.95623 -4.32474,-0.36434 l -7.05362,-8.63697 c -1.07842,-1.32056 -0.89803,-3.31708 0.40285,-4.43803 l 8.73509,-7.52692 c 1.29997,-1.12018 3.24625,-0.95621 4.32474,0.36436" />
    <path
       inkscape:connector-curvature="0"
       id="path3814"
       style="fill:#30617d;fill-opacity:1;fill-rule:evenodd;stroke:none"
       d="m 272.0314,284.47014 7.05355,8.63696 c 1.07842,1.32057 0.89712,3.31785 -0.40278,4.43804 l -8.73509,7.52691 c -1.30088,1.12095 -3.24639,0.95622 -4.32481,-0.36435 l -7.05355,-8.63697 c -1.07856,-1.32055 -0.8981,-3.31708 0.40278,-4.43803 l 8.73502,-7.52691 c 1.30011,-1.12019 3.24639,-0.95622 4.32488,0.36435" />
    <path
       inkscape:connector-curvature="0"
       id="path3818"
       style="fill:#30617d;fill-opacity:1;fill-rule:evenodd;stroke:none"
       d="m 285.57472,301.05377 7.05432,8.63786 c 1.07842,1.32057 0.89712,3.31785 -0.40285,4.43805 l -8.73509,7.52691 c -1.30088,1.12094 -3.24632,0.95622 -4.32481,-0.36435 l -7.05418,-8.63786 c -1.07856,-1.32057 -0.8981,-3.31708 0.40271,-4.43804 l 8.73509,-7.52692 c 1.30004,-1.12019 3.24639,-0.95621 4.32481,0.36435" />
    <path
       inkscape:connector-curvature="0"
       id="path3822"
       style="fill:#30617d;fill-opacity:1;fill-rule:evenodd;stroke:none"
       d="m 299.11832,317.63779 7.05362,8.63696 c 1.07842,1.32055 0.89719,3.31785 -0.40271,4.43804 l -8.73516,7.52691 c -1.30088,1.12095 -3.24632,0.95622 -4.32474,-0.36434 l -7.05362,-8.63697 c -1.07772,-1.31967 -0.8974,-3.31619 0.40348,-4.43715 l 8.73516,-7.52692 c 1.29997,-1.12018 3.24632,-0.95621 4.32397,0.36347" />
    <path
       inkscape:connector-curvature="0"
       id="path3826"
       style="fill:#30617d;fill-opacity:1;fill-rule:evenodd;stroke:none"
       d="m 312.66206,334.22178 7.05348,8.63696 c 1.07849,1.32056 0.89719,3.31785 -0.40278,4.43804 l -8.73516,7.52691 c -1.30088,1.12096 -3.24625,0.95622 -4.32467,-0.36434 l -7.05355,-8.63697 c -1.07856,-1.32056 -0.8981,-3.31708 0.40278,-4.43803 l 8.73502,-7.52692 c 1.30011,-1.12019 3.24639,-0.95622 4.32488,0.36435" />
    <path
       inkscape:connector-curvature="0"
       id="path3830"
       style="fill:#30617d;fill-opacity:1;fill-rule:evenodd;stroke:none"
       d="m 326.2058,350.80587 7.05348,8.63695 c 1.07849,1.32057 0.89712,3.31785 -0.40278,4.43805 l -8.73516,7.52691 c -1.30088,1.12094 -3.24625,0.95622 -4.32474,-0.36435 l -7.05348,-8.63697 c -1.07856,-1.32056 -0.89817,-3.31708 0.40278,-4.43804 l 8.73502,-7.52691 c 1.30011,-1.12018 3.24632,-0.95622 4.32488,0.36436" />
    <path
       inkscape:connector-curvature="0"
       id="path3834"
       style="fill:#30617d;fill-opacity:1;fill-rule:evenodd;stroke:none"
       d="m 339.7494,367.38988 7.05362,8.63696 c 1.07842,1.32055 0.89712,3.31784 -0.40292,4.43804 l -8.73509,7.52691 c -1.30088,1.12094 -3.24625,0.95622 -4.32481,-0.36435 l -7.05348,-8.63697 c -1.07849,-1.32058 -0.89803,-3.31708 0.40278,-4.43804 l 8.73509,-7.5269 c 1.30004,-1.12019 3.24639,-0.95623 4.32481,0.36435" />
    <path
       inkscape:connector-curvature="0"
       id="path3838"
       style="fill:#30617d;fill-opacity:1;fill-rule:evenodd;stroke:none"
       d="m 353.29307,383.97388 7.05355,8.63696 c 1.07842,1.32056 0.89719,3.31785 -0.40285,4.43804 l -8.73502,7.52692 c -1.30088,1.12094 -3.24639,0.95621 -4.32481,-0.36436 l -7.05355,-8.63695 c -1.07856,-1.32058 -0.89803,-3.31709 0.40278,-4.43805 l 8.73509,-7.52691 c 1.30004,-1.12019 3.24639,-0.95622 4.32481,0.36435" />
    <path
       inkscape:connector-curvature="0"
       id="path3842"
       style="fill:#30617d;fill-opacity:1;fill-rule:evenodd;stroke:none"
       d="m 366.83639,400.55751 7.05355,8.63696 c 1.07849,1.32056 0.89719,3.31785 -0.40278,4.43804 l -8.73516,7.52692 c -1.30088,1.12095 -3.24625,0.95622 -4.32474,-0.36435 l -7.05348,-8.63696 c -1.07856,-1.32057 -0.8981,-3.31709 0.40271,-4.43804 l 8.73509,-7.52692 c 1.30011,-1.12018 3.24639,-0.95622 4.32481,0.36435" />
    <path
       inkscape:connector-curvature="0"
       id="path3846"
       style="fill:#30617d;fill-opacity:1;fill-rule:evenodd;stroke:none"
       d="m 380.38006,417.14152 7.05418,8.63785 c 1.07856,1.32057 0.89656,3.31695 -0.40348,4.43715 l -8.73509,7.52691 c -1.30088,1.12095 -3.24562,0.95711 -4.32404,-0.36346 l -7.05425,-8.63785 c -1.07849,-1.32057 -0.8981,-3.31709 0.40278,-4.43804 l 8.73509,-7.52692 c 1.30004,-1.12018 3.24632,-0.95622 4.32481,0.36436" />
    <path
       inkscape:connector-curvature="0"
       id="path3850"
       style="fill:#30617d;fill-opacity:1;fill-rule:evenodd;stroke:none"
       d="m 393.95838,433.76794 12.75442,15.61763 c 1.09753,1.34384 0.91378,3.37676 -0.40915,4.5167 l -8.65221,7.45552 c -1.323,1.13993 -3.30379,0.97222 -4.40132,-0.37163 l -12.75449,-15.61761 c -1.09746,-1.34384 -0.91308,-3.37589 0.40992,-4.51581 l 8.65228,-7.45553 c 1.32286,-1.13994 3.30302,-0.97311 4.40055,0.37073" />
    <path
       inkscape:connector-curvature="0"
       id="path3854"
       style="fill:#30617d;fill-opacity:1;fill-rule:evenodd;stroke:none"
       d="m 413.89578,458.18108 6.71139,8.21796 c 1.02585,1.25611 0.85344,3.15577 -0.38311,4.22128 l -8.96518,7.72511 c -1.23739,1.06628 -3.08854,0.91033 -4.11439,-0.34579 l -6.71139,-8.21795 c -1.02571,-1.25611 -0.85337,-3.15575 0.38409,-4.22203 l 8.96511,-7.72513 c 1.23655,-1.0655 3.0877,-0.90955 4.11348,0.34655" />
    <path
       inkscape:connector-curvature="0"
       id="path3858"
       style="fill:#30617d;fill-opacity:1;fill-rule:evenodd;stroke:none"
       d="m 283.2559,349.92751 70.37891,86.17801 c 1.07338,1.3143 0.8939,3.30089 -0.39998,4.41576 l -40.79082,35.14887 c -1.29465,1.11565 -3.23043,0.95174 -4.30381,-0.36257 l -70.37884,-86.17799 c -1.07352,-1.31431 -0.89397,-3.3009 0.40082,-4.41653 L 278.953,349.56418 c 1.29381,-1.11488 3.22959,-0.95097 4.3029,0.36333" />
    <path
       inkscape:connector-curvature="0"
       id="path3862"
       style="fill:#30617d;fill-opacity:1;fill-rule:evenodd;stroke:none"
       d="m 233.16691,389.86209 35.00378,42.8616 c 0.22302,0.27306 0.1848,0.68421 -0.0841,0.91584 l -8.47245,7.30059 c -0.2688,0.23164 -0.66962,0.19871 -0.89264,-0.0744 l -35.00378,-42.8616 c -0.22295,-0.27306 -0.18557,-0.6851 0.0832,-0.91672 l 8.47238,-7.3006 c 0.26887,-0.23163 0.67039,-0.19781 0.89341,0.0752" />
    <path
       inkscape:connector-curvature="0"
       id="path3866"
       style="fill:#30617d;fill-opacity:1;fill-rule:evenodd;stroke:none"
       d="m 271.63548,436.96634 35.00378,42.86159 c 0.22302,0.27306 0.18557,0.6851 -0.0832,0.91674 l -8.47252,7.30059 c -0.2688,0.23163 -0.67025,0.19782 -0.89327,-0.0752 l -35.00385,-42.8616 c -0.22295,-0.27306 -0.18564,-0.6851 0.0832,-0.91673 l 8.47245,-7.3006 c 0.2688,-0.23162 0.67032,-0.19779 0.89334,0.0752" />
    <path
       inkscape:connector-curvature="0"
       id="path3870"
       style="fill:#30617d;fill-opacity:1;fill-rule:evenodd;stroke:none"
       d="M 358.04663,90.6871 565.03152,412.87708 614.56611,404.79146 358.04663,90.6871 Z" />
    <path
       inkscape:connector-curvature="0"
       id="path3466-6"
       style="fill:#ffffff;fill-opacity:1;fill-rule:evenodd;stroke:none"
       d="m 330.93801,140.39338 228.7894,280.14922 c 2.93496,3.59374 2.43922,9.02855 -1.09683,12.07547 L 379.75881,586.74931 c -3.53605,3.04682 -8.8347,2.6005 -11.76742,-0.99057 L 139.20206,305.6095 c -2.93349,-3.59195 -2.44097,-9.02703 1.09676,-12.07548 L 319.17059,139.40285 c 3.5378,-3.04844 8.8326,-2.60321 11.76742,0.99053" />
    <path
       inkscape:connector-curvature="0"
       id="path3470-9"
       style="fill:#b3b3b3;fill-opacity:1;fill-rule:evenodd;stroke:none"
       d="m 341.32671,153.11499 13.26402,16.24164 -9.13262,7.86943 c -0.82579,0.7116 -2.06185,0.6083 -2.74771,-0.23149 L 331.93887,163.805 c -0.68586,-0.83978 -0.57071,-2.10898 0.25515,-2.82058 l 9.13269,-7.86943 z" />
    <path
       inkscape:connector-curvature="0"
       id="path3474-6"
       style="fill:#b3b3b3;fill-opacity:1;fill-rule:evenodd;stroke:none"
       d="m 536.07266,391.57868 13.26479,16.24254 -9.13262,7.86943 c -0.82579,0.71159 -2.06262,0.6074 -2.74841,-0.2324 l -10.77153,-13.18956 c -0.68586,-0.83978 -0.57064,-2.10899 0.25522,-2.82059 l 9.13255,-7.86942 z" />
    <path
       inkscape:connector-curvature="0"
       id="path3478-0"
       style="fill:#cccccc;fill-opacity:1;fill-rule:evenodd;stroke:none"
       d="M 364.00139,65.774499 636.55528,399.5128 c 6.55494,8.02637 4.86031,13.64615 -2.91431,14.73526 l -65.9274,9.23819 L 328.87868,131.03649 347.2646,72.810703 c 4.12867,-13.077267 9.51727,-15.876378 16.73679,-7.036204" />
    <path
       inkscape:connector-curvature="0"
       id="path3482-3"
       style="fill:#000000;fill-opacity:1;fill-rule:evenodd;stroke:none"
       d="M 615.32001,400.92963 565.78542,409.01524 342.60554,135.73476 358.80053,86.825263 615.32001,400.92963 Z" />
    <path
       inkscape:connector-curvature="0"
       id="path3486-4"
       style="fill:#ffffff;fill-opacity:1;fill-rule:evenodd;stroke:none"
       d="m 361.29351,64.970703 276.2361,338.247037 c 0.58709,0.71893 0.48839,1.80609 -0.21938,2.41593 -0.7077,0.60983 -1.76715,0.52059 -2.35424,-0.19834 L 358.71989,67.188296 c -0.58709,-0.718935 -0.48839,-1.806126 0.21938,-2.415931 0.70763,-0.609847 1.76715,-0.520604 2.35424,0.198338" />
    <path
       inkscape:connector-curvature="0"
       id="path3490-4"
       style="fill:#ffffff;fill-opacity:1;fill-rule:evenodd;stroke:none"
       d="m 351.49708,148.28164 9.49627,11.62814 c 0.60473,0.74042 0.50323,1.85905 -0.22568,2.4871 l -13.52876,11.65755 c -0.72884,0.62809 -1.81811,0.53547 -2.4227,-0.20493 l -9.49641,-11.62815 c -0.60466,-0.74043 -0.50407,-1.85827 0.22484,-2.48633 l 13.52883,-11.65756 c 0.72884,-0.62807 1.81888,-0.53623 2.42361,0.20418" />
    <path
       inkscape:connector-curvature="0"
       id="path3494-1"
       style="fill:#ffffff;fill-opacity:1;fill-rule:evenodd;stroke:none"
       d="m 546.24317,386.74534 9.49627,11.62816 c 0.60473,0.7404 0.50323,1.85902 -0.22575,2.48709 l -13.52883,11.65756 c -0.72877,0.62806 -1.81797,0.53547 -2.42263,-0.20493 l -9.49634,-11.62817 c -0.60473,-0.74041 -0.50407,-1.85827 0.22477,-2.48634 l 13.52883,-11.65756 c 0.72891,-0.62806 1.81895,-0.53622 2.42368,0.20419" />
    <path
       inkscape:connector-curvature="0"
       id="path3498-0"
       style="fill:#cccccc;fill-opacity:1;fill-rule:evenodd;stroke:none"
       d="m 516.2082,420.56163 7.3892,9.04791 c 0.83937,1.02781 0.69741,2.58237 -0.31437,3.45422 l -6.61983,5.70423 c -1.01178,0.87185 -2.52679,0.74504 -3.3663,-0.28277 l -7.38913,-9.04789 c -0.8393,-1.0278 -0.69818,-2.58327 0.31367,-3.45512 l 6.61983,-5.70423 c 1.01185,-0.87185 2.52763,-0.74415 3.36693,0.28365" />
    <path
       inkscape:connector-curvature="0"
       id="path3502-2"
       style="fill:#cccccc;fill-opacity:1;fill-rule:evenodd;stroke:none"
       d="m 503.91893,431.85799 6.71132,8.21796 c 1.02592,1.25612 0.85344,3.15578 -0.38311,4.22128 l -8.96609,7.72587 c -1.23739,1.06628 -3.0877,0.90956 -4.11341,-0.34655 l -6.71139,-8.21795 c -1.02585,-1.25611 -0.85428,-3.155 0.38311,-4.22126 l 8.96602,-7.7259 c 1.23655,-1.0655 3.0877,-0.90955 4.11355,0.34655" />
    <path
       inkscape:connector-curvature="0"
       id="path3506-2"
       style="fill:#cccccc;fill-opacity:1;fill-rule:evenodd;stroke:none"
       d="m 488.12812,445.46468 6.71139,8.21795 c 1.02578,1.25612 0.85337,3.15577 -0.38311,4.22128 l -8.96518,7.72513 c -1.23739,1.06626 -3.08861,0.91031 -4.11453,-0.3458 l -6.71125,-8.21796 c -1.02585,-1.25611 -0.85344,-3.15575 0.38409,-4.22202 l 8.96504,-7.72513 c 1.23662,-1.06551 3.0877,-0.90955 4.11355,0.34655" />
    <path
       inkscape:connector-curvature="0"
       id="path3510-2"
       style="fill:#cccccc;fill-opacity:1;fill-rule:evenodd;stroke:none"
       d="m 472.33647,459.07213 6.71132,8.21796 c 1.02592,1.25611 0.85428,3.155 -0.38311,4.22127 l -8.96511,7.72512 c -1.23746,1.06627 -3.08868,0.91031 -4.11446,-0.3458 l -6.71139,-8.21795 c -1.02578,-1.25611 -0.8533,-3.15576 0.38409,-4.22203 l 8.96511,-7.72513 c 1.23746,-1.06626 3.08763,-0.90955 4.11355,0.34656" />
    <path
       inkscape:connector-curvature="0"
       id="path3514-9"
       style="fill:#cccccc;fill-opacity:1;fill-rule:evenodd;stroke:none"
       d="m 456.54608,472.67844 6.71139,8.21796 c 1.02585,1.25611 0.85344,3.15576 -0.38311,4.22127 l -8.96518,7.72511 c -1.23739,1.06627 -3.08854,0.91033 -4.11439,-0.34578 l -6.71139,-8.21795 c -1.02585,-1.25612 -0.85337,-3.15576 0.38402,-4.22203 l 8.96518,-7.72513 c 1.23655,-1.06551 3.0877,-0.90956 4.11348,0.34655" />
    <path
       inkscape:connector-curvature="0"
       id="path3518-4"
       style="fill:#cccccc;fill-opacity:1;fill-rule:evenodd;stroke:none"
       d="m 440.75534,486.28513 6.71132,8.21796 c 1.02592,1.2561 0.85337,3.15576 -0.38311,4.22128 l -8.96518,7.72511 c -1.23739,1.06627 -3.08861,0.91032 -4.11439,-0.34578 l -6.71139,-8.21796 c -1.02578,-1.25611 -0.8533,-3.15575 0.38409,-4.22202 l 8.96504,-7.72513 c 1.23662,-1.06552 3.0877,-0.90957 4.11362,0.34655" />
    <path
       inkscape:connector-curvature="0"
       id="path3522-9"
       style="fill:#cccccc;fill-opacity:1;fill-rule:evenodd;stroke:none"
       d="m 503.15586,404.57918 7.3892,9.0479 c 0.8393,1.02781 0.69811,2.58327 -0.31374,3.45513 l -6.61976,5.70423 c -1.01185,0.87184 -2.52763,0.74414 -3.367,-0.28367 l -7.38913,-9.0479 c -0.84007,-1.0287 -0.69818,-2.58327 0.3136,-3.45511 l 6.6199,-5.70423 c 1.01185,-0.87185 2.52686,-0.74505 3.36693,0.28365" />
    <path
       inkscape:connector-curvature="0"
       id="path3526-3"
       style="fill:#cccccc;fill-opacity:1;fill-rule:evenodd;stroke:none"
       d="m 478.94006,401.27177 18.508,22.66273 c 1.09676,1.34295 0.91217,3.37662 -0.40992,4.5158 l -8.65221,7.45553 c -1.32293,1.13994 -3.30386,0.97222 -4.40062,-0.37073 l -18.50793,-22.66273 c -1.09676,-1.34295 -0.91224,-3.37499 0.41062,-4.51492 l 8.65221,-7.45552 c 1.32209,-1.13918 3.30309,-0.97311 4.39985,0.36984" />
    <path
       inkscape:connector-curvature="0"
       id="path3530-8"
       style="fill:#cccccc;fill-opacity:1;fill-rule:evenodd;stroke:none"
       d="m 471.64508,425.28149 10.01189,12.25933 c 1.09753,1.34386 0.91301,3.37589 -0.40992,4.51582 l -8.65221,7.45553 c -1.32286,1.13993 -3.30302,0.97312 -4.40055,-0.37073 l -10.01182,-12.25936 c -1.09676,-1.34294 -0.91308,-3.37587 0.40985,-4.5158 l 8.65221,-7.45553 c 1.32293,-1.13993 3.30379,-0.97221 4.40055,0.37074" />
    <path
       inkscape:connector-curvature="0"
       id="path3534-9"
       style="fill:#cccccc;fill-opacity:1;fill-rule:evenodd;stroke:none"
       d="m 445.88641,426.6844 19.97975,24.46497 c 1.09753,1.34383 0.91231,3.37497 -0.41062,4.51491 l -8.65137,7.45477 c -1.32293,1.13993 -3.30323,0.97476 -4.40062,-0.36908 l -19.97989,-24.46498 c -1.09739,-1.34384 -0.9121,-3.37663 0.41083,-4.51656 l 8.6513,-7.45477 c 1.32293,-1.13994 3.30309,-0.97311 4.40062,0.37074" />
    <path
       inkscape:connector-curvature="0"
       id="path3538-1"
       style="fill:#cccccc;fill-opacity:1;fill-rule:evenodd;stroke:none"
       d="m 443.49367,456.69591 6.71139,8.21796 c 1.02578,1.2561 0.85344,3.15576 -0.38318,4.22126 l -8.96511,7.72512 c -1.23739,1.06628 -3.08861,0.91032 -4.11446,-0.34579 l -6.71125,-8.21795 c -1.02662,-1.25701 -0.85351,-3.15576 0.38388,-4.22203 l 8.96525,-7.72513 c 1.23655,-1.06551 3.08693,-0.91045 4.11348,0.34656" />
    <path
       inkscape:connector-curvature="0"
       id="path3542-7"
       style="fill:#cccccc;fill-opacity:1;fill-rule:evenodd;stroke:none"
       d="m 427.70293,470.30259 6.71125,8.21796 c 1.02592,1.25612 0.85344,3.15578 -0.38311,4.22128 l -8.96504,7.72512 c -1.23753,1.06627 -3.08868,0.91032 -4.11453,-0.34579 l -6.71139,-8.21796 c -1.02648,-1.257 -0.8533,-3.15575 0.38409,-4.22202 l 8.96511,-7.72513 c 1.23655,-1.06551 3.087,-0.91045 4.11362,0.34654" />
    <path
       inkscape:connector-curvature="0"
       id="path3546-9"
       style="fill:#cccccc;fill-opacity:1;fill-rule:evenodd;stroke:none"
       d="m 491.10018,389.81721 6.39254,7.82762 c 0.83951,1.02781 0.69755,2.58237 -0.3143,3.45422 l -6.6199,5.70423 c -1.01171,0.87186 -2.52672,0.74504 -3.36616,-0.28277 l -6.39254,-7.8276 c -0.84007,-1.02869 -0.69818,-2.58327 0.3136,-3.45512 l 6.6199,-5.70423 c 1.01178,-0.87184 2.52679,-0.74505 3.36686,0.28365" />
    <path
       inkscape:connector-curvature="0"
       id="path3550-5"
       style="fill:#cccccc;fill-opacity:1;fill-rule:evenodd;stroke:none"
       d="m 478.84717,374.8135 6.39177,7.82672 c 0.84007,1.02871 0.69832,2.58327 -0.31353,3.45512 l -6.61997,5.70423 c -1.01171,0.87186 -2.52672,0.74504 -3.36686,-0.28366 l -6.39184,-7.82671 c -0.84007,-1.02869 -0.69811,-2.58327 0.3136,-3.45512 l 6.6199,-5.70423 c 1.01178,-0.87184 2.52679,-0.74504 3.36693,0.28365" />
    <path
       inkscape:connector-curvature="0"
       id="path3554-0"
       style="fill:#cccccc;fill-opacity:1;fill-rule:evenodd;stroke:none"
       d="m 466.59374,359.80935 6.39254,7.82761 c 0.84007,1.02871 0.69811,2.58327 -0.31367,3.45511 l -6.61983,5.70423 c -1.01178,0.87187 -2.52679,0.74506 -3.36693,-0.28365 l -6.39254,-7.82761 c -0.8393,-1.0278 -0.69748,-2.58237 0.3143,-3.45422 l 6.61997,-5.70423 c 1.01178,-0.87184 2.52679,-0.74503 3.36616,0.28276" />
    <path
       inkscape:connector-curvature="0"
       id="path3558-7"
       style="fill:#cccccc;fill-opacity:1;fill-rule:evenodd;stroke:none"
       d="m 454.34066,344.80565 6.39254,7.8276 c 0.83937,1.02782 0.69818,2.58328 -0.3136,3.45513 l -6.6199,5.70423 c -1.01178,0.87185 -2.52749,0.74415 -3.36686,-0.28366 l -6.39254,-7.82762 c -0.83937,-1.02778 -0.69832,-2.58325 0.31353,-3.4551 l 6.6199,-5.70423 c 1.01178,-0.87185 2.52756,-0.74415 3.36693,0.28365" />
    <path
       inkscape:connector-curvature="0"
       id="path3562-9"
       style="fill:#cccccc;fill-opacity:1;fill-rule:evenodd;stroke:none"
       d="m 442.08758,329.80194 6.39254,7.82761 c 0.83937,1.02781 0.69818,2.58327 -0.3136,3.45512 l -6.61983,5.70423 c -1.01178,0.87185 -2.52756,0.74415 -3.36693,-0.28366 l -6.39254,-7.82761 c -0.83937,-1.02779 -0.69832,-2.58326 0.31353,-3.45511 l 6.6199,-5.70423 c 1.01178,-0.87185 2.52756,-0.74415 3.36693,0.28365" />
    <path
       inkscape:connector-curvature="0"
       id="path3566-0"
       style="fill:#cccccc;fill-opacity:1;fill-rule:evenodd;stroke:none"
       d="m 429.8345,314.79822 6.39254,7.82761 c 0.83937,1.02781 0.69818,2.58327 -0.3136,3.45512 l -6.6199,5.70422 c -1.01171,0.87186 -2.52749,0.74417 -3.36693,-0.28364 l -6.39261,-7.82761 c -0.8393,-1.02781 -0.69811,-2.58327 0.31374,-3.45511 l 6.61976,-5.70423 c 1.01185,-0.87185 2.52763,-0.74415 3.367,0.28364" />
    <path
       inkscape:connector-curvature="0"
       id="path3570-8"
       style="fill:#cccccc;fill-opacity:1;fill-rule:evenodd;stroke:none"
       d="m 417.581,299.79408 6.39261,7.8276 c 0.84014,1.0287 0.69818,2.58327 -0.3136,3.45512 l -6.6199,5.70422 c -1.01171,0.87186 -2.52672,0.74505 -3.36686,-0.28364 l -6.39268,-7.82762 c -0.8393,-1.02779 -0.69741,-2.58237 0.31444,-3.45422 l 6.61983,-5.70423 c 1.01185,-0.87184 2.52686,-0.74504 3.36616,0.28276" />
    <path
       inkscape:connector-curvature="0"
       id="path3574-1"
       style="fill:#cccccc;fill-opacity:1;fill-rule:evenodd;stroke:none"
       d="m 405.32834,284.79081 6.39177,7.82672 c 0.84021,1.0287 0.69825,2.58327 -0.31353,3.45511 l -6.6199,5.70423 c -1.01171,0.87186 -2.52672,0.74505 -3.36686,-0.28365 l -6.39191,-7.82671 c -0.84007,-1.0287 -0.69818,-2.58328 0.31367,-3.45512 l 6.61983,-5.70423 c 1.01178,-0.87185 2.52686,-0.74505 3.36693,0.28365" />
    <path
       inkscape:connector-curvature="0"
       id="path3578-3"
       style="fill:#cccccc;fill-opacity:1;fill-rule:evenodd;stroke:none"
       d="m 393.07491,269.78666 6.39254,7.8276 c 0.83944,1.02782 0.69825,2.58327 -0.31353,3.45512 l -6.6199,5.70423 c -1.01171,0.87186 -2.52749,0.74416 -3.367,-0.28365 l -6.39254,-7.8276 c -0.83937,-1.02781 -0.69818,-2.58328 0.31367,-3.45513 l 6.61976,-5.70423 c 1.01185,-0.87184 2.52763,-0.74415 3.367,0.28366" />
    <path
       inkscape:connector-curvature="0"
       id="path3582-2"
       style="fill:#cccccc;fill-opacity:1;fill-rule:evenodd;stroke:none"
       d="m 380.82183,254.78296 6.39254,7.8276 c 0.83944,1.02781 0.69818,2.58328 -0.31367,3.45511 l -6.61976,5.70423 c -1.01171,0.87187 -2.52749,0.74416 -3.367,-0.28365 l -6.39254,-7.8276 c -0.8393,-1.02781 -0.69818,-2.58327 0.31367,-3.45511 l 6.61983,-5.70425 c 1.01185,-0.87183 2.52763,-0.74413 3.36693,0.28367" />
    <path
       inkscape:connector-curvature="0"
       id="path3586-9"
       style="fill:#cccccc;fill-opacity:1;fill-rule:evenodd;stroke:none"
       d="m 368.56882,239.77926 6.39254,7.8276 c 0.83937,1.02782 0.69818,2.58328 -0.3136,3.45513 l -6.6199,5.70423 c -1.01171,0.87185 -2.52749,0.74415 -3.36693,-0.28366 l -6.39254,-7.8276 c -0.84014,-1.02869 -0.69818,-2.58327 0.31367,-3.45512 l 6.61976,-5.70423 c 1.01185,-0.87185 2.52686,-0.74505 3.367,0.28365" />
    <path
       inkscape:connector-curvature="0"
       id="path3590-0"
       style="fill:#cccccc;fill-opacity:1;fill-rule:evenodd;stroke:none"
       d="m 356.31574,224.77554 6.39177,7.82672 c 0.84014,1.0287 0.69895,2.58416 -0.3129,3.456 l -6.61976,5.70423 c -1.01185,0.87186 -2.52763,0.74417 -3.36777,-0.28455 l -6.39177,-7.8267 c -0.83937,-1.02781 -0.69825,-2.58328 0.31353,-3.45512 l 6.6199,-5.70423 c 1.01185,-0.87185 2.52763,-0.74415 3.367,0.28365" />
    <path
       inkscape:connector-curvature="0"
       id="path3594-5"
       style="fill:#cccccc;fill-opacity:1;fill-rule:evenodd;stroke:none"
       d="m 344.06231,209.77139 6.39254,7.8276 c 0.84007,1.02871 0.69818,2.58327 -0.31367,3.45512 l -6.61983,5.70423 c -1.01178,0.87186 -2.52686,0.74506 -3.36693,-0.28365 l -6.39254,-7.8276 c -0.83937,-1.02781 -0.69748,-2.58239 0.3143,-3.45422 l 6.61983,-5.70423 c 1.01178,-0.87185 2.52693,-0.74506 3.3663,0.28275" />
    <path
       inkscape:connector-curvature="0"
       id="path3598-4"
       style="fill:#cccccc;fill-opacity:1;fill-rule:evenodd;stroke:none"
       d="m 331.80923,194.76768 6.39254,7.82761 c 0.83937,1.02781 0.69818,2.58326 -0.31367,3.45511 l -6.61976,5.70423 c -1.01185,0.87186 -2.52763,0.74416 -3.367,-0.28365 l -6.39254,-7.82762 c -0.83937,-1.02779 -0.69825,-2.58325 0.31353,-3.45511 l 6.61997,-5.70422 c 1.01178,-0.87184 2.52749,-0.74415 3.36693,0.28365" />
    <path
       inkscape:connector-curvature="0"
       id="path3602-0"
       style="fill:#cccccc;fill-opacity:1;fill-rule:evenodd;stroke:none"
       d="m 318.04457,177.91304 7.38913,9.0479 c 0.84014,1.02871 0.69818,2.58327 -0.31353,3.45512 l -6.6199,5.70423 c -1.01185,0.87184 -2.52693,0.74504 -3.367,-0.28366 l -7.38913,-9.04791 c -0.83937,-1.0278 -0.69818,-2.58325 0.31353,-3.45511 l 6.6199,-5.70422 c 1.01185,-0.87184 2.52763,-0.74415 3.367,0.28365" />
    <path
       inkscape:connector-curvature="0"
       id="path3606-4"
       style="fill:#cccccc;fill-opacity:1;fill-rule:evenodd;stroke:none"
       d="m 465.71979,385.08457 6.58623,8.06487 c 1.00681,1.23284 0.83846,3.09698 -0.37611,4.14349 l -9.04876,7.79727 c -1.21359,1.04578 -3.03093,0.89267 -4.03774,-0.34016 l -6.58637,-8.06486 c -1.00681,-1.23283 -0.83755,-3.09773 0.37611,-4.1435 l 9.04883,-7.79727 c 1.2145,-1.04651 3.03093,-0.89265 4.03781,0.34016" />
    <path
       inkscape:connector-curvature="0"
       id="path3610-4"
       style="fill:#cccccc;fill-opacity:1;fill-rule:evenodd;stroke:none"
       d="m 452.42567,368.80614 6.5863,8.06487 c 1.00758,1.23372 0.83839,3.09697 -0.37611,4.14348 l -9.04883,7.79728 c -1.21366,1.04577 -3.03023,0.89357 -4.03774,-0.34016 l -6.5863,-8.06487 c -1.00681,-1.23283 -0.83762,-3.09772 0.37597,-4.1435 l 9.04897,-7.79727 c 1.2145,-1.04651 3.03093,-0.89265 4.03774,0.34017" />
    <path
       inkscape:connector-curvature="0"
       id="path3614-9"
       style="fill:#cccccc;fill-opacity:1;fill-rule:evenodd;stroke:none"
       d="m 439.13155,352.52771 6.58637,8.06486 c 1.00751,1.23372 0.83839,3.09697 -0.37611,4.14349 l -9.04883,7.79728 c -1.21373,1.04577 -3.03023,0.89356 -4.03781,-0.34016 l -6.58623,-8.06487 c -1.00695,-1.23283 -0.83692,-3.09684 0.37674,-4.14259 l 9.04883,-7.7973 c 1.2145,-1.0465 3.03023,-0.89354 4.03704,0.33929" />
    <path
       inkscape:connector-curvature="0"
       id="path3618-6"
       style="fill:#cccccc;fill-opacity:1;fill-rule:evenodd;stroke:none"
       d="m 425.8375,336.24928 6.5863,8.06486 c 1.00751,1.23371 0.83846,3.09697 -0.37611,4.14348 l -9.0489,7.79729 c -1.21359,1.04576 -3.03009,0.89355 -4.03767,-0.34017 l -6.58644,-8.06487 c -1.00674,-1.23282 -0.83748,-3.09773 0.37611,-4.1435 l 9.0489,-7.79727 c 1.2145,-1.04651 3.031,-0.89266 4.03781,0.34018" />
    <path
       inkscape:connector-curvature="0"
       id="path3622-0"
       style="fill:#cccccc;fill-opacity:1;fill-rule:evenodd;stroke:none"
       d="m 412.54331,319.97076 6.58623,8.06486 c 1.00758,1.23372 0.83853,3.09697 -0.37597,4.14349 l -9.0489,7.79728 c -1.21359,1.04577 -3.03023,0.89356 -4.03774,-0.34016 l -6.58637,-8.06487 c -1.00681,-1.23283 -0.83678,-3.09684 0.37688,-4.14259 l 9.04883,-7.7973 c 1.2145,-1.0465 3.03023,-0.89354 4.03704,0.33929" />
    <path
       inkscape:connector-curvature="0"
       id="path3626-0"
       style="fill:#cccccc;fill-opacity:1;fill-rule:evenodd;stroke:none"
       d="m 399.24954,303.69277 6.58637,8.06487 c 1.00674,1.23283 0.83839,3.09697 -0.37611,4.14348 l -9.04883,7.79728 c -1.21373,1.04577 -3.03093,0.89266 -4.03774,-0.34017 l -6.58637,-8.06486 c -1.00751,-1.23371 -0.83755,-3.09773 0.37604,-4.1435 l 9.0489,-7.79727 c 1.2145,-1.04652 3.03023,-0.89355 4.03774,0.34017" />
    <path
       inkscape:connector-curvature="0"
       id="path3630-2"
       style="fill:#cccccc;fill-opacity:1;fill-rule:evenodd;stroke:none"
       d="m 385.95507,287.41389 6.58637,8.06487 c 1.00758,1.23372 0.83839,3.09696 -0.37611,4.14349 l -9.04883,7.79727 c -1.21366,1.04577 -3.03023,0.89355 -4.03781,-0.34017 l -6.58623,-8.06487 c -1.00681,-1.23282 -0.83762,-3.09773 0.37597,-4.14348 l 9.0489,-7.79728 c 1.21457,-1.04652 3.03093,-0.89266 4.03774,0.34017" />
    <path
       inkscape:connector-curvature="0"
       id="path3634-8"
       style="fill:#cccccc;fill-opacity:1;fill-rule:evenodd;stroke:none"
       d="m 372.6613,271.13582 6.58623,8.06486 c 1.00695,1.23283 0.83853,3.09696 -0.37597,4.14349 l -9.04897,7.79727 c -1.21352,1.04577 -3.03093,0.89267 -4.03767,-0.34016 l -6.58637,-8.06488 c -1.00681,-1.23281 -0.83748,-3.09772 0.37611,-4.14348 l 9.04883,-7.79728 c 1.2145,-1.04652 3.031,-0.89266 4.03781,0.34018" />
    <path
       inkscape:connector-curvature="0"
       id="path3638-5"
       style="fill:#cccccc;fill-opacity:1;fill-rule:evenodd;stroke:none"
       d="m 359.36711,254.85738 6.58637,8.06487 c 1.00758,1.23371 0.83839,3.09696 -0.37611,4.14348 l -9.04883,7.79728 c -1.21359,1.04576 -3.03016,0.89355 -4.03774,-0.34017 l -6.5863,-8.06487 c -1.00681,-1.23281 -0.83762,-3.09773 0.37611,-4.14349 l 9.04883,-7.79727 c 1.2145,-1.04652 3.03093,-0.89266 4.03767,0.34017" />
    <path
       inkscape:connector-curvature="0"
       id="path3642-7"
       style="fill:#cccccc;fill-opacity:1;fill-rule:evenodd;stroke:none"
       d="m 346.07306,238.57893 6.58637,8.06488 c 1.00751,1.23372 0.83839,3.09697 -0.37611,4.14348 l -9.04883,7.79728 c -1.21373,1.04577 -3.03023,0.89356 -4.03781,-0.34016 l -6.5863,-8.06487 c -1.00674,-1.23282 -0.83755,-3.09773 0.37604,-4.14349 l 9.0489,-7.79728 c 1.2145,-1.04651 3.03093,-0.89266 4.03774,0.34016" />
    <path
       inkscape:connector-curvature="0"
       id="path3646-8"
       style="fill:#cccccc;fill-opacity:1;fill-rule:evenodd;stroke:none"
       d="m 332.77887,222.30042 6.58637,8.06486 c 1.00744,1.23372 0.83846,3.09697 -0.37611,4.14348 l -9.04883,7.79729 c -1.21366,1.04576 -3.03023,0.89356 -4.03781,-0.34017 l -6.5863,-8.06487 c -1.00681,-1.23282 -0.83748,-3.09772 0.37604,-4.1435 l 9.04883,-7.79727 c 1.2145,-1.04651 3.031,-0.89265 4.03781,0.34018" />
    <path
       inkscape:connector-curvature="0"
       id="path3650-4"
       style="fill:#cccccc;fill-opacity:1;fill-rule:evenodd;stroke:none"
       d="m 319.48482,206.02198 6.58623,8.06486 c 1.00758,1.23372 0.83853,3.09697 -0.37611,4.14349 l -9.04876,7.79728 c -1.21359,1.04576 -3.03023,0.89355 -4.03774,-0.34016 l -6.58637,-8.06487 c -1.00681,-1.23283 -0.83755,-3.09773 0.37611,-4.1435 l 9.04883,-7.79728 c 1.2145,-1.04651 3.031,-0.89264 4.03781,0.34018" />
    <path
       inkscape:connector-curvature="0"
       id="path3654-1"
       style="fill:#cccccc;fill-opacity:1;fill-rule:evenodd;stroke:none"
       d="m 305.75509,189.21021 6.71139,8.21796 c 1.02585,1.2561 0.85428,3.155 -0.38311,4.22126 l -8.96602,7.72589 c -1.23655,1.06551 -3.0877,0.90956 -4.11362,-0.34655 l -6.71132,-8.21796 c -1.02648,-1.25701 -0.85407,-3.15665 0.38248,-4.22215 l 8.96595,-7.72589 c 1.23739,-1.06628 3.0877,-0.90956 4.11425,0.34744" />
    <path
       inkscape:connector-curvature="0"
       id="path3658-0"
       style="fill:#cccccc;fill-opacity:1;fill-rule:evenodd;stroke:none"
       d="m 290.09427,202.976 13.80876,16.90864 c 1.09753,1.34384 0.91231,3.37498 -0.41062,4.51493 l -8.65228,7.4555 c -1.32202,1.13918 -3.30225,0.97402 -4.39978,-0.36983 L 276.63152,214.5766 c -1.09739,-1.34383 -0.9121,-3.37664 0.40992,-4.51581 l 8.65221,-7.45553 c 1.323,-1.13993 3.30309,-0.9731 4.40062,0.37074" />
    <path
       inkscape:connector-curvature="0"
       id="path3662-4"
       style="fill:#cccccc;fill-opacity:1;fill-rule:evenodd;stroke:none"
       d="m 274.30304,216.58307 16.41899,20.10486 c 1.09676,1.34295 0.91231,3.37499 -0.41055,4.51493 l -8.65228,7.45551 c -1.32293,1.13994 -3.30316,0.97311 -4.39985,-0.36984 l -16.41899,-20.10485 c -1.09753,-1.34385 -0.91308,-3.37589 0.40992,-4.51581 l 8.65221,-7.45553 c 1.32286,-1.13994 3.30302,-0.97311 4.40055,0.37073" />
    <path
       inkscape:connector-curvature="0"
       id="path3666-3"
       style="fill:#cccccc;fill-opacity:1;fill-rule:evenodd;stroke:none"
       d="m 258.51265,230.18939 23.53841,28.8224 c 1.09746,1.34384 0.91217,3.37662 -0.40992,4.5158 l -8.65221,7.45553 c -1.32286,1.13993 -3.30302,0.97312 -4.40055,-0.37073 l -23.53841,-28.82241 c -1.09753,-1.34384 -0.91301,-3.37587 0.40992,-4.5158 l 8.65221,-7.45553 c 1.32202,-1.13917 3.30316,-0.9731 4.40055,0.37074" />
    <path
       inkscape:connector-curvature="0"
       id="path3670-9"
       style="fill:#cccccc;fill-opacity:1;fill-rule:evenodd;stroke:none"
       d="m 242.72191,243.79609 9.77424,11.96836 c 1.09676,1.34295 0.91231,3.37498 -0.41062,4.51492 l -8.65228,7.45553 c -1.323,1.13992 -3.30309,0.97311 -4.39978,-0.36984 l -9.77424,-11.96838 c -1.09753,-1.34384 -0.91308,-3.37588 0.40985,-4.51581 l 8.65228,-7.45553 c 1.32286,-1.13993 3.30316,-0.9731 4.40055,0.37075" />
    <path
       inkscape:connector-curvature="0"
       id="path3674-9"
       style="fill:#cccccc;fill-opacity:1;fill-rule:evenodd;stroke:none"
       d="m 309.51941,226.76179 7.05348,8.63697 c 1.07856,1.32055 0.8981,3.31708 -0.40187,4.43728 l -8.736,7.52767 c -1.30004,1.12018 -3.24625,0.95622 -4.32481,-0.36435 l -7.05355,-8.63696 c -1.07842,-1.32058 -0.89719,-3.31784 0.40285,-4.43805 l 8.73593,-7.52767 c 1.30011,-1.12019 3.24548,-0.95546 4.32397,0.36511" />
    <path
       inkscape:connector-curvature="0"
       id="path3678-5"
       style="fill:#cccccc;fill-opacity:1;fill-rule:evenodd;stroke:none"
       d="m 323.06308,243.3458 7.05355,8.63696 c 1.07842,1.32056 0.89803,3.31708 -0.40201,4.43729 l -8.73593,7.52767 c -1.30004,1.12019 -3.24632,0.95621 -4.32481,-0.36435 l -7.05348,-8.63696 c -1.07856,-1.32058 -0.89719,-3.31785 0.40278,-4.43805 l 8.73593,-7.52767 c 1.30004,-1.12018 3.24541,-0.95546 4.32397,0.36511" />
    <path
       inkscape:connector-curvature="0"
       id="path3682-9"
       style="fill:#cccccc;fill-opacity:1;fill-rule:evenodd;stroke:none"
       d="m 336.60682,259.92989 7.05348,8.63695 c 1.07842,1.32057 0.8981,3.31709 -0.40194,4.43729 l -8.73593,7.52767 c -1.30004,1.12018 -3.24639,0.95623 -4.32481,-0.36436 l -7.05362,-8.63696 c -1.07842,-1.32057 -0.89712,-3.31784 0.40292,-4.43804 l 8.73593,-7.52767 c 1.30004,-1.12018 3.24541,-0.95546 4.32397,0.36512" />
    <path
       inkscape:connector-curvature="0"
       id="path3686-6"
       style="fill:#cccccc;fill-opacity:1;fill-rule:evenodd;stroke:none"
       d="m 350.15042,276.51389 7.05362,8.63697 c 1.07842,1.32056 0.89803,3.31708 -0.40201,4.43727 l -8.73593,7.52768 c -1.30011,1.12018 -3.24632,0.95622 -4.32488,-0.36435 l -7.05348,-8.63697 c -1.07849,-1.32056 -0.89712,-3.31784 0.40278,-4.43803 l 8.736,-7.52769 c 1.30004,-1.12018 3.24541,-0.95545 4.3239,0.36513" />
    <path
       inkscape:connector-curvature="0"
       id="path3690-3"
       style="fill:#cccccc;fill-opacity:1;fill-rule:evenodd;stroke:none"
       d="m 363.69416,293.09799 7.05348,8.63695 c 1.07842,1.32057 0.8981,3.31709 -0.40187,4.43728 l -8.73593,7.52767 c -1.30011,1.12019 -3.24639,0.95623 -4.32488,-0.36434 l -7.05348,-8.63697 c -1.07849,-1.32056 -0.89719,-3.31784 0.40278,-4.43804 l 8.736,-7.52768 c 1.30004,-1.12018 3.24541,-0.95545 4.3239,0.36513" />
    <path
       inkscape:connector-curvature="0"
       id="path3694-8"
       style="fill:#cccccc;fill-opacity:1;fill-rule:evenodd;stroke:none"
       d="m 377.23748,309.68153 7.05348,8.63695 c 1.07842,1.32057 0.89796,3.31709 -0.40194,4.43729 l -8.736,7.52767 c -1.29997,1.12019 -3.24632,0.95622 -4.32474,-0.36435 l -7.05362,-8.63697 c -1.07842,-1.32056 -0.89719,-3.31784 0.40292,-4.43803 l 8.73593,-7.52768 c 1.30004,-1.12018 3.24541,-0.95546 4.32397,0.36512" />
    <path
       inkscape:connector-curvature="0"
       id="path3698-4"
       style="fill:#cccccc;fill-opacity:1;fill-rule:evenodd;stroke:none"
       d="m 390.78143,326.26598 7.05348,8.63696 c 1.07849,1.32056 0.8981,3.31708 -0.40187,4.43729 l -8.73593,7.52767 c -1.30004,1.12018 -3.24639,0.95621 -4.32481,-0.36436 l -7.05355,-8.63695 c -1.07842,-1.32058 -0.89719,-3.31786 0.40278,-4.43805 l 8.736,-7.52768 c 1.30004,-1.12018 3.24541,-0.95545 4.3239,0.36512" />
    <path
       inkscape:connector-curvature="0"
       id="path3702-6"
       style="fill:#cccccc;fill-opacity:1;fill-rule:evenodd;stroke:none"
       d="m 404.32475,342.84963 7.05355,8.63696 c 1.07842,1.32054 0.8981,3.31708 -0.40187,4.43727 l -8.73593,7.52768 c -1.30011,1.12018 -3.24639,0.95622 -4.32488,-0.36435 l -7.05355,-8.63697 c -1.07842,-1.32056 -0.89712,-3.31784 0.40285,-4.43803 l 8.73593,-7.52768 c 1.30011,-1.12019 3.24548,-0.95545 4.3239,0.36512" />
    <path
       inkscape:connector-curvature="0"
       id="path3706-7"
       style="fill:#cccccc;fill-opacity:1;fill-rule:evenodd;stroke:none"
       d="m 417.86849,359.43363 7.05348,8.63695 c 1.07842,1.32057 0.89817,3.31709 -0.40194,4.43728 l -8.73593,7.52768 c -1.30004,1.12018 -3.24632,0.95622 -4.32481,-0.36435 l -7.05355,-8.63696 c -1.07849,-1.32057 -0.89719,-3.31785 0.40285,-4.43804 l 8.736,-7.52768 c 1.29997,-1.12019 3.24534,-0.95545 4.3239,0.36512" />
    <path
       inkscape:connector-curvature="0"
       id="path3710-3"
       style="fill:#cccccc;fill-opacity:1;fill-rule:evenodd;stroke:none"
       d="m 431.41209,376.01771 7.05362,8.63696 c 1.07842,1.32056 0.89803,3.31709 -0.40194,4.43728 l -8.73593,7.52767 c -1.30004,1.12018 -3.24632,0.95622 -4.32481,-0.36435 l -7.05355,-8.63696 c -1.07849,-1.32057 -0.89719,-3.31785 0.40271,-4.43804 l 8.73614,-7.52767 c 1.2999,-1.12018 3.24534,-0.95547 4.32376,0.36511" />
    <path
       inkscape:connector-curvature="0"
       id="path3714-1"
       style="fill:#cccccc;fill-opacity:1;fill-rule:evenodd;stroke:none"
       d="m 444.95576,392.60171 7.05355,8.63696 c 1.07849,1.32056 0.8981,3.31708 -0.40187,4.43728 l -8.73607,7.52767 c -1.29997,1.12018 -3.24625,0.95622 -4.32467,-0.36435 l -7.05355,-8.63697 c -1.07856,-1.32056 -0.89719,-3.31784 0.40271,-4.43804 l 8.73607,-7.52767 c 1.2999,-1.12018 3.24541,-0.95546 4.32383,0.36512" />
    <path
       inkscape:connector-curvature="0"
       id="path3718-7"
       style="fill:#cccccc;fill-opacity:1;fill-rule:evenodd;stroke:none"
       d="m 458.49915,409.18527 7.05348,8.63696 c 1.07842,1.32056 0.89803,3.31708 -0.40194,4.43728 l -8.73593,7.52767 c -1.30004,1.12018 -3.24632,0.95622 -4.32481,-0.36435 l -7.05355,-8.63697 c -1.07849,-1.32056 -0.89649,-3.31695 0.40348,-4.43714 l 8.73607,-7.52766 c 1.29997,-1.1202 3.24464,-0.95636 4.3232,0.36421" />
    <path
       inkscape:connector-curvature="0"
       id="path3722-8"
       style="fill:#cccccc;fill-opacity:1;fill-rule:evenodd;stroke:none"
       d="m 297.49607,244.98262 7.05355,8.63696 c 1.07849,1.32056 0.8981,3.31709 -0.40278,4.43804 l -8.73516,7.52692 c -1.30088,1.12093 -3.24625,0.95621 -4.32474,-0.36435 l -7.05348,-8.63697 c -1.07856,-1.32057 -0.89817,-3.31708 0.40271,-4.43804 l 8.73509,-7.52692 c 1.30088,-1.12094 3.24625,-0.95621 4.32481,0.36436" />
    <path
       inkscape:connector-curvature="0"
       id="path3726-3"
       style="fill:#cccccc;fill-opacity:1;fill-rule:evenodd;stroke:none"
       d="m 311.03981,261.5667 7.05348,8.63697 c 1.07849,1.32056 0.89817,3.31708 -0.40271,4.43804 l -8.73516,7.52692 c -1.30088,1.12094 -3.24632,0.95621 -4.32474,-0.36436 l -7.05362,-8.63696 c -1.07842,-1.32057 -0.89803,-3.31709 0.40285,-4.43804 l 8.73509,-7.52692 c 1.30088,-1.12095 3.24625,-0.95621 4.32481,0.36435" />
    <path
       inkscape:connector-curvature="0"
       id="path3730-0"
       style="fill:#cccccc;fill-opacity:1;fill-rule:evenodd;stroke:none"
       d="m 324.58306,278.15026 7.05425,8.63786 c 1.07856,1.32057 0.8981,3.31709 -0.40278,4.43805 l -8.73502,7.5269 c -1.30095,1.12095 -3.24632,0.95621 -4.32488,-0.36435 l -7.05418,-8.63786 c -1.07856,-1.32056 -0.89817,-3.31708 0.40271,-4.43803 l 8.73516,-7.52692 c 1.30088,-1.12095 3.24632,-0.95621 4.32474,0.36435" />
    <path
       inkscape:connector-curvature="0"
       id="path3734-9"
       style="fill:#cccccc;fill-opacity:1;fill-rule:evenodd;stroke:none"
       d="m 338.12673,294.73426 7.05425,8.63784 c 1.07849,1.32059 0.8974,3.3162 -0.40348,4.43716 l -8.73516,7.52691 c -1.30088,1.12095 -3.24555,0.95711 -4.32404,-0.36346 l -7.05432,-8.63786 c -1.07772,-1.31966 -0.89726,-3.31618 0.40362,-4.43713 l 8.73509,-7.52693 c 1.30088,-1.12094 3.24625,-0.95621 4.32404,0.36347" />
    <path
       inkscape:connector-curvature="0"
       id="path3738-9"
       style="fill:#cccccc;fill-opacity:1;fill-rule:evenodd;stroke:none"
       d="m 351.67047,311.31836 7.05355,8.63696 c 1.07842,1.32057 0.8981,3.31708 -0.40278,4.43804 l -8.73516,7.52691 c -1.30088,1.12094 -3.24625,0.95623 -4.32474,-0.36435 l -7.05348,-8.63696 c -1.07856,-1.32057 -0.89817,-3.31708 0.40271,-4.43804 l 8.73509,-7.52691 c 1.30088,-1.12094 3.24625,-0.95622 4.32481,0.36435" />
    <path
       inkscape:connector-curvature="0"
       id="path3742-3"
       style="fill:#cccccc;fill-opacity:1;fill-rule:evenodd;stroke:none"
       d="m 365.21414,327.90235 7.05348,8.63696 c 1.07856,1.32057 0.8981,3.31709 -0.40278,4.43805 l -8.73509,7.52691 c -1.30088,1.12094 -3.24625,0.95622 -4.32481,-0.36436 l -7.05355,-8.63696 c -1.07842,-1.32057 -0.8981,-3.31708 0.40285,-4.43804 l 8.73509,-7.52691 c 1.30088,-1.12094 3.24625,-0.95622 4.32481,0.36435" />
    <path
       inkscape:connector-curvature="0"
       id="path3746-6"
       style="fill:#cccccc;fill-opacity:1;fill-rule:evenodd;stroke:none"
       d="m 378.75781,344.48643 7.05355,8.63696 c 1.07842,1.32056 0.89803,3.31709 -0.40278,4.43804 l -8.73509,7.52692 c -1.30088,1.12095 -3.24639,0.95622 -4.32481,-0.36435 l -7.05355,-8.63696 c -1.07842,-1.32058 -0.8981,-3.31708 0.40285,-4.43804 l 8.73509,-7.52692 c 1.30088,-1.12095 3.24625,-0.95622 4.32474,0.36435" />
    <path
       inkscape:connector-curvature="0"
       id="path3750-9"
       style="fill:#cccccc;fill-opacity:1;fill-rule:evenodd;stroke:none"
       d="m 392.30155,361.07044 7.05348,8.63696 c 1.07842,1.32056 0.8981,3.31708 -0.40278,4.43804 l -8.73516,7.52691 c -1.30088,1.12096 -3.24632,0.95622 -4.32474,-0.36434 l -7.05362,-8.63698 c -1.07842,-1.32055 -0.89796,-3.31707 0.40292,-4.43803 l 8.73502,-7.52691 c 1.30095,-1.12095 3.24632,-0.95622 4.32488,0.36435" />
    <path
       inkscape:connector-curvature="0"
       id="path3754-9"
       style="fill:#cccccc;fill-opacity:1;fill-rule:evenodd;stroke:none"
       d="m 405.84473,377.654 7.05348,8.63695 c 1.07849,1.32057 0.89817,3.31709 -0.40271,4.43805 l -8.73509,7.52691 c -1.30088,1.12094 -3.24639,0.95622 -4.32481,-0.36435 l -7.05355,-8.63697 c -1.07842,-1.32056 -0.89733,-3.31619 0.40348,-4.43715 l 8.73509,-7.5269 c 1.30088,-1.12095 3.24562,-0.95712 4.32411,0.36346" />
    <path
       inkscape:connector-curvature="0"
       id="path3758-8"
       style="fill:#cccccc;fill-opacity:1;fill-rule:evenodd;stroke:none"
       d="m 419.38847,394.23809 7.05425,8.63786 c 1.07856,1.32057 0.89817,3.31709 -0.40271,4.43804 l -8.73509,7.52691 c -1.30088,1.12095 -3.24639,0.95622 -4.32481,-0.36436 l -7.05432,-8.63785 c -1.07842,-1.32057 -0.8981,-3.31709 0.40278,-4.43803 l 8.73516,-7.52692 c 1.30088,-1.12095 3.24625,-0.95622 4.32474,0.36435" />
    <path
       inkscape:connector-curvature="0"
       id="path3762-5"
       style="fill:#cccccc;fill-opacity:1;fill-rule:evenodd;stroke:none"
       d="m 432.93221,410.82208 7.05348,8.63697 c 1.07842,1.32055 0.89796,3.31708 -0.40278,4.43804 l -8.73516,7.5269 c -1.30088,1.12095 -3.24632,0.95623 -4.32474,-0.36434 l -7.05362,-8.63697 c -1.07765,-1.31966 -0.89726,-3.31618 0.40355,-4.43714 l 8.73509,-7.52692 c 1.30088,-1.12094 3.24632,-0.95621 4.32418,0.36346" />
    <path
       inkscape:connector-curvature="0"
       id="path3766-2"
       style="fill:#cccccc;fill-opacity:1;fill-rule:evenodd;stroke:none"
       d="m 288.7964,267.27136 7.05355,8.63696 c 1.07849,1.32056 0.89719,3.31784 -0.40278,4.43805 l -8.736,7.52767 c -1.30004,1.12019 -3.24541,0.95546 -4.3239,-0.36511 l -7.05348,-8.63697 c -1.07856,-1.32057 -0.89817,-3.31708 0.40187,-4.43727 l 8.73593,-7.52768 c 1.30011,-1.12018 3.24625,-0.95622 4.32481,0.36435" />
    <path
       inkscape:connector-curvature="0"
       id="path3770-3"
       style="fill:#cccccc;fill-opacity:1;fill-rule:evenodd;stroke:none"
       d="m 302.34007,283.85538 7.05355,8.63695 c 1.07849,1.32057 0.89719,3.31785 -0.40285,4.43805 l -8.73593,7.52766 c -1.30004,1.12019 -3.24541,0.95547 -4.32383,-0.3651 l -7.05362,-8.63697 c -1.07849,-1.32056 -0.89803,-3.31708 0.40194,-4.43728 l 8.73593,-7.52767 c 1.30004,-1.12018 3.24632,-0.95622 4.32481,0.36436" />
    <path
       inkscape:connector-curvature="0"
       id="path3774-0"
       style="fill:#cccccc;fill-opacity:1;fill-rule:evenodd;stroke:none"
       d="m 315.88381,300.43946 7.05355,8.63696 c 1.07849,1.32056 0.89712,3.31785 -0.40285,4.43805 l -8.73593,7.52766 c -1.30004,1.12019 -3.24541,0.95547 -4.32397,-0.36511 l -7.05355,-8.63696 c -1.07842,-1.32057 -0.89803,-3.31709 0.40201,-4.43728 l 8.73593,-7.52767 c 1.30004,-1.12019 3.24632,-0.95622 4.32481,0.36435" />
    <path
       inkscape:connector-curvature="0"
       id="path3778-5"
       style="fill:#cccccc;fill-opacity:1;fill-rule:evenodd;stroke:none"
       d="m 329.42748,317.02346 7.05355,8.63697 c 1.07842,1.32055 0.89719,3.31784 -0.40285,4.43804 l -8.73593,7.52767 c -1.30011,1.12018 -3.24548,0.95546 -4.32397,-0.36511 l -7.05348,-8.63696 c -1.07856,-1.32058 -0.8981,-3.31708 0.40187,-4.43728 l 8.736,-7.52768 c 1.30004,-1.12019 3.24639,-0.95621 4.32481,0.36435" />
    <path
       inkscape:connector-curvature="0"
       id="path3782-5"
       style="fill:#cccccc;fill-opacity:1;fill-rule:evenodd;stroke:none"
       d="m 342.97073,333.60701 7.05355,8.63697 c 1.07849,1.32055 0.89719,3.31784 -0.40285,4.43804 l -8.736,7.52767 c -1.29997,1.12018 -3.24534,0.95546 -4.3239,-0.36511 l -7.05348,-8.63697 c -1.07772,-1.31967 -0.8974,-3.31619 0.40271,-4.43639 l 8.73593,-7.52767 c 1.30004,-1.12019 3.24632,-0.95621 4.32404,0.36346" />
    <path
       inkscape:connector-curvature="0"
       id="path3786-8"
       style="fill:#cccccc;fill-opacity:1;fill-rule:evenodd;stroke:none"
       d="m 356.51447,350.19111 7.05348,8.63695 c 1.07856,1.32057 0.89712,3.31785 -0.40278,4.43805 l -8.736,7.52766 c -1.29997,1.12019 -3.24534,0.95547 -4.3239,-0.3651 l -7.05355,-8.63697 c -1.07842,-1.32056 -0.8981,-3.31709 0.40201,-4.43728 l 8.73593,-7.52767 c 1.30004,-1.12018 3.24625,-0.95622 4.32481,0.36436" />
    <path
       inkscape:connector-curvature="0"
       id="path3790-3"
       style="fill:#cccccc;fill-opacity:1;fill-rule:evenodd;stroke:none"
       d="m 370.05814,366.77511 7.05355,8.63695 c 1.07842,1.32057 0.89712,3.31786 -0.40285,4.43805 l -8.73593,7.52767 c -1.30011,1.12018 -3.24548,0.95546 -4.32397,-0.36511 l -7.05348,-8.63696 c -1.07779,-1.31967 -0.8974,-3.31619 0.40257,-4.43639 l 8.736,-7.52767 c 1.29997,-1.12018 3.24639,-0.9562 4.32411,0.36346" />
    <path
       inkscape:connector-curvature="0"
       id="path3794-0"
       style="fill:#cccccc;fill-opacity:1;fill-rule:evenodd;stroke:none"
       d="m 383.60188,383.35919 7.05348,8.63697 c 1.07842,1.32055 0.89719,3.31784 -0.40278,4.43803 l -8.73593,7.52768 c -1.30011,1.12019 -3.24555,0.95546 -4.32397,-0.36511 l -7.05362,-8.63697 c -1.07842,-1.32057 -0.89796,-3.31708 0.40194,-4.43727 l 8.736,-7.52768 c 1.29997,-1.12019 3.24632,-0.95621 4.32488,0.36435" />
    <path
       inkscape:connector-curvature="0"
       id="path3798-0"
       style="fill:#cccccc;fill-opacity:1;fill-rule:evenodd;stroke:none"
       d="m 397.14548,399.9432 7.05362,8.63696 c 1.07842,1.32056 0.89705,3.31784 -0.40292,4.43804 l -8.73593,7.52768 c -1.30004,1.12019 -3.24541,0.95545 -4.32397,-0.36512 l -7.05355,-8.63696 c -1.07842,-1.32057 -0.89803,-3.31708 0.40201,-4.43728 l 8.736,-7.52768 c 1.29997,-1.12018 3.24625,-0.95622 4.32474,0.36436" />
    <path
       inkscape:connector-curvature="0"
       id="path3802-0"
       style="fill:#cccccc;fill-opacity:1;fill-rule:evenodd;stroke:none"
       d="m 410.68915,416.52719 7.05348,8.63696 c 1.07849,1.32057 0.89719,3.31785 -0.40278,4.43804 l -8.73593,7.52767 c -1.30011,1.12019 -3.24548,0.95547 -4.32397,-0.3651 l -7.05362,-8.63697 c -1.07842,-1.32056 -0.89796,-3.31708 0.40201,-4.43728 l 8.736,-7.52767 c 1.30004,-1.12018 3.24625,-0.95622 4.32481,0.36435" />
    <path
       inkscape:connector-curvature="0"
       id="path3806-9"
       style="fill:#cccccc;fill-opacity:1;fill-rule:evenodd;stroke:none"
       d="m 424.26733,433.15362 12.75449,15.61762 c 1.09753,1.34385 0.9121,3.37664 -0.40978,4.51582 l -8.65242,7.45552 c -1.32286,1.13993 -3.30302,0.97311 -4.40055,-0.37074 l -12.75435,-15.61761 c -1.09746,-1.34384 -0.91308,-3.37588 0.40985,-4.51581 l 8.65228,-7.45552 c 1.32202,-1.13918 3.30309,-0.97312 4.40048,0.37072" />
    <path
       inkscape:connector-curvature="0"
       id="path3810-1"
       style="fill:#cccccc;fill-opacity:1;fill-rule:evenodd;stroke:none"
       d="m 259.24177,264.02431 7.05348,8.63696 c 1.07842,1.32056 0.89719,3.31785 -0.40278,4.43804 l -8.73516,7.52692 c -1.30088,1.12094 -3.24632,0.95621 -4.32474,-0.36436 l -7.05362,-8.63695 c -1.07842,-1.32058 -0.89796,-3.31709 0.40292,-4.43805 l 8.73502,-7.52691 c 1.29997,-1.12019 3.24632,-0.95622 4.32488,0.36435" />
    <path
       inkscape:connector-curvature="0"
       id="path3814-8"
       style="fill:#cccccc;fill-opacity:1;fill-rule:evenodd;stroke:none"
       d="m 272.7853,280.60831 7.05355,8.63695 c 1.07842,1.32057 0.89719,3.31786 -0.40278,4.43805 l -8.73509,7.52691 c -1.30088,1.12094 -3.24639,0.95622 -4.32481,-0.36435 l -7.05355,-8.63696 c -1.07842,-1.32057 -0.89803,-3.31708 0.40285,-4.43804 l 8.73516,-7.52692 c 1.2999,-1.12018 3.24625,-0.95621 4.32467,0.36436" />
    <path
       inkscape:connector-curvature="0"
       id="path3818-1"
       style="fill:#cccccc;fill-opacity:1;fill-rule:evenodd;stroke:none"
       d="m 286.32869,297.19195 7.05425,8.63785 c 1.07842,1.32058 0.89719,3.31784 -0.40278,4.43805 l -8.73516,7.52691 c -1.30088,1.12095 -3.24625,0.95621 -4.32474,-0.36436 l -7.05425,-8.63785 c -1.07856,-1.32057 -0.8981,-3.31708 0.40278,-4.43804 l 8.73502,-7.52691 c 1.30011,-1.12019 3.24639,-0.95622 4.32488,0.36435" />
    <path
       inkscape:connector-curvature="0"
       id="path3822-5"
       style="fill:#cccccc;fill-opacity:1;fill-rule:evenodd;stroke:none"
       d="m 299.87243,313.77595 7.05348,8.63696 c 1.07842,1.32056 0.89712,3.31785 -0.40278,4.43804 l -8.73516,7.52692 c -1.30088,1.12094 -3.24632,0.95621 -4.32474,-0.36435 l -7.05362,-8.63696 c -1.07765,-1.31967 -0.89726,-3.3162 0.40355,-4.43716 l 8.73509,-7.5269 c 1.30004,-1.12018 3.24632,-0.95621 4.32418,0.36345" />
    <path
       inkscape:connector-curvature="0"
       id="path3826-7"
       style="fill:#cccccc;fill-opacity:1;fill-rule:evenodd;stroke:none"
       d="m 313.41596,330.35995 7.05355,8.63695 c 1.07842,1.32057 0.89719,3.31786 -0.40278,4.43805 l -8.73509,7.52691 c -1.30088,1.12095 -3.24639,0.95622 -4.32481,-0.36435 l -7.05355,-8.63696 c -1.07842,-1.32057 -0.89803,-3.31708 0.40285,-4.43804 l 8.73502,-7.52692 c 1.30004,-1.12018 3.24639,-0.95622 4.32481,0.36436" />
    <path
       inkscape:connector-curvature="0"
       id="path3830-1"
       style="fill:#cccccc;fill-opacity:1;fill-rule:evenodd;stroke:none"
       d="m 326.9597,346.94404 7.05355,8.63696 c 1.07842,1.32056 0.89719,3.31785 -0.40285,4.43804 l -8.73516,7.52692 c -1.30088,1.12093 -3.24625,0.95621 -4.32474,-0.36436 l -7.05348,-8.63697 c -1.07856,-1.32057 -0.89803,-3.31709 0.40278,-4.43803 l 8.73509,-7.52692 c 1.30004,-1.12018 3.24639,-0.95621 4.32481,0.36436" />
    <path
       inkscape:connector-curvature="0"
       id="path3834-4"
       style="fill:#cccccc;fill-opacity:1;fill-rule:evenodd;stroke:none"
       d="m 340.5033,363.52804 7.05362,8.63696 c 1.07842,1.32056 0.89719,3.31785 -0.40292,4.43804 l -8.73502,7.52692 c -1.30088,1.12093 -3.24632,0.95622 -4.32474,-0.36436 l -7.05362,-8.63696 c -1.07849,-1.32057 -0.89796,-3.31708 0.40278,-4.43804 l 8.73516,-7.52691 c 1.29997,-1.12019 3.24632,-0.95622 4.32474,0.36435" />
    <path
       inkscape:connector-curvature="0"
       id="path3838-7"
       style="fill:#cccccc;fill-opacity:1;fill-rule:evenodd;stroke:none"
       d="m 354.04697,380.11205 7.05355,8.63696 c 1.07842,1.32055 0.89719,3.31785 -0.40278,4.43804 l -8.73502,7.52691 c -1.30095,1.12095 -3.24639,0.95623 -4.32488,-0.36435 l -7.05355,-8.63696 c -1.07842,-1.32056 -0.89803,-3.31708 0.40285,-4.43803 l 8.73516,-7.52692 c 1.2999,-1.12018 3.24625,-0.95622 4.32467,0.36435" />
    <path
       inkscape:connector-curvature="0"
       id="path3842-3"
       style="fill:#cccccc;fill-opacity:1;fill-rule:evenodd;stroke:none"
       d="m 367.59036,396.69569 7.05355,8.63696 c 1.07842,1.32055 0.89719,3.31784 -0.40278,4.43804 l -8.73509,7.5269 c -1.30088,1.12096 -3.24639,0.95623 -4.32481,-0.36434 l -7.05355,-8.63697 c -1.07856,-1.32057 -0.89803,-3.31708 0.40278,-4.43804 l 8.73509,-7.52691 c 1.30004,-1.12018 3.24639,-0.95622 4.32481,0.36436" />
    <path
       inkscape:connector-curvature="0"
       id="path3846-7"
       style="fill:#cccccc;fill-opacity:1;fill-rule:evenodd;stroke:none"
       d="m 381.13396,413.27968 7.05439,8.63786 c 1.07842,1.32057 0.89642,3.31695 -0.40369,4.43714 l -8.73509,7.52692 c -1.30088,1.12095 -3.24548,0.95711 -4.32404,-0.36346 l -7.05425,-8.63786 c -1.07849,-1.32056 -0.89796,-3.31708 0.40278,-4.43804 l 8.73516,-7.52691 c 1.29997,-1.12018 3.24632,-0.95622 4.32474,0.36435" />
    <path
       inkscape:connector-curvature="0"
       id="path3850-6"
       style="fill:#cccccc;fill-opacity:1;fill-rule:evenodd;stroke:none"
       d="m 394.71228,429.90611 12.75442,15.61762 c 1.09753,1.34385 0.91378,3.37677 -0.40915,4.51671 l -8.65221,7.45553 c -1.323,1.13992 -3.30379,0.97221 -4.40132,-0.37165 l -12.75442,-15.6176 c -1.09753,-1.34385 -0.91301,-3.37588 0.40992,-4.51582 l 8.65221,-7.45551 c 1.32286,-1.13995 3.30302,-0.97312 4.40055,0.37072" />
    <path
       inkscape:connector-curvature="0"
       id="path3854-1"
       style="fill:#cccccc;fill-opacity:1;fill-rule:evenodd;stroke:none"
       d="m 414.64968,454.31926 6.71139,8.21795 c 1.02585,1.25611 0.85351,3.15577 -0.38311,4.22128 l -8.96518,7.72511 c -1.23739,1.06627 -3.08854,0.91032 -4.11432,-0.34578 l -6.71139,-8.21797 c -1.02578,-1.25611 -0.85337,-3.15574 0.38402,-4.22201 l 8.96518,-7.72513 c 1.23648,-1.06552 3.0877,-0.90957 4.11341,0.34655" />
    <path
       inkscape:connector-curvature="0"
       id="path3858-5"
       style="fill:#cccccc;fill-opacity:1;fill-rule:evenodd;stroke:none"
       d="m 284.0098,346.06569 70.37898,86.178 c 1.07345,1.3143 0.8939,3.30089 -0.39998,4.41575 l -40.79089,35.14888 c -1.29465,1.11565 -3.23036,0.95173 -4.30374,-0.36258 l -70.37891,-86.17799 c -1.07345,-1.31431 -0.8939,-3.3009 0.40089,-4.41653 l 40.79075,-35.14888 c 1.29388,-1.11487 3.22959,-0.95095 4.3029,0.36335" />
    <path
       inkscape:connector-curvature="0"
       id="path3862-0"
       style="fill:#cccccc;fill-opacity:1;fill-rule:evenodd;stroke:none"
       d="m 233.92088,386.00026 35.00371,42.86159 c 0.22302,0.27307 0.18494,0.68421 -0.0841,0.91584 l -8.47252,7.3006 c -0.26873,0.23163 -0.66955,0.1987 -0.89257,-0.0744 l -35.00378,-42.8616 c -0.22302,-0.27307 -0.18564,-0.68511 0.0832,-0.91674 l 8.47252,-7.3006 c 0.26873,-0.23162 0.67032,-0.19779 0.89334,0.0752" />
    <path
       inkscape:connector-curvature="0"
       id="path3866-4"
       style="fill:#cccccc;fill-opacity:1;fill-rule:evenodd;stroke:none"
       d="m 272.38938,433.1045 35.00378,42.86159 c 0.22302,0.27307 0.18557,0.68511 -0.0832,0.91675 l -8.47252,7.30059 c -0.26873,0.23163 -0.67025,0.19781 -0.89327,-0.0752 L 262.9405,441.2466 c -0.22302,-0.27305 -0.18578,-0.68509 0.0832,-0.91672 l 8.47245,-7.3006 c 0.2688,-0.23162 0.67025,-0.1978 0.89327,0.0752" />
    <path
       inkscape:connector-curvature="0"
       id="path3870-2"
       style="fill:#4d4d4d;fill-opacity:1;fill-rule:evenodd;stroke:none"
       d="M 358.80053,86.825263 565.78542,409.01524 615.32001,400.92963 358.80053,86.825263 Z" />
  </g>
</svg>
