<?xml version="1.0" encoding="UTF-8" standalone="no"?>
<!-- Created with Inkscape (http://www.inkscape.org/) -->

<svg
   xmlns:dc="http://purl.org/dc/elements/1.1/"
   xmlns:cc="http://creativecommons.org/ns#"
   xmlns:rdf="http://www.w3.org/1999/02/22-rdf-syntax-ns#"
   xmlns:svg="http://www.w3.org/2000/svg"
   xmlns="http://www.w3.org/2000/svg"
   xmlns:sodipodi="http://sodipodi.sourceforge.net/DTD/sodipodi-0.dtd"
   xmlns:inkscape="http://www.inkscape.org/namespaces/inkscape"
   width="224.29147"
   height="237.11716"
   viewBox="0 0 224.29148 237.11716"
   id="svg71263"
   version="1.1"
   inkscape:version="0.91 r13725"
   sodipodi:docname="paper.svg">
  <defs
     id="defs71265" />
  <sodipodi:namedview
     id="base"
     pagecolor="#ffffff"
     bordercolor="#666666"
     borderopacity="1.0"
     inkscape:pageopacity="0.0"
     inkscape:pageshadow="2"
     inkscape:zoom="0.35"
     inkscape:cx="-258.5686"
     inkscape:cy="238.5586"
     inkscape:document-units="px"
     inkscape:current-layer="layer1"
     showgrid="false"
     inkscape:window-width="1920"
     inkscape:window-height="1017"
     inkscape:window-x="-8"
     inkscape:window-y="-8"
     inkscape:window-maximized="1"
     units="px"
     fit-margin-top="0"
     fit-margin-left="0"
     fit-margin-right="0"
     fit-margin-bottom="0" />
  <metadata
     id="metadata71268">
    <rdf:RDF>
      <cc:Work
         rdf:about="">
        <dc:format>image/svg+xml</dc:format>
        <dc:type
           rdf:resource="http://purl.org/dc/dcmitype/StillImage" />
        <dc:title></dc:title>
      </cc:Work>
    </rdf:RDF>
  </metadata>
  <g
     inkscape:label="Layer 1"
     inkscape:groupmode="layer"
     id="layer1"
     transform="translate(-99.282883,-533.80363)">
    <path
       inkscape:connector-curvature="0"
       id="path5588"
       style="fill:#30617d;fill-opacity:1;fill-rule:evenodd;stroke:none"
       d="m 102.88314,595.03675 131.78418,-59.32358 88.90703,175.88404 -131.7837,59.32357 -88.90751,-175.88403 z" />
    <path
       inkscape:connector-curvature="0"
       id="path5700"
       style="fill:#ffffff;fill-opacity:1;fill-rule:evenodd;stroke:none"
       d="M 99.282883,593.12721 231.06655,533.80363 319.97409,709.68767 188.19039,769.01124 99.282883,593.12721 Z" />
    <path
       inkscape:connector-curvature="0"
       id="path5704"
       style="fill:#cccccc;fill-opacity:1;fill-rule:evenodd;stroke:none"
       d="m 143.3567,594.76096 63.97814,-28.80057 1.56525,3.09647 -63.97815,28.8001 -1.56524,-3.096 z" />
    <path
       inkscape:connector-curvature="0"
       id="path5708"
       style="fill:#cccccc;fill-opacity:1;fill-rule:evenodd;stroke:none"
       d="m 125.46134,612.31858 107.59466,-48.43486 1.56476,3.09647 -107.59418,48.4344 -1.56524,-3.09601 z" />
    <path
       inkscape:connector-curvature="0"
       id="path5712"
       style="fill:#cccccc;fill-opacity:1;fill-rule:evenodd;stroke:none"
       d="m 128.20017,617.73692 107.59467,-48.43487 1.56524,3.09601 -107.59466,48.43486 -1.56525,-3.096 z" />
    <path
       inkscape:connector-curvature="0"
       id="path5716"
       style="fill:#cccccc;fill-opacity:1;fill-rule:evenodd;stroke:none"
       d="m 130.93898,623.15478 107.59466,-48.4344 1.56525,3.09601 -107.59467,48.43486 -1.56524,-3.09647 z" />
    <path
       inkscape:connector-curvature="0"
       id="path5720"
       style="fill:#cccccc;fill-opacity:1;fill-rule:evenodd;stroke:none"
       d="m 133.67782,628.57311 107.59466,-48.43486 1.56476,3.09647 -107.59418,48.43486 -1.56524,-3.09647 z" />
    <path
       inkscape:connector-curvature="0"
       id="path5724"
       style="fill:#cccccc;fill-opacity:1;fill-rule:evenodd;stroke:none"
       d="m 136.41662,633.99145 107.59467,-48.43487 1.56524,3.09647 -107.59467,48.43486 -1.56524,-3.09646 z" />
    <path
       inkscape:connector-curvature="0"
       id="path5728"
       style="fill:#cccccc;fill-opacity:1;fill-rule:evenodd;stroke:none"
       d="m 139.15546,639.40978 107.59466,-48.43486 1.56525,3.09646 -107.59467,48.4344 -1.56524,-3.096 z" />
    <path
       inkscape:connector-curvature="0"
       id="path5732"
       style="fill:#cccccc;fill-opacity:1;fill-rule:evenodd;stroke:none"
       d="m 141.89452,644.82765 107.59467,-48.4344 1.56475,3.096 -107.59418,48.43486 -1.56524,-3.09646 z" />
    <path
       inkscape:connector-curvature="0"
       id="path5736"
       style="fill:#cccccc;fill-opacity:1;fill-rule:evenodd;stroke:none"
       d="m 144.63333,650.24598 107.59466,-48.43487 1.56476,3.09647 -107.59418,48.43486 -1.56524,-3.09646 z" />
    <path
       inkscape:connector-curvature="0"
       id="path5740"
       style="fill:#cccccc;fill-opacity:1;fill-rule:evenodd;stroke:none"
       d="m 147.37216,655.66431 53.79735,-24.21767 1.56524,3.09647 -53.79734,24.21766 -1.56525,-3.09646 z" />
    <path
       inkscape:connector-curvature="0"
       id="path5744"
       style="fill:#4c8eb4;fill-opacity:1;fill-rule:evenodd;stroke:none"
       d="m 249.50357,630.30759 c 7.70618,-3.46913 16.9326,-0.38572 20.60873,6.88601 3.67565,7.27174 0.40876,15.97907 -7.29693,19.4482 -7.70614,3.46866 -16.93308,0.38572 -20.60873,-6.88648 -3.67614,-7.27174 -0.40925,-15.97861 7.29693,-19.44773" />
    <path
       inkscape:connector-curvature="0"
       id="path5748"
       style="fill:#9acae6;fill-opacity:1;fill-rule:evenodd;stroke:none"
       d="m 254.03857,657.92572 c -2.6338,-0.34654 -5.14652,-1.32926 -7.27222,-2.86046 l 9.39348,-11.59066 -2.12126,14.45112 z" />
    <path
       inkscape:connector-curvature="0"
       id="path5752"
       style="fill:#87bbda;fill-opacity:1;fill-rule:evenodd;stroke:none"
       d="m 246.76616,655.06535 c -1.886,-1.35911 -3.46806,-3.14964 -4.55985,-5.30957 -2.12819,-4.21024 -1.92851,-8.90182 0.11172,-12.77859 l 13.84164,6.49704 -9.39351,11.59112 z" />
    <path
       inkscape:connector-curvature="0"
       id="path5756"
       style="fill:#73accd;fill-opacity:1;fill-rule:evenodd;stroke:none"
       d="m 242.31803,636.9771 c 1.48369,-2.81989 3.94107,-5.20929 7.18574,-6.66961 l 6.6559,13.16711 -13.84164,-6.4975 z" />
    <path
       inkscape:connector-curvature="0"
       id="path5760"
       style="fill:#609dc1;fill-opacity:1;fill-rule:evenodd;stroke:none"
       d="m 249.50357,630.30759 6.6559,13.16664 5.2755,-13.7114 c -3.75769,-1.28729 -8.03877,-1.208 -11.9314,0.54476" />
    <path
       inkscape:connector-curvature="0"
       id="path5764"
       style="fill:#cccccc;fill-opacity:1;fill-rule:evenodd;stroke:none"
       d="m 170.30527,701.03276 64.02166,-28.82016 0.78139,1.54567 -64.02166,28.82016 -0.78139,-1.54567 z" />
    <path
       inkscape:connector-curvature="0"
       id="path5768"
       style="fill:#4c8eb4;fill-opacity:1;fill-rule:evenodd;stroke:none"
       d="m 153.95001,668.67765 11.38131,-5.12347 16.35533,32.35505 -11.38131,5.12347 -16.35533,-32.35505 z" />
    <path
       inkscape:connector-curvature="0"
       id="path5772"
       style="fill:#609dc1;fill-opacity:1;fill-rule:evenodd;stroke:none"
       d="m 173.27697,674.95365 11.38179,-5.12347 10.18825,20.15527 -11.38183,5.123 -10.18821,-20.1548 z" />
    <path
       inkscape:connector-curvature="0"
       id="path5776"
       style="fill:#73accd;fill-opacity:1;fill-rule:evenodd;stroke:none"
       d="m 189.88725,675.85504 11.38179,-5.12347 6.73797,13.32942 -11.38183,5.12347 -6.73793,-13.32942 z" />
    <path
       inkscape:connector-curvature="0"
       id="path5780"
       style="fill:#87bbda;fill-opacity:1;fill-rule:evenodd;stroke:none"
       d="m 199.88786,663.68066 11.3818,-5.12347 9.89713,19.57972 -11.38131,5.12301 -9.89762,-19.57926 z" />
    <path
       inkscape:connector-curvature="0"
       id="path5784"
       style="fill:#9acae6;fill-opacity:1;fill-rule:evenodd;stroke:none"
       d="m 215.86787,663.33496 11.38179,-5.12347 7.07752,14.00104 -11.38182,5.12394 -7.07749,-14.00151 z" />
    <path
       inkscape:connector-curvature="0"
       id="path5788"
       style="fill:#cccccc;fill-opacity:1;fill-rule:evenodd;stroke:none"
       d="m 250.88154,664.76058 5.74355,-2.58576 0.78139,1.54614 -5.74355,2.58528 -0.78139,-1.54566 z" />
    <path
       inkscape:connector-curvature="0"
       id="path5792"
       style="fill:#cccccc;fill-opacity:1;fill-rule:evenodd;stroke:none"
       d="m 259.28529,660.97742 17.06307,-7.68124 0.78091,1.54614 -17.06259,7.68077 -0.78139,-1.54567 z" />
    <path
       inkscape:connector-curvature="0"
       id="path5796"
       style="fill:#cccccc;fill-opacity:1;fill-rule:evenodd;stroke:none"
       d="m 173.56008,707.47181 49.37935,-22.22844 1.56476,3.096 -49.37887,22.22844 -1.56524,-3.096 z" />
    <path
       inkscape:connector-curvature="0"
       id="path5800"
       style="fill:#cccccc;fill-opacity:1;fill-rule:evenodd;stroke:none"
       d="m 176.29885,712.88966 49.37935,-22.22845 1.56476,3.09601 -49.37887,22.22891 -1.56524,-3.09647 z" />
    <path
       inkscape:connector-curvature="0"
       id="path5804"
       style="fill:#cccccc;fill-opacity:1;fill-rule:evenodd;stroke:none"
       d="m 179.03769,718.30799 49.37935,-22.22845 1.56475,3.09601 -49.37886,22.22891 -1.56524,-3.09647 z" />
    <path
       inkscape:connector-curvature="0"
       id="path5808"
       style="fill:#cccccc;fill-opacity:1;fill-rule:evenodd;stroke:none"
       d="m 181.77652,723.72632 49.37935,-22.22844 1.56476,3.096 -49.37886,22.22891 -1.56525,-3.09647 z" />
    <path
       inkscape:connector-curvature="0"
       id="path5812"
       style="fill:#cccccc;fill-opacity:1;fill-rule:evenodd;stroke:none"
       d="m 184.51559,729.14465 49.37883,-22.22844 1.56527,3.096 -49.37886,22.22845 -1.56524,-3.09601 z" />
    <path
       inkscape:connector-curvature="0"
       id="path5816"
       style="fill:#cccccc;fill-opacity:1;fill-rule:evenodd;stroke:none"
       d="m 187.25442,734.56254 49.37883,-22.22798 1.56528,3.09554 -49.37886,22.22891 -1.56525,-3.09647 z" />
    <path
       inkscape:connector-curvature="0"
       id="path5820"
       style="fill:#cccccc;fill-opacity:1;fill-rule:evenodd;stroke:none"
       d="m 189.99323,739.98087 49.37883,-22.22844 1.56528,3.096 -49.37887,22.22891 -1.56524,-3.09647 z" />
    <path
       inkscape:connector-curvature="0"
       id="path5824"
       style="fill:#cccccc;fill-opacity:1;fill-rule:evenodd;stroke:none"
       d="m 192.73203,745.39921 24.68968,-11.11399 1.56476,3.096 -24.68919,11.11445 -1.56525,-3.09646 z" />
    <path
       inkscape:connector-curvature="0"
       id="path5828"
       style="fill:#cccccc;fill-opacity:1;fill-rule:evenodd;stroke:none"
       d="m 231.77565,681.26513 49.37935,-22.22844 1.56476,3.096 -49.37886,22.22891 -1.56525,-3.09647 z" />
    <path
       inkscape:connector-curvature="0"
       id="path5832"
       style="fill:#cccccc;fill-opacity:1;fill-rule:evenodd;stroke:none"
       d="m 234.51452,686.68346 49.37883,-22.22844 1.56528,3.096 -49.37886,22.22891 -1.56525,-3.09647 z" />
    <path
       inkscape:connector-curvature="0"
       id="path5836"
       style="fill:#cccccc;fill-opacity:1;fill-rule:evenodd;stroke:none"
       d="m 237.25336,692.10183 49.37883,-22.22845 1.56528,3.09601 -49.37887,22.22891 -1.56524,-3.09647 z" />
    <path
       inkscape:connector-curvature="0"
       id="path5840"
       style="fill:#cccccc;fill-opacity:1;fill-rule:evenodd;stroke:none"
       d="m 239.99213,697.52013 49.37935,-22.22845 1.56476,3.09601 -49.37887,22.22844 -1.56524,-3.096 z" />
    <path
       inkscape:connector-curvature="0"
       id="path5844"
       style="fill:#cccccc;fill-opacity:1;fill-rule:evenodd;stroke:none"
       d="m 242.73097,702.93801 49.37883,-22.22798 1.56527,3.09554 -49.37886,22.22891 -1.56524,-3.09647 z" />
    <path
       inkscape:connector-curvature="0"
       id="path5848"
       style="fill:#cccccc;fill-opacity:1;fill-rule:evenodd;stroke:none"
       d="m 245.47003,708.35634 49.37883,-22.22844 1.56528,3.096 -49.37887,22.22891 -1.56524,-3.09647 z" />
    <path
       inkscape:connector-curvature="0"
       id="path5852"
       style="fill:#cccccc;fill-opacity:1;fill-rule:evenodd;stroke:none"
       d="m 248.20887,713.77467 49.37883,-22.22844 1.56528,3.096 -49.37887,22.22891 -1.56524,-3.09647 z" />
    <path
       inkscape:connector-curvature="0"
       id="path5856"
       style="fill:#cccccc;fill-opacity:1;fill-rule:evenodd;stroke:none"
       d="m 250.94741,719.19301 34.75681,-15.64606 1.56476,3.096 -34.75632,15.64606 -1.56525,-3.096 z" />
  </g>
</svg>
