<?xml version="1.0" encoding="UTF-8" standalone="no"?>
<!-- Created with Inkscape (http://www.inkscape.org/) -->

<svg
   xmlns:dc="http://purl.org/dc/elements/1.1/"
   xmlns:cc="http://creativecommons.org/ns#"
   xmlns:rdf="http://www.w3.org/1999/02/22-rdf-syntax-ns#"
   xmlns:svg="http://www.w3.org/2000/svg"
   xmlns="http://www.w3.org/2000/svg"
   xmlns:sodipodi="http://sodipodi.sourceforge.net/DTD/sodipodi-0.dtd"
   xmlns:inkscape="http://www.inkscape.org/namespaces/inkscape"
   width="152.94753"
   height="97.230629"
   viewBox="0 0 152.94753 97.230631"
   id="svg70819"
   version="1.1"
   inkscape:version="0.91 r13725"
   sodipodi:docname="passport.svg">
  <defs
     id="defs70821" />
  <sodipodi:namedview
     id="base"
     pagecolor="#ffffff"
     bordercolor="#666666"
     borderopacity="1.0"
     inkscape:pageopacity="0.0"
     inkscape:pageshadow="2"
     inkscape:zoom="0.35"
     inkscape:cx="-445.66905"
     inkscape:cy="-208.52752"
     inkscape:document-units="px"
     inkscape:current-layer="layer1"
     showgrid="false"
     inkscape:window-width="1920"
     inkscape:window-height="1017"
     inkscape:window-x="-8"
     inkscape:window-y="-8"
     inkscape:window-maximized="1"
     units="px"
     fit-margin-top="0"
     fit-margin-left="0"
     fit-margin-right="0"
     fit-margin-bottom="0" />
  <metadata
     id="metadata70824">
    <rdf:RDF>
      <cc:Work
         rdf:about="">
        <dc:format>image/svg+xml</dc:format>
        <dc:type
           rdf:resource="http://purl.org/dc/dcmitype/StillImage" />
        <dc:title></dc:title>
      </cc:Work>
    </rdf:RDF>
  </metadata>
  <g
     inkscape:label="Layer 1"
     inkscape:groupmode="layer"
     id="layer1"
     transform="translate(-286.38333,-226.60404)">
    <path
       inkscape:connector-curvature="0"
       id="path27249"
       style="fill:#30617d;fill-opacity:1;fill-rule:nonzero;stroke:none"
       d="m 375.57502,272.2525 c 0.42172,1.8903 -0.87104,3.74513 -2.88677,4.14075 l -73.34894,14.39974 c -2.01447,0.39562 -3.99236,-0.81708 -4.41476,-2.70799 l -5.89722,-26.4348 c -0.42172,-1.89091 0.87231,-3.74514 2.88678,-4.14016 l 73.34896,-14.39974 c 2.01635,-0.39562 3.99236,0.81588 4.41473,2.70739 l 5.89722,26.43481 z" />
    <path
       inkscape:connector-curvature="0"
       id="path27253"
       style="fill:#30617d;fill-opacity:1;fill-rule:nonzero;stroke:none"
       d="m 369.6778,245.81745 0,0 c -0.42237,-1.89151 -2.39838,-3.10301 -4.41473,-2.70739 l -73.34896,14.39974 c -2.01447,0.39562 -3.3085,2.24925 -2.88678,4.14015 l 0.39995,1.79351 80.65047,-15.8325" />
    <path
       d="m 301.85543,256.32409 -0.16407,-0.73352 0.2602,-0.0517 0.16407,0.73351 -0.2602,0.0517 z"
       style="fill:#30617d;fill-opacity:1;fill-rule:nonzero;stroke:none"
       id="path27269"
       inkscape:connector-curvature="0" />
    <path
       d="m 302.53123,259.35411 -0.33777,-1.51513 0.2602,-0.0511 0.33777,1.51453 -0.2602,0.0517 z m 0.67554,3.03026 -0.33777,-1.51513 0.2602,-0.0517 0.33842,1.51513 -0.26085,0.0517 z m 0.67684,3.02966 -0.33842,-1.51453 0.2602,-0.0517 0.33842,1.51513 -0.2602,0.0511 z m 0.67554,3.03025 -0.33777,-1.51512 0.2602,-0.0511 0.33842,1.51453 -0.26085,0.0517 z m 0.67618,3.03026 -0.33777,-1.51512 0.26021,-0.0517 0.33777,1.51513 -0.26021,0.0517 z m 0.67554,3.02966 -0.33777,-1.51453 0.26021,-0.0517 0.33777,1.51513 -0.26021,0.0511 z m 0.67681,3.03026 -0.33904,-1.51513 0.26086,-0.0511 0.33841,1.51452 -0.26023,0.0517 z m 0.67557,3.03026 -0.3378,-1.51513 0.26023,-0.0517 0.33777,1.51513 -0.2602,0.0517 z m 0.67616,3.02966 -0.33777,-1.51513 0.26023,-0.0511 0.33777,1.51513 -0.26023,0.0511 z m 0.67554,3.03026 -0.33777,-1.51513 0.26023,-0.0511 0.33777,1.51452 -0.26023,0.0517 z"
       style="fill:#30617d;fill-opacity:1;fill-rule:nonzero;stroke:none"
       id="path27273"
       inkscape:connector-curvature="0" />
    <path
       d="m 309.11679,288.87364 -0.16407,-0.73351 0.2602,-0.0517 0.16407,0.73352 -0.2602,0.0517 z"
       style="fill:#30617d;fill-opacity:1;fill-rule:nonzero;stroke:none"
       id="path27277"
       inkscape:connector-curvature="0" />
    <path
       inkscape:connector-curvature="0"
       id="path27281"
       style="fill:#30617d;fill-opacity:1;fill-rule:nonzero;stroke:none"
       d="m 309.14818,283.9318 -0.0455,-0.20442 4.25772,-0.83633 0.0455,0.20442 -4.25772,0.83633 z" />
    <path
       inkscape:connector-curvature="0"
       id="path27285"
       style="fill:#30617d;fill-opacity:1;fill-rule:nonzero;stroke:none"
       d="m 308.91925,282.90175 -0.0237,-0.10221 4.25837,-0.83573 0.023,0.10222 -4.25771,0.83572 z" />
    <path
       inkscape:connector-curvature="0"
       id="path27289"
       style="fill:#30617d;fill-opacity:1;fill-rule:nonzero;stroke:none"
       d="m 308.71146,281.97476 -0.0455,-0.20443 4.25772,-0.83573 0.0455,0.20443 -4.25772,0.83572 z" />
    <path
       inkscape:connector-curvature="0"
       id="path27293"
       style="fill:#30617d;fill-opacity:1;fill-rule:nonzero;stroke:none"
       d="m 308.49354,280.9966 -0.0455,-0.20443 4.25772,-0.83632 0.0455,0.20442 -4.25772,0.83633 z" />
    <path
       inkscape:connector-curvature="0"
       id="path27297"
       style="fill:#30617d;fill-opacity:1;fill-rule:nonzero;stroke:none"
       d="m 308.27562,280.01843 -0.0455,-0.20442 4.25771,-0.83573 0.0455,0.20443 -4.25772,0.83572 z" />
    <path
       inkscape:connector-curvature="0"
       id="path27301"
       style="fill:#30617d;fill-opacity:1;fill-rule:nonzero;stroke:none"
       d="m 308.07957,279.14213 -0.091,-0.40885 4.25771,-0.83572 0.091,0.40884 -4.25771,0.83573 z" />
    <path
       inkscape:connector-curvature="0"
       id="path27305"
       style="fill:#30617d;fill-opacity:1;fill-rule:nonzero;stroke:none"
       d="m 307.82788,278.01071 -0.0236,-0.10221 4.25837,-0.83633 0.023,0.10221 -4.25772,0.83633 z" />
    <path
       inkscape:connector-curvature="0"
       id="path27309"
       style="fill:#30617d;fill-opacity:1;fill-rule:nonzero;stroke:none"
       d="m 307.62014,277.08323 -0.0455,-0.20442 4.25902,-0.83573 0.0455,0.20443 -4.25901,0.83572 z" />
    <path
       inkscape:connector-curvature="0"
       id="path27313"
       style="fill:#30617d;fill-opacity:1;fill-rule:nonzero;stroke:none"
       d="m 307.42499,276.2074 -0.091,-0.40884 4.25772,-0.83633 0.091,0.40884 -4.25772,0.83633 z" />
    <path
       inkscape:connector-curvature="0"
       id="path27317"
       style="fill:#30617d;fill-opacity:1;fill-rule:nonzero;stroke:none"
       d="m 307.18426,275.12661 -0.0455,-0.20442 4.25771,-0.83573 0.0455,0.20442 -4.25771,0.83573 z" />
    <path
       inkscape:connector-curvature="0"
       id="path27321"
       style="fill:#30617d;fill-opacity:1;fill-rule:nonzero;stroke:none"
       d="m 306.95454,274.09735 -0.0237,-0.10222 4.25901,-0.83572 0.0236,0.10221 -4.25901,0.83573 z" />
    <path
       inkscape:connector-curvature="0"
       id="path27325"
       style="fill:#30617d;fill-opacity:1;fill-rule:nonzero;stroke:none"
       d="m 306.74751,273.17029 -0.0455,-0.20442 4.25772,-0.83633 0.0455,0.20442 -4.25771,0.83633 z" />
    <path
       inkscape:connector-curvature="0"
       id="path27329"
       style="fill:#30617d;fill-opacity:1;fill-rule:nonzero;stroke:none"
       d="m 306.52884,272.19177 -0.0455,-0.20443 4.25901,-0.83572 0.0455,0.20442 -4.25901,0.83573 z" />
    <path
       inkscape:connector-curvature="0"
       id="path27333"
       style="fill:#30617d;fill-opacity:1;fill-rule:nonzero;stroke:none"
       d="m 306.3336,271.31582 -0.091,-0.40885 4.25772,-0.83572 0.091,0.40884 -4.25771,0.83573 z" />
    <path
       inkscape:connector-curvature="0"
       id="path27337"
       style="fill:#30617d;fill-opacity:1;fill-rule:nonzero;stroke:none"
       d="m 306.09293,270.23551 -0.0455,-0.20443 4.25771,-0.83632 0.0455,0.20442 -4.25772,0.83633 z" />
    <path
       inkscape:connector-curvature="0"
       id="path27341"
       style="fill:#30617d;fill-opacity:1;fill-rule:nonzero;stroke:none"
       d="m 305.8742,269.25662 -0.0455,-0.20442 4.25902,-0.83573 0.0455,0.20443 -4.25901,0.83572 z" />
    <path
       inkscape:connector-curvature="0"
       id="path27345"
       style="fill:#30617d;fill-opacity:1;fill-rule:nonzero;stroke:none"
       d="m 305.64532,268.22778 -0.0237,-0.10221 4.25837,-0.83573 0.023,0.10222 -4.25772,0.83572 z" />
    <path
       inkscape:connector-curvature="0"
       id="path27349"
       style="fill:#30617d;fill-opacity:1;fill-rule:nonzero;stroke:none"
       d="m 305.43829,267.30067 -0.0455,-0.20443 4.25771,-0.83632 0.0455,0.20442 -4.25771,0.83633 z" />
    <path
       inkscape:connector-curvature="0"
       id="path27353"
       style="fill:#30617d;fill-opacity:1;fill-rule:nonzero;stroke:none"
       d="m 305.21955,266.3222 -0.0455,-0.20442 4.25772,-0.83573 0.0455,0.20443 -4.25772,0.83572 z" />
    <path
       inkscape:connector-curvature="0"
       id="path27357"
       style="fill:#30617d;fill-opacity:1;fill-rule:nonzero;stroke:none"
       d="m 305.02438,265.44589 -0.091,-0.40884 4.25771,-0.83633 0.091,0.40884 -4.25771,0.83633 z" />
    <path
       inkscape:connector-curvature="0"
       id="path27361"
       style="fill:#30617d;fill-opacity:1;fill-rule:nonzero;stroke:none"
       d="m 304.78293,264.36546 -0.0455,-0.20442 4.25901,-0.83573 0.0455,0.20443 -4.25901,0.83572 z" />
    <path
       inkscape:connector-curvature="0"
       id="path27365"
       style="fill:#30617d;fill-opacity:1;fill-rule:nonzero;stroke:none"
       d="m 293.25647,266.77704 -0.10961,-0.48881 7.12654,-1.39909 0.10961,0.48881 -7.12654,1.39909 z" />
    <path
       inkscape:connector-curvature="0"
       id="path27369"
       style="fill:#30617d;fill-opacity:1;fill-rule:nonzero;stroke:none"
       d="m 316.46213,264.26367 -0.10961,-0.48881 48.49425,-9.52007 0.1096,0.48881 -48.49424,9.52007 z" />
    <path
       inkscape:connector-curvature="0"
       id="path27373"
       style="fill:#30617d;fill-opacity:1;fill-rule:nonzero;stroke:none"
       d="m 317.55346,269.15513 -0.10961,-0.48881 48.49424,-9.52066 0.10961,0.48881 -48.49424,9.52066 z" />
    <path
       inkscape:connector-curvature="0"
       id="path27377"
       style="fill:#30617d;fill-opacity:1;fill-rule:nonzero;stroke:none"
       d="m 318.64482,274.0466 -0.10961,-0.48881 48.49425,-9.52066 0.10961,0.48881 -48.49425,9.52066 z" />
    <path
       inkscape:connector-curvature="0"
       id="path27381"
       style="fill:#30617d;fill-opacity:1;fill-rule:nonzero;stroke:none"
       d="m 319.73608,278.93806 -0.10961,-0.4888 48.49425,-9.52067 0.10961,0.48881 -48.49425,9.52066 z" />
    <path
       inkscape:connector-curvature="0"
       id="path27385"
       style="fill:#30617d;fill-opacity:1;fill-rule:nonzero;stroke:none"
       d="m 295.00251,274.60335 -0.10961,-0.48881 7.12654,-1.39909 0.10961,0.48881 -7.12654,1.39909 z" />
    <path
       inkscape:connector-curvature="0"
       id="path27389"
       style="fill:#30617d;fill-opacity:1;fill-rule:nonzero;stroke:none"
       d="m 296.74848,282.43002 -0.10961,-0.48941 7.12654,-1.39849 0.10961,0.48881 -7.12654,1.39909 z" />
    <path
       inkscape:connector-curvature="0"
       id="path27393"
       style="fill:#30617d;fill-opacity:1;fill-rule:nonzero;stroke:none"
       d="m 403.52378,299.60942 c -0.35958,1.90173 -2.29518,3.17095 -4.32372,2.83365 l -73.78607,-12.27375 c -2.02727,-0.3373 -3.38094,-2.15365 -3.02201,-4.05538 l 5.02747,-26.59293 c 0.35958,-1.90233 2.29648,-3.17095 4.3231,-2.83365 l 73.78669,12.27375 c 2.02792,0.3379 3.38094,2.15305 3.02137,4.05538 l -5.02683,26.59293 z" />
    <path
       inkscape:connector-curvature="0"
       id="path27397"
       style="fill:#30617d;fill-opacity:1;fill-rule:nonzero;stroke:none"
       d="m 408.55087,273.01625 0,0 c 0.35892,-1.90233 -0.99345,-3.71748 -3.02137,-4.05478 l -73.78734,-12.27435 c -2.02662,-0.3367 -3.96287,0.93132 -4.3231,2.83365 l -0.34097,1.80373 81.1318,13.49608" />
    <path
       d="m 341.70066,259.1052 -0.26215,-0.0433 0.13974,-0.73833 0.26212,0.0433 -0.13971,0.73833 z"
       style="fill:#30617d;fill-opacity:1;fill-rule:nonzero;stroke:none"
       id="path27413"
       inkscape:connector-curvature="0" />
    <path
       d="m 341.12523,262.15361 -0.2615,-0.0433 0.28713,-1.52415 0.26215,0.0433 -0.28778,1.52415 z m -0.5762,3.0483 -0.26215,-0.0433 0.28778,-1.52475 0.26215,0.0439 -0.28778,1.52415 z m -0.5762,3.04769 -0.26215,-0.0433 0.28778,-1.52414 0.26215,0.0433 -0.28778,1.52414 z m -0.5762,3.0483 -0.26212,-0.0433 0.28778,-1.52415 0.26212,0.0433 -0.28778,1.52415 z m -0.5762,3.0483 -0.26212,-0.0439 0.28778,-1.52415 0.26212,0.0433 -0.28778,1.52475 z m -0.57617,3.04769 -0.26215,-0.0433 0.28778,-1.52415 0.26215,0.0433 -0.28778,1.52415 z m -0.5762,3.0483 -0.26215,-0.0433 0.28778,-1.52415 0.26214,0.0433 -0.28777,1.52415 z m -0.5762,3.04769 -0.26215,-0.0433 0.28777,-1.52354 0.2615,0.0433 -0.28712,1.52354 z m -0.57685,3.0483 -0.2615,-0.0433 0.28777,-1.52415 0.2615,0.0439 -0.28777,1.52355 z m -0.57621,3.0483 -0.2615,-0.0433 0.28778,-1.52415 0.2615,0.0433 -0.28778,1.52415 z"
       style="fill:#30617d;fill-opacity:1;fill-rule:nonzero;stroke:none"
       id="path27417"
       inkscape:connector-curvature="0" />
    <path
       d="m 335.51106,291.84853 -0.26215,-0.0433 0.13974,-0.73832 0.26212,0.0433 -0.13971,0.73832 z"
       style="fill:#30617d;fill-opacity:1;fill-rule:nonzero;stroke:none"
       id="path27421"
       inkscape:connector-curvature="0" />
    <path
       inkscape:connector-curvature="0"
       id="path27425"
       style="fill:#30617d;fill-opacity:1;fill-rule:nonzero;stroke:none"
       d="m 341.52508,287.94298 -4.28399,-0.71247 0.0397,-0.20563 4.28338,0.71187 -0.0391,0.20623 z" />
    <path
       inkscape:connector-curvature="0"
       id="path27429"
       style="fill:#30617d;fill-opacity:1;fill-rule:nonzero;stroke:none"
       d="m 341.72104,286.90705 -4.28399,-0.71248 0.0191,-0.10341 4.28338,0.71307 -0.0185,0.10282 z" />
    <path
       inkscape:connector-curvature="0"
       id="path27433"
       style="fill:#30617d;fill-opacity:1;fill-rule:nonzero;stroke:none"
       d="m 341.89671,285.97452 -4.2827,-0.71247 0.0391,-0.20623 4.28273,0.71308 -0.0391,0.20562 z" />
    <path
       inkscape:connector-curvature="0"
       id="path27437"
       style="fill:#30617d;fill-opacity:1;fill-rule:nonzero;stroke:none"
       d="m 342.08327,284.99053 -4.28399,-0.71248 0.0397,-0.20622 4.28338,0.71247 -0.0391,0.20623 z" />
    <path
       inkscape:connector-curvature="0"
       id="path27441"
       style="fill:#30617d;fill-opacity:1;fill-rule:nonzero;stroke:none"
       d="m 342.26902,284.00641 -4.28399,-0.71247 0.0397,-0.20563 4.28338,0.71248 -0.0391,0.20562 z" />
    <path
       inkscape:connector-curvature="0"
       id="path27445"
       style="fill:#30617d;fill-opacity:1;fill-rule:nonzero;stroke:none"
       d="m 342.4353,283.12499 -4.284,-0.71248 0.0788,-0.41184 4.28335,0.71247 -0.0782,0.41185 z" />
    <path
       inkscape:connector-curvature="0"
       id="path27449"
       style="fill:#30617d;fill-opacity:1;fill-rule:nonzero;stroke:none"
       d="m 342.65089,281.98654 -4.2827,-0.71247 0.0185,-0.10341 4.28273,0.71307 -0.0185,0.10281 z" />
    <path
       inkscape:connector-curvature="0"
       id="path27453"
       style="fill:#30617d;fill-opacity:1;fill-rule:nonzero;stroke:none"
       d="m 342.82727,281.05396 -4.28399,-0.71248 0.0397,-0.20622 4.28338,0.71307 -0.0391,0.20563 z" />
    <path
       inkscape:connector-curvature="0"
       id="path27457"
       style="fill:#30617d;fill-opacity:1;fill-rule:nonzero;stroke:none"
       d="m 342.99355,280.17253 -4.28399,-0.71247 0.0788,-0.41185 4.28335,0.71247 -0.0782,0.41185 z" />
    <path
       inkscape:connector-curvature="0"
       id="path27461"
       style="fill:#30617d;fill-opacity:1;fill-rule:nonzero;stroke:none"
       d="m 343.1989,279.08549 -4.2827,-0.71247 0.0391,-0.20623 4.28273,0.71307 -0.0391,0.20563 z" />
    <path
       inkscape:connector-curvature="0"
       id="path27465"
       style="fill:#30617d;fill-opacity:1;fill-rule:nonzero;stroke:none"
       d="m 343.39566,278.04997 -4.28399,-0.71247 0.0191,-0.10342 4.28338,0.71308 -0.0185,0.10281 z" />
    <path
       inkscape:connector-curvature="0"
       id="path27469"
       style="fill:#30617d;fill-opacity:1;fill-rule:nonzero;stroke:none"
       d="m 343.57127,277.11751 -4.28399,-0.71248 0.0397,-0.20622 4.28338,0.71247 -0.0391,0.20623 z" />
    <path
       inkscape:connector-curvature="0"
       id="path27473"
       style="fill:#30617d;fill-opacity:1;fill-rule:nonzero;stroke:none"
       d="m 343.75709,276.13303 -4.284,-0.71247 0.0397,-0.20562 4.28337,0.71247 -0.0391,0.20562 z" />
    <path
       inkscape:connector-curvature="0"
       id="path27477"
       style="fill:#30617d;fill-opacity:1;fill-rule:nonzero;stroke:none"
       d="m 343.92333,275.25197 -4.2827,-0.71247 0.0782,-0.41185 4.28269,0.71247 -0.0782,0.41185 z" />
    <path
       inkscape:connector-curvature="0"
       id="path27481"
       style="fill:#30617d;fill-opacity:1;fill-rule:nonzero;stroke:none"
       d="m 344.12952,274.16498 -4.28399,-0.71247 0.0397,-0.20622 4.28338,0.71307 -0.0391,0.20562 z" />
    <path
       inkscape:connector-curvature="0"
       id="path27485"
       style="fill:#30617d;fill-opacity:1;fill-rule:nonzero;stroke:none"
       d="m 344.31534,273.18057 -4.28399,-0.71247 0.0391,-0.20623 4.284,0.71308 -0.0391,0.20562 z" />
    <path
       inkscape:connector-curvature="0"
       id="path27489"
       style="fill:#30617d;fill-opacity:1;fill-rule:nonzero;stroke:none"
       d="m 344.51133,272.14511 -4.284,-0.71247 0.0191,-0.10281 4.28338,0.71247 -0.0185,0.10281 z" />
    <path
       inkscape:connector-curvature="0"
       id="path27493"
       style="fill:#30617d;fill-opacity:1;fill-rule:nonzero;stroke:none"
       d="m 344.68771,271.21252 -4.28399,-0.71247 0.0391,-0.20622 4.28399,0.71307 -0.0391,0.20562 z" />
    <path
       inkscape:connector-curvature="0"
       id="path27497"
       style="fill:#30617d;fill-opacity:1;fill-rule:nonzero;stroke:none"
       d="m 344.87353,270.22853 -4.284,-0.71247 0.0397,-0.20623 4.28337,0.71308 -0.0391,0.20562 z" />
    <path
       inkscape:connector-curvature="0"
       id="path27501"
       style="fill:#30617d;fill-opacity:1;fill-rule:nonzero;stroke:none"
       d="m 345.03971,269.34711 -4.284,-0.71247 0.0788,-0.41185 4.28335,0.71247 -0.0782,0.41185 z" />
    <path
       inkscape:connector-curvature="0"
       id="path27505"
       style="fill:#30617d;fill-opacity:1;fill-rule:nonzero;stroke:none"
       d="m 345.24519,268.26007 -4.2827,-0.71248 0.0391,-0.20562 4.28273,0.71247 -0.0391,0.20563 z" />
    <path
       inkscape:connector-curvature="0"
       id="path27509"
       style="fill:#30617d;fill-opacity:1;fill-rule:nonzero;stroke:none"
       d="m 336.47609,266.94912 -7.16882,-1.19226 0.0923,-0.49242 7.16885,1.19286 -0.0923,0.49182 z" />
    <path
       inkscape:connector-curvature="0"
       id="path27513"
       style="fill:#30617d;fill-opacity:1;fill-rule:nonzero;stroke:none"
       d="m 400.62459,279.64963 -48.78393,-8.11436 0.0929,-0.49241 48.78332,8.11496 -0.0923,0.49181 z" />
    <path
       inkscape:connector-curvature="0"
       id="path27517"
       style="fill:#30617d;fill-opacity:1;fill-rule:nonzero;stroke:none"
       d="m 399.69478,284.5705 -48.78458,-8.11496 0.093,-0.49182 48.78394,8.11496 -0.0923,0.49182 z" />
    <path
       inkscape:connector-curvature="0"
       id="path27521"
       style="fill:#30617d;fill-opacity:1;fill-rule:nonzero;stroke:none"
       d="m 398.76415,289.49106 -48.78393,-8.11496 0.0929,-0.49182 48.78332,8.11497 -0.0923,0.49181 z" />
    <path
       inkscape:connector-curvature="0"
       id="path27525"
       style="fill:#30617d;fill-opacity:1;fill-rule:nonzero;stroke:none"
       d="m 397.83427,294.41157 -48.78458,-8.11497 0.093,-0.49181 48.78393,8.11496 -0.0923,0.49182 z" />
    <path
       inkscape:connector-curvature="0"
       id="path27529"
       style="fill:#30617d;fill-opacity:1;fill-rule:nonzero;stroke:none"
       d="m 334.98809,274.82214 -7.16882,-1.19226 0.0923,-0.49242 7.16886,1.19286 -0.0923,0.49182 z" />
    <path
       inkscape:connector-curvature="0"
       id="path27533"
       style="fill:#30617d;fill-opacity:1;fill-rule:nonzero;stroke:none"
       d="m 333.50006,282.69553 -7.16948,-1.19227 0.0923,-0.49241 7.16947,1.19286 -0.0923,0.49182 z" />
    <path
       inkscape:connector-curvature="0"
       id="path27537"
       style="fill:#30617d;fill-opacity:1;fill-rule:nonzero;stroke:none"
       d="m 431.8105,323.28651 c -0.0545,0.63852 -0.84412,0.56757 -1.52477,0.51647 l -64.04583,-4.82497 c -0.68066,-0.0517 -1.21007,-0.34571 -1.15496,-0.98423 l 5.67738,-85.62527 c 0.0545,-0.63852 0.36726,-3.07836 3.13866,-2.86973 l 64.04517,4.82497 c 0.68066,0.0517 1.43698,0.51646 1.38186,1.15378" />
    <path
       style="font-variant:normal;font-weight:normal;font-stretch:normal;font-size:medium;font-family:Railway;-inkscape-font-specification:Railway;writing-mode:lr-tb;fill:#30617d;fill-opacity:1;fill-rule:nonzero;stroke:none"
       id="path69220"
       d="m 381.31796,299.22998 q -0.0311,0.36303 -0.19458,0.66442 -0.15925,0.29801 -0.4211,0.5071 -0.32515,0.25968 -0.74787,0.37176 -0.42237,0.10843 -1.04779,0.0613 l -0.77401,-0.0583 -0.17424,2.03516 -0.77401,-0.0583 0.46749,-5.46011 1.57925,0.11899 q 0.52381,0.0395 0.88015,0.1512 0.35662,0.10806 0.62302,0.30528 0.31435,0.23405 0.46749,0.55929 0.15701,0.32553 0.1162,0.80223 z m -0.80682,-0.0423 q 0.0242,-0.28235 -0.0635,-0.49932 -0.0876,-0.21697 -0.29135,-0.36518 -0.1779,-0.12781 -0.41617,-0.19374 -0.23405,-0.0693 -0.60152,-0.097 l -0.76616,-0.0577 -0.18681,2.18184 0.6528,0.0492 q 0.46909,0.0353 0.76886,-0.0196 0.30011,-0.0586 0.49856,-0.21708 0.1988,-0.16218 0.28973,-0.35093 0.0948,-0.18846 0.11552,-0.43048 z"
       inkscape:connector-curvature="0" />
    <path
       style="font-variant:normal;font-weight:normal;font-stretch:normal;font-size:medium;font-family:Railway;-inkscape-font-specification:Railway;writing-mode:lr-tb;fill:#30617d;fill-opacity:1;fill-rule:nonzero;stroke:none"
       id="path69222"
       d="m 386.41752,303.44874 -0.82482,-0.0621 -0.44041,-1.56479 -2.51741,-0.18966 -0.70103,1.47878 -0.7857,-0.0592 2.58615,-5.30048 1.03199,0.0777 1.65123,5.61973 z m -1.45031,-2.26828 -0.79075,-2.75741 -1.25369,2.60338 2.04444,0.15403 z"
       inkscape:connector-curvature="0" />
    <path
       style="font-variant:normal;font-weight:normal;font-stretch:normal;font-size:medium;font-family:Railway;-inkscape-font-specification:Railway;writing-mode:lr-tb;fill:#30617d;fill-opacity:1;fill-rule:nonzero;stroke:none"
       id="path69224"
       d="m 391.63269,302.27316 q -0.0273,0.31902 -0.21429,0.61863 -0.18304,0.29992 -0.48693,0.49477 -0.3328,0.21112 -0.76238,0.31162 -0.42565,0.10079 -1.01202,0.0566 -0.62936,-0.0474 -1.12418,-0.19541 -0.49096,-0.14771 -0.99231,-0.40323 l 0.0779,-0.90941 0.0547,0.004 q 0.41221,0.37797 0.97473,0.60857 0.56252,0.23061 1.0707,0.26889 0.71925,0.0542 1.13965,-0.16879 0.42427,-0.22268 0.46038,-0.64438 0.0311,-0.36303 -0.1457,-0.54981 -0.17287,-0.18648 -0.55171,-0.31098 -0.28689,-0.0954 -0.6268,-0.16902 -0.336,-0.0733 -0.71282,-0.17549 -0.76079,-0.21233 -1.10434,-0.61096 -0.33934,-0.40201 -0.28817,-0.99973 0.0587,-0.68572 0.71369,-1.07555 0.65529,-0.39351 1.60519,-0.32194 0.61371,0.0462 1.11641,0.19483 0.50266,0.14859 0.88365,0.33968 l -0.0735,0.85807 -0.0547,-0.004 q -0.30968,-0.28906 -0.83828,-0.50234 -0.52438,-0.21666 -1.09118,-0.25936 -0.62152,-0.0468 -1.02144,0.16662 -0.39598,0.21375 -0.42863,0.59511 -0.0292,0.34103 0.14179,0.54951 0.17099,0.20849 0.6352,0.3468 0.24579,0.0702 0.70077,0.17828 0.45499,0.10809 0.76894,0.20925 0.63508,0.21023 0.93548,0.56133 0.30044,0.3511 0.25021,0.93782 z"
       inkscape:connector-curvature="0" />
    <path
       style="font-variant:normal;font-weight:normal;font-stretch:normal;font-size:medium;font-family:Railway;-inkscape-font-specification:Railway;writing-mode:lr-tb;fill:#30617d;fill-opacity:1;fill-rule:nonzero;stroke:none"
       id="path69226"
       d="m 397.02714,302.67958 q -0.0273,0.31903 -0.21426,0.61865 -0.18304,0.29991 -0.48693,0.49476 -0.33283,0.21112 -0.76238,0.31162 -0.42568,0.10079 -1.01202,0.0566 -0.62935,-0.0474 -1.12421,-0.19541 -0.49092,-0.14771 -0.99232,-0.40323 l 0.0779,-0.90941 0.0547,0.004 q 0.4122,0.37798 0.97473,0.60858 0.56252,0.23061 1.0707,0.26889 0.71928,0.0542 1.13965,-0.16879 0.4243,-0.22268 0.46041,-0.64438 0.0311,-0.36303 -0.1457,-0.54981 -0.17287,-0.18648 -0.55171,-0.31098 -0.28692,-0.0954 -0.62683,-0.16902 -0.336,-0.0733 -0.71279,-0.17549 -0.76082,-0.21233 -1.10437,-0.61096 -0.33934,-0.40201 -0.28817,-0.99973 0.0587,-0.68572 0.71372,-1.07555 0.65529,-0.3935 1.60519,-0.32194 0.61371,0.0462 1.11637,0.19483 0.50266,0.14859 0.88365,0.33968 l -0.0735,0.85807 -0.0547,-0.004 q -0.30964,-0.28905 -0.83824,-0.50234 -0.52439,-0.21666 -1.09119,-0.25936 -0.62155,-0.0468 -1.02143,0.16662 -0.39599,0.21375 -0.42864,0.59511 -0.0292,0.34103 0.14179,0.54952 0.171,0.20848 0.6352,0.34679 0.24576,0.0702 0.70074,0.17828 0.45502,0.10809 0.76894,0.20925 0.63511,0.21023 0.93552,0.56133 0.3004,0.3511 0.25017,0.93781 z"
       inkscape:connector-curvature="0" />
    <path
       style="font-variant:normal;font-weight:normal;font-stretch:normal;font-size:medium;font-family:Railway;-inkscape-font-specification:Railway;writing-mode:lr-tb;fill:#30617d;fill-opacity:1;fill-rule:nonzero;stroke:none"
       id="path69228"
       d="m 402.27037,300.80858 q -0.0311,0.36303 -0.19458,0.66441 -0.15926,0.29802 -0.42111,0.50711 -0.32514,0.25968 -0.74786,0.37176 -0.42238,0.10843 -1.04783,0.0613 l -0.77397,-0.0583 -0.17424,2.03516 -0.77401,-0.0583 0.46748,-5.46011 1.57926,0.11899 q 0.52381,0.0395 0.88012,0.15119 0.35665,0.10807 0.62301,0.30528 0.31439,0.23406 0.46753,0.5593 0.15701,0.32553 0.1162,0.80223 z m -0.80682,-0.0423 q 0.0242,-0.28235 -0.0635,-0.49932 -0.0876,-0.21697 -0.29135,-0.36518 -0.1779,-0.12781 -0.41617,-0.19374 -0.23406,-0.0693 -0.60152,-0.097 l -0.76616,-0.0577 -0.18681,2.18184 0.6528,0.0492 q 0.46909,0.0353 0.76886,-0.0196 0.30007,-0.0586 0.49856,-0.21708 0.1988,-0.16218 0.2897,-0.35093 0.0948,-0.18846 0.11555,-0.43048 z"
       inkscape:connector-curvature="0" />
    <path
       style="font-variant:normal;font-weight:normal;font-stretch:normal;font-size:medium;font-family:Railway;-inkscape-font-specification:Railway;writing-mode:lr-tb;fill:#30617d;fill-opacity:1;fill-rule:nonzero;stroke:none"
       id="path69230"
       d="m 407.72117,300.18957 q 0.32433,0.3935 0.46643,0.93935 0.14601,0.54614 0.0883,1.22086 -0.0578,0.67472 -0.29904,1.19537 -0.2371,0.51728 -0.61544,0.84676 -0.39133,0.34327 -0.89988,0.49318 -0.50465,0.15019 -1.134,0.10278 -0.61372,-0.0462 -1.10167,-0.27491 -0.48401,-0.22838 -0.80476,-0.61792 -0.32074,-0.38953 -0.46706,-0.93201 -0.14242,-0.54218 -0.0843,-1.22056 0.0571,-0.66739 0.28998,-1.1813 0.23316,-0.51757 0.62512,-0.86817 0.37479,-0.33344 0.89926,-0.48584 0.52844,-0.1521 1.13041,-0.10674 0.62545,0.0471 1.10525,0.27887 0.48405,0.22838 0.80149,0.61028 z m -0.25057,2.09954 q 0.091,-1.06342 -0.36784,-1.67742 -0.45857,-0.61767 -1.33811,-0.68393 -0.88735,-0.0669 -1.44513,0.47424 -0.55357,0.53772 -0.64461,1.60114 -0.092,1.07441 0.37504,1.68534 0.46732,0.60725 1.33512,0.67263 0.86781,0.0654 1.42855,-0.46441 0.56499,-0.53317 0.65698,-1.60759 z"
       inkscape:connector-curvature="0" />
    <path
       style="font-variant:normal;font-weight:normal;font-stretch:normal;font-size:medium;font-family:Railway;-inkscape-font-specification:Railway;writing-mode:lr-tb;fill:#30617d;fill-opacity:1;fill-rule:nonzero;stroke:none"
       id="path69232"
       d="m 414.08564,305.53332 -1.00462,-0.0757 -1.76085,-2.31751 -1.09061,-0.0822 -0.18587,2.17084 -0.774,-0.0583 0.46748,-5.4601 1.63007,0.12281 q 0.52772,0.0398 0.87389,0.13228 0.34648,0.0888 0.61379,0.27506 0.30063,0.21087 0.45204,0.51014 0.15565,0.29591 0.11829,0.73228 -0.0505,0.59038 -0.40141,0.96622 -0.35052,0.37218 -0.92288,0.53204 l 1.98468,2.55212 z m -1.47397,-4.06001 q 0.0201,-0.23469 -0.0544,-0.42114 -0.0703,-0.18983 -0.26289,-0.32982 -0.15899,-0.11901 -0.38615,-0.17672 -0.22688,-0.0614 -0.53959,-0.0849 l -0.91082,-0.0686 -0.17644,2.06083 0.7818,0.0589 q 0.36747,0.0277 0.64612,-0.0104 0.27896,-0.0417 0.48463,-0.1923 0.18908,-0.14076 0.28813,-0.33259 0.10326,-0.19521 0.12963,-0.50323 z"
       inkscape:connector-curvature="0" />
    <path
       style="font-variant:normal;font-weight:normal;font-stretch:normal;font-size:medium;font-family:Railway;-inkscape-font-specification:Railway;writing-mode:lr-tb;fill:#30617d;fill-opacity:1;fill-rule:nonzero;stroke:none"
       id="path69234"
       d="m 419.16522,301.07025 -2.07959,-0.15668 -0.41222,4.81472 -0.77397,-0.0583 0.41222,-4.81471 -2.07962,-0.15669 0.0553,-0.64538 4.93319,0.37167 -0.0553,0.64539 z"
       inkscape:connector-curvature="0" />
    <path
       style="font-variant:normal;font-weight:normal;font-stretch:normal;font-size:medium;font-family:'Great Vibes';-inkscape-font-specification:GreatVibes-Regular;writing-mode:lr-tb;fill:#30617d;fill-opacity:1;fill-rule:nonzero;stroke:none"
       id="path69203"
       d="m 384.19479,308.43922 -1.75968,-0.13258 -0.34882,4.07401 -0.6549,-0.0494 0.34883,-4.07401 -1.75968,-0.13258 0.0468,-0.5461 4.17426,0.31451 -0.0468,0.5461 z"
       inkscape:connector-curvature="0" />
    <path
       style="font-variant:normal;font-weight:normal;font-stretch:normal;font-size:medium;font-family:'Great Vibes';-inkscape-font-specification:GreatVibes-Regular;writing-mode:lr-tb;fill:#30617d;fill-opacity:1;fill-rule:nonzero;stroke:none"
       id="path69205"
       d="m 387.55386,312.7926 -0.62185,-0.0469 0.16897,-1.9734 q 0.0204,-0.23891 0.009,-0.44904 -0.0116,-0.21323 -0.081,-0.33712 -0.0715,-0.13655 -0.22168,-0.21032 -0.14988,-0.0769 -0.39796,-0.0956 -0.25469,-0.0192 -0.54262,0.0778 -0.28796,0.097 -0.55832,0.26085 l -0.22157,2.58775 -0.62185,-0.0469 0.41338,-4.828 0.62185,0.0469 -0.14957,1.74689 q 0.31046,-0.20458 0.6323,-0.30837 0.3218,-0.10379 0.64925,-0.0791 0.59871,0.0451 0.88396,0.40699 0.28528,0.36188 0.23082,0.99796 l -0.19261,2.24955 z"
       inkscape:connector-curvature="0" />
    <path
       style="font-variant:normal;font-weight:normal;font-stretch:normal;font-size:medium;font-family:'Great Vibes';-inkscape-font-specification:GreatVibes-Regular;writing-mode:lr-tb;fill:#30617d;fill-opacity:1;fill-rule:nonzero;stroke:none"
       id="path69207"
       d="m 391.98709,311.44341 -2.72222,-0.2051 q -0.0274,0.31959 0.0547,0.56623 0.0823,0.24354 0.24795,0.40904 0.15924,0.16189 0.38772,0.25406 0.23177,0.0924 0.51624,0.11384 0.37706,0.0284 0.76938,-0.0826 0.39592,-0.11382 0.56967,-0.23813 l 0.033,0.002 -0.0545,0.63608 q -0.32484,0.10044 -0.65946,0.15955 -0.33465,0.0591 -0.69518,0.0319 -0.91952,-0.0693 -1.39568,-0.57358 -0.47587,-0.5074 -0.40228,-1.36688 0.0728,-0.85018 0.60841,-1.3126 0.53891,-0.46217 1.34599,-0.40136 0.74753,0.0563 1.116,0.4963 0.37177,0.44022 0.30722,1.19421 l -0.0271,0.31649 z m -0.56706,-0.49241 q 0.036,-0.45947 -0.18725,-0.72924 -0.21993,-0.26952 -0.71607,-0.30691 -0.49947,-0.0376 -0.82079,0.2161 -0.31805,0.25397 -0.39279,0.66055 l 2.1169,0.1595 z"
       inkscape:connector-curvature="0" />
    <path
       style="font-variant:normal;font-weight:normal;font-stretch:normal;font-size:medium;font-family:'Great Vibes';-inkscape-font-specification:GreatVibes-Regular;writing-mode:lr-tb;fill:#30617d;fill-opacity:1;fill-rule:nonzero;stroke:none"
       id="path69209"
       d="m 398.96391,309.00238 -1.67562,4.52367 -0.73762,-0.0556 -0.70693,-3.9131 -1.34049,3.75884 -0.72108,-0.0543 -0.90765,-4.7183 0.67147,0.0506 0.7064,3.9193 1.34765,-3.76454 0.66483,0.0501 0.69661,3.95604 1.36074,-3.80102 0.64169,0.0483 z"
       inkscape:connector-curvature="0" />
    <path
       style="font-variant:normal;font-weight:normal;font-stretch:normal;font-size:medium;font-family:'Great Vibes';-inkscape-font-specification:GreatVibes-Regular;writing-mode:lr-tb;fill:#30617d;fill-opacity:1;fill-rule:nonzero;stroke:none"
       id="path69211"
       d="m 402.44761,312.17223 q -0.0725,0.84707 -0.57756,1.30243 -0.50504,0.45535 -1.28234,0.39679 -0.78391,-0.0591 -1.20503,-0.5842 -0.41778,-0.52489 -0.34526,-1.37196 0.0725,-0.84707 0.57427,-1.30268 0.50533,-0.45846 1.28924,-0.39939 0.7773,0.0586 1.19812,0.5868 0.42109,0.52514 0.34856,1.37221 z m -0.64169,-0.0484 q 0.0576,-0.67331 -0.19558,-1.02029 -0.25301,-0.35009 -0.75245,-0.38772 -0.50608,-0.0381 -0.8154,0.26959 -0.30573,0.30486 -0.36338,0.97818 -0.0558,0.65159 0.19642,1.01098 0.25244,0.35629 0.75521,0.39417 0.49614,0.0374 0.80574,-0.27344 0.31312,-0.31367 0.36944,-0.97147 z"
       inkscape:connector-curvature="0" />
    <path
       style="font-variant:normal;font-weight:normal;font-stretch:normal;font-size:medium;font-family:'Great Vibes';-inkscape-font-specification:GreatVibes-Regular;writing-mode:lr-tb;fill:#30617d;fill-opacity:1;fill-rule:nonzero;stroke:none"
       id="path69213"
       d="m 405.81293,311.3203 -0.033,-0.002 q -0.13626,-0.0415 -0.26751,-0.0639 -0.12765,-0.0252 -0.30628,-0.0387 -0.28776,-0.0217 -0.56605,0.0791 -0.27799,0.0977 -0.54228,0.26831 l -0.21068,2.46054 -0.62185,-0.0469 0.29675,-3.46585 0.62185,0.0469 -0.0438,0.51196 q 0.39437,-0.25134 0.68533,-0.34496 0.29456,-0.0965 0.58897,-0.0743 0.16205,0.0122 0.23401,0.027 0.0723,0.0117 0.21592,0.0444 l -0.0513,0.59885 z"
       inkscape:connector-curvature="0" />
    <path
       style="font-variant:normal;font-weight:normal;font-stretch:normal;font-size:medium;font-family:'Great Vibes';-inkscape-font-specification:GreatVibes-Regular;writing-mode:lr-tb;fill:#30617d;fill-opacity:1;fill-rule:nonzero;stroke:none"
       id="path69215"
       d="m 406.79117,314.24204 -0.62182,-0.0468 0.41338,-4.828 0.62182,0.0469 -0.41338,4.828 z"
       inkscape:connector-curvature="0" />
    <path
       style="font-variant:normal;font-weight:normal;font-stretch:normal;font-size:medium;font-family:'Great Vibes';-inkscape-font-specification:GreatVibes-Regular;writing-mode:lr-tb;fill:#30617d;fill-opacity:1;fill-rule:nonzero;stroke:none"
       id="path69217"
       d="m 410.9985,314.55904 -0.62181,-0.0469 0.0311,-0.36303 q -0.28652,0.19701 -0.58795,0.29609 -0.30143,0.0991 -0.64215,0.0734 -0.66153,-0.0498 -1.01092,-0.55709 -0.34606,-0.50699 -0.27353,-1.35406 0.0377,-0.4406 0.19949,-0.77505 0.16511,-0.33419 0.41407,-0.55902 0.24511,-0.21886 0.55344,-0.32055 0.3116,-0.10143 0.63244,-0.0773 0.2911,0.0219 0.51097,0.0978 0.22013,0.0728 0.45785,0.2125 l 0.12858,-1.50176 0.62182,0.0469 -0.41338,4.82799 z m -0.54876,-0.90013 0.1703,-1.9889 q -0.24236,-0.12444 -0.43737,-0.17973 -0.19502,-0.0553 -0.42983,-0.073 -0.52262,-0.0394 -0.84291,0.28 -0.32033,0.31938 -0.37399,0.94615 -0.0529,0.61746 0.14445,0.9571 0.19754,0.33654 0.69368,0.37392 0.26463,0.0199 0.54516,-0.0682 0.28079,-0.0913 0.53051,-0.24734 z"
       inkscape:connector-curvature="0" />
    <path
       style="font-variant:normal;font-weight:normal;font-stretch:normal;font-size:medium;font-family:'Great Vibes';-inkscape-font-specification:GreatVibes-Regular;writing-mode:lr-tb;fill:#30617d;fill-opacity:1;fill-rule:nonzero;stroke:none"
       id="path69190"
       d="m 393.74263,243.18944 -3.19938,-0.24105 -0.6342,7.40728 -1.19075,-0.0897 0.6342,-7.40727 -3.19942,-0.24105 0.085,-0.99291 7.58955,0.57182 -0.085,0.9929 z"
       inkscape:connector-curvature="0" />
    <path
       style="font-variant:normal;font-weight:normal;font-stretch:normal;font-size:medium;font-family:'Great Vibes';-inkscape-font-specification:GreatVibes-Regular;writing-mode:lr-tb;fill:#30617d;fill-opacity:1;fill-rule:nonzero;stroke:none"
       id="path69192"
       d="m 397.66244,245.7616 -0.0601,-0.005 q -0.24776,-0.0754 -0.48638,-0.11613 -0.23213,-0.0459 -0.55688,-0.0704 -0.52321,-0.0394 -1.02919,0.1439 -0.50545,0.17768 -0.98598,0.48782 l -0.38303,4.4737 -1.13059,-0.0852 0.53953,-6.30154 1.13059,0.0852 -0.0797,0.93084 q 0.71704,-0.45698 1.24609,-0.6272 0.53554,-0.17541 1.07079,-0.13509 0.29467,0.0222 0.42554,0.0491 0.13134,0.0213 0.39255,0.0807 l -0.0932,1.08881 z"
       inkscape:connector-curvature="0" />
    <path
       style="font-variant:normal;font-weight:normal;font-stretch:normal;font-size:medium;font-family:'Great Vibes';-inkscape-font-specification:GreatVibes-Regular;writing-mode:lr-tb;fill:#30617d;fill-opacity:1;fill-rule:nonzero;stroke:none"
       id="path69194"
       d="m 403.30202,251.36473 -1.12463,-0.0847 0.0575,-0.67134 q -0.15856,0.0846 -0.43213,0.23998 -0.26707,0.15022 -0.51632,0.23364 -0.29374,0.10846 -0.66785,0.16544 -0.37459,0.0626 -0.86773,0.0255 -0.90808,-0.0684 -1.49123,-0.68014 -0.58319,-0.61173 -0.50832,-1.48616 0.0613,-0.71647 0.4238,-1.13204 0.36891,-0.42075 0.99805,-0.62886 0.63515,-0.20765 1.50288,-0.23312 0.8677,-0.0255 1.85784,0.004 l 0.014,-0.1636 q 0.0309,-0.36106 -0.0871,-0.60842 -0.11203,-0.24692 -0.35299,-0.40134 -0.22947,-0.14788 -0.56236,-0.21838 -0.33292,-0.0705 -0.69978,-0.0982 -0.44502,-0.0335 -1.00194,0.0381 -0.55647,0.0659 -1.15768,0.23074 l -0.0601,-0.005 0.0922,-1.07753 q 0.33803,-0.0597 0.97218,-0.11412 0.63414,-0.0544 1.24152,-0.009 0.70965,0.0535 1.2232,0.20571 0.52005,0.14706 0.88224,0.44121 0.35665,0.28806 0.51986,0.71484 0.16321,0.42678 0.11104,1.03606 l -0.36612,4.27625 z m -0.9918,-1.63614 0.15022,-1.7545 q -0.5196,-0.0108 -1.22807,-0.007 -0.70244,0.004 -1.12056,0.0802 -0.49821,0.093 -0.82259,0.34683 -0.32389,0.24814 -0.36494,0.72766 -0.0464,0.54159 0.27878,0.8443 0.3256,0.29707 1.04125,0.35099 0.59538,0.0449 1.10687,-0.13237 0.51201,-0.18286 0.95904,-0.45578 z"
       inkscape:connector-curvature="0" />
    <path
       style="font-variant:normal;font-weight:normal;font-stretch:normal;font-size:medium;font-family:'Great Vibes';-inkscape-font-specification:GreatVibes-Regular;writing-mode:lr-tb;fill:#30617d;fill-opacity:1;fill-rule:nonzero;stroke:none"
       id="path69196"
       d="m 411.7438,245.65857 -3.25781,6.09673 -1.13663,-0.0856 -2.16071,-6.50499 1.22683,0.0924 1.65142,5.17206 2.49216,-4.85987 1.18474,0.0893 z"
       inkscape:connector-curvature="0" />
    <path
       style="font-variant:normal;font-weight:normal;font-stretch:normal;font-size:medium;font-family:'Great Vibes';-inkscape-font-specification:GreatVibes-Regular;writing-mode:lr-tb;fill:#30617d;fill-opacity:1;fill-rule:nonzero;stroke:none"
       id="path69198"
       d="m 418.47083,249.44721 -4.94946,-0.37291 q -0.0498,0.58108 0.0995,1.02952 0.14972,0.4428 0.4508,0.7437 0.28956,0.29435 0.70495,0.46192 0.42139,0.16802 0.9386,0.20699 0.68558,0.0516 1.39892,-0.15011 0.71983,-0.20695 1.03575,-0.43297 l 0.0602,0.005 -0.099,1.1565 q -0.59066,0.18262 -1.19907,0.29008 -0.60842,0.10746 -1.26391,0.0581 -1.67189,-0.12597 -2.53759,-1.04287 -0.86523,-0.92255 -0.73143,-2.48525 0.13234,-1.54576 1.10615,-2.38653 0.97985,-0.84032 2.44726,-0.72976 1.35914,0.1024 2.02907,0.90236 0.67597,0.80041 0.5586,2.17129 l -0.0493,0.57543 z m -1.031,-0.89529 q 0.0655,-0.83539 -0.34044,-1.32589 -0.3999,-0.49003 -1.30198,-0.558 -0.90808,-0.0684 -1.49233,0.3929 -0.57824,0.46176 -0.71416,1.201 l 3.84891,0.28999 z"
       inkscape:connector-curvature="0" />
    <path
       style="font-variant:normal;font-weight:normal;font-stretch:normal;font-size:medium;font-family:'Great Vibes';-inkscape-font-specification:GreatVibes-Regular;writing-mode:lr-tb;fill:#30617d;fill-opacity:1;fill-rule:nonzero;stroke:none"
       id="path69200"
       d="m 421.06708,252.7032 -1.13063,-0.0852 0.75158,-8.77815 1.13062,0.0852 -0.75157,8.77816 z"
       inkscape:connector-curvature="0" />
    <path
       inkscape:connector-curvature="0"
       id="path27249-1"
       style="fill:#ffffff;fill-opacity:1;fill-rule:nonzero;stroke:none"
       d="m 373.01072,269.37036 c 0.42172,1.89031 -0.87104,3.74514 -2.88677,4.14076 l -73.34894,14.39974 c -2.01447,0.39562 -3.99236,-0.81709 -4.41476,-2.70799 l -5.89722,-26.43481 c -0.42172,-1.8909 0.87231,-3.74513 2.88678,-4.14015 l 73.34896,-14.39974 c 2.01635,-0.39562 3.99237,0.81588 4.41473,2.70739 l 5.89722,26.4348 z" />
    <path
       inkscape:connector-curvature="0"
       id="path27253-8"
       style="fill:#43a8c0;fill-opacity:1;fill-rule:nonzero;stroke:none"
       d="m 367.1135,242.93532 0,0 c -0.42236,-1.89151 -2.39838,-3.10301 -4.41473,-2.70739 l -73.34896,14.39974 c -2.01447,0.39562 -3.3085,2.24924 -2.88678,4.14015 l 0.39995,1.79351 80.65047,-15.83251" />
    <path
       d="m 299.29113,253.44196 -0.16407,-0.73352 0.2602,-0.0517 0.16408,0.73351 -0.26021,0.0517 z"
       style="fill:#111110;fill-opacity:1;fill-rule:nonzero;stroke:none"
       id="path27269-2"
       inkscape:connector-curvature="0" />
    <path
       d="m 299.96693,256.47198 -0.33777,-1.51513 0.26021,-0.0511 0.33777,1.51453 -0.26021,0.0517 z m 0.67554,3.03025 -0.33777,-1.51512 0.26021,-0.0517 0.33841,1.51513 -0.26085,0.0517 z m 0.67684,3.02966 -0.33842,-1.51452 0.2602,-0.0517 0.33842,1.51513 -0.2602,0.0511 z m 0.67554,3.03026 -0.33777,-1.51512 0.2602,-0.0511 0.33842,1.51453 -0.26085,0.0517 z m 0.67619,3.03026 -0.33777,-1.51513 0.2602,-0.0517 0.33777,1.51513 -0.2602,0.0517 z m 0.67554,3.02966 -0.33777,-1.51453 0.2602,-0.0517 0.33777,1.51513 -0.2602,0.0511 z m 0.6768,3.03026 -0.33903,-1.51513 0.26085,-0.0511 0.33842,1.51453 -0.26024,0.0517 z m 0.67557,3.03026 -0.3378,-1.51513 0.26024,-0.0517 0.33777,1.51513 -0.26021,0.0517 z m 0.67616,3.02966 -0.33777,-1.51513 0.26023,-0.0511 0.33777,1.51513 -0.26023,0.0511 z m 0.67554,3.03026 -0.33777,-1.51513 0.26023,-0.0511 0.33777,1.51453 -0.26023,0.0517 z"
       style="fill:#111110;fill-opacity:1;fill-rule:nonzero;stroke:none"
       id="path27273-7"
       inkscape:connector-curvature="0" />
    <path
       d="m 306.55249,285.99151 -0.16407,-0.73351 0.2602,-0.0517 0.16408,0.73352 -0.26021,0.0517 z"
       style="fill:#111110;fill-opacity:1;fill-rule:nonzero;stroke:none"
       id="path27277-5"
       inkscape:connector-curvature="0" />
    <path
       inkscape:connector-curvature="0"
       id="path27281-4"
       style="fill:#111110;fill-opacity:1;fill-rule:nonzero;stroke:none"
       d="m 306.58389,281.04967 -0.0455,-0.20442 4.25772,-0.83633 0.0455,0.20442 -4.25771,0.83633 z" />
    <path
       inkscape:connector-curvature="0"
       id="path27285-3"
       style="fill:#111110;fill-opacity:1;fill-rule:nonzero;stroke:none"
       d="m 306.35495,280.01962 -0.0236,-0.10221 4.25836,-0.83573 0.023,0.10221 -4.25771,0.83573 z" />
    <path
       inkscape:connector-curvature="0"
       id="path27289-1"
       style="fill:#111110;fill-opacity:1;fill-rule:nonzero;stroke:none"
       d="m 306.14717,279.09262 -0.0455,-0.20442 4.25772,-0.83573 0.0455,0.20443 -4.25771,0.83572 z" />
    <path
       inkscape:connector-curvature="0"
       id="path27293-3"
       style="fill:#111110;fill-opacity:1;fill-rule:nonzero;stroke:none"
       d="m 305.92924,278.11446 -0.0455,-0.20442 4.25772,-0.83633 0.0455,0.20443 -4.25772,0.83632 z" />
    <path
       inkscape:connector-curvature="0"
       id="path27297-7"
       style="fill:#111110;fill-opacity:1;fill-rule:nonzero;stroke:none"
       d="m 305.71132,277.1363 -0.0455,-0.20442 4.25772,-0.83573 0.0455,0.20443 -4.25772,0.83572 z" />
    <path
       inkscape:connector-curvature="0"
       id="path27301-8"
       style="fill:#111110;fill-opacity:1;fill-rule:nonzero;stroke:none"
       d="m 305.51527,276.25999 -0.091,-0.40884 4.25771,-0.83573 0.091,0.40885 -4.25772,0.83572 z" />
    <path
       inkscape:connector-curvature="0"
       id="path27305-1"
       style="fill:#111110;fill-opacity:1;fill-rule:nonzero;stroke:none"
       d="m 305.26359,275.12858 -0.0237,-0.10222 4.25837,-0.83632 0.023,0.10221 -4.25771,0.83633 z" />
    <path
       inkscape:connector-curvature="0"
       id="path27309-2"
       style="fill:#111110;fill-opacity:1;fill-rule:nonzero;stroke:none"
       d="m 305.05584,274.2011 -0.0455,-0.20442 4.25901,-0.83573 0.0455,0.20443 -4.25901,0.83572 z" />
    <path
       inkscape:connector-curvature="0"
       id="path27313-4"
       style="fill:#111110;fill-opacity:1;fill-rule:nonzero;stroke:none"
       d="m 304.86069,273.32527 -0.091,-0.40885 4.25772,-0.83632 0.091,0.40884 -4.25772,0.83633 z" />
    <path
       inkscape:connector-curvature="0"
       id="path27317-7"
       style="fill:#111110;fill-opacity:1;fill-rule:nonzero;stroke:none"
       d="m 304.61996,272.24448 -0.0455,-0.20442 4.25771,-0.83573 0.0455,0.20442 -4.25772,0.83573 z" />
    <path
       inkscape:connector-curvature="0"
       id="path27321-2"
       style="fill:#111110;fill-opacity:1;fill-rule:nonzero;stroke:none"
       d="m 304.39024,271.21521 -0.0237,-0.10221 4.25901,-0.83572 0.0237,0.10221 -4.25902,0.83572 z" />
    <path
       inkscape:connector-curvature="0"
       id="path27325-8"
       style="fill:#111110;fill-opacity:1;fill-rule:nonzero;stroke:none"
       d="m 304.18321,270.28816 -0.0455,-0.20443 4.25771,-0.83632 0.0455,0.20442 -4.25771,0.83633 z" />
    <path
       inkscape:connector-curvature="0"
       id="path27329-8"
       style="fill:#111110;fill-opacity:1;fill-rule:nonzero;stroke:none"
       d="m 303.96454,269.30963 -0.0455,-0.20442 4.25901,-0.83573 0.0455,0.20443 -4.25901,0.83572 z" />
    <path
       inkscape:connector-curvature="0"
       id="path27333-9"
       style="fill:#111110;fill-opacity:1;fill-rule:nonzero;stroke:none"
       d="m 303.7693,268.43369 -0.091,-0.40885 4.25771,-0.83572 0.091,0.40884 -4.25771,0.83573 z" />
    <path
       inkscape:connector-curvature="0"
       id="path27337-9"
       style="fill:#111110;fill-opacity:1;fill-rule:nonzero;stroke:none"
       d="m 303.52863,267.35337 -0.0455,-0.20442 4.25772,-0.83633 0.0455,0.20443 -4.25772,0.83632 z" />
    <path
       inkscape:connector-curvature="0"
       id="path27341-8"
       style="fill:#111110;fill-opacity:1;fill-rule:nonzero;stroke:none"
       d="m 303.3099,266.37449 -0.0455,-0.20442 4.25901,-0.83573 0.0455,0.20442 -4.25901,0.83573 z" />
    <path
       inkscape:connector-curvature="0"
       id="path27345-3"
       style="fill:#111110;fill-opacity:1;fill-rule:nonzero;stroke:none"
       d="m 303.08103,265.34565 -0.0237,-0.10221 4.25837,-0.83573 0.023,0.10221 -4.25771,0.83573 z" />
    <path
       inkscape:connector-curvature="0"
       id="path27349-1"
       style="fill:#111110;fill-opacity:1;fill-rule:nonzero;stroke:none"
       d="m 302.87399,264.41853 -0.0455,-0.20442 4.25771,-0.83633 0.0455,0.20442 -4.25772,0.83633 z" />
    <path
       inkscape:connector-curvature="0"
       id="path27353-8"
       style="fill:#111110;fill-opacity:1;fill-rule:nonzero;stroke:none"
       d="m 302.65526,263.44007 -0.0455,-0.20442 4.25772,-0.83573 0.0455,0.20443 -4.25771,0.83572 z" />
    <path
       inkscape:connector-curvature="0"
       id="path27357-7"
       style="fill:#111110;fill-opacity:1;fill-rule:nonzero;stroke:none"
       d="m 302.46008,262.56376 -0.091,-0.40885 4.25771,-0.83632 0.091,0.40884 -4.25772,0.83633 z" />
    <path
       inkscape:connector-curvature="0"
       id="path27361-4"
       style="fill:#111110;fill-opacity:1;fill-rule:nonzero;stroke:none"
       d="m 302.21863,261.48333 -0.0455,-0.20442 4.25901,-0.83573 0.0455,0.20442 -4.25902,0.83573 z" />
    <path
       inkscape:connector-curvature="0"
       id="path27365-7"
       style="fill:#70706e;fill-opacity:1;fill-rule:nonzero;stroke:none"
       d="m 290.69217,263.89491 -0.10961,-0.48881 7.12655,-1.39909 0.1096,0.48881 -7.12654,1.39909 z" />
    <path
       inkscape:connector-curvature="0"
       id="path27369-3"
       style="fill:#70706e;fill-opacity:1;fill-rule:nonzero;stroke:none"
       d="m 313.89783,261.38154 -0.10961,-0.48881 48.49425,-9.52007 0.10961,0.48881 -48.49425,9.52007 z" />
    <path
       inkscape:connector-curvature="0"
       id="path27373-8"
       style="fill:#70706e;fill-opacity:1;fill-rule:nonzero;stroke:none"
       d="m 314.98916,266.273 -0.10961,-0.48881 48.49425,-9.52067 0.10961,0.48881 -48.49425,9.52067 z" />
    <path
       inkscape:connector-curvature="0"
       id="path27377-8"
       style="fill:#70706e;fill-opacity:1;fill-rule:nonzero;stroke:none"
       d="m 316.08052,271.16447 -0.10961,-0.48881 48.49425,-9.52067 0.10961,0.48881 -48.49425,9.52067 z" />
    <path
       inkscape:connector-curvature="0"
       id="path27381-1"
       style="fill:#70706e;fill-opacity:1;fill-rule:nonzero;stroke:none"
       d="m 317.17179,276.05593 -0.10961,-0.48881 48.49424,-9.52066 0.10961,0.48881 -48.49424,9.52066 z" />
    <path
       inkscape:connector-curvature="0"
       id="path27385-5"
       style="fill:#70706e;fill-opacity:1;fill-rule:nonzero;stroke:none"
       d="m 292.43821,271.72121 -0.10961,-0.4888 7.12654,-1.39909 0.10961,0.4888 -7.12654,1.39909 z" />
    <path
       inkscape:connector-curvature="0"
       id="path27389-3"
       style="fill:#70706e;fill-opacity:1;fill-rule:nonzero;stroke:none"
       d="m 294.18418,279.54788 -0.10961,-0.48941 7.12654,-1.39848 0.10961,0.4888 -7.12654,1.39909 z" />
    <path
       inkscape:connector-curvature="0"
       id="path27393-3"
       style="fill:#ffffff;fill-opacity:1;fill-rule:nonzero;stroke:none"
       d="m 400.95948,296.72729 c -0.35957,1.90173 -2.29518,3.17095 -4.32371,2.83365 l -73.78608,-12.27375 c -2.02727,-0.3373 -3.38094,-2.15365 -3.02201,-4.05538 l 5.02747,-26.59293 c 0.35958,-1.90233 2.29648,-3.17095 4.3231,-2.83365 l 73.78669,12.27375 c 2.02792,0.3379 3.38094,2.15305 3.02137,4.05538 l -5.02683,26.59293 z" />
    <path
       inkscape:connector-curvature="0"
       id="path27397-6"
       style="fill:#43a8c0;fill-opacity:1;fill-rule:nonzero;stroke:none"
       d="m 405.98657,270.13412 0,0 c 0.35893,-1.90233 -0.99345,-3.71748 -3.02137,-4.05478 l -73.78734,-12.27435 c -2.02662,-0.3367 -3.96287,0.93132 -4.3231,2.83365 l -0.34097,1.80373 81.1318,13.49607" />
    <path
       d="m 339.13636,256.22306 -0.26215,-0.0433 0.13974,-0.73832 0.26212,0.0433 -0.13971,0.73832 z"
       style="fill:#111110;fill-opacity:1;fill-rule:nonzero;stroke:none"
       id="path27413-5"
       inkscape:connector-curvature="0" />
    <path
       d="m 338.56094,259.27148 -0.2615,-0.0433 0.28713,-1.52415 0.26214,0.0433 -0.28777,1.52415 z m -0.5762,3.04829 -0.26215,-0.0433 0.28777,-1.52474 0.26215,0.0439 -0.28777,1.52414 z m -0.57621,3.0477 -0.26214,-0.0433 0.28777,-1.52415 0.26215,0.0433 -0.28778,1.52415 z m -0.5762,3.0483 -0.26211,-0.0433 0.28777,-1.52415 0.26212,0.0433 -0.28778,1.52415 z m -0.5762,3.0483 -0.26212,-0.0439 0.28778,-1.52414 0.26212,0.0433 -0.28778,1.52476 z m -0.57617,3.04769 -0.26215,-0.0433 0.28778,-1.52415 0.26215,0.0433 -0.28778,1.52415 z m -0.5762,3.0483 -0.26215,-0.0433 0.28778,-1.52415 0.26215,0.0433 -0.28778,1.52415 z m -0.5762,3.04769 -0.26215,-0.0433 0.28778,-1.52354 0.2615,0.0433 -0.28713,1.52354 z m -0.57685,3.0483 -0.2615,-0.0433 0.28777,-1.52415 0.26151,0.0439 -0.28778,1.52355 z m -0.5762,3.04829 -0.2615,-0.0433 0.28777,-1.52415 0.2615,0.0433 -0.28777,1.52414 z"
       style="fill:#111110;fill-opacity:1;fill-rule:nonzero;stroke:none"
       id="path27417-0"
       inkscape:connector-curvature="0" />
    <path
       d="m 332.94676,288.9664 -0.26215,-0.0433 0.13974,-0.73832 0.26212,0.0433 -0.13971,0.73833 z"
       style="fill:#111110;fill-opacity:1;fill-rule:nonzero;stroke:none"
       id="path27421-1"
       inkscape:connector-curvature="0" />
    <path
       inkscape:connector-curvature="0"
       id="path27425-4"
       style="fill:#111110;fill-opacity:1;fill-rule:nonzero;stroke:none"
       d="m 338.96079,285.06085 -4.284,-0.71247 0.0397,-0.20563 4.28338,0.71187 -0.0391,0.20623 z" />
    <path
       inkscape:connector-curvature="0"
       id="path27429-4"
       style="fill:#111110;fill-opacity:1;fill-rule:nonzero;stroke:none"
       d="m 339.15674,284.02491 -4.28399,-0.71247 0.0191,-0.10341 4.28338,0.71307 -0.0185,0.10281 z" />
    <path
       inkscape:connector-curvature="0"
       id="path27433-6"
       style="fill:#111110;fill-opacity:1;fill-rule:nonzero;stroke:none"
       d="m 339.33241,283.09239 -4.28269,-0.71248 0.0391,-0.20622 4.28273,0.71307 -0.0391,0.20563 z" />
    <path
       inkscape:connector-curvature="0"
       id="path27437-1"
       style="fill:#111110;fill-opacity:1;fill-rule:nonzero;stroke:none"
       d="m 339.51897,282.1084 -4.28399,-0.71248 0.0397,-0.20622 4.28338,0.71247 -0.0391,0.20623 z" />
    <path
       inkscape:connector-curvature="0"
       id="path27441-2"
       style="fill:#111110;fill-opacity:1;fill-rule:nonzero;stroke:none"
       d="m 339.70472,281.12428 -4.28399,-0.71248 0.0397,-0.20562 4.28338,0.71247 -0.0391,0.20563 z" />
    <path
       inkscape:connector-curvature="0"
       id="path27445-1"
       style="fill:#111110;fill-opacity:1;fill-rule:nonzero;stroke:none"
       d="m 339.871,280.24286 -4.28399,-0.71248 0.0788,-0.41185 4.28335,0.71248 -0.0782,0.41185 z" />
    <path
       inkscape:connector-curvature="0"
       id="path27449-1"
       style="fill:#111110;fill-opacity:1;fill-rule:nonzero;stroke:none"
       d="m 340.08659,279.10441 -4.2827,-0.71248 0.0185,-0.10341 4.28273,0.71307 -0.0185,0.10282 z" />
    <path
       inkscape:connector-curvature="0"
       id="path27453-5"
       style="fill:#111110;fill-opacity:1;fill-rule:nonzero;stroke:none"
       d="m 340.26297,278.17182 -4.28399,-0.71247 0.0397,-0.20622 4.28338,0.71307 -0.0391,0.20562 z" />
    <path
       inkscape:connector-curvature="0"
       id="path27457-0"
       style="fill:#111110;fill-opacity:1;fill-rule:nonzero;stroke:none"
       d="m 340.42925,277.2904 -4.28399,-0.71247 0.0788,-0.41185 4.28334,0.71247 -0.0782,0.41185 z" />
    <path
       inkscape:connector-curvature="0"
       id="path27461-1"
       style="fill:#111110;fill-opacity:1;fill-rule:nonzero;stroke:none"
       d="m 340.6346,276.20336 -4.2827,-0.71248 0.0391,-0.20622 4.28273,0.71307 -0.0391,0.20563 z" />
    <path
       inkscape:connector-curvature="0"
       id="path27465-4"
       style="fill:#111110;fill-opacity:1;fill-rule:nonzero;stroke:none"
       d="m 340.83137,275.16784 -4.284,-0.71248 0.0191,-0.10341 4.28338,0.71307 -0.0185,0.10282 z" />
    <path
       inkscape:connector-curvature="0"
       id="path27469-5"
       style="fill:#111110;fill-opacity:1;fill-rule:nonzero;stroke:none"
       d="m 341.00697,274.23537 -4.28399,-0.71247 0.0397,-0.20623 4.28338,0.71248 -0.0391,0.20622 z" />
    <path
       inkscape:connector-curvature="0"
       id="path27473-6"
       style="fill:#111110;fill-opacity:1;fill-rule:nonzero;stroke:none"
       d="m 341.19279,273.2509 -4.28399,-0.71247 0.0397,-0.20563 4.28338,0.71248 -0.0391,0.20562 z" />
    <path
       inkscape:connector-curvature="0"
       id="path27477-6"
       style="fill:#111110;fill-opacity:1;fill-rule:nonzero;stroke:none"
       d="m 341.35903,272.36984 -4.28269,-0.71247 0.0782,-0.41185 4.28269,0.71247 -0.0782,0.41185 z" />
    <path
       inkscape:connector-curvature="0"
       id="path27481-9"
       style="fill:#111110;fill-opacity:1;fill-rule:nonzero;stroke:none"
       d="m 341.56523,271.28285 -4.284,-0.71247 0.0397,-0.20623 4.28337,0.71308 -0.0391,0.20562 z" />
    <path
       inkscape:connector-curvature="0"
       id="path27485-9"
       style="fill:#111110;fill-opacity:1;fill-rule:nonzero;stroke:none"
       d="m 341.75104,270.29844 -4.28399,-0.71248 0.0391,-0.20622 4.284,0.71307 -0.0391,0.20563 z" />
    <path
       inkscape:connector-curvature="0"
       id="path27489-8"
       style="fill:#111110;fill-opacity:1;fill-rule:nonzero;stroke:none"
       d="m 341.94703,269.26298 -4.28399,-0.71247 0.0191,-0.10281 4.28338,0.71247 -0.0185,0.10281 z" />
    <path
       inkscape:connector-curvature="0"
       id="path27493-6"
       style="fill:#111110;fill-opacity:1;fill-rule:nonzero;stroke:none"
       d="m 342.12341,268.33039 -4.28399,-0.71247 0.0391,-0.20623 4.28399,0.71308 -0.0391,0.20562 z" />
    <path
       inkscape:connector-curvature="0"
       id="path27497-6"
       style="fill:#111110;fill-opacity:1;fill-rule:nonzero;stroke:none"
       d="m 342.30923,267.3464 -4.28399,-0.71247 0.0397,-0.20623 4.28337,0.71308 -0.0391,0.20562 z" />
    <path
       inkscape:connector-curvature="0"
       id="path27501-4"
       style="fill:#111110;fill-opacity:1;fill-rule:nonzero;stroke:none"
       d="m 342.47541,266.46498 -4.284,-0.71247 0.0788,-0.41185 4.28335,0.71247 -0.0782,0.41185 z" />
    <path
       inkscape:connector-curvature="0"
       id="path27505-5"
       style="fill:#111110;fill-opacity:1;fill-rule:nonzero;stroke:none"
       d="m 342.68089,265.37793 -4.2827,-0.71247 0.0391,-0.20562 4.28273,0.71247 -0.0391,0.20562 z" />
    <path
       inkscape:connector-curvature="0"
       id="path27509-9"
       style="fill:#70706e;fill-opacity:1;fill-rule:nonzero;stroke:none"
       d="m 333.9118,264.06699 -7.16883,-1.19227 0.0923,-0.49241 7.16885,1.19286 -0.0923,0.49182 z" />
    <path
       inkscape:connector-curvature="0"
       id="path27513-3"
       style="fill:#70706e;fill-opacity:1;fill-rule:nonzero;stroke:none"
       d="m 398.0603,276.7675 -48.78394,-8.11436 0.0929,-0.49242 48.78331,8.11497 -0.0923,0.49181 z" />
    <path
       inkscape:connector-curvature="0"
       id="path27517-9"
       style="fill:#70706e;fill-opacity:1;fill-rule:nonzero;stroke:none"
       d="m 397.13048,281.68837 -48.78458,-8.11496 0.093,-0.49182 48.78394,8.11496 -0.0923,0.49182 z" />
    <path
       inkscape:connector-curvature="0"
       id="path27521-0"
       style="fill:#70706e;fill-opacity:1;fill-rule:nonzero;stroke:none"
       d="m 396.19986,286.60893 -48.78394,-8.11496 0.0929,-0.49182 48.78332,8.11496 -0.0923,0.49182 z" />
    <path
       inkscape:connector-curvature="0"
       id="path27525-4"
       style="fill:#70706e;fill-opacity:1;fill-rule:nonzero;stroke:none"
       d="m 395.26998,291.52943 -48.78459,-8.11496 0.093,-0.49181 48.78393,8.11496 -0.0923,0.49181 z" />
    <path
       inkscape:connector-curvature="0"
       id="path27529-1"
       style="fill:#70706e;fill-opacity:1;fill-rule:nonzero;stroke:none"
       d="m 332.42379,271.94001 -7.16882,-1.19226 0.0923,-0.49242 7.16886,1.19286 -0.0923,0.49182 z" />
    <path
       inkscape:connector-curvature="0"
       id="path27533-8"
       style="fill:#70706e;fill-opacity:1;fill-rule:nonzero;stroke:none"
       d="m 330.93576,279.81339 -7.16947,-1.19226 0.0923,-0.49242 7.16948,1.19287 -0.0923,0.49181 z" />
    <path
       inkscape:connector-curvature="0"
       id="path27537-3"
       style="fill:#00384f;fill-opacity:1;fill-rule:nonzero;stroke:none"
       d="m 429.2462,320.40438 c -0.0545,0.63852 -0.84411,0.56757 -1.52477,0.51646 l -64.04583,-4.82496 c -0.68066,-0.0517 -1.21007,-0.34572 -1.15496,-0.98424 l 5.67739,-85.62526 c 0.0545,-0.63852 0.36725,-3.07836 3.13865,-2.86973 l 64.04518,4.82497 c 0.68066,0.0517 1.43697,0.51646 1.38186,1.15378" />
    <path
       inkscape:connector-curvature="0"
       id="path27541-6"
       style="fill:#1a506c;fill-opacity:1;fill-rule:nonzero;stroke:none"
       d="m 426.1439,321.96003 c -0.0545,0.63792 -0.65056,1.1141 -1.33057,1.063 l -63.42154,-4.77867 c -0.68069,-0.0511 -1.18765,-0.60966 -1.13319,-1.24818 l 7.54185,-88.09036 c 0.0551,-0.63792 0.65056,-1.1141 1.33122,-1.0624 l 63.42092,4.77807 c 0.68066,0.0511 1.18766,0.61026 1.13316,1.24818 l -7.54185,88.09036 z" />
    <path
       style="font-variant:normal;font-weight:normal;font-stretch:normal;font-size:medium;font-family:Railway;-inkscape-font-specification:Railway;writing-mode:lr-tb;fill:#ffffff;fill-opacity:1;fill-rule:nonzero;stroke:none"
       id="path69267"
       d="m 378.75367,296.34784 q -0.0311,0.36303 -0.19459,0.66441 -0.15928,0.29802 -0.4211,0.50711 -0.32518,0.25967 -0.74787,0.37176 -0.42237,0.10842 -1.04782,0.0613 l -0.77397,-0.0583 -0.17425,2.03516 -0.774,-0.0583 0.46748,-5.4601 1.57925,0.11899 q 0.52382,0.0395 0.88012,0.15119 0.35666,0.10807 0.62302,0.30528 0.31439,0.23405 0.46749,0.55929 0.15705,0.32554 0.11624,0.80224 z m -0.80682,-0.0423 q 0.0242,-0.28235 -0.0635,-0.49932 -0.0877,-0.21698 -0.29135,-0.36518 -0.1779,-0.12781 -0.41616,-0.19374 -0.23409,-0.0693 -0.60152,-0.097 l -0.76617,-0.0577 -0.1868,2.18185 0.65279,0.0492 q 0.4691,0.0353 0.76886,-0.0196 0.30008,-0.0586 0.49856,-0.21709 0.1988,-0.16217 0.2897,-0.35092 0.0948,-0.18846 0.11556,-0.43048 z"
       inkscape:connector-curvature="0" />
    <path
       style="font-variant:normal;font-weight:normal;font-stretch:normal;font-size:medium;font-family:Railway;-inkscape-font-specification:Railway;writing-mode:lr-tb;fill:#ffffff;fill-opacity:1;fill-rule:nonzero;stroke:none"
       id="path69269"
       d="m 383.85322,300.5666 -0.82482,-0.0621 -0.44044,-1.56479 -2.51741,-0.18967 -0.70099,1.47879 -0.78574,-0.0592 2.58619,-5.30047 1.03199,0.0777 1.65122,5.61973 z m -1.45034,-2.26828 -0.79075,-2.75742 -1.25366,2.60339 2.04441,0.15403 z"
       inkscape:connector-curvature="0" />
    <path
       style="font-variant:normal;font-weight:normal;font-stretch:normal;font-size:medium;font-family:Railway;-inkscape-font-specification:Railway;writing-mode:lr-tb;fill:#ffffff;fill-opacity:1;fill-rule:nonzero;stroke:none"
       id="path69271"
       d="m 389.06839,299.39101 q -0.0273,0.31903 -0.21429,0.61864 -0.18304,0.29991 -0.48693,0.49476 -0.3328,0.21113 -0.76238,0.31162 -0.42565,0.1008 -1.01202,0.0566 -0.62935,-0.0474 -1.12418,-0.19542 -0.49095,-0.1477 -0.99231,-0.40323 l 0.0779,-0.9094 0.0547,0.004 q 0.41221,0.37798 0.97473,0.60858 0.56253,0.2306 1.0707,0.26889 0.71926,0.0542 1.13962,-0.16879 0.42431,-0.22269 0.46041,-0.64439 0.0311,-0.36303 -0.14569,-0.5498 -0.17288,-0.18649 -0.55172,-0.31098 -0.28689,-0.0954 -0.62679,-0.16902 -0.33601,-0.0733 -0.71283,-0.1755 -0.76078,-0.21232 -1.10437,-0.61096 -0.33931,-0.402 -0.28813,-0.99972 0.0587,-0.68572 0.71369,-1.07556 0.65529,-0.3935 1.60518,-0.32193 0.61372,0.0462 1.11638,0.19483 0.50269,0.14859 0.88368,0.33968 l -0.0735,0.85807 -0.0547,-0.004 q -0.30968,-0.28906 -0.83828,-0.50234 -0.52439,-0.21666 -1.09118,-0.25937 -0.62155,-0.0468 -1.02144,0.16663 -0.39599,0.21374 -0.42864,0.59511 -0.0292,0.34102 0.1418,0.54951 0.17099,0.20849 0.6352,0.3468 0.24579,0.0702 0.70077,0.17828 0.45498,0.10809 0.76893,0.20924 0.63508,0.21024 0.93549,0.56134 0.30044,0.3511 0.2502,0.93781 z"
       inkscape:connector-curvature="0" />
    <path
       style="font-variant:normal;font-weight:normal;font-stretch:normal;font-size:medium;font-family:Railway;-inkscape-font-specification:Railway;writing-mode:lr-tb;fill:#ffffff;fill-opacity:1;fill-rule:nonzero;stroke:none"
       id="path69273"
       d="m 394.46284,299.79744 q -0.0273,0.31903 -0.21425,0.61864 -0.18308,0.29991 -0.48693,0.49476 -0.33284,0.21113 -0.76239,0.31163 -0.42568,0.10079 -1.01202,0.0566 -0.62935,-0.0474 -1.12421,-0.19542 -0.49092,-0.1477 -0.99231,-0.40323 l 0.0779,-0.9094 0.0547,0.004 q 0.41221,0.37798 0.97473,0.60858 0.56253,0.2306 1.0707,0.26889 0.71925,0.0542 1.13966,-0.16879 0.4243,-0.22268 0.4604,-0.64438 0.0311,-0.36303 -0.14572,-0.54981 -0.17288,-0.18649 -0.55169,-0.31098 -0.28692,-0.0954 -0.62682,-0.16902 -0.33601,-0.0733 -0.71283,-0.1755 -0.76078,-0.21232 -1.10434,-0.61096 -0.33934,-0.402 -0.28816,-0.99972 0.0587,-0.68572 0.71368,-1.07556 0.65533,-0.3935 1.60523,-0.32193 0.61371,0.0462 1.11637,0.19483 0.50266,0.14859 0.88365,0.33968 l -0.0735,0.85807 -0.0547,-0.004 q -0.30967,-0.28906 -0.83827,-0.50234 -0.52435,-0.21666 -1.09119,-0.25937 -0.62151,-0.0468 -1.02143,0.16663 -0.39599,0.21374 -0.42864,0.59511 -0.0292,0.34102 0.14179,0.54951 0.171,0.20849 0.6352,0.3468 0.2458,0.0702 0.70078,0.17828 0.45498,0.10809 0.76893,0.20924 0.63508,0.21024 0.93552,0.56134 0.30041,0.3511 0.25017,0.93781 z"
       inkscape:connector-curvature="0" />
    <path
       style="font-variant:normal;font-weight:normal;font-stretch:normal;font-size:medium;font-family:Railway;-inkscape-font-specification:Railway;writing-mode:lr-tb;fill:#ffffff;fill-opacity:1;fill-rule:nonzero;stroke:none"
       id="path69275"
       d="m 399.70607,297.92644 q -0.0311,0.36303 -0.19458,0.66441 -0.15928,0.29801 -0.4211,0.5071 -0.32518,0.25968 -0.74787,0.37177 -0.42237,0.10842 -1.04782,0.0613 l -0.77397,-0.0583 -0.17425,2.03516 -0.774,-0.0583 0.46748,-5.4601 1.57925,0.11898 q 0.52382,0.0395 0.88012,0.1512 0.35666,0.10806 0.62302,0.30528 0.31438,0.23405 0.46749,0.55929 0.15705,0.32553 0.11623,0.80224 z m -0.80681,-0.0423 q 0.0242,-0.28236 -0.0635,-0.49932 -0.0877,-0.21698 -0.29135,-0.36518 -0.1779,-0.12782 -0.4162,-0.19375 -0.23405,-0.0693 -0.60148,-0.097 l -0.76617,-0.0577 -0.1868,2.18184 0.65279,0.0492 q 0.4691,0.0353 0.76886,-0.0196 0.30008,-0.0586 0.49856,-0.21709 0.1988,-0.16217 0.2897,-0.35093 0.0948,-0.18845 0.11556,-0.43047 z"
       inkscape:connector-curvature="0" />
    <path
       style="font-variant:normal;font-weight:normal;font-stretch:normal;font-size:medium;font-family:Railway;-inkscape-font-specification:Railway;writing-mode:lr-tb;fill:#ffffff;fill-opacity:1;fill-rule:nonzero;stroke:none"
       id="path69277"
       d="m 405.15687,297.30743 q 0.32433,0.3935 0.46644,0.93935 0.14601,0.54614 0.0882,1.22086 -0.0578,0.67472 -0.29904,1.19537 -0.23709,0.51727 -0.61543,0.84676 -0.39134,0.34327 -0.89989,0.49317 -0.50465,0.1502 -1.134,0.10278 -0.61371,-0.0462 -1.10166,-0.27491 -0.48402,-0.22838 -0.80476,-0.61791 -0.32074,-0.38954 -0.46707,-0.93201 -0.14242,-0.54218 -0.0843,-1.22057 0.0571,-0.66738 0.28999,-1.18129 0.23315,-0.51757 0.62512,-0.86817 0.37475,-0.33345 0.89925,-0.48585 0.52841,-0.15209 1.13042,-0.10674 0.62545,0.0471 1.10525,0.27888 0.48401,0.22837 0.80148,0.61028 z m -0.25057,2.09954 q 0.091,-1.06342 -0.36784,-1.67742 -0.45857,-0.61767 -1.33811,-0.68393 -0.88734,-0.0669 -1.44512,0.47424 -0.55357,0.53771 -0.64462,1.60113 -0.092,1.07442 0.37505,1.68535 0.46732,0.60725 1.33512,0.67263 0.8678,0.0654 1.42854,-0.46441 0.56499,-0.53317 0.65698,-1.60759 z"
       inkscape:connector-curvature="0" />
    <path
       style="font-variant:normal;font-weight:normal;font-stretch:normal;font-size:medium;font-family:Railway;-inkscape-font-specification:Railway;writing-mode:lr-tb;fill:#ffffff;fill-opacity:1;fill-rule:nonzero;stroke:none"
       id="path69279"
       d="m 411.52134,302.65117 -1.00465,-0.0757 -1.76082,-2.31751 -1.09061,-0.0822 -0.18586,2.17085 -0.77401,-0.0583 0.46749,-5.4601 1.63006,0.12281 q 0.52772,0.0398 0.87389,0.13227 0.34649,0.0889 0.61379,0.27506 0.30063,0.21088 0.45204,0.51015 0.15566,0.29591 0.11829,0.73228 -0.0505,0.59037 -0.40141,0.96622 -0.35055,0.37217 -0.92288,0.53204 l 1.98468,2.55211 z m -1.47396,-4.06 q 0.0201,-0.23469 -0.0544,-0.42114 -0.0703,-0.18983 -0.2629,-0.32982 -0.15899,-0.11901 -0.38618,-0.17672 -0.22685,-0.0614 -0.53959,-0.0849 l -0.91078,-0.0686 -0.17645,2.06083 0.78181,0.0589 q 0.36743,0.0277 0.64608,-0.0104 0.279,-0.0417 0.48466,-0.19231 0.18908,-0.14075 0.28813,-0.33258 0.10326,-0.19521 0.12964,-0.50323 z"
       inkscape:connector-curvature="0" />
    <path
       style="font-variant:normal;font-weight:normal;font-stretch:normal;font-size:medium;font-family:Railway;-inkscape-font-specification:Railway;writing-mode:lr-tb;fill:#ffffff;fill-opacity:1;fill-rule:nonzero;stroke:none"
       id="path69281"
       d="m 416.60093,298.18811 -2.07959,-0.15669 -0.41223,4.81472 -0.774,-0.0583 0.41222,-4.81472 -2.07959,-0.15668 0.0553,-0.64539 4.93318,0.37168 -0.0553,0.64539 z"
       inkscape:connector-curvature="0" />
    <path
       style="font-variant:normal;font-weight:normal;font-stretch:normal;font-size:medium;font-family:'Great Vibes';-inkscape-font-specification:GreatVibes-Regular;writing-mode:lr-tb;fill:#ffffff;fill-opacity:1;fill-rule:nonzero;stroke:none"
       id="path69250"
       d="m 381.6304,305.55707 -1.75964,-0.13258 -0.34882,4.07401 -0.65493,-0.0493 0.34882,-4.07401 -1.75968,-0.13259 0.0468,-0.54609 4.17425,0.31451 -0.0468,0.54609 z"
       inkscape:connector-curvature="0" />
    <path
       style="font-variant:normal;font-weight:normal;font-stretch:normal;font-size:medium;font-family:'Great Vibes';-inkscape-font-specification:GreatVibes-Regular;writing-mode:lr-tb;fill:#ffffff;fill-opacity:1;fill-rule:nonzero;stroke:none"
       id="path69252"
       d="m 384.98947,309.91046 -0.62185,-0.0469 0.16897,-1.97339 q 0.0205,-0.23892 0.009,-0.44905 -0.0116,-0.21323 -0.081,-0.33712 -0.0715,-0.13655 -0.22168,-0.21032 -0.14988,-0.0769 -0.39796,-0.0956 -0.25469,-0.0192 -0.54262,0.0778 -0.28796,0.097 -0.55832,0.26085 l -0.22157,2.58776 -0.62181,-0.0469 0.41338,-4.82799 0.62181,0.0469 -0.14957,1.74689 q 0.3105,-0.20457 0.6323,-0.30837 0.3218,-0.10379 0.64928,-0.0791 0.59868,0.0451 0.88393,0.40699 0.28528,0.36188 0.23082,0.99796 l -0.19261,2.24955 z"
       inkscape:connector-curvature="0" />
    <path
       style="font-variant:normal;font-weight:normal;font-stretch:normal;font-size:medium;font-family:'Great Vibes';-inkscape-font-specification:GreatVibes-Regular;writing-mode:lr-tb;fill:#ffffff;fill-opacity:1;fill-rule:nonzero;stroke:none"
       id="path69254"
       d="m 389.4227,308.56127 -2.72222,-0.20511 q -0.0274,0.31959 0.0547,0.56623 0.0824,0.24355 0.24795,0.40904 0.15925,0.1619 0.38772,0.25406 0.23177,0.0924 0.51624,0.11384 0.37706,0.0284 0.76942,-0.0825 0.39588,-0.11383 0.56966,-0.23814 l 0.033,0.002 -0.0545,0.63608 q -0.32487,0.10044 -0.65949,0.15954 -0.33462,0.0591 -0.69518,0.0319 -0.91952,-0.0693 -1.39565,-0.57358 -0.47589,-0.50741 -0.4023,-1.36689 0.0728,-0.85018 0.6084,-1.3126 0.53895,-0.46217 1.34599,-0.40136 0.74753,0.0563 1.116,0.4963 0.37178,0.44023 0.30722,1.19421 l -0.0271,0.31649 z m -0.56706,-0.49242 q 0.036,-0.45947 -0.18721,-0.72923 -0.21997,-0.26953 -0.71611,-0.30691 -0.49944,-0.0376 -0.82079,0.21609 -0.31801,0.25397 -0.39279,0.66055 l 2.1169,0.1595 z"
       inkscape:connector-curvature="0" />
    <path
       style="font-variant:normal;font-weight:normal;font-stretch:normal;font-size:medium;font-family:'Great Vibes';-inkscape-font-specification:GreatVibes-Regular;writing-mode:lr-tb;fill:#ffffff;fill-opacity:1;fill-rule:nonzero;stroke:none"
       id="path69256"
       d="m 396.39956,306.12024 -1.67566,4.52366 -0.73759,-0.0556 -0.70693,-3.91309 -1.34052,3.75883 -0.72108,-0.0543 -0.90764,-4.7183 0.67147,0.0506 0.70639,3.9193 1.34765,-3.76453 0.66484,0.0501 0.6966,3.95604 1.36078,-3.80103 0.64169,0.0484 z"
       inkscape:connector-curvature="0" />
    <path
       style="font-variant:normal;font-weight:normal;font-stretch:normal;font-size:medium;font-family:'Great Vibes';-inkscape-font-specification:GreatVibes-Regular;writing-mode:lr-tb;fill:#ffffff;fill-opacity:1;fill-rule:nonzero;stroke:none"
       id="path69258"
       d="m 399.88326,309.29008 q -0.0725,0.84708 -0.5776,1.30243 -0.50504,0.45536 -1.28234,0.39679 -0.78391,-0.0591 -1.20499,-0.5842 -0.41779,-0.52488 -0.34526,-1.37196 0.0725,-0.84707 0.57426,-1.30267 0.50531,-0.45846 1.28921,-0.3994 0.77731,0.0586 1.19813,0.5868 0.42112,0.52514 0.34859,1.37221 z m -0.64169,-0.0483 q 0.0576,-0.67332 -0.19562,-1.0203 -0.25297,-0.35008 -0.75245,-0.38771 -0.50607,-0.0381 -0.81536,0.26959 -0.30576,0.30486 -0.36341,0.97817 -0.0558,0.65159 0.19641,1.01099 0.25248,0.35628 0.75522,0.39416 0.49614,0.0374 0.80573,-0.27343 0.31316,-0.31367 0.36948,-0.97147 z"
       inkscape:connector-curvature="0" />
    <path
       style="font-variant:normal;font-weight:normal;font-stretch:normal;font-size:medium;font-family:'Great Vibes';-inkscape-font-specification:GreatVibes-Regular;writing-mode:lr-tb;fill:#ffffff;fill-opacity:1;fill-rule:nonzero;stroke:none"
       id="path69260"
       d="m 403.24858,308.43816 -0.033,-0.002 q -0.13629,-0.0415 -0.26751,-0.0639 -0.12768,-0.0252 -0.30628,-0.0387 -0.28777,-0.0217 -0.56605,0.0791 -0.27803,0.0977 -0.54232,0.2683 l -0.21067,2.46054 -0.62182,-0.0469 0.29675,-3.46585 0.62182,0.0469 -0.0438,0.51197 q 0.39437,-0.25135 0.68537,-0.34497 0.29456,-0.0965 0.58893,-0.0743 0.16206,0.0122 0.23405,0.027 0.0722,0.0117 0.21592,0.0444 l -0.0513,0.59884 z"
       inkscape:connector-curvature="0" />
    <path
       style="font-variant:normal;font-weight:normal;font-stretch:normal;font-size:medium;font-family:'Great Vibes';-inkscape-font-specification:GreatVibes-Regular;writing-mode:lr-tb;fill:#ffffff;fill-opacity:1;fill-rule:nonzero;stroke:none"
       id="path69262"
       d="m 404.22682,311.3599 -0.62186,-0.0469 0.41338,-4.82799 0.62185,0.0469 -0.41337,4.828 z"
       inkscape:connector-curvature="0" />
    <path
       style="font-variant:normal;font-weight:normal;font-stretch:normal;font-size:medium;font-family:'Great Vibes';-inkscape-font-specification:GreatVibes-Regular;writing-mode:lr-tb;fill:#ffffff;fill-opacity:1;fill-rule:nonzero;stroke:none"
       id="path69264"
       d="m 408.43415,311.6769 -0.62185,-0.0469 0.0311,-0.36303 q -0.28652,0.19701 -0.58795,0.29608 -0.30143,0.0991 -0.64212,0.0734 -0.66153,-0.0498 -1.01092,-0.55709 -0.34608,-0.50699 -0.27356,-1.35406 0.0377,-0.44061 0.19953,-0.77505 0.1651,-0.3342 0.41404,-0.55902 0.24513,-0.21887 0.55343,-0.32055 0.31163,-0.10144 0.63248,-0.0773 0.29107,0.0219 0.51093,0.0978 0.22013,0.0728 0.45785,0.2125 l 0.12859,-1.50177 0.62185,0.0469 -0.41338,4.828 z m -0.54879,-0.90013 0.17029,-1.98891 q -0.24235,-0.12444 -0.43734,-0.17973 -0.19501,-0.0553 -0.42986,-0.073 -0.52262,-0.0394 -0.84291,0.28 -0.32029,0.31938 -0.37395,0.94615 -0.0529,0.61746 0.14441,0.9571 0.19755,0.33654 0.69372,0.37393 0.26459,0.0199 0.54512,-0.0682 0.28079,-0.0913 0.53052,-0.24733 z"
       inkscape:connector-curvature="0" />
    <path
       style="font-variant:normal;font-weight:normal;font-stretch:normal;font-size:medium;font-family:'Great Vibes';-inkscape-font-specification:GreatVibes-Regular;writing-mode:lr-tb;fill:#ffffff;fill-opacity:1;fill-rule:nonzero;stroke:none"
       id="path69237"
       d="m 391.17833,240.30732 -3.19941,-0.24105 -0.6342,7.40727 -1.19075,-0.0897 0.6342,-7.40727 -3.19938,-0.24105 0.085,-0.9929 7.58954,0.57182 -0.085,0.9929 z"
       inkscape:connector-curvature="0" />
    <path
       style="font-variant:normal;font-weight:normal;font-stretch:normal;font-size:medium;font-family:'Great Vibes';-inkscape-font-specification:GreatVibes-Regular;writing-mode:lr-tb;fill:#ffffff;fill-opacity:1;fill-rule:nonzero;stroke:none"
       id="path69239"
       d="m 395.09815,242.87948 -0.0601,-0.005 q -0.24775,-0.0755 -0.48637,-0.11614 -0.23214,-0.0459 -0.55688,-0.0704 -0.52322,-0.0394 -1.02919,0.14389 -0.50549,0.17768 -0.98598,0.48783 l -0.38303,4.4737 -1.13063,-0.0852 0.53953,-6.30154 1.13063,0.0852 -0.0797,0.93084 q 0.71704,-0.45698 1.24609,-0.6272 0.53553,-0.17542 1.07079,-0.13509 0.29467,0.0222 0.42553,0.0491 0.13135,0.0213 0.39256,0.0807 l -0.0932,1.08881 z"
       inkscape:connector-curvature="0" />
    <path
       style="font-variant:normal;font-weight:normal;font-stretch:normal;font-size:medium;font-family:'Great Vibes';-inkscape-font-specification:GreatVibes-Regular;writing-mode:lr-tb;fill:#ffffff;fill-opacity:1;fill-rule:nonzero;stroke:none"
       id="path69241"
       d="m 400.73769,248.4826 -1.12459,-0.0847 0.0575,-0.67134 q -0.15857,0.0846 -0.43213,0.23998 -0.26708,0.15022 -0.51632,0.23364 -0.29378,0.10846 -0.66785,0.16544 -0.37459,0.0626 -0.86773,0.0255 -0.90808,-0.0684 -1.49127,-0.68014 -0.58315,-0.61173 -0.50828,-1.48616 0.0613,-0.71647 0.42376,-1.13203 0.36894,-0.42076 0.99809,-0.62886 0.63515,-0.20765 1.50284,-0.23312 0.86773,-0.0255 1.85787,0.004 l 0.014,-0.1636 q 0.0309,-0.36106 -0.0871,-0.60842 -0.11202,-0.24691 -0.35302,-0.40133 -0.22944,-0.14788 -0.56236,-0.21839 -0.33292,-0.0705 -0.69975,-0.0981 -0.44502,-0.0335 -1.00197,0.0381 -0.55643,0.066 -1.15764,0.23074 l -0.0602,-0.005 0.0923,-1.07752 q 0.33803,-0.0597 0.97217,-0.11413 0.63411,-0.0544 1.24153,-0.009 0.70964,0.0535 1.2232,0.20572 0.52004,0.14706 0.88224,0.44121 0.35665,0.28805 0.51985,0.71484 0.16318,0.42677 0.11102,1.03605 l -0.36613,4.27625 z m -0.99176,-1.63614 0.15021,-1.7545 q -0.51959,-0.0108 -1.22807,-0.007 -0.70244,0.004 -1.12056,0.0802 -0.49824,0.0931 -0.82258,0.34684 -0.32389,0.24813 -0.36495,0.72766 -0.0464,0.54158 0.27875,0.84429 0.32564,0.29707 1.04129,0.35099 0.59537,0.0449 1.10687,-0.13236 0.51197,-0.18287 0.95904,-0.45579 z"
       inkscape:connector-curvature="0" />
    <path
       style="font-variant:normal;font-weight:normal;font-stretch:normal;font-size:medium;font-family:'Great Vibes';-inkscape-font-specification:GreatVibes-Regular;writing-mode:lr-tb;fill:#ffffff;fill-opacity:1;fill-rule:nonzero;stroke:none"
       id="path69243"
       d="m 409.17951,242.77644 -3.25781,6.09674 -1.13663,-0.0856 -2.16072,-6.50498 1.22683,0.0924 1.65143,5.17206 2.49215,-4.85987 1.18475,0.0893 z"
       inkscape:connector-curvature="0" />
    <path
       style="font-variant:normal;font-weight:normal;font-stretch:normal;font-size:medium;font-family:'Great Vibes';-inkscape-font-specification:GreatVibes-Regular;writing-mode:lr-tb;fill:#ffffff;fill-opacity:1;fill-rule:nonzero;stroke:none"
       id="path69245"
       d="m 415.90654,246.56509 -4.94946,-0.37291 q -0.0498,0.58107 0.0995,1.02951 0.14973,0.4428 0.45081,0.7437 0.28952,0.29436 0.70494,0.46192 0.4214,0.16802 0.93861,0.20699 0.68557,0.0516 1.39892,-0.15011 0.71982,-0.20694 1.03575,-0.43297 l 0.0601,0.005 -0.099,1.15651 q -0.59065,0.18261 -1.19907,0.29007 -0.60841,0.10747 -1.26394,0.0581 -1.67185,-0.12596 -2.53756,-1.04287 -0.86526,-0.92255 -0.73146,-2.48524 0.13234,-1.54577 1.10619,-2.38654 0.97984,-0.84031 2.44726,-0.72975 1.35914,0.1024 2.02907,0.90235 0.67597,0.80041 0.55859,2.17129 l -0.0493,0.57544 z m -1.031,-0.8953 q 0.0655,-0.83539 -0.34045,-1.32588 -0.39989,-0.49004 -1.30197,-0.558 -0.90809,-0.0684 -1.49233,0.39289 -0.57824,0.46177 -0.71416,1.20101 l 3.84891,0.28998 z"
       inkscape:connector-curvature="0" />
    <path
       style="font-variant:normal;font-weight:normal;font-stretch:normal;font-size:medium;font-family:'Great Vibes';-inkscape-font-specification:GreatVibes-Regular;writing-mode:lr-tb;fill:#ffffff;fill-opacity:1;fill-rule:nonzero;stroke:none"
       id="path69247"
       d="m 418.50279,249.82107 -1.13063,-0.0852 0.75157,-8.77816 1.13063,0.0852 -0.75157,8.77815 z"
       inkscape:connector-curvature="0" />
    <path
       inkscape:connector-curvature="0"
       id="path27565-0"
       style="fill:none;stroke:#ffffff;stroke-width:0.48109677;stroke-linecap:butt;stroke-linejoin:miter;stroke-miterlimit:10;stroke-dasharray:none;stroke-opacity:1"
       d="m 413.82377,273.3112 c -0.71014,8.29474 -8.45517,14.47911 -17.29748,13.81294 -8.84294,-0.66618 -15.43624,-7.93099 -14.72606,-16.22572 0.71014,-8.29534 8.45517,-14.47971 17.29748,-13.81354 8.84293,0.66618 15.4362,7.93039 14.72606,16.22632 z" />
    <path
       inkscape:connector-curvature="0"
       id="path27569-8"
       style="fill:none;stroke:#ffffff;stroke-width:0.48109677;stroke-linecap:butt;stroke-linejoin:miter;stroke-miterlimit:10;stroke-dasharray:none;stroke-opacity:1"
       d="m 407.04903,272.80081 c -0.71014,8.29473 -5.42166,14.70758 -10.52284,14.32338 -5.10119,-0.38419 -8.66091,-7.42053 -7.95077,-15.71526 0.71018,-8.29594 5.42101,-14.70878 10.52284,-14.32399 5.10119,0.38419 8.66091,7.41993 7.95077,15.71587 z" />
    <path
       inkscape:connector-curvature="0"
       id="path27573-8"
       style="fill:none;stroke:#ffffff;stroke-width:0.48109677;stroke-linecap:butt;stroke-linejoin:miter;stroke-miterlimit:10;stroke-dasharray:none;stroke-opacity:1"
       d="m 402.12238,272.42966 c -0.71014,8.29473 -3.21557,14.87412 -5.59596,14.69496 -2.38108,-0.17978 -3.73472,-7.04957 -3.02458,-15.3443 0.71015,-8.29594 3.21557,-14.87473 5.59597,-14.69556 2.38108,0.17917 3.73472,7.04896 3.02457,15.3449 z" />
    <path
       inkscape:connector-curvature="0"
       id="path27577-9"
       style="fill:none;stroke:#ffffff;stroke-width:0.48109677;stroke-linecap:butt;stroke-linejoin:miter;stroke-miterlimit:10;stroke-dasharray:none;stroke-opacity:1"
       d="m 397.07025,280.77021 c -8.84232,-0.66618 -15.67979,-5.08651 -15.26957,-9.87179 0.40954,-4.78589 7.91101,-8.12579 16.75333,-7.45961 8.84293,0.66617 15.67978,5.0865 15.26957,9.87239 -0.40954,4.78528 -7.91101,8.12518 -16.75333,7.45901 z" />
    <path
       inkscape:connector-curvature="0"
       id="path27581-6"
       style="fill:none;stroke:#ffffff;stroke-width:0.48109677;stroke-linecap:butt;stroke-linejoin:miter;stroke-miterlimit:10;stroke-dasharray:none;stroke-opacity:1"
       d="m 397.46595,276.14828 c -8.84293,-0.66617 -15.85666,-3.01643 -15.66566,-5.24944 0.19162,-2.23362 7.51557,-3.50404 16.35785,-2.83786 8.84297,0.66617 15.85669,3.01643 15.6657,5.25004 -0.191,2.23361 -7.51557,3.50344 -16.35789,2.83726 z" />
  </g>
</svg>
