<?xml version="1.0" encoding="UTF-8" standalone="no"?>
<!-- Created with Inkscape (http://www.inkscape.org/) -->

<svg
   xmlns:dc="http://purl.org/dc/elements/1.1/"
   xmlns:cc="http://creativecommons.org/ns#"
   xmlns:rdf="http://www.w3.org/1999/02/22-rdf-syntax-ns#"
   xmlns:svg="http://www.w3.org/2000/svg"
   xmlns="http://www.w3.org/2000/svg"
   xmlns:sodipodi="http://sodipodi.sourceforge.net/DTD/sodipodi-0.dtd"
   xmlns:inkscape="http://www.inkscape.org/namespaces/inkscape"
   width="35.077358"
   height="105.49134"
   viewBox="0 0 35.077359 105.49134"
   id="svg71378"
   version="1.1"
   inkscape:version="0.91 r13725"
   sodipodi:docname="pencil.svg">
  <defs
     id="defs71380" />
  <sodipodi:namedview
     id="base"
     pagecolor="#ffffff"
     bordercolor="#666666"
     borderopacity="1.0"
     inkscape:pageopacity="0.0"
     inkscape:pageshadow="2"
     inkscape:zoom="0.35"
     inkscape:cx="-601.74701"
     inkscape:cy="75.602837"
     inkscape:document-units="px"
     inkscape:current-layer="layer1"
     showgrid="false"
     inkscape:window-width="1920"
     inkscape:window-height="1017"
     inkscape:window-x="-8"
     inkscape:window-y="-8"
     inkscape:window-maximized="1"
     units="px"
     fit-margin-top="0"
     fit-margin-left="0"
     fit-margin-right="0"
     fit-margin-bottom="0" />
  <metadata
     id="metadata71383">
    <rdf:RDF>
      <cc:Work
         rdf:about="">
        <dc:format>image/svg+xml</dc:format>
        <dc:type
           rdf:resource="http://purl.org/dc/dcmitype/StillImage" />
        <dc:title></dc:title>
      </cc:Work>
    </rdf:RDF>
  </metadata>
  <g
     inkscape:label="Layer 1"
     inkscape:groupmode="layer"
     id="layer1"
     transform="translate(-442.46129,-502.47368)">
    <path
       inkscape:connector-curvature="0"
       id="path6144"
       style="fill:#30617d;fill-opacity:1;fill-rule:evenodd;stroke:none"
       d="m 477.53865,595.39775 -0.63348,12.56727 -6.58404,-9.09727 -22.38218,-81.47321 0,-6.5e-4 -0.83689,-3.0455 -1.05346,-3.83492 c -0.39366,-1.43238 0.1704,-3.0301 1.25346,-3.55092 l 1.64003,-0.78844 1.64038,-0.78892 c 1.08271,-0.52083 2.29074,0.2259 2.68404,1.65779 l 1.89035,6.88091 22.3814,81.47371 z" />
    <path
       inkscape:connector-curvature="0"
       id="path6148"
       style="fill:#f85a68;fill-opacity:1;fill-rule:evenodd;stroke:none"
       d="m 474.07642,592.65204 -0.63349,12.56727 -6.58403,-9.09727 -24.27214,-88.35413 c -0.39366,-1.43238 0.17039,-3.0301 1.2531,-3.55092 l 3.28076,-1.57687 c 1.08271,-0.52082 2.29039,0.22541 2.68405,1.6573 l 24.27175,88.35462 z" />
    <path
       inkscape:connector-curvature="0"
       id="path6152"
       style="fill:#c62229;fill-opacity:1;fill-rule:evenodd;stroke:none"
       d="m 474.07642,592.65204 -0.63349,12.56776 -3.09462,-11.26545 -24.86807,-90.52629 1.64038,-0.78843 c 1.08271,-0.52083 2.29039,0.2259 2.68405,1.65779 l 24.27175,88.35462 z" />
    <path
       inkscape:connector-curvature="0"
       id="path6156"
       style="fill:#ffffff;fill-opacity:1;fill-rule:evenodd;stroke:none"
       d="m 474.07642,592.65204 -0.63349,12.56727 -6.58403,-9.09727 -23.21868,-84.51921 c 2.38418,-1.79333 4.78117,-2.9169 7.21791,-3.47049 l 23.21829,84.5197 z" />
    <path
       inkscape:connector-curvature="0"
       id="path6160"
       style="fill:#d0d0d0;fill-opacity:1;fill-rule:evenodd;stroke:none"
       d="m 474.07642,592.65204 -0.63349,12.56776 -3.09462,-11.26545 -23.21456,-84.5058 c 1.2332,-0.59778 2.47354,-1.03221 3.72438,-1.31621 l 23.21829,84.5197 z" />
    <path
       inkscape:connector-curvature="0"
       id="path6164"
       style="fill:#f5e6b6;fill-opacity:1;fill-rule:evenodd;stroke:none"
       d="m 474.07642,592.65204 -0.63349,12.56727 -6.58403,-9.09727 -22.38218,-81.47321 c 2.38759,-1.84001 4.78379,-2.96159 7.21791,-3.4705 l 22.38179,81.47371 z" />
    <path
       inkscape:connector-curvature="0"
       id="path6168"
       style="fill:#ffd800;fill-opacity:1;fill-rule:evenodd;stroke:none"
       d="m 474.07642,592.65204 -0.63349,12.56776 -3.09462,-11.26545 -22.38555,-81.4891 c 1.23658,-0.60126 2.47915,-1.02527 3.73226,-1.28692 l 22.3814,81.47371 z" />
    <path
       inkscape:connector-curvature="0"
       id="path6172"
       style="fill:#f0b16c;fill-opacity:1;fill-rule:evenodd;stroke:none"
       d="m 474.07642,592.65204 -0.63349,12.56727 -6.58403,-9.09677 c 1.06881,-0.83262 2.23783,-1.56594 3.4898,-2.1677 1.25158,-0.60224 2.50352,-1.0332 3.72772,-1.3028" />
    <path
       inkscape:connector-curvature="0"
       id="path6176"
       style="fill:#c78b4c;fill-opacity:1;fill-rule:evenodd;stroke:none"
       d="m 474.07606,592.65204 -0.63309,12.56776 -3.09462,-11.26545 c 1.25193,-0.60175 2.50429,-1.03271 3.72771,-1.30231" />
    <path
       inkscape:connector-curvature="0"
       id="path6180"
       style="fill:#1e1e1e;fill-opacity:1;fill-rule:evenodd;stroke:none"
       d="m 473.65237,601.06772 -0.2094,4.15119 -2.17518,-3.00478 c 0.35313,-0.27506 0.73931,-0.51735 1.15325,-0.71645 0.4132,-0.1986 0.82678,-0.34109 1.23133,-0.42996" />
  </g>
</svg>
