<?xml version="1.0" encoding="UTF-8" standalone="no"?>
<!-- Created with Inkscape (http://www.inkscape.org/) -->

<svg
   xmlns:dc="http://purl.org/dc/elements/1.1/"
   xmlns:cc="http://creativecommons.org/ns#"
   xmlns:rdf="http://www.w3.org/1999/02/22-rdf-syntax-ns#"
   xmlns:svg="http://www.w3.org/2000/svg"
   xmlns="http://www.w3.org/2000/svg"
   xmlns:sodipodi="http://sodipodi.sourceforge.net/DTD/sodipodi-0.dtd"
   xmlns:inkscape="http://www.inkscape.org/namespaces/inkscape"
   width="81.325043"
   height="97.032074"
   viewBox="0 0 81.325044 97.032076"
   id="svg70537"
   version="1.1"
   inkscape:version="0.91 r13725"
   sodipodi:docname="phone.svg">
  <defs
     id="defs70539" />
  <sodipodi:namedview
     id="base"
     pagecolor="#ffffff"
     bordercolor="#666666"
     borderopacity="1.0"
     inkscape:pageopacity="0.0"
     inkscape:pageshadow="2"
     inkscape:zoom="0.35"
     inkscape:cx="-458.6232"
     inkscape:cy="-160.05537"
     inkscape:document-units="px"
     inkscape:current-layer="layer1"
     showgrid="false"
     inkscape:window-width="1920"
     inkscape:window-height="1017"
     inkscape:window-x="-8"
     inkscape:window-y="-8"
     inkscape:window-maximized="1"
     units="px"
     fit-margin-top="0"
     fit-margin-left="0"
     fit-margin-right="0"
     fit-margin-bottom="0" />
  <metadata
     id="metadata70542">
    <rdf:RDF>
      <cc:Work
         rdf:about="">
        <dc:format>image/svg+xml</dc:format>
        <dc:type
           rdf:resource="http://purl.org/dc/dcmitype/StillImage" />
        <dc:title></dc:title>
      </cc:Work>
    </rdf:RDF>
  </metadata>
  <g
     inkscape:label="Layer 1"
     inkscape:groupmode="layer"
     id="layer1"
     transform="translate(-299.33748,-275.27474)">
    <path
       inkscape:connector-curvature="0"
       id="path5668"
       style="fill:#30617d;fill-opacity:1;fill-rule:evenodd;stroke:none"
       d="m 349.86069,279.15919 25.42717,12.04253 c 4.82257,2.28376 6.76411,7.83152 4.31419,12.32755 l -34.7387,63.76625 c -2.44938,4.49653 -8.39883,6.3068 -13.22144,4.02251 l -25.42713,-12.04201 c -4.82261,-2.28428 -6.76411,-7.83153 -4.31422,-12.32806 l 34.7387,-63.76626 c 2.44992,-4.49602 8.3994,-6.30628 13.22143,-4.02251" />
    <path
       inkscape:connector-curvature="0"
       id="path5672"
       style="fill:#ffffff;fill-opacity:1;fill-rule:evenodd;stroke:none"
       d="m 348.35808,276.26329 25.42716,12.04253 c 4.82258,2.28377 6.76412,7.83152 4.31419,12.32755 l -34.7387,63.76625 c -2.44992,4.49653 -8.39937,6.3068 -13.22195,4.02303 l -25.42661,-12.04253 c -4.82261,-2.28428 -6.76412,-7.83153 -4.31423,-12.32806 l 34.73815,-63.76625 c 2.44993,-4.49654 8.39941,-6.30629 13.22199,-4.02252" />
    <path
       inkscape:connector-curvature="0"
       id="path5676"
       style="fill:#000000;fill-opacity:1;fill-rule:evenodd;stroke:none"
       d="m 338.18088,281.97082 36.69883,17.38086 -33.02506,60.62179 -36.69938,-17.38086 33.02561,-60.62179 z" />
    <path
       inkscape:connector-curvature="0"
       id="path5680"
       style="fill:#b3b3b3;fill-opacity:1;fill-rule:evenodd;stroke:none"
       d="m 350.42423,282.80863 16.50896,7.81875 c 0.44868,0.2125 1.002,0.0444 1.22991,-0.3739 0.2279,-0.41834 0.0471,-0.93424 -0.40157,-1.14674 l -16.50897,-7.81875 c -0.44867,-0.21249 -1.00145,-0.0439 -1.22935,0.3739 l 0,6.5e-4 c -0.2279,0.41783 -0.0471,0.93374 0.40102,1.14623" />
    <path
       inkscape:connector-curvature="0"
       id="path5684"
       style="fill:#4d4d4d;fill-opacity:1;fill-rule:evenodd;stroke:none"
       d="m 338.18088,281.97082 3.67377,78.00265 33.02506,-60.62179 -36.69883,-17.38086 z" />
    <path
       inkscape:connector-curvature="0"
       id="path5688"
       style="fill:#b3b3b3;fill-opacity:1;fill-rule:evenodd;stroke:none"
       d="m 305.87367,351.53338 27.81408,13.17292 c 0.69465,0.32946 1.55202,0.0684 1.90538,-0.57975 l 0,-6.5e-4 c 0.35335,-0.64769 0.0734,-1.44811 -0.62179,-1.77655 l -27.81356,-13.17292 c -0.69572,-0.32946 -1.55254,-0.0684 -1.90644,0.57975 l 0,0 c -0.35281,0.64821 -0.0734,1.4476 0.62233,1.77706" />
    <path
       inkscape:connector-curvature="0"
       id="path5692"
       style="fill:#ffffff;fill-opacity:1;fill-rule:evenodd;stroke:none"
       d="m 322.91808,352.31903 c 2.73259,1.29436 3.82333,4.40971 2.43457,6.95756 -1.38821,2.54836 -4.72891,3.56484 -7.46204,2.27049 -2.73259,-1.29436 -3.82278,-4.4092 -2.43457,-6.95756 1.38821,-2.54836 4.72891,-3.56484 7.46204,-2.27049" />
    <path
       inkscape:connector-curvature="0"
       id="path5696"
       style="fill:#b3b3b3;fill-opacity:1;fill-rule:evenodd;stroke:none"
       d="m 322.17603,353.68133 c 1.92618,0.91228 2.69425,3.10768 1.7158,4.90364 -0.97786,1.79596 -3.33302,2.51261 -5.2592,1.59981 -1.92563,-0.91228 -2.69425,-3.10768 -1.71636,-4.90313 0.97897,-1.79647 3.33303,-2.5126 5.25976,-1.60032" />
  </g>
</svg>
